ISO-10303-21;
HEADER;
/* Generated by software containing ST-Developer
 * from STEP Tools, Inc. (www.steptools.com) 
 */
/* OPTION: using custom renumber hook */

FILE_DESCRIPTION(
/* description */ ('STEP AP242 Edition 2',
'CAx-IF Rec.Pracs.---Representation and Presentation of Product Manufa
cturing Information (PMI)---4.0---2014-10-13',
'CAx-IF Rec.Pracs.---3D Tessellated Geometry---0.4---2014-09-14','2;1',
'CAx-IF Rec.Pracs.---User Defined Attributes---1.5---2016-08-15'),
/* implementation_level */ '2;1');

FILE_NAME(
/* name */ 'gripper - palm_up',
/* time_stamp */ '2026-02-08T09:29:49Z',
/* author */ (''),
/* organization */ (''),
/* preprocessor_version */ 'ST-DEVELOPER v20',
/* originating_system */ 'ONSHAPE BY PTC INC, 1.210',
/* authorisation */ '  ');

FILE_SCHEMA (('AP242_MANAGED_MODEL_BASED_3D_ENGINEERING_MIM_LF { 1 0 10303 442 3 1 4 }'));
ENDSEC;

DATA;
#10=SHAPE_REPRESENTATION_RELATIONSHIP('','',#1207,#11);
#11=ADVANCED_BREP_SHAPE_REPRESENTATION('',(#1205),#2043);
#12=B_SPLINE_CURVE_WITH_KNOTS('',3,(#1880,#1881,#1882,#1883,#1884,#1885),
 .UNSPECIFIED.,.F.,.F.,(4,1,1,4),(0.,0.000787179692419054,0.00157435938483811,
0.00314871876967622),.UNSPECIFIED.);
#13=B_SPLINE_CURVE_WITH_KNOTS('',3,(#1889,#1890,#1891,#1892,#1893),
 .UNSPECIFIED.,.F.,.F.,(4,1,4),(0.,0.00204871761572432,0.00409743523144863),
 .UNSPECIFIED.);
#14=B_SPLINE_CURVE_WITH_KNOTS('',3,(#1917,#1918,#1919,#1920,#1921),
 .UNSPECIFIED.,.F.,.F.,(4,1,4),(0.,0.00204871761572432,0.00409743523144863),
 .UNSPECIFIED.);
#15=B_SPLINE_CURVE_WITH_KNOTS('',3,(#1981,#1982,#1983,#1984,#1985,#1986),
 .UNSPECIFIED.,.F.,.F.,(4,1,1,4),(0.,0.000787179692419054,0.00157435938483811,
0.00314871876967622),.UNSPECIFIED.);
#16=TOROIDAL_SURFACE('',#1247,0.002,0.001);
#17=TOROIDAL_SURFACE('',#1268,0.002,0.001);
#18=TOROIDAL_SURFACE('',#1280,0.00725,0.0025);
#19=TOROIDAL_SURFACE('',#1289,0.00725,0.0025);
#20=ELLIPSE('',#1237,0.00153804109405433,0.001);
#21=ELLIPSE('',#1252,0.00141421356237309,0.001);
#22=ELLIPSE('',#1254,0.00153804109405433,0.001);
#23=ELLIPSE('',#1272,0.00141421356237309,0.001);
#24=ELLIPSE('',#1278,0.00287840340026321,0.0025);
#25=ELLIPSE('',#1302,0.00287840340026321,0.0025);
#26=PLANE('',#1224);
#27=PLANE('',#1225);
#28=PLANE('',#1229);
#29=PLANE('',#1239);
#30=PLANE('',#1246);
#31=PLANE('',#1259);
#32=PLANE('',#1263);
#33=PLANE('',#1267);
#34=PLANE('',#1284);
#35=PLANE('',#1285);
#36=PLANE('',#1287);
#37=PLANE('',#1292);
#38=PLANE('',#1304);
#39=PLANE('',#1305);
#40=PLANE('',#1307);
#41=PLANE('',#1308);
#42=PLANE('',#1310);
#43=PLANE('',#1311);
#44=PLANE('',#1312);
#45=PLANE('',#1313);
#46=PLANE('',#1315);
#47=PLANE('',#1316);
#48=PLANE('',#1318);
#49=PLANE('',#1319);
#50=PLANE('',#1320);
#51=PLANE('',#1322);
#52=PLANE('',#1323);
#53=PLANE('',#1324);
#54=PLANE('',#1325);
#55=PLANE('',#1328);
#56=LINE('',#1706,#160);
#57=LINE('',#1710,#161);
#58=LINE('',#1712,#162);
#59=LINE('',#1714,#163);
#60=LINE('',#1716,#164);
#61=LINE('',#1718,#165);
#62=LINE('',#1721,#166);
#63=LINE('',#1723,#167);
#64=LINE('',#1725,#168);
#65=LINE('',#1731,#169);
#66=LINE('',#1733,#170);
#67=LINE('',#1734,#171);
#68=LINE('',#1738,#172);
#69=LINE('',#1746,#173);
#70=LINE('',#1751,#174);
#71=LINE('',#1755,#175);
#72=LINE('',#1757,#176);
#73=LINE('',#1760,#177);
#74=LINE('',#1762,#178);
#75=LINE('',#1764,#179);
#76=LINE('',#1766,#180);
#77=LINE('',#1771,#181);
#78=LINE('',#1779,#182);
#79=LINE('',#1781,#183);
#80=LINE('',#1784,#184);
#81=LINE('',#1786,#185);
#82=LINE('',#1787,#186);
#83=LINE('',#1795,#187);
#84=LINE('',#1799,#188);
#85=LINE('',#1804,#189);
#86=LINE('',#1808,#190);
#87=LINE('',#1810,#191);
#88=LINE('',#1815,#192);
#89=LINE('',#1819,#193);
#90=LINE('',#1822,#194);
#91=LINE('',#1824,#195);
#92=LINE('',#1826,#196);
#93=LINE('',#1830,#197);
#94=LINE('',#1834,#198);
#95=LINE('',#1835,#199);
#96=LINE('',#1836,#200);
#97=LINE('',#1837,#201);
#98=LINE('',#1838,#202);
#99=LINE('',#1839,#203);
#100=LINE('',#1841,#204);
#101=LINE('',#1844,#205);
#102=LINE('',#1850,#206);
#103=LINE('',#1853,#207);
#104=LINE('',#1855,#208);
#105=LINE('',#1856,#209);
#106=LINE('',#1864,#210);
#107=LINE('',#1875,#211);
#108=LINE('',#1878,#212);
#109=LINE('',#1898,#213);
#110=LINE('',#1899,#214);
#111=LINE('',#1901,#215);
#112=LINE('',#1903,#216);
#113=LINE('',#1905,#217);
#114=LINE('',#1910,#218);
#115=LINE('',#1912,#219);
#116=LINE('',#1913,#220);
#117=LINE('',#1915,#221);
#118=LINE('',#1927,#222);
#119=LINE('',#1931,#223);
#120=LINE('',#1933,#224);
#121=LINE('',#1935,#225);
#122=LINE('',#1937,#226);
#123=LINE('',#1939,#227);
#124=LINE('',#1943,#228);
#125=LINE('',#1947,#229);
#126=LINE('',#1949,#230);
#127=LINE('',#1951,#231);
#128=LINE('',#1955,#232);
#129=LINE('',#1959,#233);
#130=LINE('',#1961,#234);
#131=LINE('',#1963,#235);
#132=LINE('',#1965,#236);
#133=LINE('',#1967,#237);
#134=LINE('',#1971,#238);
#135=LINE('',#1973,#239);
#136=LINE('',#1988,#240);
#137=LINE('',#1990,#241);
#138=LINE('',#1991,#242);
#139=LINE('',#1993,#243);
#140=LINE('',#1994,#244);
#141=LINE('',#1996,#245);
#142=LINE('',#1998,#246);
#143=LINE('',#1999,#247);
#144=LINE('',#2003,#248);
#145=LINE('',#2004,#249);
#146=LINE('',#2007,#250);
#147=LINE('',#2010,#251);
#148=LINE('',#2012,#252);
#149=LINE('',#2013,#253);
#150=LINE('',#2016,#254);
#151=LINE('',#2018,#255);
#152=LINE('',#2019,#256);
#153=LINE('',#2021,#257);
#154=LINE('',#2022,#258);
#155=LINE('',#2024,#259);
#156=LINE('',#2027,#260);
#157=LINE('',#2028,#261);
#158=LINE('',#2032,#262);
#159=LINE('',#2034,#263);
#160=VECTOR('',#1361,1.);
#161=VECTOR('',#1364,1.);
#162=VECTOR('',#1367,1.);
#163=VECTOR('',#1368,1.);
#164=VECTOR('',#1369,1.);
#165=VECTOR('',#1372,1.);
#166=VECTOR('',#1373,1.);
#167=VECTOR('',#1374,1.);
#168=VECTOR('',#1375,1.);
#169=VECTOR('',#1382,1.);
#170=VECTOR('',#1385,1.);
#171=VECTOR('',#1386,1.);
#172=VECTOR('',#1391,1.);
#173=VECTOR('',#1400,1.);
#174=VECTOR('',#1405,1.);
#175=VECTOR('',#1408,1.);
#176=VECTOR('',#1411,1.);
#177=VECTOR('',#1412,1.);
#178=VECTOR('',#1413,1.);
#179=VECTOR('',#1414,1.);
#180=VECTOR('',#1417,1.);
#181=VECTOR('',#1420,1.);
#182=VECTOR('',#1429,1.);
#183=VECTOR('',#1432,1.);
#184=VECTOR('',#1433,1.);
#185=VECTOR('',#1434,1.);
#186=VECTOR('',#1435,1.);
#187=VECTOR('',#1446,1.);
#188=VECTOR('',#1449,1.);
#189=VECTOR('',#1454,1.);
#190=VECTOR('',#1457,1.);
#191=VECTOR('',#1460,1.);
#192=VECTOR('',#1463,1.);
#193=VECTOR('',#1468,1.);
#194=VECTOR('',#1469,1.);
#195=VECTOR('',#1470,1.);
#196=VECTOR('',#1471,1.);
#197=VECTOR('',#1476,1.);
#198=VECTOR('',#1481,1.);
#199=VECTOR('',#1482,1.);
#200=VECTOR('',#1483,1.);
#201=VECTOR('',#1484,1.);
#202=VECTOR('',#1485,1.);
#203=VECTOR('',#1486,1.);
#204=VECTOR('',#1487,1.);
#205=VECTOR('',#1490,1.);
#206=VECTOR('',#1497,1.);
#207=VECTOR('',#1498,1.);
#208=VECTOR('',#1499,1.);
#209=VECTOR('',#1500,1.);
#210=VECTOR('',#1511,1.);
#211=VECTOR('',#1524,1.);
#212=VECTOR('',#1527,1.);
#213=VECTOR('',#1536,1.);
#214=VECTOR('',#1537,1.);
#215=VECTOR('',#1540,1.);
#216=VECTOR('',#1541,1.);
#217=VECTOR('',#1544,1.);
#218=VECTOR('',#1547,1.);
#219=VECTOR('',#1550,1.);
#220=VECTOR('',#1551,1.);
#221=VECTOR('',#1554,1.);
#222=VECTOR('',#1563,1.);
#223=VECTOR('',#1566,1.);
#224=VECTOR('',#1567,1.);
#225=VECTOR('',#1568,1.);
#226=VECTOR('',#1569,1.);
#227=VECTOR('',#1570,1.);
#228=VECTOR('',#1573,1.);
#229=VECTOR('',#1576,1.);
#230=VECTOR('',#1577,1.);
#231=VECTOR('',#1578,1.);
#232=VECTOR('',#1581,1.);
#233=VECTOR('',#1584,1.);
#234=VECTOR('',#1585,1.);
#235=VECTOR('',#1586,1.);
#236=VECTOR('',#1587,1.);
#237=VECTOR('',#1588,1.);
#238=VECTOR('',#1591,1.);
#239=VECTOR('',#1592,1.);
#240=VECTOR('',#1601,1.);
#241=VECTOR('',#1604,1.);
#242=VECTOR('',#1605,1.);
#243=VECTOR('',#1608,1.);
#244=VECTOR('',#1609,1.);
#245=VECTOR('',#1612,1.);
#246=VECTOR('',#1615,1.);
#247=VECTOR('',#1616,1.);
#248=VECTOR('',#1623,1.);
#249=VECTOR('',#1624,1.);
#250=VECTOR('',#1629,1.);
#251=VECTOR('',#1634,1.);
#252=VECTOR('',#1637,1.);
#253=VECTOR('',#1638,1.);
#254=VECTOR('',#1643,1.);
#255=VECTOR('',#1646,1.);
#256=VECTOR('',#1647,1.);
#257=VECTOR('',#1650,1.);
#258=VECTOR('',#1651,1.);
#259=VECTOR('',#1654,1.);
#260=VECTOR('',#1659,1.);
#261=VECTOR('',#1660,1.);
#262=VECTOR('',#1667,1.);
#263=VECTOR('',#1670,1.);
#264=ORIENTED_EDGE('',*,*,#596,.T.);
#265=ORIENTED_EDGE('',*,*,#597,.F.);
#266=ORIENTED_EDGE('',*,*,#598,.T.);
#267=ORIENTED_EDGE('',*,*,#599,.F.);
#268=ORIENTED_EDGE('',*,*,#600,.F.);
#269=ORIENTED_EDGE('',*,*,#601,.T.);
#270=ORIENTED_EDGE('',*,*,#602,.F.);
#271=ORIENTED_EDGE('',*,*,#603,.T.);
#272=ORIENTED_EDGE('',*,*,#604,.T.);
#273=ORIENTED_EDGE('',*,*,#605,.F.);
#274=ORIENTED_EDGE('',*,*,#606,.F.);
#275=ORIENTED_EDGE('',*,*,#607,.T.);
#276=ORIENTED_EDGE('',*,*,#607,.F.);
#277=ORIENTED_EDGE('',*,*,#608,.T.);
#278=ORIENTED_EDGE('',*,*,#609,.T.);
#279=ORIENTED_EDGE('',*,*,#610,.F.);
#280=ORIENTED_EDGE('',*,*,#611,.F.);
#281=ORIENTED_EDGE('',*,*,#612,.T.);
#282=ORIENTED_EDGE('',*,*,#613,.T.);
#283=ORIENTED_EDGE('',*,*,#614,.T.);
#284=ORIENTED_EDGE('',*,*,#615,.T.);
#285=ORIENTED_EDGE('',*,*,#612,.F.);
#286=ORIENTED_EDGE('',*,*,#616,.F.);
#287=ORIENTED_EDGE('',*,*,#617,.T.);
#288=ORIENTED_EDGE('',*,*,#617,.F.);
#289=ORIENTED_EDGE('',*,*,#618,.F.);
#290=ORIENTED_EDGE('',*,*,#605,.T.);
#291=ORIENTED_EDGE('',*,*,#619,.F.);
#292=ORIENTED_EDGE('',*,*,#620,.F.);
#293=ORIENTED_EDGE('',*,*,#621,.F.);
#294=ORIENTED_EDGE('',*,*,#622,.F.);
#295=ORIENTED_EDGE('',*,*,#614,.F.);
#296=ORIENTED_EDGE('',*,*,#623,.F.);
#297=ORIENTED_EDGE('',*,*,#609,.F.);
#298=ORIENTED_EDGE('',*,*,#624,.F.);
#299=ORIENTED_EDGE('',*,*,#625,.F.);
#300=ORIENTED_EDGE('',*,*,#626,.F.);
#301=ORIENTED_EDGE('',*,*,#627,.F.);
#302=ORIENTED_EDGE('',*,*,#628,.F.);
#303=ORIENTED_EDGE('',*,*,#629,.F.);
#304=ORIENTED_EDGE('',*,*,#630,.F.);
#305=ORIENTED_EDGE('',*,*,#631,.F.);
#306=ORIENTED_EDGE('',*,*,#632,.T.);
#307=ORIENTED_EDGE('',*,*,#633,.T.);
#308=ORIENTED_EDGE('',*,*,#634,.T.);
#309=ORIENTED_EDGE('',*,*,#635,.T.);
#310=ORIENTED_EDGE('',*,*,#636,.F.);
#311=ORIENTED_EDGE('',*,*,#637,.F.);
#312=ORIENTED_EDGE('',*,*,#638,.F.);
#313=ORIENTED_EDGE('',*,*,#633,.F.);
#314=ORIENTED_EDGE('',*,*,#639,.T.);
#315=ORIENTED_EDGE('',*,*,#640,.T.);
#316=ORIENTED_EDGE('',*,*,#641,.T.);
#317=ORIENTED_EDGE('',*,*,#642,.F.);
#318=ORIENTED_EDGE('',*,*,#643,.T.);
#319=ORIENTED_EDGE('',*,*,#630,.T.);
#320=ORIENTED_EDGE('',*,*,#638,.T.);
#321=ORIENTED_EDGE('',*,*,#644,.T.);
#322=ORIENTED_EDGE('',*,*,#599,.T.);
#323=ORIENTED_EDGE('',*,*,#597,.T.);
#324=ORIENTED_EDGE('',*,*,#628,.T.);
#325=ORIENTED_EDGE('',*,*,#645,.F.);
#326=ORIENTED_EDGE('',*,*,#646,.F.);
#327=ORIENTED_EDGE('',*,*,#647,.F.);
#328=ORIENTED_EDGE('',*,*,#646,.T.);
#329=ORIENTED_EDGE('',*,*,#648,.F.);
#330=ORIENTED_EDGE('',*,*,#649,.F.);
#331=ORIENTED_EDGE('',*,*,#650,.F.);
#332=ORIENTED_EDGE('',*,*,#651,.T.);
#333=ORIENTED_EDGE('',*,*,#652,.T.);
#334=ORIENTED_EDGE('',*,*,#653,.T.);
#335=ORIENTED_EDGE('',*,*,#654,.T.);
#336=ORIENTED_EDGE('',*,*,#655,.F.);
#337=ORIENTED_EDGE('',*,*,#656,.T.);
#338=ORIENTED_EDGE('',*,*,#657,.T.);
#339=ORIENTED_EDGE('',*,*,#658,.F.);
#340=ORIENTED_EDGE('',*,*,#659,.T.);
#341=ORIENTED_EDGE('',*,*,#660,.F.);
#342=ORIENTED_EDGE('',*,*,#661,.F.);
#343=ORIENTED_EDGE('',*,*,#662,.T.);
#344=ORIENTED_EDGE('',*,*,#663,.T.);
#345=ORIENTED_EDGE('',*,*,#664,.F.);
#346=ORIENTED_EDGE('',*,*,#665,.F.);
#347=ORIENTED_EDGE('',*,*,#660,.T.);
#348=ORIENTED_EDGE('',*,*,#613,.F.);
#349=ORIENTED_EDGE('',*,*,#615,.F.);
#350=ORIENTED_EDGE('',*,*,#619,.T.);
#351=ORIENTED_EDGE('',*,*,#604,.F.);
#352=ORIENTED_EDGE('',*,*,#610,.T.);
#353=ORIENTED_EDGE('',*,*,#623,.T.);
#354=ORIENTED_EDGE('',*,*,#666,.T.);
#355=ORIENTED_EDGE('',*,*,#629,.T.);
#356=ORIENTED_EDGE('',*,*,#647,.T.);
#357=ORIENTED_EDGE('',*,*,#650,.T.);
#358=ORIENTED_EDGE('',*,*,#667,.F.);
#359=ORIENTED_EDGE('',*,*,#639,.F.);
#360=ORIENTED_EDGE('',*,*,#632,.F.);
#361=ORIENTED_EDGE('',*,*,#668,.T.);
#362=ORIENTED_EDGE('',*,*,#637,.T.);
#363=ORIENTED_EDGE('',*,*,#669,.F.);
#364=ORIENTED_EDGE('',*,*,#656,.F.);
#365=ORIENTED_EDGE('',*,*,#670,.F.);
#366=ORIENTED_EDGE('',*,*,#661,.T.);
#367=ORIENTED_EDGE('',*,*,#665,.T.);
#368=ORIENTED_EDGE('',*,*,#671,.T.);
#369=ORIENTED_EDGE('',*,*,#672,.F.);
#370=ORIENTED_EDGE('',*,*,#673,.F.);
#371=ORIENTED_EDGE('',*,*,#652,.F.);
#372=ORIENTED_EDGE('',*,*,#674,.T.);
#373=ORIENTED_EDGE('',*,*,#620,.T.);
#374=ORIENTED_EDGE('',*,*,#598,.F.);
#375=ORIENTED_EDGE('',*,*,#596,.F.);
#376=ORIENTED_EDGE('',*,*,#675,.F.);
#377=ORIENTED_EDGE('',*,*,#602,.T.);
#378=ORIENTED_EDGE('',*,*,#600,.T.);
#379=ORIENTED_EDGE('',*,*,#676,.T.);
#380=ORIENTED_EDGE('',*,*,#603,.F.);
#381=ORIENTED_EDGE('',*,*,#601,.F.);
#382=ORIENTED_EDGE('',*,*,#677,.T.);
#383=ORIENTED_EDGE('',*,*,#678,.F.);
#384=ORIENTED_EDGE('',*,*,#679,.F.);
#385=ORIENTED_EDGE('',*,*,#663,.F.);
#386=ORIENTED_EDGE('',*,*,#659,.F.);
#387=ORIENTED_EDGE('',*,*,#680,.F.);
#388=ORIENTED_EDGE('',*,*,#653,.F.);
#389=ORIENTED_EDGE('',*,*,#673,.T.);
#390=ORIENTED_EDGE('',*,*,#681,.T.);
#391=ORIENTED_EDGE('',*,*,#682,.T.);
#392=ORIENTED_EDGE('',*,*,#681,.F.);
#393=ORIENTED_EDGE('',*,*,#672,.T.);
#394=ORIENTED_EDGE('',*,*,#683,.T.);
#395=ORIENTED_EDGE('',*,*,#684,.T.);
#396=ORIENTED_EDGE('',*,*,#685,.T.);
#397=ORIENTED_EDGE('',*,*,#676,.F.);
#398=ORIENTED_EDGE('',*,*,#686,.F.);
#399=ORIENTED_EDGE('',*,*,#675,.T.);
#400=ORIENTED_EDGE('',*,*,#687,.F.);
#401=ORIENTED_EDGE('',*,*,#688,.F.);
#402=ORIENTED_EDGE('',*,*,#689,.F.);
#403=ORIENTED_EDGE('',*,*,#690,.F.);
#404=ORIENTED_EDGE('',*,*,#691,.T.);
#405=ORIENTED_EDGE('',*,*,#689,.T.);
#406=ORIENTED_EDGE('',*,*,#692,.F.);
#407=ORIENTED_EDGE('',*,*,#693,.F.);
#408=ORIENTED_EDGE('',*,*,#635,.F.);
#409=ORIENTED_EDGE('',*,*,#694,.F.);
#410=ORIENTED_EDGE('',*,*,#695,.F.);
#411=ORIENTED_EDGE('',*,*,#693,.T.);
#412=ORIENTED_EDGE('',*,*,#696,.F.);
#413=ORIENTED_EDGE('',*,*,#697,.F.);
#414=ORIENTED_EDGE('',*,*,#698,.F.);
#415=ORIENTED_EDGE('',*,*,#694,.T.);
#416=ORIENTED_EDGE('',*,*,#699,.F.);
#417=ORIENTED_EDGE('',*,*,#700,.F.);
#418=ORIENTED_EDGE('',*,*,#701,.T.);
#419=ORIENTED_EDGE('',*,*,#702,.F.);
#420=ORIENTED_EDGE('',*,*,#701,.F.);
#421=ORIENTED_EDGE('',*,*,#703,.F.);
#422=ORIENTED_EDGE('',*,*,#657,.F.);
#423=ORIENTED_EDGE('',*,*,#669,.T.);
#424=ORIENTED_EDGE('',*,*,#636,.T.);
#425=ORIENTED_EDGE('',*,*,#695,.T.);
#426=ORIENTED_EDGE('',*,*,#698,.T.);
#427=ORIENTED_EDGE('',*,*,#700,.T.);
#428=ORIENTED_EDGE('',*,*,#704,.T.);
#429=ORIENTED_EDGE('',*,*,#705,.F.);
#430=ORIENTED_EDGE('',*,*,#703,.T.);
#431=ORIENTED_EDGE('',*,*,#706,.F.);
#432=ORIENTED_EDGE('',*,*,#658,.T.);
#433=ORIENTED_EDGE('',*,*,#705,.T.);
#434=ORIENTED_EDGE('',*,*,#707,.T.);
#435=ORIENTED_EDGE('',*,*,#704,.F.);
#436=ORIENTED_EDGE('',*,*,#699,.T.);
#437=ORIENTED_EDGE('',*,*,#702,.T.);
#438=ORIENTED_EDGE('',*,*,#697,.T.);
#439=ORIENTED_EDGE('',*,*,#696,.T.);
#440=ORIENTED_EDGE('',*,*,#692,.T.);
#441=ORIENTED_EDGE('',*,*,#688,.T.);
#442=ORIENTED_EDGE('',*,*,#708,.F.);
#443=ORIENTED_EDGE('',*,*,#709,.T.);
#444=ORIENTED_EDGE('',*,*,#710,.T.);
#445=ORIENTED_EDGE('',*,*,#711,.T.);
#446=ORIENTED_EDGE('',*,*,#712,.F.);
#447=ORIENTED_EDGE('',*,*,#713,.T.);
#448=ORIENTED_EDGE('',*,*,#714,.F.);
#449=ORIENTED_EDGE('',*,*,#715,.T.);
#450=ORIENTED_EDGE('',*,*,#716,.T.);
#451=ORIENTED_EDGE('',*,*,#717,.T.);
#452=ORIENTED_EDGE('',*,*,#718,.T.);
#453=ORIENTED_EDGE('',*,*,#719,.F.);
#454=ORIENTED_EDGE('',*,*,#720,.T.);
#455=ORIENTED_EDGE('',*,*,#721,.T.);
#456=ORIENTED_EDGE('',*,*,#722,.T.);
#457=ORIENTED_EDGE('',*,*,#723,.T.);
#458=ORIENTED_EDGE('',*,*,#724,.F.);
#459=ORIENTED_EDGE('',*,*,#725,.T.);
#460=ORIENTED_EDGE('',*,*,#726,.F.);
#461=ORIENTED_EDGE('',*,*,#727,.T.);
#462=ORIENTED_EDGE('',*,*,#728,.T.);
#463=ORIENTED_EDGE('',*,*,#729,.T.);
#464=ORIENTED_EDGE('',*,*,#730,.F.);
#465=ORIENTED_EDGE('',*,*,#731,.F.);
#466=ORIENTED_EDGE('',*,*,#707,.F.);
#467=ORIENTED_EDGE('',*,*,#686,.T.);
#468=ORIENTED_EDGE('',*,*,#685,.F.);
#469=ORIENTED_EDGE('',*,*,#732,.F.);
#470=ORIENTED_EDGE('',*,*,#733,.T.);
#471=ORIENTED_EDGE('',*,*,#734,.T.);
#472=ORIENTED_EDGE('',*,*,#735,.F.);
#473=ORIENTED_EDGE('',*,*,#736,.T.);
#474=ORIENTED_EDGE('',*,*,#706,.T.);
#475=ORIENTED_EDGE('',*,*,#731,.T.);
#476=ORIENTED_EDGE('',*,*,#717,.F.);
#477=ORIENTED_EDGE('',*,*,#737,.F.);
#478=ORIENTED_EDGE('',*,*,#645,.T.);
#479=ORIENTED_EDGE('',*,*,#738,.F.);
#480=ORIENTED_EDGE('',*,*,#739,.F.);
#481=ORIENTED_EDGE('',*,*,#712,.T.);
#482=ORIENTED_EDGE('',*,*,#740,.T.);
#483=ORIENTED_EDGE('',*,*,#642,.T.);
#484=ORIENTED_EDGE('',*,*,#713,.F.);
#485=ORIENTED_EDGE('',*,*,#739,.T.);
#486=ORIENTED_EDGE('',*,*,#641,.F.);
#487=ORIENTED_EDGE('',*,*,#741,.F.);
#488=ORIENTED_EDGE('',*,*,#715,.F.);
#489=ORIENTED_EDGE('',*,*,#742,.F.);
#490=ORIENTED_EDGE('',*,*,#649,.T.);
#491=ORIENTED_EDGE('',*,*,#743,.F.);
#492=ORIENTED_EDGE('',*,*,#742,.T.);
#493=ORIENTED_EDGE('',*,*,#714,.T.);
#494=ORIENTED_EDGE('',*,*,#741,.T.);
#495=ORIENTED_EDGE('',*,*,#644,.F.);
#496=ORIENTED_EDGE('',*,*,#640,.F.);
#497=ORIENTED_EDGE('',*,*,#667,.T.);
#498=ORIENTED_EDGE('',*,*,#716,.F.);
#499=ORIENTED_EDGE('',*,*,#743,.T.);
#500=ORIENTED_EDGE('',*,*,#648,.T.);
#501=ORIENTED_EDGE('',*,*,#737,.T.);
#502=ORIENTED_EDGE('',*,*,#709,.F.);
#503=ORIENTED_EDGE('',*,*,#744,.F.);
#504=ORIENTED_EDGE('',*,*,#691,.F.);
#505=ORIENTED_EDGE('',*,*,#745,.F.);
#506=ORIENTED_EDGE('',*,*,#744,.T.);
#507=ORIENTED_EDGE('',*,*,#708,.T.);
#508=ORIENTED_EDGE('',*,*,#687,.T.);
#509=ORIENTED_EDGE('',*,*,#710,.F.);
#510=ORIENTED_EDGE('',*,*,#745,.T.);
#511=ORIENTED_EDGE('',*,*,#690,.T.);
#512=ORIENTED_EDGE('',*,*,#634,.F.);
#513=ORIENTED_EDGE('',*,*,#668,.F.);
#514=ORIENTED_EDGE('',*,*,#631,.T.);
#515=ORIENTED_EDGE('',*,*,#746,.F.);
#516=ORIENTED_EDGE('',*,*,#711,.F.);
#517=ORIENTED_EDGE('',*,*,#746,.T.);
#518=ORIENTED_EDGE('',*,*,#643,.F.);
#519=ORIENTED_EDGE('',*,*,#740,.F.);
#520=ORIENTED_EDGE('',*,*,#718,.F.);
#521=ORIENTED_EDGE('',*,*,#738,.T.);
#522=ORIENTED_EDGE('',*,*,#627,.T.);
#523=ORIENTED_EDGE('',*,*,#747,.T.);
#524=ORIENTED_EDGE('',*,*,#729,.F.);
#525=ORIENTED_EDGE('',*,*,#748,.T.);
#526=ORIENTED_EDGE('',*,*,#735,.T.);
#527=ORIENTED_EDGE('',*,*,#749,.T.);
#528=ORIENTED_EDGE('',*,*,#734,.F.);
#529=ORIENTED_EDGE('',*,*,#730,.T.);
#530=ORIENTED_EDGE('',*,*,#749,.F.);
#531=ORIENTED_EDGE('',*,*,#728,.F.);
#532=ORIENTED_EDGE('',*,*,#750,.T.);
#533=ORIENTED_EDGE('',*,*,#662,.F.);
#534=ORIENTED_EDGE('',*,*,#670,.T.);
#535=ORIENTED_EDGE('',*,*,#655,.T.);
#536=ORIENTED_EDGE('',*,*,#736,.F.);
#537=ORIENTED_EDGE('',*,*,#748,.F.);
#538=ORIENTED_EDGE('',*,*,#723,.F.);
#539=ORIENTED_EDGE('',*,*,#751,.T.);
#540=ORIENTED_EDGE('',*,*,#683,.F.);
#541=ORIENTED_EDGE('',*,*,#752,.T.);
#542=ORIENTED_EDGE('',*,*,#753,.F.);
#543=ORIENTED_EDGE('',*,*,#726,.T.);
#544=ORIENTED_EDGE('',*,*,#754,.T.);
#545=ORIENTED_EDGE('',*,*,#677,.F.);
#546=ORIENTED_EDGE('',*,*,#725,.F.);
#547=ORIENTED_EDGE('',*,*,#755,.T.);
#548=ORIENTED_EDGE('',*,*,#678,.T.);
#549=ORIENTED_EDGE('',*,*,#754,.F.);
#550=ORIENTED_EDGE('',*,*,#755,.F.);
#551=ORIENTED_EDGE('',*,*,#724,.T.);
#552=ORIENTED_EDGE('',*,*,#752,.F.);
#553=ORIENTED_EDGE('',*,*,#671,.F.);
#554=ORIENTED_EDGE('',*,*,#664,.T.);
#555=ORIENTED_EDGE('',*,*,#679,.T.);
#556=ORIENTED_EDGE('',*,*,#721,.F.);
#557=ORIENTED_EDGE('',*,*,#756,.T.);
#558=ORIENTED_EDGE('',*,*,#682,.F.);
#559=ORIENTED_EDGE('',*,*,#757,.T.);
#560=ORIENTED_EDGE('',*,*,#722,.F.);
#561=ORIENTED_EDGE('',*,*,#757,.F.);
#562=ORIENTED_EDGE('',*,*,#684,.F.);
#563=ORIENTED_EDGE('',*,*,#751,.F.);
#564=ORIENTED_EDGE('',*,*,#727,.F.);
#565=ORIENTED_EDGE('',*,*,#753,.T.);
#566=ORIENTED_EDGE('',*,*,#680,.T.);
#567=ORIENTED_EDGE('',*,*,#750,.F.);
#568=ORIENTED_EDGE('',*,*,#720,.F.);
#569=ORIENTED_EDGE('',*,*,#758,.F.);
#570=ORIENTED_EDGE('',*,*,#654,.F.);
#571=ORIENTED_EDGE('',*,*,#756,.F.);
#572=ORIENTED_EDGE('',*,*,#758,.T.);
#573=ORIENTED_EDGE('',*,*,#719,.T.);
#574=ORIENTED_EDGE('',*,*,#747,.F.);
#575=ORIENTED_EDGE('',*,*,#626,.T.);
#576=ORIENTED_EDGE('',*,*,#666,.F.);
#577=ORIENTED_EDGE('',*,*,#625,.T.);
#578=ORIENTED_EDGE('',*,*,#759,.T.);
#579=ORIENTED_EDGE('',*,*,#621,.T.);
#580=ORIENTED_EDGE('',*,*,#674,.F.);
#581=ORIENTED_EDGE('',*,*,#651,.F.);
#582=ORIENTED_EDGE('',*,*,#732,.T.);
#583=ORIENTED_EDGE('',*,*,#760,.T.);
#584=ORIENTED_EDGE('',*,*,#760,.F.);
#585=ORIENTED_EDGE('',*,*,#761,.T.);
#586=ORIENTED_EDGE('',*,*,#618,.T.);
#587=ORIENTED_EDGE('',*,*,#616,.T.);
#588=ORIENTED_EDGE('',*,*,#611,.T.);
#589=ORIENTED_EDGE('',*,*,#622,.T.);
#590=ORIENTED_EDGE('',*,*,#759,.F.);
#591=ORIENTED_EDGE('',*,*,#624,.T.);
#592=ORIENTED_EDGE('',*,*,#608,.F.);
#593=ORIENTED_EDGE('',*,*,#606,.T.);
#594=ORIENTED_EDGE('',*,*,#733,.F.);
#595=ORIENTED_EDGE('',*,*,#761,.F.);
#596=EDGE_CURVE('',#762,#762,#874,.T.);
#597=EDGE_CURVE('',#763,#763,#875,.T.);
#598=EDGE_CURVE('',#764,#764,#876,.T.);
#599=EDGE_CURVE('',#765,#765,#877,.T.);
#600=EDGE_CURVE('',#766,#766,#878,.T.);
#601=EDGE_CURVE('',#767,#767,#879,.T.);
#602=EDGE_CURVE('',#768,#768,#880,.T.);
#603=EDGE_CURVE('',#769,#769,#881,.T.);
#604=EDGE_CURVE('',#770,#771,#882,.T.);
#605=EDGE_CURVE('',#772,#771,#56,.T.);
#606=EDGE_CURVE('',#773,#772,#883,.T.);
#607=EDGE_CURVE('',#773,#770,#57,.T.);
#608=EDGE_CURVE('',#773,#774,#58,.T.);
#609=EDGE_CURVE('',#774,#775,#59,.F.);
#610=EDGE_CURVE('',#770,#775,#60,.T.);
#611=EDGE_CURVE('',#776,#777,#61,.T.);
#612=EDGE_CURVE('',#776,#778,#62,.T.);
#613=EDGE_CURVE('',#778,#779,#63,.T.);
#614=EDGE_CURVE('',#779,#777,#64,.T.);
#615=EDGE_CURVE('',#780,#778,#884,.T.);
#616=EDGE_CURVE('',#781,#776,#885,.T.);
#617=EDGE_CURVE('',#781,#780,#65,.T.);
#618=EDGE_CURVE('',#772,#781,#66,.T.);
#619=EDGE_CURVE('',#780,#771,#67,.T.);
#620=EDGE_CURVE('',#782,#779,#886,.T.);
#621=EDGE_CURVE('',#783,#782,#68,.F.);
#622=EDGE_CURVE('',#777,#783,#887,.F.);
#623=EDGE_CURVE('',#775,#784,#888,.T.);
#624=EDGE_CURVE('',#785,#774,#889,.F.);
#625=EDGE_CURVE('',#784,#785,#69,.T.);
#626=EDGE_CURVE('',#786,#787,#20,.T.);
#627=EDGE_CURVE('',#788,#786,#70,.F.);
#628=EDGE_CURVE('',#789,#788,#890,.T.);
#629=EDGE_CURVE('',#787,#789,#71,.T.);
#630=EDGE_CURVE('',#790,#791,#72,.T.);
#631=EDGE_CURVE('',#792,#790,#73,.T.);
#632=EDGE_CURVE('',#792,#793,#74,.T.);
#633=EDGE_CURVE('',#793,#791,#75,.T.);
#634=EDGE_CURVE('',#794,#795,#76,.T.);
#635=EDGE_CURVE('',#795,#796,#891,.T.);
#636=EDGE_CURVE('',#797,#796,#77,.T.);
#637=EDGE_CURVE('',#794,#797,#892,.T.);
#638=EDGE_CURVE('',#791,#798,#893,.T.);
#639=EDGE_CURVE('',#793,#799,#894,.T.);
#640=EDGE_CURVE('',#799,#798,#78,.T.);
#641=EDGE_CURVE('',#800,#801,#79,.T.);
#642=EDGE_CURVE('',#802,#801,#80,.T.);
#643=EDGE_CURVE('',#802,#790,#81,.T.);
#644=EDGE_CURVE('',#798,#800,#82,.T.);
#645=EDGE_CURVE('',#803,#788,#895,.F.);
#646=EDGE_CURVE('',#804,#803,#896,.T.);
#647=EDGE_CURVE('',#789,#804,#897,.T.);
#648=EDGE_CURVE('',#805,#803,#83,.F.);
#649=EDGE_CURVE('',#806,#805,#21,.T.);
#650=EDGE_CURVE('',#804,#806,#84,.T.);
#651=EDGE_CURVE('',#807,#808,#22,.T.);
#652=EDGE_CURVE('',#808,#809,#85,.T.);
#653=EDGE_CURVE('',#809,#810,#898,.T.);
#654=EDGE_CURVE('',#810,#807,#86,.F.);
#655=EDGE_CURVE('',#811,#812,#87,.T.);
#656=EDGE_CURVE('',#811,#813,#899,.T.);
#657=EDGE_CURVE('',#813,#814,#88,.T.);
#658=EDGE_CURVE('',#812,#814,#900,.T.);
#659=EDGE_CURVE('',#815,#816,#89,.T.);
#660=EDGE_CURVE('',#817,#816,#90,.T.);
#661=EDGE_CURVE('',#818,#817,#91,.T.);
#662=EDGE_CURVE('',#818,#815,#92,.T.);
#663=EDGE_CURVE('',#816,#819,#901,.T.);
#664=EDGE_CURVE('',#820,#819,#93,.T.);
#665=EDGE_CURVE('',#817,#820,#902,.T.);
#666=EDGE_CURVE('',#784,#787,#94,.T.);
#667=EDGE_CURVE('',#799,#806,#95,.T.);
#668=EDGE_CURVE('',#792,#794,#96,.T.);
#669=EDGE_CURVE('',#813,#797,#97,.T.);
#670=EDGE_CURVE('',#818,#811,#98,.T.);
#671=EDGE_CURVE('',#820,#821,#99,.T.);
#672=EDGE_CURVE('',#822,#821,#100,.T.);
#673=EDGE_CURVE('',#809,#822,#903,.T.);
#674=EDGE_CURVE('',#808,#782,#101,.T.);
#675=EDGE_CURVE('',#823,#823,#904,.T.);
#676=EDGE_CURVE('',#824,#824,#905,.T.);
#677=EDGE_CURVE('',#825,#826,#102,.T.);
#678=EDGE_CURVE('',#827,#826,#103,.T.);
#679=EDGE_CURVE('',#819,#827,#104,.T.);
#680=EDGE_CURVE('',#825,#815,#105,.T.);
#681=EDGE_CURVE('',#822,#828,#906,.T.);
#682=EDGE_CURVE('',#828,#810,#907,.F.);
#683=EDGE_CURVE('',#821,#829,#23,.T.);
#684=EDGE_CURVE('',#829,#828,#106,.F.);
#685=EDGE_CURVE('',#830,#830,#908,.T.);
#686=EDGE_CURVE('',#831,#831,#909,.T.);
#687=EDGE_CURVE('',#832,#833,#24,.T.);
#688=EDGE_CURVE('',#834,#832,#107,.F.);
#689=EDGE_CURVE('',#795,#834,#910,.T.);
#690=EDGE_CURVE('',#835,#795,#108,.T.);
#691=EDGE_CURVE('',#835,#833,#12,.F.);
#692=EDGE_CURVE('',#836,#834,#911,.F.);
#693=EDGE_CURVE('',#796,#836,#13,.T.);
#694=EDGE_CURVE('',#837,#838,#912,.F.);
#695=EDGE_CURVE('',#796,#837,#109,.F.);
#696=EDGE_CURVE('',#838,#836,#110,.T.);
#697=EDGE_CURVE('',#839,#838,#111,.T.);
#698=EDGE_CURVE('',#837,#839,#112,.T.);
#699=EDGE_CURVE('',#840,#841,#113,.T.);
#700=EDGE_CURVE('',#842,#840,#913,.F.);
#701=EDGE_CURVE('',#842,#841,#114,.T.);
#702=EDGE_CURVE('',#841,#839,#115,.T.);
#703=EDGE_CURVE('',#814,#842,#116,.F.);
#704=EDGE_CURVE('',#840,#843,#117,.T.);
#705=EDGE_CURVE('',#814,#843,#14,.T.);
#706=EDGE_CURVE('',#812,#844,#914,.T.);
#707=EDGE_CURVE('',#843,#844,#915,.F.);
#708=EDGE_CURVE('',#845,#832,#118,.T.);
#709=EDGE_CURVE('',#845,#846,#916,.F.);
#710=EDGE_CURVE('',#846,#847,#119,.T.);
#711=EDGE_CURVE('',#847,#848,#120,.T.);
#712=EDGE_CURVE('',#849,#848,#121,.T.);
#713=EDGE_CURVE('',#849,#850,#122,.T.);
#714=EDGE_CURVE('',#851,#850,#123,.T.);
#715=EDGE_CURVE('',#851,#852,#917,.F.);
#716=EDGE_CURVE('',#852,#853,#124,.T.);
#717=EDGE_CURVE('',#853,#854,#918,.F.);
#718=EDGE_CURVE('',#854,#855,#125,.T.);
#719=EDGE_CURVE('',#856,#855,#126,.T.);
#720=EDGE_CURVE('',#856,#857,#127,.T.);
#721=EDGE_CURVE('',#857,#858,#919,.F.);
#722=EDGE_CURVE('',#858,#859,#128,.T.);
#723=EDGE_CURVE('',#859,#860,#920,.F.);
#724=EDGE_CURVE('',#861,#860,#129,.T.);
#725=EDGE_CURVE('',#861,#862,#130,.T.);
#726=EDGE_CURVE('',#863,#862,#131,.T.);
#727=EDGE_CURVE('',#863,#864,#132,.T.);
#728=EDGE_CURVE('',#864,#865,#133,.T.);
#729=EDGE_CURVE('',#865,#866,#921,.F.);
#730=EDGE_CURVE('',#867,#866,#134,.T.);
#731=EDGE_CURVE('',#844,#867,#135,.F.);
#732=EDGE_CURVE('',#868,#868,#922,.F.);
#733=EDGE_CURVE('',#869,#869,#923,.T.);
#734=EDGE_CURVE('',#867,#870,#25,.T.);
#735=EDGE_CURVE('',#871,#870,#15,.F.);
#736=EDGE_CURVE('',#871,#812,#136,.T.);
#737=EDGE_CURVE('',#803,#853,#137,.F.);
#738=EDGE_CURVE('',#854,#788,#138,.T.);
#739=EDGE_CURVE('',#849,#801,#139,.T.);
#740=EDGE_CURVE('',#848,#802,#140,.T.);
#741=EDGE_CURVE('',#850,#800,#141,.T.);
#742=EDGE_CURVE('',#806,#851,#142,.F.);
#743=EDGE_CURVE('',#852,#805,#143,.T.);
#744=EDGE_CURVE('',#833,#845,#144,.T.);
#745=EDGE_CURVE('',#846,#835,#145,.F.);
#746=EDGE_CURVE('',#847,#790,#146,.T.);
#747=EDGE_CURVE('',#786,#855,#147,.T.);
#748=EDGE_CURVE('',#865,#871,#148,.F.);
#749=EDGE_CURVE('',#870,#866,#149,.T.);
#750=EDGE_CURVE('',#864,#815,#150,.T.);
#751=EDGE_CURVE('',#859,#829,#151,.T.);
#752=EDGE_CURVE('',#821,#860,#152,.F.);
#753=EDGE_CURVE('',#863,#825,#153,.T.);
#754=EDGE_CURVE('',#862,#826,#154,.T.);
#755=EDGE_CURVE('',#861,#827,#155,.T.);
#756=EDGE_CURVE('',#857,#810,#156,.T.);
#757=EDGE_CURVE('',#828,#858,#157,.F.);
#758=EDGE_CURVE('',#807,#856,#158,.T.);
#759=EDGE_CURVE('',#785,#783,#159,.T.);
#760=EDGE_CURVE('',#872,#872,#924,.T.);
#761=EDGE_CURVE('',#873,#873,#925,.T.);
#762=VERTEX_POINT('',#1684);
#763=VERTEX_POINT('',#1686);
#764=VERTEX_POINT('',#1689);
#765=VERTEX_POINT('',#1691);
#766=VERTEX_POINT('',#1694);
#767=VERTEX_POINT('',#1696);
#768=VERTEX_POINT('',#1699);
#769=VERTEX_POINT('',#1701);
#770=VERTEX_POINT('',#1704);
#771=VERTEX_POINT('',#1705);
#772=VERTEX_POINT('',#1707);
#773=VERTEX_POINT('',#1709);
#774=VERTEX_POINT('',#1713);
#775=VERTEX_POINT('',#1715);
#776=VERTEX_POINT('',#1719);
#777=VERTEX_POINT('',#1720);
#778=VERTEX_POINT('',#1722);
#779=VERTEX_POINT('',#1724);
#780=VERTEX_POINT('',#1728);
#781=VERTEX_POINT('',#1730);
#782=VERTEX_POINT('',#1737);
#783=VERTEX_POINT('',#1739);
#784=VERTEX_POINT('',#1743);
#785=VERTEX_POINT('',#1745);
#786=VERTEX_POINT('',#1749);
#787=VERTEX_POINT('',#1750);
#788=VERTEX_POINT('',#1752);
#789=VERTEX_POINT('',#1754);
#790=VERTEX_POINT('',#1758);
#791=VERTEX_POINT('',#1759);
#792=VERTEX_POINT('',#1761);
#793=VERTEX_POINT('',#1763);
#794=VERTEX_POINT('',#1767);
#795=VERTEX_POINT('',#1768);
#796=VERTEX_POINT('',#1770);
#797=VERTEX_POINT('',#1772);
#798=VERTEX_POINT('',#1776);
#799=VERTEX_POINT('',#1778);
#800=VERTEX_POINT('',#1782);
#801=VERTEX_POINT('',#1783);
#802=VERTEX_POINT('',#1785);
#803=VERTEX_POINT('',#1790);
#804=VERTEX_POINT('',#1792);
#805=VERTEX_POINT('',#1796);
#806=VERTEX_POINT('',#1798);
#807=VERTEX_POINT('',#1802);
#808=VERTEX_POINT('',#1803);
#809=VERTEX_POINT('',#1805);
#810=VERTEX_POINT('',#1807);
#811=VERTEX_POINT('',#1811);
#812=VERTEX_POINT('',#1812);
#813=VERTEX_POINT('',#1814);
#814=VERTEX_POINT('',#1816);
#815=VERTEX_POINT('',#1820);
#816=VERTEX_POINT('',#1821);
#817=VERTEX_POINT('',#1823);
#818=VERTEX_POINT('',#1825);
#819=VERTEX_POINT('',#1829);
#820=VERTEX_POINT('',#1831);
#821=VERTEX_POINT('',#1840);
#822=VERTEX_POINT('',#1842);
#823=VERTEX_POINT('',#1846);
#824=VERTEX_POINT('',#1848);
#825=VERTEX_POINT('',#1851);
#826=VERTEX_POINT('',#1852);
#827=VERTEX_POINT('',#1854);
#828=VERTEX_POINT('',#1859);
#829=VERTEX_POINT('',#1863);
#830=VERTEX_POINT('',#1867);
#831=VERTEX_POINT('',#1870);
#832=VERTEX_POINT('',#1873);
#833=VERTEX_POINT('',#1874);
#834=VERTEX_POINT('',#1876);
#835=VERTEX_POINT('',#1879);
#836=VERTEX_POINT('',#1888);
#837=VERTEX_POINT('',#1896);
#838=VERTEX_POINT('',#1897);
#839=VERTEX_POINT('',#1902);
#840=VERTEX_POINT('',#1906);
#841=VERTEX_POINT('',#1907);
#842=VERTEX_POINT('',#1909);
#843=VERTEX_POINT('',#1916);
#844=VERTEX_POINT('',#1924);
#845=VERTEX_POINT('',#1928);
#846=VERTEX_POINT('',#1930);
#847=VERTEX_POINT('',#1932);
#848=VERTEX_POINT('',#1934);
#849=VERTEX_POINT('',#1936);
#850=VERTEX_POINT('',#1938);
#851=VERTEX_POINT('',#1940);
#852=VERTEX_POINT('',#1942);
#853=VERTEX_POINT('',#1944);
#854=VERTEX_POINT('',#1946);
#855=VERTEX_POINT('',#1948);
#856=VERTEX_POINT('',#1950);
#857=VERTEX_POINT('',#1952);
#858=VERTEX_POINT('',#1954);
#859=VERTEX_POINT('',#1956);
#860=VERTEX_POINT('',#1958);
#861=VERTEX_POINT('',#1960);
#862=VERTEX_POINT('',#1962);
#863=VERTEX_POINT('',#1964);
#864=VERTEX_POINT('',#1966);
#865=VERTEX_POINT('',#1968);
#866=VERTEX_POINT('',#1970);
#867=VERTEX_POINT('',#1972);
#868=VERTEX_POINT('',#1975);
#869=VERTEX_POINT('',#1977);
#870=VERTEX_POINT('',#1980);
#871=VERTEX_POINT('',#1987);
#872=VERTEX_POINT('',#2037);
#873=VERTEX_POINT('',#2040);
#874=CIRCLE('',#1210,0.0012);
#875=CIRCLE('',#1211,0.0012);
#876=CIRCLE('',#1213,0.0012);
#877=CIRCLE('',#1214,0.0012);
#878=CIRCLE('',#1216,0.0012);
#879=CIRCLE('',#1217,0.0012);
#880=CIRCLE('',#1219,0.0012);
#881=CIRCLE('',#1220,0.0012);
#882=CIRCLE('',#1222,0.005);
#883=CIRCLE('',#1223,0.005);
#884=CIRCLE('',#1227,0.005);
#885=CIRCLE('',#1228,0.005);
#886=CIRCLE('',#1231,0.003);
#887=CIRCLE('',#1232,0.003);
#888=CIRCLE('',#1234,0.003);
#889=CIRCLE('',#1235,0.003);
#890=CIRCLE('',#1238,0.001);
#891=CIRCLE('',#1241,0.00975);
#892=CIRCLE('',#1242,0.00975);
#893=CIRCLE('',#1244,0.00960441367831578);
#894=CIRCLE('',#1245,0.00960441367831578);
#895=CIRCLE('',#1248,0.003);
#896=CIRCLE('',#1249,0.001);
#897=CIRCLE('',#1250,0.002);
#898=CIRCLE('',#1255,0.001);
#899=CIRCLE('',#1257,0.00975);
#900=CIRCLE('',#1258,0.00975);
#901=CIRCLE('',#1261,0.00960441367831578);
#902=CIRCLE('',#1262,0.00960441367831578);
#903=CIRCLE('',#1264,0.002);
#904=CIRCLE('',#1265,0.00165);
#905=CIRCLE('',#1266,0.00165);
#906=CIRCLE('',#1269,0.001);
#907=CIRCLE('',#1270,0.003);
#908=CIRCLE('',#1274,0.00165);
#909=CIRCLE('',#1276,0.00165);
#910=CIRCLE('',#1279,0.0025);
#911=CIRCLE('',#1281,0.00725);
#912=CIRCLE('',#1283,0.0025);
#913=CIRCLE('',#1286,0.0025);
#914=CIRCLE('',#1290,0.0025);
#915=CIRCLE('',#1291,0.00725);
#916=CIRCLE('',#1293,0.001);
#917=CIRCLE('',#1294,0.001);
#918=CIRCLE('',#1295,0.003);
#919=CIRCLE('',#1296,0.003);
#920=CIRCLE('',#1297,0.001);
#921=CIRCLE('',#1298,0.001);
#922=CIRCLE('',#1299,0.00165);
#923=CIRCLE('',#1300,0.00165);
#924=CIRCLE('',#1327,0.00165);
#925=CIRCLE('',#1329,0.00165);
#926=EDGE_LOOP('',(#264));
#927=EDGE_LOOP('',(#265));
#928=EDGE_LOOP('',(#266));
#929=EDGE_LOOP('',(#267));
#930=EDGE_LOOP('',(#268));
#931=EDGE_LOOP('',(#269));
#932=EDGE_LOOP('',(#270));
#933=EDGE_LOOP('',(#271));
#934=EDGE_LOOP('',(#272,#273,#274,#275));
#935=EDGE_LOOP('',(#276,#277,#278,#279));
#936=EDGE_LOOP('',(#280,#281,#282,#283));
#937=EDGE_LOOP('',(#284,#285,#286,#287));
#938=EDGE_LOOP('',(#288,#289,#290,#291));
#939=EDGE_LOOP('',(#292,#293,#294,#295));
#940=EDGE_LOOP('',(#296,#297,#298,#299));
#941=EDGE_LOOP('',(#300,#301,#302,#303));
#942=EDGE_LOOP('',(#304,#305,#306,#307));
#943=EDGE_LOOP('',(#308,#309,#310,#311));
#944=EDGE_LOOP('',(#312,#313,#314,#315));
#945=EDGE_LOOP('',(#316,#317,#318,#319,#320,#321));
#946=EDGE_LOOP('',(#322));
#947=EDGE_LOOP('',(#323));
#948=EDGE_LOOP('',(#324,#325,#326,#327));
#949=EDGE_LOOP('',(#328,#329,#330,#331));
#950=EDGE_LOOP('',(#332,#333,#334,#335));
#951=EDGE_LOOP('',(#336,#337,#338,#339));
#952=EDGE_LOOP('',(#340,#341,#342,#343));
#953=EDGE_LOOP('',(#344,#345,#346,#347));
#954=EDGE_LOOP('',(#348,#349,#350,#351,#352,#353,#354,#355,#356,#357,#358,
#359,#360,#361,#362,#363,#364,#365,#366,#367,#368,#369,#370,#371,#372,#373));
#955=EDGE_LOOP('',(#374));
#956=EDGE_LOOP('',(#375));
#957=EDGE_LOOP('',(#376));
#958=EDGE_LOOP('',(#377));
#959=EDGE_LOOP('',(#378));
#960=EDGE_LOOP('',(#379));
#961=EDGE_LOOP('',(#380));
#962=EDGE_LOOP('',(#381));
#963=EDGE_LOOP('',(#382,#383,#384,#385,#386,#387));
#964=EDGE_LOOP('',(#388,#389,#390,#391));
#965=EDGE_LOOP('',(#392,#393,#394,#395));
#966=EDGE_LOOP('',(#396));
#967=EDGE_LOOP('',(#397));
#968=EDGE_LOOP('',(#398));
#969=EDGE_LOOP('',(#399));
#970=EDGE_LOOP('',(#400,#401,#402,#403,#404));
#971=EDGE_LOOP('',(#405,#406,#407,#408));
#972=EDGE_LOOP('',(#409,#410,#411,#412));
#973=EDGE_LOOP('',(#413,#414,#415));
#974=EDGE_LOOP('',(#416,#417,#418));
#975=EDGE_LOOP('',(#419,#420,#421,#422,#423,#424,#425,#426));
#976=EDGE_LOOP('',(#427,#428,#429,#430));
#977=EDGE_LOOP('',(#431,#432,#433,#434));
#978=EDGE_LOOP('',(#435,#436,#437,#438,#439,#440,#441,#442,#443,#444,#445,
#446,#447,#448,#449,#450,#451,#452,#453,#454,#455,#456,#457,#458,#459,#460,
#461,#462,#463,#464,#465,#466));
#979=EDGE_LOOP('',(#467));
#980=EDGE_LOOP('',(#468));
#981=EDGE_LOOP('',(#469));
#982=EDGE_LOOP('',(#470));
#983=EDGE_LOOP('',(#471,#472,#473,#474,#475));
#984=EDGE_LOOP('',(#476,#477,#478,#479));
#985=EDGE_LOOP('',(#480,#481,#482,#483));
#986=EDGE_LOOP('',(#484,#485,#486,#487));
#987=EDGE_LOOP('',(#488,#489,#490,#491));
#988=EDGE_LOOP('',(#492,#493,#494,#495,#496,#497));
#989=EDGE_LOOP('',(#498,#499,#500,#501));
#990=EDGE_LOOP('',(#502,#503,#504,#505));
#991=EDGE_LOOP('',(#506,#507,#508));
#992=EDGE_LOOP('',(#509,#510,#511,#512,#513,#514,#515));
#993=EDGE_LOOP('',(#516,#517,#518,#519));
#994=EDGE_LOOP('',(#520,#521,#522,#523));
#995=EDGE_LOOP('',(#524,#525,#526,#527));
#996=EDGE_LOOP('',(#528,#529,#530));
#997=EDGE_LOOP('',(#531,#532,#533,#534,#535,#536,#537));
#998=EDGE_LOOP('',(#538,#539,#540,#541));
#999=EDGE_LOOP('',(#542,#543,#544,#545));
#1000=EDGE_LOOP('',(#546,#547,#548,#549));
#1001=EDGE_LOOP('',(#550,#551,#552,#553,#554,#555));
#1002=EDGE_LOOP('',(#556,#557,#558,#559));
#1003=EDGE_LOOP('',(#560,#561,#562,#563));
#1004=EDGE_LOOP('',(#564,#565,#566,#567));
#1005=EDGE_LOOP('',(#568,#569,#570,#571));
#1006=EDGE_LOOP('',(#572,#573,#574,#575,#576,#577,#578,#579,#580,#581));
#1007=EDGE_LOOP('',(#582));
#1008=EDGE_LOOP('',(#583));
#1009=EDGE_LOOP('',(#584));
#1010=EDGE_LOOP('',(#585));
#1011=EDGE_LOOP('',(#586,#587,#588,#589,#590,#591,#592,#593));
#1012=EDGE_LOOP('',(#594));
#1013=EDGE_LOOP('',(#595));
#1014=FACE_BOUND('',#926,.T.);
#1015=FACE_BOUND('',#927,.T.);
#1016=FACE_BOUND('',#928,.T.);
#1017=FACE_BOUND('',#929,.T.);
#1018=FACE_BOUND('',#930,.T.);
#1019=FACE_BOUND('',#931,.T.);
#1020=FACE_BOUND('',#932,.T.);
#1021=FACE_BOUND('',#933,.T.);
#1022=FACE_BOUND('',#934,.T.);
#1023=FACE_BOUND('',#935,.T.);
#1024=FACE_BOUND('',#936,.T.);
#1025=FACE_BOUND('',#937,.T.);
#1026=FACE_BOUND('',#938,.T.);
#1027=FACE_BOUND('',#939,.T.);
#1028=FACE_BOUND('',#940,.T.);
#1029=FACE_BOUND('',#941,.T.);
#1030=FACE_BOUND('',#942,.T.);
#1031=FACE_BOUND('',#943,.T.);
#1032=FACE_BOUND('',#944,.T.);
#1033=FACE_BOUND('',#945,.T.);
#1034=FACE_BOUND('',#946,.T.);
#1035=FACE_BOUND('',#947,.T.);
#1036=FACE_BOUND('',#948,.T.);
#1037=FACE_BOUND('',#949,.T.);
#1038=FACE_BOUND('',#950,.T.);
#1039=FACE_BOUND('',#951,.T.);
#1040=FACE_BOUND('',#952,.T.);
#1041=FACE_BOUND('',#953,.T.);
#1042=FACE_BOUND('',#954,.T.);
#1043=FACE_BOUND('',#955,.T.);
#1044=FACE_BOUND('',#956,.T.);
#1045=FACE_BOUND('',#957,.T.);
#1046=FACE_BOUND('',#958,.T.);
#1047=FACE_BOUND('',#959,.T.);
#1048=FACE_BOUND('',#960,.T.);
#1049=FACE_BOUND('',#961,.T.);
#1050=FACE_BOUND('',#962,.T.);
#1051=FACE_BOUND('',#963,.T.);
#1052=FACE_BOUND('',#964,.T.);
#1053=FACE_BOUND('',#965,.T.);
#1054=FACE_BOUND('',#966,.T.);
#1055=FACE_BOUND('',#967,.T.);
#1056=FACE_BOUND('',#968,.T.);
#1057=FACE_BOUND('',#969,.T.);
#1058=FACE_BOUND('',#970,.T.);
#1059=FACE_BOUND('',#971,.T.);
#1060=FACE_BOUND('',#972,.T.);
#1061=FACE_BOUND('',#973,.T.);
#1062=FACE_BOUND('',#974,.T.);
#1063=FACE_BOUND('',#975,.T.);
#1064=FACE_BOUND('',#976,.T.);
#1065=FACE_BOUND('',#977,.T.);
#1066=FACE_BOUND('',#978,.T.);
#1067=FACE_BOUND('',#979,.T.);
#1068=FACE_BOUND('',#980,.T.);
#1069=FACE_BOUND('',#981,.T.);
#1070=FACE_BOUND('',#982,.T.);
#1071=FACE_BOUND('',#983,.T.);
#1072=FACE_BOUND('',#984,.T.);
#1073=FACE_BOUND('',#985,.T.);
#1074=FACE_BOUND('',#986,.T.);
#1075=FACE_BOUND('',#987,.T.);
#1076=FACE_BOUND('',#988,.T.);
#1077=FACE_BOUND('',#989,.T.);
#1078=FACE_BOUND('',#990,.T.);
#1079=FACE_BOUND('',#991,.T.);
#1080=FACE_BOUND('',#992,.T.);
#1081=FACE_BOUND('',#993,.T.);
#1082=FACE_BOUND('',#994,.T.);
#1083=FACE_BOUND('',#995,.T.);
#1084=FACE_BOUND('',#996,.T.);
#1085=FACE_BOUND('',#997,.T.);
#1086=FACE_BOUND('',#998,.T.);
#1087=FACE_BOUND('',#999,.T.);
#1088=FACE_BOUND('',#1000,.T.);
#1089=FACE_BOUND('',#1001,.T.);
#1090=FACE_BOUND('',#1002,.T.);
#1091=FACE_BOUND('',#1003,.T.);
#1092=FACE_BOUND('',#1004,.T.);
#1093=FACE_BOUND('',#1005,.T.);
#1094=FACE_BOUND('',#1006,.T.);
#1095=FACE_BOUND('',#1007,.T.);
#1096=FACE_BOUND('',#1008,.T.);
#1097=FACE_BOUND('',#1009,.T.);
#1098=FACE_BOUND('',#1010,.T.);
#1099=FACE_BOUND('',#1011,.T.);
#1100=FACE_BOUND('',#1012,.T.);
#1101=FACE_BOUND('',#1013,.T.);
#1102=CYLINDRICAL_SURFACE('',#1209,0.0012);
#1103=CYLINDRICAL_SURFACE('',#1212,0.0012);
#1104=CYLINDRICAL_SURFACE('',#1215,0.0012);
#1105=CYLINDRICAL_SURFACE('',#1218,0.0012);
#1106=CYLINDRICAL_SURFACE('',#1221,0.005);
#1107=CYLINDRICAL_SURFACE('',#1226,0.005);
#1108=CYLINDRICAL_SURFACE('',#1230,0.003);
#1109=CYLINDRICAL_SURFACE('',#1233,0.003);
#1110=CYLINDRICAL_SURFACE('',#1236,0.001);
#1111=CYLINDRICAL_SURFACE('',#1240,0.00975);
#1112=CYLINDRICAL_SURFACE('',#1243,0.00960441367831578);
#1113=CYLINDRICAL_SURFACE('',#1251,0.001);
#1114=CYLINDRICAL_SURFACE('',#1253,0.001);
#1115=CYLINDRICAL_SURFACE('',#1256,0.00975);
#1116=CYLINDRICAL_SURFACE('',#1260,0.00960441367831578);
#1117=CYLINDRICAL_SURFACE('',#1271,0.001);
#1118=CYLINDRICAL_SURFACE('',#1273,0.00165);
#1119=CYLINDRICAL_SURFACE('',#1275,0.00165);
#1120=CYLINDRICAL_SURFACE('',#1277,0.0025);
#1121=CYLINDRICAL_SURFACE('',#1282,0.0025);
#1122=CYLINDRICAL_SURFACE('',#1288,0.0025);
#1123=CYLINDRICAL_SURFACE('',#1301,0.0025);
#1124=CYLINDRICAL_SURFACE('',#1303,0.003);
#1125=CYLINDRICAL_SURFACE('',#1306,0.001);
#1126=CYLINDRICAL_SURFACE('',#1309,0.001);
#1127=CYLINDRICAL_SURFACE('',#1314,0.001);
#1128=CYLINDRICAL_SURFACE('',#1317,0.001);
#1129=CYLINDRICAL_SURFACE('',#1321,0.003);
#1130=CYLINDRICAL_SURFACE('',#1326,0.00165);
#1131=CYLINDRICAL_SURFACE('',#1330,0.00165);
#1132=ADVANCED_FACE('',(#1014,#1015),#1102,.F.);
#1133=ADVANCED_FACE('',(#1016,#1017),#1103,.F.);
#1134=ADVANCED_FACE('',(#1018,#1019),#1104,.F.);
#1135=ADVANCED_FACE('',(#1020,#1021),#1105,.F.);
#1136=ADVANCED_FACE('',(#1022),#1106,.F.);
#1137=ADVANCED_FACE('',(#1023),#26,.T.);
#1138=ADVANCED_FACE('',(#1024),#27,.F.);
#1139=ADVANCED_FACE('',(#1025),#1107,.F.);
#1140=ADVANCED_FACE('',(#1026),#28,.T.);
#1141=ADVANCED_FACE('',(#1027),#1108,.T.);
#1142=ADVANCED_FACE('',(#1028),#1109,.T.);
#1143=ADVANCED_FACE('',(#1029),#1110,.T.);
#1144=ADVANCED_FACE('',(#1030),#29,.T.);
#1145=ADVANCED_FACE('',(#1031),#1111,.T.);
#1146=ADVANCED_FACE('',(#1032),#1112,.F.);
#1147=ADVANCED_FACE('',(#1033,#1034,#1035),#30,.F.);
#1148=ADVANCED_FACE('',(#1036),#16,.T.);
#1149=ADVANCED_FACE('',(#1037),#1113,.T.);
#1150=ADVANCED_FACE('',(#1038),#1114,.T.);
#1151=ADVANCED_FACE('',(#1039),#1115,.T.);
#1152=ADVANCED_FACE('',(#1040),#31,.T.);
#1153=ADVANCED_FACE('',(#1041),#1116,.F.);
#1154=ADVANCED_FACE('',(#1042,#1043,#1044,#1045,#1046,#1047,#1048),#32,
 .T.);
#1155=ADVANCED_FACE('',(#1049,#1050,#1051),#33,.F.);
#1156=ADVANCED_FACE('',(#1052),#17,.T.);
#1157=ADVANCED_FACE('',(#1053),#1117,.T.);
#1158=ADVANCED_FACE('',(#1054,#1055),#1118,.F.);
#1159=ADVANCED_FACE('',(#1056,#1057),#1119,.F.);
#1160=ADVANCED_FACE('',(#1058),#1120,.T.);
#1161=ADVANCED_FACE('',(#1059),#18,.T.);
#1162=ADVANCED_FACE('',(#1060),#1121,.T.);
#1163=ADVANCED_FACE('',(#1061),#34,.T.);
#1164=ADVANCED_FACE('',(#1062),#35,.T.);
#1165=ADVANCED_FACE('',(#1063),#36,.T.);
#1166=ADVANCED_FACE('',(#1064),#1122,.T.);
#1167=ADVANCED_FACE('',(#1065),#19,.T.);
#1168=ADVANCED_FACE('',(#1066,#1067,#1068,#1069,#1070),#37,.F.);
#1169=ADVANCED_FACE('',(#1071),#1123,.T.);
#1170=ADVANCED_FACE('',(#1072),#1124,.T.);
#1171=ADVANCED_FACE('',(#1073),#38,.F.);
#1172=ADVANCED_FACE('',(#1074),#39,.T.);
#1173=ADVANCED_FACE('',(#1075),#1125,.T.);
#1174=ADVANCED_FACE('',(#1076),#40,.F.);
#1175=ADVANCED_FACE('',(#1077),#41,.T.);
#1176=ADVANCED_FACE('',(#1078),#1126,.T.);
#1177=ADVANCED_FACE('',(#1079),#42,.F.);
#1178=ADVANCED_FACE('',(#1080),#43,.T.);
#1179=ADVANCED_FACE('',(#1081),#44,.T.);
#1180=ADVANCED_FACE('',(#1082),#45,.T.);
#1181=ADVANCED_FACE('',(#1083),#1127,.T.);
#1182=ADVANCED_FACE('',(#1084),#46,.F.);
#1183=ADVANCED_FACE('',(#1085),#47,.T.);
#1184=ADVANCED_FACE('',(#1086),#1128,.T.);
#1185=ADVANCED_FACE('',(#1087),#48,.F.);
#1186=ADVANCED_FACE('',(#1088),#49,.T.);
#1187=ADVANCED_FACE('',(#1089),#50,.F.);
#1188=ADVANCED_FACE('',(#1090),#1129,.T.);
#1189=ADVANCED_FACE('',(#1091),#51,.T.);
#1190=ADVANCED_FACE('',(#1092),#52,.T.);
#1191=ADVANCED_FACE('',(#1093),#53,.T.);
#1192=ADVANCED_FACE('',(#1094),#54,.F.);
#1193=ADVANCED_FACE('',(#1095,#1096),#1130,.F.);
#1194=ADVANCED_FACE('',(#1097,#1098,#1099),#55,.T.);
#1195=ADVANCED_FACE('',(#1100,#1101),#1131,.F.);
#1196=CLOSED_SHELL('',(#1132,#1133,#1134,#1135,#1136,#1137,#1138,#1139,
#1140,#1141,#1142,#1143,#1144,#1145,#1146,#1147,#1148,#1149,#1150,#1151,
#1152,#1153,#1154,#1155,#1156,#1157,#1158,#1159,#1160,#1161,#1162,#1163,
#1164,#1165,#1166,#1167,#1168,#1169,#1170,#1171,#1172,#1173,#1174,#1175,
#1176,#1177,#1178,#1179,#1180,#1181,#1182,#1183,#1184,#1185,#1186,#1187,
#1188,#1189,#1190,#1191,#1192,#1193,#1194,#1195));
#1197=STYLED_ITEM('',(#1198),#1205);
#1198=PRESENTATION_STYLE_ASSIGNMENT((#1199));
#1199=SURFACE_STYLE_USAGE(.BOTH.,#1200);
#1200=SURFACE_SIDE_STYLE('',(#1201));
#1201=SURFACE_STYLE_FILL_AREA(#1202);
#1202=FILL_AREA_STYLE('',(#1203));
#1203=FILL_AREA_STYLE_COLOUR('',#1204);
#1204=COLOUR_RGB('',0.615686274509804,0.811764705882353,0.929411764705882);
#1205=MANIFOLD_SOLID_BREP('palm_up',#1196);
#1206=SHAPE_DEFINITION_REPRESENTATION(#2048,#1207);
#1207=SHAPE_REPRESENTATION('palm_up',(#1208),#2043);
#1208=AXIS2_PLACEMENT_3D('',#1681,#1331,#1332);
#1209=AXIS2_PLACEMENT_3D('',#1682,#1333,#1334);
#1210=AXIS2_PLACEMENT_3D('',#1683,#1335,#1336);
#1211=AXIS2_PLACEMENT_3D('',#1685,#1337,#1338);
#1212=AXIS2_PLACEMENT_3D('',#1687,#1339,#1340);
#1213=AXIS2_PLACEMENT_3D('',#1688,#1341,#1342);
#1214=AXIS2_PLACEMENT_3D('',#1690,#1343,#1344);
#1215=AXIS2_PLACEMENT_3D('',#1692,#1345,#1346);
#1216=AXIS2_PLACEMENT_3D('',#1693,#1347,#1348);
#1217=AXIS2_PLACEMENT_3D('',#1695,#1349,#1350);
#1218=AXIS2_PLACEMENT_3D('',#1697,#1351,#1352);
#1219=AXIS2_PLACEMENT_3D('',#1698,#1353,#1354);
#1220=AXIS2_PLACEMENT_3D('',#1700,#1355,#1356);
#1221=AXIS2_PLACEMENT_3D('',#1702,#1357,#1358);
#1222=AXIS2_PLACEMENT_3D('',#1703,#1359,#1360);
#1223=AXIS2_PLACEMENT_3D('',#1708,#1362,#1363);
#1224=AXIS2_PLACEMENT_3D('',#1711,#1365,#1366);
#1225=AXIS2_PLACEMENT_3D('',#1717,#1370,#1371);
#1226=AXIS2_PLACEMENT_3D('',#1726,#1376,#1377);
#1227=AXIS2_PLACEMENT_3D('',#1727,#1378,#1379);
#1228=AXIS2_PLACEMENT_3D('',#1729,#1380,#1381);
#1229=AXIS2_PLACEMENT_3D('',#1732,#1383,#1384);
#1230=AXIS2_PLACEMENT_3D('',#1735,#1387,#1388);
#1231=AXIS2_PLACEMENT_3D('',#1736,#1389,#1390);
#1232=AXIS2_PLACEMENT_3D('',#1740,#1392,#1393);
#1233=AXIS2_PLACEMENT_3D('',#1741,#1394,#1395);
#1234=AXIS2_PLACEMENT_3D('',#1742,#1396,#1397);
#1235=AXIS2_PLACEMENT_3D('',#1744,#1398,#1399);
#1236=AXIS2_PLACEMENT_3D('',#1747,#1401,#1402);
#1237=AXIS2_PLACEMENT_3D('',#1748,#1403,#1404);
#1238=AXIS2_PLACEMENT_3D('',#1753,#1406,#1407);
#1239=AXIS2_PLACEMENT_3D('',#1756,#1409,#1410);
#1240=AXIS2_PLACEMENT_3D('',#1765,#1415,#1416);
#1241=AXIS2_PLACEMENT_3D('',#1769,#1418,#1419);
#1242=AXIS2_PLACEMENT_3D('',#1773,#1421,#1422);
#1243=AXIS2_PLACEMENT_3D('',#1774,#1423,#1424);
#1244=AXIS2_PLACEMENT_3D('',#1775,#1425,#1426);
#1245=AXIS2_PLACEMENT_3D('',#1777,#1427,#1428);
#1246=AXIS2_PLACEMENT_3D('',#1780,#1430,#1431);
#1247=AXIS2_PLACEMENT_3D('',#1788,#1436,#1437);
#1248=AXIS2_PLACEMENT_3D('',#1789,#1438,#1439);
#1249=AXIS2_PLACEMENT_3D('',#1791,#1440,#1441);
#1250=AXIS2_PLACEMENT_3D('',#1793,#1442,#1443);
#1251=AXIS2_PLACEMENT_3D('',#1794,#1444,#1445);
#1252=AXIS2_PLACEMENT_3D('',#1797,#1447,#1448);
#1253=AXIS2_PLACEMENT_3D('',#1800,#1450,#1451);
#1254=AXIS2_PLACEMENT_3D('',#1801,#1452,#1453);
#1255=AXIS2_PLACEMENT_3D('',#1806,#1455,#1456);
#1256=AXIS2_PLACEMENT_3D('',#1809,#1458,#1459);
#1257=AXIS2_PLACEMENT_3D('',#1813,#1461,#1462);
#1258=AXIS2_PLACEMENT_3D('',#1817,#1464,#1465);
#1259=AXIS2_PLACEMENT_3D('',#1818,#1466,#1467);
#1260=AXIS2_PLACEMENT_3D('',#1827,#1472,#1473);
#1261=AXIS2_PLACEMENT_3D('',#1828,#1474,#1475);
#1262=AXIS2_PLACEMENT_3D('',#1832,#1477,#1478);
#1263=AXIS2_PLACEMENT_3D('',#1833,#1479,#1480);
#1264=AXIS2_PLACEMENT_3D('',#1843,#1488,#1489);
#1265=AXIS2_PLACEMENT_3D('',#1845,#1491,#1492);
#1266=AXIS2_PLACEMENT_3D('',#1847,#1493,#1494);
#1267=AXIS2_PLACEMENT_3D('',#1849,#1495,#1496);
#1268=AXIS2_PLACEMENT_3D('',#1857,#1501,#1502);
#1269=AXIS2_PLACEMENT_3D('',#1858,#1503,#1504);
#1270=AXIS2_PLACEMENT_3D('',#1860,#1505,#1506);
#1271=AXIS2_PLACEMENT_3D('',#1861,#1507,#1508);
#1272=AXIS2_PLACEMENT_3D('',#1862,#1509,#1510);
#1273=AXIS2_PLACEMENT_3D('',#1865,#1512,#1513);
#1274=AXIS2_PLACEMENT_3D('',#1866,#1514,#1515);
#1275=AXIS2_PLACEMENT_3D('',#1868,#1516,#1517);
#1276=AXIS2_PLACEMENT_3D('',#1869,#1518,#1519);
#1277=AXIS2_PLACEMENT_3D('',#1871,#1520,#1521);
#1278=AXIS2_PLACEMENT_3D('',#1872,#1522,#1523);
#1279=AXIS2_PLACEMENT_3D('',#1877,#1525,#1526);
#1280=AXIS2_PLACEMENT_3D('',#1886,#1528,#1529);
#1281=AXIS2_PLACEMENT_3D('',#1887,#1530,#1531);
#1282=AXIS2_PLACEMENT_3D('',#1894,#1532,#1533);
#1283=AXIS2_PLACEMENT_3D('',#1895,#1534,#1535);
#1284=AXIS2_PLACEMENT_3D('',#1900,#1538,#1539);
#1285=AXIS2_PLACEMENT_3D('',#1904,#1542,#1543);
#1286=AXIS2_PLACEMENT_3D('',#1908,#1545,#1546);
#1287=AXIS2_PLACEMENT_3D('',#1911,#1548,#1549);
#1288=AXIS2_PLACEMENT_3D('',#1914,#1552,#1553);
#1289=AXIS2_PLACEMENT_3D('',#1922,#1555,#1556);
#1290=AXIS2_PLACEMENT_3D('',#1923,#1557,#1558);
#1291=AXIS2_PLACEMENT_3D('',#1925,#1559,#1560);
#1292=AXIS2_PLACEMENT_3D('',#1926,#1561,#1562);
#1293=AXIS2_PLACEMENT_3D('',#1929,#1564,#1565);
#1294=AXIS2_PLACEMENT_3D('',#1941,#1571,#1572);
#1295=AXIS2_PLACEMENT_3D('',#1945,#1574,#1575);
#1296=AXIS2_PLACEMENT_3D('',#1953,#1579,#1580);
#1297=AXIS2_PLACEMENT_3D('',#1957,#1582,#1583);
#1298=AXIS2_PLACEMENT_3D('',#1969,#1589,#1590);
#1299=AXIS2_PLACEMENT_3D('',#1974,#1593,#1594);
#1300=AXIS2_PLACEMENT_3D('',#1976,#1595,#1596);
#1301=AXIS2_PLACEMENT_3D('',#1978,#1597,#1598);
#1302=AXIS2_PLACEMENT_3D('',#1979,#1599,#1600);
#1303=AXIS2_PLACEMENT_3D('',#1989,#1602,#1603);
#1304=AXIS2_PLACEMENT_3D('',#1992,#1606,#1607);
#1305=AXIS2_PLACEMENT_3D('',#1995,#1610,#1611);
#1306=AXIS2_PLACEMENT_3D('',#1997,#1613,#1614);
#1307=AXIS2_PLACEMENT_3D('',#2000,#1617,#1618);
#1308=AXIS2_PLACEMENT_3D('',#2001,#1619,#1620);
#1309=AXIS2_PLACEMENT_3D('',#2002,#1621,#1622);
#1310=AXIS2_PLACEMENT_3D('',#2005,#1625,#1626);
#1311=AXIS2_PLACEMENT_3D('',#2006,#1627,#1628);
#1312=AXIS2_PLACEMENT_3D('',#2008,#1630,#1631);
#1313=AXIS2_PLACEMENT_3D('',#2009,#1632,#1633);
#1314=AXIS2_PLACEMENT_3D('',#2011,#1635,#1636);
#1315=AXIS2_PLACEMENT_3D('',#2014,#1639,#1640);
#1316=AXIS2_PLACEMENT_3D('',#2015,#1641,#1642);
#1317=AXIS2_PLACEMENT_3D('',#2017,#1644,#1645);
#1318=AXIS2_PLACEMENT_3D('',#2020,#1648,#1649);
#1319=AXIS2_PLACEMENT_3D('',#2023,#1652,#1653);
#1320=AXIS2_PLACEMENT_3D('',#2025,#1655,#1656);
#1321=AXIS2_PLACEMENT_3D('',#2026,#1657,#1658);
#1322=AXIS2_PLACEMENT_3D('',#2029,#1661,#1662);
#1323=AXIS2_PLACEMENT_3D('',#2030,#1663,#1664);
#1324=AXIS2_PLACEMENT_3D('',#2031,#1665,#1666);
#1325=AXIS2_PLACEMENT_3D('',#2033,#1668,#1669);
#1326=AXIS2_PLACEMENT_3D('',#2035,#1671,#1672);
#1327=AXIS2_PLACEMENT_3D('',#2036,#1673,#1674);
#1328=AXIS2_PLACEMENT_3D('',#2038,#1675,#1676);
#1329=AXIS2_PLACEMENT_3D('',#2039,#1677,#1678);
#1330=AXIS2_PLACEMENT_3D('',#2041,#1679,#1680);
#1331=DIRECTION('',(0.,0.,1.));
#1332=DIRECTION('',(1.,0.,0.));
#1333=DIRECTION('',(0.,0.,-1.));
#1334=DIRECTION('',(-1.,0.,0.));
#1335=DIRECTION('',(0.,0.,1.));
#1336=DIRECTION('',(1.,0.,0.));
#1337=DIRECTION('',(0.,0.,1.));
#1338=DIRECTION('',(1.,0.,0.));
#1339=DIRECTION('',(0.,0.,-1.));
#1340=DIRECTION('',(-1.,0.,0.));
#1341=DIRECTION('',(0.,0.,1.));
#1342=DIRECTION('',(1.,0.,0.));
#1343=DIRECTION('',(0.,0.,1.));
#1344=DIRECTION('',(1.,0.,0.));
#1345=DIRECTION('',(0.,0.,-1.));
#1346=DIRECTION('',(1.,0.,0.));
#1347=DIRECTION('',(0.,0.,-1.));
#1348=DIRECTION('',(-1.,0.,0.));
#1349=DIRECTION('',(0.,0.,-1.));
#1350=DIRECTION('',(-1.,0.,0.));
#1351=DIRECTION('',(0.,0.,-1.));
#1352=DIRECTION('',(1.,0.,0.));
#1353=DIRECTION('',(0.,0.,-1.));
#1354=DIRECTION('',(-1.,0.,0.));
#1355=DIRECTION('',(0.,0.,-1.));
#1356=DIRECTION('',(-1.,0.,0.));
#1357=DIRECTION('',(0.,0.,1.));
#1358=DIRECTION('',(1.,0.,0.));
#1359=DIRECTION('',(0.,0.,1.));
#1360=DIRECTION('',(1.,0.,0.));
#1361=DIRECTION('',(0.,0.,1.));
#1362=DIRECTION('',(0.,0.,1.));
#1363=DIRECTION('',(1.,0.,0.));
#1364=DIRECTION('',(0.,0.,1.));
#1365=DIRECTION('',(-1.,0.,0.));
#1366=DIRECTION('',(0.,0.,1.));
#1367=DIRECTION('',(0.,-1.,0.));
#1368=DIRECTION('',(0.,0.,-1.));
#1369=DIRECTION('',(0.,-1.,0.));
#1370=DIRECTION('',(-1.,0.,0.));
#1371=DIRECTION('',(0.,0.,1.));
#1372=DIRECTION('',(0.,-1.,0.));
#1373=DIRECTION('',(0.,0.,1.));
#1374=DIRECTION('',(0.,-1.,0.));
#1375=DIRECTION('',(0.,0.,-1.));
#1376=DIRECTION('',(0.,0.,1.));
#1377=DIRECTION('',(1.,0.,0.));
#1378=DIRECTION('',(0.,0.,1.));
#1379=DIRECTION('',(1.,0.,0.));
#1380=DIRECTION('',(0.,0.,1.));
#1381=DIRECTION('',(1.,0.,0.));
#1382=DIRECTION('',(0.,0.,1.));
#1383=DIRECTION('',(0.,-1.,0.));
#1384=DIRECTION('',(1.,0.,0.));
#1385=DIRECTION('',(-1.,0.,0.));
#1386=DIRECTION('',(1.,0.,0.));
#1387=DIRECTION('',(0.,0.,-1.));
#1388=DIRECTION('',(-1.,0.,0.));
#1389=DIRECTION('',(0.,0.,1.));
#1390=DIRECTION('',(1.,0.,0.));
#1391=DIRECTION('',(0.,0.,-1.));
#1392=DIRECTION('',(0.,0.,1.));
#1393=DIRECTION('',(1.,0.,0.));
#1394=DIRECTION('',(0.,0.,1.));
#1395=DIRECTION('',(1.,0.,0.));
#1396=DIRECTION('',(0.,0.,1.));
#1397=DIRECTION('',(1.,0.,0.));
#1398=DIRECTION('',(0.,0.,1.));
#1399=DIRECTION('',(1.,0.,0.));
#1400=DIRECTION('',(0.,0.,-1.));
#1401=DIRECTION('',(0.759782189979016,-0.65017768632174,0.));
#1402=DIRECTION('',(0.65017768632174,0.759782189979016,0.));
#1403=DIRECTION('',(0.,1.,0.));
#1404=DIRECTION('',(1.,0.,0.));
#1405=DIRECTION('',(0.759782189979016,-0.65017768632174,0.));
#1406=DIRECTION('',(0.759782189979015,-0.65017768632174,0.));
#1407=DIRECTION('',(0.650177686321741,0.759782189979016,0.));
#1408=DIRECTION('',(0.759782189979016,-0.65017768632174,0.));
#1409=DIRECTION('',(0.650177686321739,0.759782189979017,0.));
#1410=DIRECTION('',(-0.759782189979017,0.650177686321739,0.));
#1411=DIRECTION('',(0.759782189979017,-0.650177686321739,0.));
#1412=DIRECTION('',(0.,0.,-1.));
#1413=DIRECTION('',(0.759782189979017,-0.650177686321739,0.));
#1414=DIRECTION('',(0.,0.,-1.));
#1415=DIRECTION('',(0.,0.,-1.));
#1416=DIRECTION('',(-1.,0.,0.));
#1417=DIRECTION('',(0.,0.,-1.));
#1418=DIRECTION('',(0.,0.,1.));
#1419=DIRECTION('',(1.,0.,0.));
#1420=DIRECTION('',(0.,0.,-1.));
#1421=DIRECTION('',(0.,0.,1.));
#1422=DIRECTION('',(1.,0.,0.));
#1423=DIRECTION('',(0.,0.,-1.));
#1424=DIRECTION('',(-1.,0.,0.));
#1425=DIRECTION('',(0.,0.,1.));
#1426=DIRECTION('',(1.,0.,0.));
#1427=DIRECTION('',(0.,0.,1.));
#1428=DIRECTION('',(1.,0.,0.));
#1429=DIRECTION('',(0.,0.,-1.));
#1430=DIRECTION('',(0.,0.,1.));
#1431=DIRECTION('',(1.,0.,0.));
#1432=DIRECTION('',(-0.65017768632174,-0.759782189979016,0.));
#1433=DIRECTION('',(0.759782189979016,-0.65017768632174,0.));
#1434=DIRECTION('',(0.65017768632174,0.759782189979016,0.));
#1435=DIRECTION('',(0.759782189979016,-0.65017768632174,0.));
#1436=DIRECTION('',(0.,0.,1.));
#1437=DIRECTION('',(1.,0.,0.));
#1438=DIRECTION('',(0.,0.,1.));
#1439=DIRECTION('',(1.,0.,0.));
#1440=DIRECTION('',(0.65017768632174,0.759782189979015,0.));
#1441=DIRECTION('',(-0.759782189979016,0.650177686321741,0.));
#1442=DIRECTION('',(0.,0.,1.));
#1443=DIRECTION('',(1.,0.,0.));
#1444=DIRECTION('',(0.65017768632174,0.759782189979016,0.));
#1445=DIRECTION('',(-0.759782189979016,0.65017768632174,0.));
#1446=DIRECTION('',(0.65017768632174,0.759782189979016,0.));
#1447=DIRECTION('',(0.459745050974282,0.537247138758928,-0.707106781186548));
#1448=DIRECTION('',(0.459745050974282,0.537247138758928,0.707106781186548));
#1449=DIRECTION('',(0.65017768632174,0.759782189979016,0.));
#1450=DIRECTION('',(-0.759782189979016,-0.65017768632174,0.));
#1451=DIRECTION('',(-0.65017768632174,0.759782189979016,0.));
#1452=DIRECTION('',(0.,-1.,0.));
#1453=DIRECTION('',(-1.,0.,0.));
#1454=DIRECTION('',(-0.759782189979016,-0.65017768632174,0.));
#1455=DIRECTION('',(0.759782189979015,0.65017768632174,0.));
#1456=DIRECTION('',(-0.650177686321741,0.759782189979016,0.));
#1457=DIRECTION('',(-0.759782189979016,-0.65017768632174,0.));
#1458=DIRECTION('',(0.,0.,-1.));
#1459=DIRECTION('',(1.,0.,0.));
#1460=DIRECTION('',(0.,0.,-1.));
#1461=DIRECTION('',(0.,0.,-1.));
#1462=DIRECTION('',(-1.,0.,0.));
#1463=DIRECTION('',(0.,0.,-1.));
#1464=DIRECTION('',(0.,0.,-1.));
#1465=DIRECTION('',(-1.,0.,0.));
#1466=DIRECTION('',(-0.650177686321739,0.759782189979017,0.));
#1467=DIRECTION('',(0.759782189979017,0.650177686321739,0.));
#1468=DIRECTION('',(-0.759782189979017,-0.650177686321739,0.));
#1469=DIRECTION('',(0.,0.,-1.));
#1470=DIRECTION('',(-0.759782189979017,-0.650177686321739,0.));
#1471=DIRECTION('',(0.,0.,-1.));
#1472=DIRECTION('',(0.,0.,-1.));
#1473=DIRECTION('',(1.,0.,0.));
#1474=DIRECTION('',(0.,0.,-1.));
#1475=DIRECTION('',(-1.,0.,0.));
#1476=DIRECTION('',(0.,0.,-1.));
#1477=DIRECTION('',(0.,0.,-1.));
#1478=DIRECTION('',(-1.,0.,0.));
#1479=DIRECTION('',(0.,0.,1.));
#1480=DIRECTION('',(1.,0.,0.));
#1481=DIRECTION('',(1.,0.,0.));
#1482=DIRECTION('',(0.759782189979016,-0.65017768632174,0.));
#1483=DIRECTION('',(-0.33765515800643,0.941269883865224,0.));
#1484=DIRECTION('',(1.,0.,0.));
#1485=DIRECTION('',(0.33765515800643,0.941269883865224,0.));
#1486=DIRECTION('',(-0.759782189979016,-0.65017768632174,0.));
#1487=DIRECTION('',(-0.65017768632174,0.759782189979016,0.));
#1488=DIRECTION('',(0.,0.,-1.));
#1489=DIRECTION('',(-1.,0.,0.));
#1490=DIRECTION('',(1.,0.,0.));
#1491=DIRECTION('',(0.,0.,1.));
#1492=DIRECTION('',(1.,0.,0.));
#1493=DIRECTION('',(0.,0.,-1.));
#1494=DIRECTION('',(-1.,0.,0.));
#1495=DIRECTION('',(0.,0.,1.));
#1496=DIRECTION('',(-1.,0.,0.));
#1497=DIRECTION('',(-0.759782189979016,-0.65017768632174,0.));
#1498=DIRECTION('',(0.65017768632174,-0.759782189979016,0.));
#1499=DIRECTION('',(-0.759782189979016,-0.65017768632174,0.));
#1500=DIRECTION('',(-0.65017768632174,0.759782189979016,0.));
#1501=DIRECTION('',(0.,0.,1.));
#1502=DIRECTION('',(-1.,0.,0.));
#1503=DIRECTION('',(0.65017768632174,-0.759782189979015,0.));
#1504=DIRECTION('',(0.759782189979016,0.650177686321741,0.));
#1505=DIRECTION('',(0.,0.,-1.));
#1506=DIRECTION('',(-1.,0.,0.));
#1507=DIRECTION('',(-0.65017768632174,0.759782189979016,0.));
#1508=DIRECTION('',(0.759782189979016,0.65017768632174,0.));
#1509=DIRECTION('',(0.459745050974282,-0.537247138758928,0.707106781186548));
#1510=DIRECTION('',(-0.459745050974282,0.537247138758928,0.707106781186548));
#1511=DIRECTION('',(-0.65017768632174,0.759782189979016,0.));
#1512=DIRECTION('',(0.,0.,-1.));
#1513=DIRECTION('',(1.,0.,0.));
#1514=DIRECTION('',(0.,0.,-1.));
#1515=DIRECTION('',(-1.,0.,0.));
#1516=DIRECTION('',(0.,0.,-1.));
#1517=DIRECTION('',(-1.,0.,0.));
#1518=DIRECTION('',(0.,0.,1.));
#1519=DIRECTION('',(1.,0.,0.));
#1520=DIRECTION('',(0.33765515800643,-0.941269883865224,0.));
#1521=DIRECTION('',(0.941269883865224,0.33765515800643,0.));
#1522=DIRECTION('',(0.759782189979016,-0.65017768632174,0.));
#1523=DIRECTION('',(-0.65017768632174,-0.759782189979016,0.));
#1524=DIRECTION('',(-0.33765515800643,0.941269883865224,0.));
#1525=DIRECTION('',(-0.33765515800643,0.941269883865224,0.));
#1526=DIRECTION('',(-0.941269883865225,-0.33765515800643,0.));
#1527=DIRECTION('',(-0.33765515800643,0.941269883865224,0.));
#1528=DIRECTION('',(0.,0.,1.));
#1529=DIRECTION('',(1.,0.,0.));
#1530=DIRECTION('',(0.,0.,1.));
#1531=DIRECTION('',(1.,0.,0.));
#1532=DIRECTION('',(-1.,0.,0.));
#1533=DIRECTION('',(0.,0.,1.));
#1534=DIRECTION('',(1.,4.02458330258306E-16,0.));
#1535=DIRECTION('',(-4.02458330258306E-16,1.,0.));
#1536=DIRECTION('',(1.,0.,0.));
#1537=DIRECTION('',(1.,0.,0.));
#1538=DIRECTION('',(1.,4.02458330258306E-16,0.));
#1539=DIRECTION('',(-4.02458330258306E-16,1.,0.));
#1540=DIRECTION('',(4.02458330258306E-16,-1.,0.));
#1541=DIRECTION('',(0.,0.,-1.));
#1542=DIRECTION('',(-1.,4.02458330258306E-16,0.));
#1543=DIRECTION('',(4.02458330258306E-16,1.,0.));
#1544=DIRECTION('',(4.02458330258306E-16,1.,0.));
#1545=DIRECTION('',(1.,-4.02458330258306E-16,0.));
#1546=DIRECTION('',(4.02458330258306E-16,1.,0.));
#1547=DIRECTION('',(0.,0.,-1.));
#1548=DIRECTION('',(0.,1.,0.));
#1549=DIRECTION('',(0.,0.,1.));
#1550=DIRECTION('',(1.,0.,0.));
#1551=DIRECTION('',(-1.,0.,0.));
#1552=DIRECTION('',(1.,0.,0.));
#1553=DIRECTION('',(0.,0.,1.));
#1554=DIRECTION('',(-1.,0.,0.));
#1555=DIRECTION('',(0.,0.,1.));
#1556=DIRECTION('',(-1.,0.,0.));
#1557=DIRECTION('',(-0.33765515800643,-0.941269883865224,0.));
#1558=DIRECTION('',(0.941269883865225,-0.33765515800643,0.));
#1559=DIRECTION('',(0.,0.,-1.));
#1560=DIRECTION('',(-1.,0.,0.));
#1561=DIRECTION('',(0.,0.,1.));
#1562=DIRECTION('',(1.,0.,0.));
#1563=DIRECTION('',(-0.65017768632174,-0.759782189979016,0.));
#1564=DIRECTION('',(0.,0.,1.));
#1565=DIRECTION('',(1.,0.,0.));
#1566=DIRECTION('',(0.33765515800643,-0.941269883865224,0.));
#1567=DIRECTION('',(-0.65017768632174,-0.759782189979016,0.));
#1568=DIRECTION('',(-0.759782189979016,0.65017768632174,0.));
#1569=DIRECTION('',(0.65017768632174,0.759782189979016,0.));
#1570=DIRECTION('',(-0.759782189979016,0.65017768632174,0.));
#1571=DIRECTION('',(0.,0.,1.));
#1572=DIRECTION('',(1.,0.,0.));
#1573=DIRECTION('',(-0.65017768632174,-0.759782189979016,0.));
#1574=DIRECTION('',(0.,0.,1.));
#1575=DIRECTION('',(1.,0.,0.));
#1576=DIRECTION('',(-0.759782189979016,0.65017768632174,0.));
#1577=DIRECTION('',(1.,0.,0.));
#1578=DIRECTION('',(-0.759782189979016,-0.65017768632174,0.));
#1579=DIRECTION('',(0.,0.,1.));
#1580=DIRECTION('',(1.,0.,0.));
#1581=DIRECTION('',(-0.65017768632174,0.759782189979016,0.));
#1582=DIRECTION('',(0.,0.,1.));
#1583=DIRECTION('',(1.,0.,0.));
#1584=DIRECTION('',(-0.759782189979016,-0.65017768632174,0.));
#1585=DIRECTION('',(0.65017768632174,-0.759782189979016,0.));
#1586=DIRECTION('',(-0.759782189979016,-0.65017768632174,0.));
#1587=DIRECTION('',(-0.65017768632174,0.759782189979016,0.));
#1588=DIRECTION('',(0.33765515800643,0.941269883865224,0.));
#1589=DIRECTION('',(0.,0.,1.));
#1590=DIRECTION('',(1.,0.,0.));
#1591=DIRECTION('',(-0.65017768632174,0.759782189979016,0.));
#1592=DIRECTION('',(0.33765515800643,0.941269883865224,0.));
#1593=DIRECTION('',(0.,0.,1.));
#1594=DIRECTION('',(1.,0.,0.));
#1595=DIRECTION('',(0.,0.,1.));
#1596=DIRECTION('',(1.,0.,0.));
#1597=DIRECTION('',(-0.33765515800643,-0.941269883865224,0.));
#1598=DIRECTION('',(-0.941269883865224,0.33765515800643,0.));
#1599=DIRECTION('',(0.759782189979016,0.65017768632174,0.));
#1600=DIRECTION('',(0.65017768632174,-0.759782189979016,0.));
#1601=DIRECTION('',(0.33765515800643,0.941269883865224,0.));
#1602=DIRECTION('',(0.,0.,1.));
#1603=DIRECTION('',(1.,0.,0.));
#1604=DIRECTION('',(0.,0.,1.));
#1605=DIRECTION('',(0.,0.,1.));
#1606=DIRECTION('',(-0.65017768632174,-0.759782189979016,0.));
#1607=DIRECTION('',(0.759782189979016,-0.65017768632174,0.));
#1608=DIRECTION('',(0.,0.,1.));
#1609=DIRECTION('',(0.,0.,1.));
#1610=DIRECTION('',(-0.759782189979016,0.65017768632174,0.));
#1611=DIRECTION('',(-0.65017768632174,-0.759782189979016,0.));
#1612=DIRECTION('',(0.,0.,1.));
#1613=DIRECTION('',(0.,0.,-1.));
#1614=DIRECTION('',(-1.,0.,0.));
#1615=DIRECTION('',(0.,0.,1.));
#1616=DIRECTION('',(0.,0.,1.));
#1617=DIRECTION('',(-0.65017768632174,-0.759782189979016,0.));
#1618=DIRECTION('',(0.759782189979016,-0.65017768632174,0.));
#1619=DIRECTION('',(0.759782189979016,-0.65017768632174,0.));
#1620=DIRECTION('',(0.65017768632174,0.759782189979016,0.));
#1621=DIRECTION('',(0.,0.,1.));
#1622=DIRECTION('',(1.,0.,0.));
#1623=DIRECTION('',(0.,0.,-1.));
#1624=DIRECTION('',(0.,0.,-1.));
#1625=DIRECTION('',(0.759782189979016,-0.65017768632174,0.));
#1626=DIRECTION('',(0.65017768632174,0.759782189979016,0.));
#1627=DIRECTION('',(0.941269883865224,0.33765515800643,0.));
#1628=DIRECTION('',(-0.33765515800643,0.941269883865224,0.));
#1629=DIRECTION('',(0.,0.,1.));
#1630=DIRECTION('',(0.759782189979016,-0.65017768632174,0.));
#1631=DIRECTION('',(0.65017768632174,0.759782189979016,0.));
#1632=DIRECTION('',(-0.65017768632174,-0.759782189979016,0.));
#1633=DIRECTION('',(0.759782189979016,-0.65017768632174,0.));
#1634=DIRECTION('',(0.,0.,-1.));
#1635=DIRECTION('',(0.,0.,1.));
#1636=DIRECTION('',(-1.,0.,0.));
#1637=DIRECTION('',(0.,0.,-1.));
#1638=DIRECTION('',(0.,0.,-1.));
#1639=DIRECTION('',(-0.759782189979016,-0.65017768632174,0.));
#1640=DIRECTION('',(-0.65017768632174,0.759782189979016,0.));
#1641=DIRECTION('',(-0.941269883865224,0.33765515800643,0.));
#1642=DIRECTION('',(0.33765515800643,0.941269883865224,0.));
#1643=DIRECTION('',(0.,0.,1.));
#1644=DIRECTION('',(0.,0.,-1.));
#1645=DIRECTION('',(1.,0.,0.));
#1646=DIRECTION('',(0.,0.,1.));
#1647=DIRECTION('',(0.,0.,1.));
#1648=DIRECTION('',(0.65017768632174,-0.759782189979016,0.));
#1649=DIRECTION('',(-0.759782189979016,-0.65017768632174,0.));
#1650=DIRECTION('',(0.,0.,1.));
#1651=DIRECTION('',(0.,0.,1.));
#1652=DIRECTION('',(0.759782189979016,0.65017768632174,0.));
#1653=DIRECTION('',(0.65017768632174,-0.759782189979016,0.));
#1654=DIRECTION('',(0.,0.,1.));
#1655=DIRECTION('',(0.65017768632174,-0.759782189979016,0.));
#1656=DIRECTION('',(-0.759782189979016,-0.65017768632174,0.));
#1657=DIRECTION('',(0.,0.,1.));
#1658=DIRECTION('',(-1.,0.,0.));
#1659=DIRECTION('',(0.,0.,1.));
#1660=DIRECTION('',(0.,0.,1.));
#1661=DIRECTION('',(-0.759782189979016,-0.65017768632174,0.));
#1662=DIRECTION('',(-0.65017768632174,0.759782189979016,0.));
#1663=DIRECTION('',(-0.759782189979016,-0.65017768632174,0.));
#1664=DIRECTION('',(-0.65017768632174,0.759782189979016,0.));
#1665=DIRECTION('',(0.65017768632174,-0.759782189979016,0.));
#1666=DIRECTION('',(-0.759782189979016,-0.65017768632174,0.));
#1667=DIRECTION('',(0.,0.,-1.));
#1668=DIRECTION('',(0.,1.,0.));
#1669=DIRECTION('',(0.,0.,1.));
#1670=DIRECTION('',(-1.,0.,0.));
#1671=DIRECTION('',(0.,0.,1.));
#1672=DIRECTION('',(1.,0.,0.));
#1673=DIRECTION('',(0.,0.,1.));
#1674=DIRECTION('',(1.,0.,0.));
#1675=DIRECTION('',(0.,0.,1.));
#1676=DIRECTION('',(1.,0.,0.));
#1677=DIRECTION('',(0.,0.,-1.));
#1678=DIRECTION('',(1.,0.,0.));
#1679=DIRECTION('',(0.,0.,1.));
#1680=DIRECTION('',(1.,0.,0.));
#1681=CARTESIAN_POINT('',(0.,0.,0.));
#1682=CARTESIAN_POINT('',(0.00995809258166647,-0.00543540799929404,0.0136));
#1683=CARTESIAN_POINT('',(0.00995809258166647,-0.00543540799929404,0.0136));
#1684=CARTESIAN_POINT('',(0.0111580925816665,-0.00543540799929404,0.0136));
#1685=CARTESIAN_POINT('',(0.00995809258166647,-0.00543540799929404,0.0116));
#1686=CARTESIAN_POINT('',(0.0111580925816665,-0.00543540799929404,0.0116));
#1687=CARTESIAN_POINT('',(0.0221146076213307,-0.0158382509804419,0.0136));
#1688=CARTESIAN_POINT('',(0.0221146076213307,-0.0158382509804419,0.0136));
#1689=CARTESIAN_POINT('',(0.0233146076213307,-0.0158382509804419,0.0136));
#1690=CARTESIAN_POINT('',(0.0221146076213307,-0.0158382509804419,0.0116));
#1691=CARTESIAN_POINT('',(0.0233146076213307,-0.0158382509804419,0.0116));
#1692=CARTESIAN_POINT('',(-0.00995809258166647,-0.00543540799929404,0.0136));
#1693=CARTESIAN_POINT('',(-0.00995809258166647,-0.00543540799929404,0.0136));
#1694=CARTESIAN_POINT('',(-0.0111580925816665,-0.00543540799929404,0.0136));
#1695=CARTESIAN_POINT('',(-0.00995809258166647,-0.00543540799929404,0.0116));
#1696=CARTESIAN_POINT('',(-0.0111580925816665,-0.00543540799929404,0.0116));
#1697=CARTESIAN_POINT('',(-0.0221146076213307,-0.0158382509804419,0.0136));
#1698=CARTESIAN_POINT('',(-0.0221146076213307,-0.0158382509804419,0.0136));
#1699=CARTESIAN_POINT('',(-0.0233146076213307,-0.0158382509804419,0.0136));
#1700=CARTESIAN_POINT('',(-0.0221146076213307,-0.0158382509804419,0.0116));
#1701=CARTESIAN_POINT('',(-0.0233146076213307,-0.0158382509804419,0.0116));
#1702=CARTESIAN_POINT('',(0.0066,-0.0136445686542679,0.0116));
#1703=CARTESIAN_POINT('',(0.0066,-0.0136445686542679,0.0136));
#1704=CARTESIAN_POINT('',(0.0116,-0.0136445686542679,0.0136));
#1705=CARTESIAN_POINT('',(0.0066,-0.0086445686542679,0.0136));
#1706=CARTESIAN_POINT('',(0.0066,-0.0086445686542679,0.0116));
#1707=CARTESIAN_POINT('',(0.0066,-0.0086445686542679,0.0116));
#1708=CARTESIAN_POINT('',(0.0066,-0.0136445686542679,0.0116));
#1709=CARTESIAN_POINT('',(0.0116,-0.0136445686542679,0.0116));
#1710=CARTESIAN_POINT('',(0.0116,-0.0136445686542679,0.0116));
#1711=CARTESIAN_POINT('',(0.0116,-0.0086445686542679,0.0126));
#1712=CARTESIAN_POINT('',(0.0116,-0.0086445686542679,0.0116));
#1713=CARTESIAN_POINT('',(0.0116,-0.0156445686542679,0.0116));
#1714=CARTESIAN_POINT('',(0.0116,-0.0156445686542679,0.0136));
#1715=CARTESIAN_POINT('',(0.0116,-0.0156445686542679,0.0136));
#1716=CARTESIAN_POINT('',(0.0116,-0.0086445686542679,0.0136));
#1717=CARTESIAN_POINT('',(-0.0116,-0.0086445686542679,0.0126));
#1718=CARTESIAN_POINT('',(-0.0116,-0.0086445686542679,0.0116));
#1719=CARTESIAN_POINT('',(-0.0116,-0.0136445686542679,0.0116));
#1720=CARTESIAN_POINT('',(-0.0116,-0.0156445686542679,0.0116));
#1721=CARTESIAN_POINT('',(-0.0116,-0.0136445686542679,0.0116));
#1722=CARTESIAN_POINT('',(-0.0116,-0.0136445686542679,0.0136));
#1723=CARTESIAN_POINT('',(-0.0116,-0.0086445686542679,0.0136));
#1724=CARTESIAN_POINT('',(-0.0116,-0.0156445686542679,0.0136));
#1725=CARTESIAN_POINT('',(-0.0116,-0.0156445686542679,0.0126));
#1726=CARTESIAN_POINT('',(-0.0066,-0.0136445686542679,0.0116));
#1727=CARTESIAN_POINT('',(-0.0066,-0.0136445686542679,0.0136));
#1728=CARTESIAN_POINT('',(-0.0066,-0.0086445686542679,0.0136));
#1729=CARTESIAN_POINT('',(-0.0066,-0.0136445686542679,0.0116));
#1730=CARTESIAN_POINT('',(-0.0066,-0.0086445686542679,0.0116));
#1731=CARTESIAN_POINT('',(-0.0066,-0.0086445686542679,0.0116));
#1732=CARTESIAN_POINT('',(0.,-0.0086445686542679,0.));
#1733=CARTESIAN_POINT('',(-0.0058,-0.0086445686542679,0.0116));
#1734=CARTESIAN_POINT('',(0.00877499708556573,-0.0086445686542679,0.0136));
#1735=CARTESIAN_POINT('',(-0.0146,-0.0156445686542679,0.0126));
#1736=CARTESIAN_POINT('',(-0.0146,-0.0156445686542679,0.0136));
#1737=CARTESIAN_POINT('',(-0.0146,-0.0186445686542679,0.0136));
#1738=CARTESIAN_POINT('',(-0.0146,-0.0186445686542679,0.0136));
#1739=CARTESIAN_POINT('',(-0.0146,-0.0186445686542679,0.0116));
#1740=CARTESIAN_POINT('',(-0.0146,-0.0156445686542679,0.0116));
#1741=CARTESIAN_POINT('',(0.0146,-0.0156445686542679,0.0136));
#1742=CARTESIAN_POINT('',(0.0146,-0.0156445686542679,0.0136));
#1743=CARTESIAN_POINT('',(0.0146,-0.0186445686542679,0.0136));
#1744=CARTESIAN_POINT('',(0.0146,-0.0156445686542679,0.0116));
#1745=CARTESIAN_POINT('',(0.0146,-0.0186445686542679,0.0116));
#1746=CARTESIAN_POINT('',(0.0146,-0.0186445686542679,0.0116));
#1747=CARTESIAN_POINT('',(0.000968432804708443,-0.00313886009699277,0.0126));
#1748=CARTESIAN_POINT('',(0.0190880352651858,-0.0186445686542679,0.0126));
#1749=CARTESIAN_POINT('',(0.0175499941711314,-0.0186445686542679,0.0126));
#1750=CARTESIAN_POINT('',(0.0190880352651858,-0.0186445686542679,0.0136));
#1751=CARTESIAN_POINT('',(0.0105385367868215,-0.0126445686542679,0.0126));
#1752=CARTESIAN_POINT('',(0.0203942440200458,-0.0210785132906105,0.0126));
#1753=CARTESIAN_POINT('',(0.0210444217063675,-0.0203187311006315,0.0126));
#1754=CARTESIAN_POINT('',(0.0210444217063675,-0.0203187311006315,0.0136));
#1755=CARTESIAN_POINT('',(0.000968432804708442,-0.00313886009699277,0.0136));
#1756=CARTESIAN_POINT('',(0.0231966589846006,0.0129524654893751,0.0136));
#1757=CARTESIAN_POINT('',(0.0231966589846006,0.0129524654893751,0.0116));
#1758=CARTESIAN_POINT('',(0.0230423913404194,0.013084478823316,0.0116));
#1759=CARTESIAN_POINT('',(0.0233509266287817,0.0128204521554343,0.0116));
#1760=CARTESIAN_POINT('',(0.0230423913404194,0.013084478823316,0.0136));
#1761=CARTESIAN_POINT('',(0.0230423913404194,0.013084478823316,0.0136));
#1762=CARTESIAN_POINT('',(0.0231966589846006,0.0129524654893751,0.0136));
#1763=CARTESIAN_POINT('',(0.0233509266287817,0.0128204521554343,0.0136));
#1764=CARTESIAN_POINT('',(0.0233509266287817,0.0128204521554343,0.0136));
#1765=CARTESIAN_POINT('',(0.0127,0.01304,0.0136));
#1766=CARTESIAN_POINT('',(0.0218773813676859,0.0163321377905627,0.0136));
#1767=CARTESIAN_POINT('',(0.0218773813676859,0.0163321377905627,0.0136));
#1768=CARTESIAN_POINT('',(0.0218773813676859,0.0163321377905627,0.0068));
#1769=CARTESIAN_POINT('',(0.0127,0.01304,0.0068));
#1770=CARTESIAN_POINT('',(0.00587205008805717,0.02,0.0068));
#1771=CARTESIAN_POINT('',(0.00587205008805717,0.02,0.0136));
#1772=CARTESIAN_POINT('',(0.00587205008805717,0.02,0.0136));
#1773=CARTESIAN_POINT('',(0.0127,0.01304,0.0136));
#1774=CARTESIAN_POINT('',(0.0306,0.00652,0.0136));
#1775=CARTESIAN_POINT('',(0.0306,0.00652,0.0116));
#1776=CARTESIAN_POINT('',(0.0243554245361557,-0.000777262457975291,0.0116));
#1777=CARTESIAN_POINT('',(0.0306,0.00652,0.0136));
#1778=CARTESIAN_POINT('',(0.0243554245361557,-0.000777262457975291,0.0136));
#1779=CARTESIAN_POINT('',(0.0243554245361557,-0.000777262457975291,0.0136));
#1780=CARTESIAN_POINT('',(0.00355220683915798,-0.000119523174787875,0.0116));
#1781=CARTESIAN_POINT('',(0.0311221758443545,-0.00854210715595677,0.0116));
#1782=CARTESIAN_POINT('',(0.0320974423738371,-0.00740243387098824,0.0116));
#1783=CARTESIAN_POINT('',(0.0222797593103789,-0.0188751449396714,0.0116));
#1784=CARTESIAN_POINT('',(0.0146059591915908,-0.0123083503078218,0.0116));
#1785=CARTESIAN_POINT('',(0.0069321590728027,-0.00574155567597222,0.0116));
#1786=CARTESIAN_POINT('',(0.0142304036017642,0.00278699940654222,0.0116));
#1787=CARTESIAN_POINT('',(0.0261370324325541,-0.00230185952709698,0.0116));
#1788=CARTESIAN_POINT('',(0.022344777079011,-0.0187991667206735,0.0126));
#1789=CARTESIAN_POINT('',(0.022344777079011,-0.0187991667206735,0.0126));
#1790=CARTESIAN_POINT('',(0.024624123648948,-0.0207496997796387,0.0126));
#1791=CARTESIAN_POINT('',(0.023864341458969,-0.0200995220933169,0.0126));
#1792=CARTESIAN_POINT('',(0.023864341458969,-0.0200995220933169,0.0136));
#1793=CARTESIAN_POINT('',(0.022344777079011,-0.0187991667206735,0.0136));
#1794=CARTESIAN_POINT('',(0.0251477601207751,-0.0185997495510701,0.0126));
#1795=CARTESIAN_POINT('',(0.0334015224142915,-0.010492640214922,0.0126));
#1796=CARTESIAN_POINT('',(0.0337266112574524,-0.0101127491199325,0.0126));
#1797=CARTESIAN_POINT('',(0.0329668290674734,-0.00946257143361074,0.0126));
#1798=CARTESIAN_POINT('',(0.0336170067537951,-0.00870278924363172,0.0136));
#1799=CARTESIAN_POINT('',(0.0251477601207751,-0.0185997495510701,0.0136));
#1800=CARTESIAN_POINT('',(-0.000968432804708443,-0.00313886009699277,0.0126));
#1801=CARTESIAN_POINT('',(-0.0190880352651858,-0.0186445686542679,0.0126));
#1802=CARTESIAN_POINT('',(-0.0175499941711314,-0.0186445686542679,0.0126));
#1803=CARTESIAN_POINT('',(-0.0190880352651858,-0.0186445686542679,0.0136));
#1804=CARTESIAN_POINT('',(-0.000968432804708442,-0.00313886009699277,0.0136));
#1805=CARTESIAN_POINT('',(-0.0210444217063675,-0.0203187311006315,0.0136));
#1806=CARTESIAN_POINT('',(-0.0210444217063675,-0.0203187311006315,0.0126));
#1807=CARTESIAN_POINT('',(-0.0203942440200458,-0.0210785132906105,0.0126));
#1808=CARTESIAN_POINT('',(-0.0105385367868215,-0.0126445686542679,0.0126));
#1809=CARTESIAN_POINT('',(-0.0127,0.01304,0.0136));
#1810=CARTESIAN_POINT('',(-0.0218773813676859,0.0163321377905627,0.0136));
#1811=CARTESIAN_POINT('',(-0.0218773813676859,0.0163321377905627,0.0136));
#1812=CARTESIAN_POINT('',(-0.0218773813676859,0.0163321377905627,0.0068));
#1813=CARTESIAN_POINT('',(-0.0127,0.01304,0.0136));
#1814=CARTESIAN_POINT('',(-0.00587205008805717,0.02,0.0136));
#1815=CARTESIAN_POINT('',(-0.00587205008805717,0.02,0.0136));
#1816=CARTESIAN_POINT('',(-0.00587205008805717,0.02,0.0068));
#1817=CARTESIAN_POINT('',(-0.0127,0.01304,0.0068));
#1818=CARTESIAN_POINT('',(-0.0231966589846006,0.0129524654893751,0.0136));
#1819=CARTESIAN_POINT('',(-0.0231966589846006,0.0129524654893751,0.0116));
#1820=CARTESIAN_POINT('',(-0.0230423913404194,0.013084478823316,0.0116));
#1821=CARTESIAN_POINT('',(-0.0233509266287817,0.0128204521554343,0.0116));
#1822=CARTESIAN_POINT('',(-0.0233509266287817,0.0128204521554343,0.0136));
#1823=CARTESIAN_POINT('',(-0.0233509266287817,0.0128204521554343,0.0136));
#1824=CARTESIAN_POINT('',(-0.0231966589846006,0.0129524654893751,0.0136));
#1825=CARTESIAN_POINT('',(-0.0230423913404194,0.013084478823316,0.0136));
#1826=CARTESIAN_POINT('',(-0.0230423913404194,0.013084478823316,0.0136));
#1827=CARTESIAN_POINT('',(-0.0306,0.00652,0.0136));
#1828=CARTESIAN_POINT('',(-0.0306,0.00652,0.0116));
#1829=CARTESIAN_POINT('',(-0.0243554245361557,-0.000777262457975291,0.0116));
#1830=CARTESIAN_POINT('',(-0.0243554245361557,-0.000777262457975291,0.0136));
#1831=CARTESIAN_POINT('',(-0.0243554245361557,-0.000777262457975291,0.0136));
#1832=CARTESIAN_POINT('',(-0.0306,0.00652,0.0136));
#1833=CARTESIAN_POINT('',(0.00355220683915798,-0.000119523174787875,0.0136));
#1834=CARTESIAN_POINT('',(0.00877499708556573,-0.0186445686542679,0.0136));
#1835=CARTESIAN_POINT('',(0.0261370324325541,-0.00230185952709698,0.0136));
#1836=CARTESIAN_POINT('',(0.0226536282384506,0.0141682205970292,0.0136));
#1837=CARTESIAN_POINT('',(0.00228696365109621,0.02,0.0136));
#1838=CARTESIAN_POINT('',(-0.0226536282384506,0.0141682205970292,0.0136));
#1839=CARTESIAN_POINT('',(-0.0261370324325541,-0.00230185952709698,0.0136));
#1840=CARTESIAN_POINT('',(-0.0336170067537951,-0.00870278924363172,0.0136));
#1841=CARTESIAN_POINT('',(-0.0251477601207751,-0.0185997495510701,0.0136));
#1842=CARTESIAN_POINT('',(-0.023864341458969,-0.0200995220933169,0.0136));
#1843=CARTESIAN_POINT('',(-0.022344777079011,-0.0187991667206735,0.0136));
#1844=CARTESIAN_POINT('',(0.00877499708556573,-0.0186445686542679,0.0136));
#1845=CARTESIAN_POINT('',(0.0127,0.01304,0.0136));
#1846=CARTESIAN_POINT('',(0.01435,0.01304,0.0136));
#1847=CARTESIAN_POINT('',(-0.0127,0.01304,0.0136));
#1848=CARTESIAN_POINT('',(-0.01435,0.01304,0.0136));
#1849=CARTESIAN_POINT('',(-0.00355220683915798,-0.000119523174787875,0.0116));
#1850=CARTESIAN_POINT('',(-0.0146059591915908,-0.0123083503078218,0.0116));
#1851=CARTESIAN_POINT('',(-0.0069321590728027,-0.00574155567597222,0.0116));
#1852=CARTESIAN_POINT('',(-0.0222797593103789,-0.0188751449396714,0.0116));
#1853=CARTESIAN_POINT('',(-0.0311221758443545,-0.00854210715595677,0.0116));
#1854=CARTESIAN_POINT('',(-0.0320974423738371,-0.00740243387098824,0.0116));
#1855=CARTESIAN_POINT('',(-0.0261370324325541,-0.00230185952709698,0.0116));
#1856=CARTESIAN_POINT('',(-0.0142304036017642,0.00278699940654222,0.0116));
#1857=CARTESIAN_POINT('',(-0.022344777079011,-0.0187991667206735,0.0126));
#1858=CARTESIAN_POINT('',(-0.023864341458969,-0.0200995220933169,0.0126));
#1859=CARTESIAN_POINT('',(-0.024624123648948,-0.0207496997796387,0.0126));
#1860=CARTESIAN_POINT('',(-0.022344777079011,-0.0187991667206735,0.0126));
#1861=CARTESIAN_POINT('',(-0.0251477601207751,-0.0185997495510701,0.0126));
#1862=CARTESIAN_POINT('',(-0.0329668290674734,-0.00946257143361074,0.0126));
#1863=CARTESIAN_POINT('',(-0.0337266112574524,-0.0101127491199325,0.0126));
#1864=CARTESIAN_POINT('',(-0.0334015224142915,-0.010492640214922,0.0126));
#1865=CARTESIAN_POINT('',(-0.0127,0.01304,0.0136));
#1866=CARTESIAN_POINT('',(-0.0127,0.01304,0.0043));
#1867=CARTESIAN_POINT('',(-0.01435,0.01304,0.0043));
#1868=CARTESIAN_POINT('',(0.0127,0.01304,0.0136));
#1869=CARTESIAN_POINT('',(0.0127,0.01304,0.0043));
#1870=CARTESIAN_POINT('',(0.01435,0.01304,0.0043));
#1871=CARTESIAN_POINT('',(0.0203004535287876,0.0133240827020131,0.0068));
#1872=CARTESIAN_POINT('',(0.020393391473398,0.0130650027316473,0.0068));
#1873=CARTESIAN_POINT('',(0.020393391473398,0.0130650027316473,0.0043));
#1874=CARTESIAN_POINT('',(0.0211452565832381,0.0139436144277129,0.00451062686715411));
#1875=CARTESIAN_POINT('',(0.0199116904268187,0.0144078244757263,0.0043));
#1876=CARTESIAN_POINT('',(0.0195242066580229,0.0154879998955466,0.0043));
#1877=CARTESIAN_POINT('',(0.0195242066580229,0.0154879998955466,0.0068));
#1878=CARTESIAN_POINT('',(0.0218773813676859,0.0163321377905627,0.0068));
#1879=CARTESIAN_POINT('',(0.0228463086570823,0.0136310918993976,0.0068));
#1880=CARTESIAN_POINT('',(0.0211452565832381,0.0139436144277129,0.00451062686715411));
#1881=CARTESIAN_POINT('',(0.0213072734439414,0.0141329434801064,0.00460557712334214));
#1882=CARTESIAN_POINT('',(0.0217304233592214,0.0143389257094715,0.00489732264680736));
#1883=CARTESIAN_POINT('',(0.0224480612141687,0.0142401681914383,0.00569071244776196));
#1884=CARTESIAN_POINT('',(0.0227515930020184,0.0138951275331743,0.00635647376501381));
#1885=CARTESIAN_POINT('',(0.0228463086570823,0.0136310918993976,0.0068));
#1886=CARTESIAN_POINT('',(0.0127,0.01304,0.0068));
#1887=CARTESIAN_POINT('',(0.0127,0.01304,0.0043));
#1888=CARTESIAN_POINT('',(0.00698415360598275,0.0175,0.0043));
#1889=CARTESIAN_POINT('',(0.00587205008805717,0.02,0.0068));
#1890=CARTESIAN_POINT('',(0.00587205008805717,0.02,0.00610695371092189));
#1891=CARTESIAN_POINT('',(0.00611570167827988,0.0193902955497514,0.00477478152707018));
#1892=CARTESIAN_POINT('',(0.00668470094917802,0.0181137508288597,0.0043));
#1893=CARTESIAN_POINT('',(0.00698415360598275,0.0175,0.0043));
#1894=CARTESIAN_POINT('',(0.00355220683915798,0.0175,0.0068));
#1895=CARTESIAN_POINT('',(0.00457392730219241,0.0175,0.0068));
#1896=CARTESIAN_POINT('',(0.00457392730219241,0.02,0.0068));
#1897=CARTESIAN_POINT('',(0.00457392730219241,0.0175,0.0043));
#1898=CARTESIAN_POINT('',(0.00457392730219241,0.02,0.0068));
#1899=CARTESIAN_POINT('',(0.00587205008805717,0.0175,0.0043));
#1900=CARTESIAN_POINT('',(0.00457392730219241,0.01304,0.0043));
#1901=CARTESIAN_POINT('',(0.00457392730219241,0.01304,0.0043));
#1902=CARTESIAN_POINT('',(0.00457392730219241,0.02,0.0043));
#1903=CARTESIAN_POINT('',(0.00457392730219241,0.02,0.0043));
#1904=CARTESIAN_POINT('',(-0.00457392730219241,0.01304,0.0043));
#1905=CARTESIAN_POINT('',(-0.00457392730219241,0.01304,0.0043));
#1906=CARTESIAN_POINT('',(-0.00457392730219241,0.0175,0.0043));
#1907=CARTESIAN_POINT('',(-0.00457392730219241,0.02,0.0043));
#1908=CARTESIAN_POINT('',(-0.00457392730219241,0.0175,0.0068));
#1909=CARTESIAN_POINT('',(-0.00457392730219241,0.02,0.0068));
#1910=CARTESIAN_POINT('',(-0.00457392730219241,0.02,0.0043));
#1911=CARTESIAN_POINT('',(0.00228696365109621,0.02,0.0136));
#1912=CARTESIAN_POINT('',(0.00228696365109621,0.02,0.0043));
#1913=CARTESIAN_POINT('',(-0.00457392730219241,0.02,0.0068));
#1914=CARTESIAN_POINT('',(-0.00355220683915798,0.0175,0.0068));
#1915=CARTESIAN_POINT('',(-0.00587205008805717,0.0175,0.0043));
#1916=CARTESIAN_POINT('',(-0.00698415360598275,0.0175,0.0043));
#1917=CARTESIAN_POINT('',(-0.00587205008805717,0.02,0.0068));
#1918=CARTESIAN_POINT('',(-0.00587205008805717,0.02,0.00610695371092189));
#1919=CARTESIAN_POINT('',(-0.00611570167827988,0.0193902955497514,0.00477478152707018));
#1920=CARTESIAN_POINT('',(-0.00668470094917802,0.0181137508288597,0.0043));
#1921=CARTESIAN_POINT('',(-0.00698415360598275,0.0175,0.0043));
#1922=CARTESIAN_POINT('',(-0.0127,0.01304,0.0068));
#1923=CARTESIAN_POINT('',(-0.0195242066580229,0.0154879998955466,0.0068));
#1924=CARTESIAN_POINT('',(-0.0195242066580229,0.0154879998955466,0.0043));
#1925=CARTESIAN_POINT('',(-0.0127,0.01304,0.0043));
#1926=CARTESIAN_POINT('',(0.00355220683915798,-0.000119523174787875,0.0043));
#1927=CARTESIAN_POINT('',(0.0127108392218062,0.0040873547791857,0.0043));
#1928=CARTESIAN_POINT('',(0.0211452565832381,0.0139436144277129,0.0043));
#1929=CARTESIAN_POINT('',(0.0219050387732171,0.0132934367413912,0.0043));
#1930=CARTESIAN_POINT('',(0.0228463086570823,0.0136310918993976,0.0043));
#1931=CARTESIAN_POINT('',(0.0226536282384506,0.0141682205970292,0.0043));
#1932=CARTESIAN_POINT('',(0.0230423913404194,0.013084478823316,0.0043));
#1933=CARTESIAN_POINT('',(0.0142304036017642,0.00278699940654222,0.0043));
#1934=CARTESIAN_POINT('',(0.0069321590728027,-0.00574155567597223,0.0043));
#1935=CARTESIAN_POINT('',(0.0146059591915908,-0.0123083503078218,0.0043));
#1936=CARTESIAN_POINT('',(0.0222797593103788,-0.0188751449396714,0.0043));
#1937=CARTESIAN_POINT('',(0.0311221758443545,-0.00854210715595677,0.0043));
#1938=CARTESIAN_POINT('',(0.0320974423738371,-0.00740243387098824,0.0043));
#1939=CARTESIAN_POINT('',(0.0332371156588056,-0.00837770040047085,0.0043));
#1940=CARTESIAN_POINT('',(0.0336170067537951,-0.00870278924363172,0.0043));
#1941=CARTESIAN_POINT('',(0.0329668290674734,-0.00946257143361074,0.0043));
#1942=CARTESIAN_POINT('',(0.0337266112574524,-0.0101127491199325,0.0043));
#1943=CARTESIAN_POINT('',(0.0334015224142915,-0.010492640214922,0.0043));
#1944=CARTESIAN_POINT('',(0.024624123648948,-0.0207496997796387,0.0043));
#1945=CARTESIAN_POINT('',(0.022344777079011,-0.0187991667206735,0.0043));
#1946=CARTESIAN_POINT('',(0.0203942440200458,-0.0210785132906105,0.0043));
#1947=CARTESIAN_POINT('',(0.0105385367868215,-0.0126445686542679,0.0043));
#1948=CARTESIAN_POINT('',(0.0175499941711314,-0.0186445686542679,0.0043));
#1949=CARTESIAN_POINT('',(0.00877499708556573,-0.0186445686542679,0.0043));
#1950=CARTESIAN_POINT('',(-0.0175499941711314,-0.0186445686542679,0.0043));
#1951=CARTESIAN_POINT('',(-0.0105385367868215,-0.0126445686542679,0.0043));
#1952=CARTESIAN_POINT('',(-0.0203942440200458,-0.0210785132906105,0.0043));
#1953=CARTESIAN_POINT('',(-0.022344777079011,-0.0187991667206735,0.0043));
#1954=CARTESIAN_POINT('',(-0.024624123648948,-0.0207496997796387,0.0043));
#1955=CARTESIAN_POINT('',(-0.0334015224142915,-0.010492640214922,0.0043));
#1956=CARTESIAN_POINT('',(-0.0337266112574524,-0.0101127491199325,0.0043));
#1957=CARTESIAN_POINT('',(-0.0329668290674734,-0.00946257143361074,0.0043));
#1958=CARTESIAN_POINT('',(-0.0336170067537951,-0.00870278924363172,0.0043));
#1959=CARTESIAN_POINT('',(-0.0332371156588056,-0.00837770040047085,0.0043));
#1960=CARTESIAN_POINT('',(-0.0320974423738371,-0.00740243387098824,0.0043));
#1961=CARTESIAN_POINT('',(-0.0311221758443545,-0.00854210715595677,0.0043));
#1962=CARTESIAN_POINT('',(-0.0222797593103789,-0.0188751449396714,0.0043));
#1963=CARTESIAN_POINT('',(-0.0146059591915908,-0.0123083503078218,0.0043));
#1964=CARTESIAN_POINT('',(-0.00693215907280271,-0.00574155567597223,0.0043));
#1965=CARTESIAN_POINT('',(-0.0142304036017642,0.00278699940654222,0.0043));
#1966=CARTESIAN_POINT('',(-0.0230423913404194,0.013084478823316,0.0043));
#1967=CARTESIAN_POINT('',(-0.0226536282384506,0.0141682205970292,0.0043));
#1968=CARTESIAN_POINT('',(-0.0228463086570823,0.0136310918993976,0.0043));
#1969=CARTESIAN_POINT('',(-0.0219050387732171,0.0132934367413912,0.0043));
#1970=CARTESIAN_POINT('',(-0.0211452565832381,0.0139436144277129,0.0043));
#1971=CARTESIAN_POINT('',(-0.0127108392218062,0.0040873547791857,0.0043));
#1972=CARTESIAN_POINT('',(-0.020393391473398,0.0130650027316473,0.0043));
#1973=CARTESIAN_POINT('',(-0.0199116904268187,0.0144078244757263,0.0043));
#1974=CARTESIAN_POINT('',(0.005,-0.0127445686542679,0.0043));
#1975=CARTESIAN_POINT('',(0.00665,-0.0127445686542679,0.0043));
#1976=CARTESIAN_POINT('',(-0.005,-0.0127445686542679,0.0043));
#1977=CARTESIAN_POINT('',(-0.00335,-0.0127445686542679,0.0043));
#1978=CARTESIAN_POINT('',(-0.0203004535287876,0.0133240827020131,0.0068));
#1979=CARTESIAN_POINT('',(-0.020393391473398,0.0130650027316473,0.0068));
#1980=CARTESIAN_POINT('',(-0.0211452565832381,0.0139436144277129,0.00451062686715411));
#1981=CARTESIAN_POINT('',(-0.0211452565832381,0.0139436144277129,0.00451062686715411));
#1982=CARTESIAN_POINT('',(-0.0213072734439414,0.0141329434801064,0.00460557712334214));
#1983=CARTESIAN_POINT('',(-0.0217304233592214,0.0143389257094715,0.00489732264680736));
#1984=CARTESIAN_POINT('',(-0.0224480612141687,0.0142401681914383,0.00569071244776196));
#1985=CARTESIAN_POINT('',(-0.0227515930020184,0.0138951275331743,0.00635647376501381));
#1986=CARTESIAN_POINT('',(-0.0228463086570823,0.0136310918993976,0.0068));
#1987=CARTESIAN_POINT('',(-0.0228463086570823,0.0136310918993976,0.0068));
#1988=CARTESIAN_POINT('',(-0.0218773813676859,0.0163321377905627,0.0068));
#1989=CARTESIAN_POINT('',(0.022344777079011,-0.0187991667206735,-0.0116));
#1990=CARTESIAN_POINT('',(0.024624123648948,-0.0207496997796387,-0.0116));
#1991=CARTESIAN_POINT('',(0.0203942440200458,-0.0210785132906105,-0.0116));
#1992=CARTESIAN_POINT('',(0.0146059591915908,-0.0123083503078218,-0.0116));
#1993=CARTESIAN_POINT('',(0.0222797593103789,-0.0188751449396714,-0.0116));
#1994=CARTESIAN_POINT('',(0.0069321590728027,-0.00574155567597222,-0.0116));
#1995=CARTESIAN_POINT('',(0.0311221758443545,-0.00854210715595677,-0.0116));
#1996=CARTESIAN_POINT('',(0.0320974423738371,-0.00740243387098824,-0.0116));
#1997=CARTESIAN_POINT('',(0.0329668290674734,-0.00946257143361074,-0.0116));
#1998=CARTESIAN_POINT('',(0.0336170067537951,-0.00870278924363172,-0.0136));
#1999=CARTESIAN_POINT('',(0.0337266112574524,-0.0101127491199325,0.0136));
#2000=CARTESIAN_POINT('',(0.0332371156588056,-0.00837770040047085,-0.0116));
#2001=CARTESIAN_POINT('',(0.0334015224142915,-0.010492640214922,-0.0116));
#2002=CARTESIAN_POINT('',(0.0219050387732171,0.0132934367413912,0.0043));
#2003=CARTESIAN_POINT('',(0.0211452565832381,0.0139436144277129,-0.0068));
#2004=CARTESIAN_POINT('',(0.0228463086570823,0.0136310918993976,0.0068));
#2005=CARTESIAN_POINT('',(0.0127108392218062,0.0040873547791857,0.0043));
#2006=CARTESIAN_POINT('',(0.0226536282384506,0.0141682205970292,-0.0116));
#2007=CARTESIAN_POINT('',(0.0230423913404194,0.013084478823316,-0.0116));
#2008=CARTESIAN_POINT('',(0.0142304036017642,0.00278699940654222,-0.0116));
#2009=CARTESIAN_POINT('',(0.0105385367868215,-0.0126445686542679,-0.0116));
#2010=CARTESIAN_POINT('',(0.0175499941711314,-0.0186445686542679,0.0136));
#2011=CARTESIAN_POINT('',(-0.0219050387732171,0.0132934367413912,0.0043));
#2012=CARTESIAN_POINT('',(-0.0228463086570823,0.0136310918993976,0.0068));
#2013=CARTESIAN_POINT('',(-0.0211452565832381,0.0139436144277129,-0.0068));
#2014=CARTESIAN_POINT('',(-0.0127108392218062,0.0040873547791857,0.0043));
#2015=CARTESIAN_POINT('',(-0.0226536282384506,0.0141682205970292,-0.0116));
#2016=CARTESIAN_POINT('',(-0.0230423913404194,0.013084478823316,-0.0116));
#2017=CARTESIAN_POINT('',(-0.0329668290674734,-0.00946257143361074,-0.0116));
#2018=CARTESIAN_POINT('',(-0.0337266112574524,-0.0101127491199325,0.0136));
#2019=CARTESIAN_POINT('',(-0.0336170067537951,-0.00870278924363172,-0.0136));
#2020=CARTESIAN_POINT('',(-0.0146059591915908,-0.0123083503078218,-0.0116));
#2021=CARTESIAN_POINT('',(-0.0069321590728027,-0.00574155567597222,-0.0116));
#2022=CARTESIAN_POINT('',(-0.0222797593103789,-0.0188751449396714,-0.0116));
#2023=CARTESIAN_POINT('',(-0.0311221758443545,-0.00854210715595677,-0.0116));
#2024=CARTESIAN_POINT('',(-0.0320974423738371,-0.00740243387098824,-0.0116));
#2025=CARTESIAN_POINT('',(-0.0332371156588056,-0.00837770040047085,-0.0116));
#2026=CARTESIAN_POINT('',(-0.022344777079011,-0.0187991667206735,-0.0116));
#2027=CARTESIAN_POINT('',(-0.0203942440200458,-0.0210785132906105,-0.0116));
#2028=CARTESIAN_POINT('',(-0.024624123648948,-0.0207496997796387,-0.0116));
#2029=CARTESIAN_POINT('',(-0.0334015224142915,-0.010492640214922,-0.0116));
#2030=CARTESIAN_POINT('',(-0.0142304036017642,0.00278699940654222,-0.0116));
#2031=CARTESIAN_POINT('',(-0.0105385367868215,-0.0126445686542679,-0.0116));
#2032=CARTESIAN_POINT('',(-0.0175499941711314,-0.0186445686542679,0.0136));
#2033=CARTESIAN_POINT('',(0.00877499708556573,-0.0186445686542679,0.0136));
#2034=CARTESIAN_POINT('',(-0.0058,-0.0186445686542679,0.0116));
#2035=CARTESIAN_POINT('',(0.005,-0.0127445686542679,-0.0285));
#2036=CARTESIAN_POINT('',(0.005,-0.0127445686542679,0.0116));
#2037=CARTESIAN_POINT('',(0.00665,-0.0127445686542679,0.0116));
#2038=CARTESIAN_POINT('',(-0.0058,-0.0086445686542679,0.0116));
#2039=CARTESIAN_POINT('',(-0.005,-0.0127445686542679,0.0116));
#2040=CARTESIAN_POINT('',(-0.00335,-0.0127445686542679,0.0116));
#2041=CARTESIAN_POINT('',(-0.005,-0.0127445686542679,-0.0285));
#2042=MECHANICAL_DESIGN_GEOMETRIC_PRESENTATION_REPRESENTATION('',(#1197),
#2043);
#2043=(
GEOMETRIC_REPRESENTATION_CONTEXT(3)
GLOBAL_UNCERTAINTY_ASSIGNED_CONTEXT((#2044))
GLOBAL_UNIT_ASSIGNED_CONTEXT((#2047,#2046,#2045))
REPRESENTATION_CONTEXT('palm_up','TOP_LEVEL_ASSEMBLY_PART')
);
#2044=UNCERTAINTY_MEASURE_WITH_UNIT(LENGTH_MEASURE(2.E-5),#2047,
'DISTANCE_ACCURACY_VALUE','Maximum Tolerance applied to model');
#2045=(
NAMED_UNIT(*)
SI_UNIT($,.STERADIAN.)
SOLID_ANGLE_UNIT()
);
#2046=(
NAMED_UNIT(*)
PLANE_ANGLE_UNIT()
SI_UNIT($,.RADIAN.)
);
#2047=(
LENGTH_UNIT()
NAMED_UNIT(*)
SI_UNIT($,.METRE.)
);
#2048=PRODUCT_DEFINITION_SHAPE('','',#2049);
#2049=PRODUCT_DEFINITION('','',#2051,#2050);
#2050=PRODUCT_DEFINITION_CONTEXT('',#2057,'design');
#2051=PRODUCT_DEFINITION_FORMATION_WITH_SPECIFIED_SOURCE('','',#2053,
 .NOT_KNOWN.);
#2052=PRODUCT_RELATED_PRODUCT_CATEGORY('','',(#2053));
#2053=PRODUCT('palm_up','palm_up','palm_up',(#2055));
#2054=PRODUCT_CATEGORY('','');
#2055=PRODUCT_CONTEXT('',#2057,'mechanical');
#2056=APPLICATION_PROTOCOL_DEFINITION('international standard',
'ap242_managed_model_based_3d_engineering',2020,#2057);
#2057=APPLICATION_CONTEXT('managed model based 3d engineering');
ENDSEC;
END-ISO-10303-21;
