ISO-10303-21;
HEADER;
/* Generated by software containing ST-Developer
 * from STEP Tools, Inc. (www.steptools.com) 
 */
/* OPTION: using custom renumber hook */

FILE_DESCRIPTION(
/* description */ ('STEP AP242 Edition 2',
'CAx-IF Rec.Pracs.---Representation and Presentation of Product Manufa
cturing Information (PMI)---4.0---2014-10-13',
'CAx-IF Rec.Pracs.---3D Tessellated Geometry---0.4---2014-09-14','2;1',
'CAx-IF Rec.Pracs.---User Defined Attributes---1.5---2016-08-15'),
/* implementation_level */ '2;1');

FILE_NAME(
/* name */ 'gripper - fingertip (1)',
/* time_stamp */ '2026-02-08T09:29:49Z',
/* author */ (''),
/* organization */ (''),
/* preprocessor_version */ 'ST-DEVELOPER v20',
/* originating_system */ 'ONSHAPE BY PTC INC, 1.210',
/* authorisation */ '  ');

FILE_SCHEMA (('AP242_MANAGED_MODEL_BASED_3D_ENGINEERING_MIM_LF { 1 0 10303 442 3 1 4 }'));
ENDSEC;

DATA;
#10=SHAPE_REPRESENTATION_RELATIONSHIP('','',#567,#11);
#11=ADVANCED_BREP_SHAPE_REPRESENTATION('',(#565),#997);
#12=B_SPLINE_CURVE_WITH_KNOTS('',3,(#832,#833,#834,#835,#836,#837,#838),
 .UNSPECIFIED.,.F.,.F.,(4,1,1,1,4),(0.,0.00120598759086589,0.00241197518173179,
0.00361796277259768,0.00482395036346357),.UNSPECIFIED.);
#13=B_SPLINE_CURVE_WITH_KNOTS('',3,(#842,#843,#844,#845),.UNSPECIFIED.,
 .F.,.F.,(4,4),(0.,6.5206085405133E-5),.UNSPECIFIED.);
#14=B_SPLINE_CURVE_WITH_KNOTS('',3,(#849,#850,#851,#852,#853,#854,#855,
#856,#857,#858,#859,#860,#861,#862),.UNSPECIFIED.,.F.,.F.,(4,1,1,1,1,1,
1,1,1,1,1,4),(0.,5.74131183332503E-5,0.000114826236666501,0.000229652473333001,
0.000459304946666003,0.000688957419999004,0.000918609893332006,0.00137791483999801,
0.00183721978666401,0.00229652473333001,0.00275582967999602,0.00367443957332802),
 .UNSPECIFIED.);
#15=B_SPLINE_CURVE_WITH_KNOTS('',3,(#870,#871,#872,#873,#874,#875,#876,
#877,#878,#879,#880,#881,#882,#883),.UNSPECIFIED.,.F.,.F.,(4,1,1,1,1,1,
1,1,1,1,1,4),(0.,0.000905986166467479,0.00135897924970122,0.00181197233293496,
0.0022649654161687,0.00271795849940244,0.00294445504101931,0.00317095158263618,
0.00339744812425305,0.00351069639506148,0.0035673205304657,0.00362394466586992),
 .UNSPECIFIED.);
#16=B_SPLINE_CURVE_WITH_KNOTS('',3,(#887,#888,#889,#890),.UNSPECIFIED.,
 .F.,.F.,(4,4),(0.,6.56258343767197E-5),.UNSPECIFIED.);
#17=B_SPLINE_CURVE_WITH_KNOTS('',3,(#894,#895,#896,#897,#898,#899,#900),
 .UNSPECIFIED.,.F.,.F.,(4,1,1,1,4),(0.,0.0012054393687748,0.00241087873754959,
0.00361631810632439,0.00482175747509918),.UNSPECIFIED.);
#18=B_SPLINE_CURVE_WITH_KNOTS('',3,(#978,#979,#980,#981,#982,#983),
 .UNSPECIFIED.,.F.,.F.,(4,1,1,4),(0.,0.00214305116144959,0.00428610232289918,
0.00857220464579837),.UNSPECIFIED.);
#19=B_SPLINE_CURVE_WITH_KNOTS('',3,(#985,#986,#987,#988,#989,#990),
 .UNSPECIFIED.,.F.,.F.,(4,1,1,4),(0.,0.00214305116144959,0.00428610232289919,
0.00857220464579837),.UNSPECIFIED.);
#20=ELLIPSE('',#573,0.00100000000100189,0.001);
#21=ELLIPSE('',#574,0.00100000000100189,0.001);
#22=PLANE('',#572);
#23=PLANE('',#575);
#24=PLANE('',#588);
#25=PLANE('',#589);
#26=PLANE('',#593);
#27=PLANE('',#597);
#28=PLANE('',#600);
#29=PLANE('',#603);
#30=PLANE('',#604);
#31=PLANE('',#609);
#32=PLANE('',#610);
#33=PLANE('',#611);
#34=PLANE('',#612);
#35=LINE('',#784,#81);
#36=LINE('',#788,#82);
#37=LINE('',#790,#83);
#38=LINE('',#794,#84);
#39=LINE('',#798,#85);
#40=LINE('',#800,#86);
#41=LINE('',#805,#87);
#42=LINE('',#809,#88);
#43=LINE('',#813,#89);
#44=LINE('',#814,#90);
#45=LINE('',#821,#91);
#46=LINE('',#825,#92);
#47=LINE('',#827,#93);
#48=LINE('',#840,#94);
#49=LINE('',#847,#95);
#50=LINE('',#866,#96);
#51=LINE('',#885,#97);
#52=LINE('',#892,#98);
#53=LINE('',#904,#99);
#54=LINE('',#906,#100);
#55=LINE('',#908,#101);
#56=LINE('',#910,#102);
#57=LINE('',#911,#103);
#58=LINE('',#918,#104);
#59=LINE('',#919,#105);
#60=LINE('',#926,#106);
#61=LINE('',#927,#107);
#62=LINE('',#933,#108);
#63=LINE('',#938,#109);
#64=LINE('',#940,#110);
#65=LINE('',#941,#111);
#66=LINE('',#943,#112);
#67=LINE('',#945,#113);
#68=LINE('',#947,#114);
#69=LINE('',#950,#115);
#70=LINE('',#954,#116);
#71=LINE('',#958,#117);
#72=LINE('',#962,#118);
#73=LINE('',#963,#119);
#74=LINE('',#965,#120);
#75=LINE('',#966,#121);
#76=LINE('',#968,#122);
#77=LINE('',#969,#123);
#78=LINE('',#971,#124);
#79=LINE('',#972,#125);
#80=LINE('',#992,#126);
#81=VECTOR('',#629,1.);
#82=VECTOR('',#632,1.);
#83=VECTOR('',#635,1.);
#84=VECTOR('',#638,1.);
#85=VECTOR('',#641,1.);
#86=VECTOR('',#644,1.);
#87=VECTOR('',#647,1.);
#88=VECTOR('',#650,1.);
#89=VECTOR('',#653,1.);
#90=VECTOR('',#654,1.);
#91=VECTOR('',#661,1.);
#92=VECTOR('',#664,1.);
#93=VECTOR('',#667,1.);
#94=VECTOR('',#670,1.);
#95=VECTOR('',#671,1.);
#96=VECTOR('',#674,1.);
#97=VECTOR('',#677,1.);
#98=VECTOR('',#678,1.);
#99=VECTOR('',#683,1.);
#100=VECTOR('',#684,1.);
#101=VECTOR('',#685,1.);
#102=VECTOR('',#688,1.);
#103=VECTOR('',#689,1.);
#104=VECTOR('',#698,1.);
#105=VECTOR('',#699,1.);
#106=VECTOR('',#708,1.);
#107=VECTOR('',#709,1.);
#108=VECTOR('',#716,1.);
#109=VECTOR('',#721,1.);
#110=VECTOR('',#724,1.);
#111=VECTOR('',#725,1.);
#112=VECTOR('',#728,1.);
#113=VECTOR('',#729,1.);
#114=VECTOR('',#730,1.);
#115=VECTOR('',#733,1.);
#116=VECTOR('',#736,1.);
#117=VECTOR('',#739,1.);
#118=VECTOR('',#744,1.);
#119=VECTOR('',#745,1.);
#120=VECTOR('',#748,1.);
#121=VECTOR('',#749,1.);
#122=VECTOR('',#752,1.);
#123=VECTOR('',#753,1.);
#124=VECTOR('',#756,1.);
#125=VECTOR('',#757,1.);
#126=VECTOR('',#772,1.);
#127=ORIENTED_EDGE('',*,*,#287,.T.);
#128=ORIENTED_EDGE('',*,*,#288,.F.);
#129=ORIENTED_EDGE('',*,*,#289,.F.);
#130=ORIENTED_EDGE('',*,*,#290,.T.);
#131=ORIENTED_EDGE('',*,*,#291,.T.);
#132=ORIENTED_EDGE('',*,*,#292,.T.);
#133=ORIENTED_EDGE('',*,*,#293,.F.);
#134=ORIENTED_EDGE('',*,*,#294,.T.);
#135=ORIENTED_EDGE('',*,*,#295,.F.);
#136=ORIENTED_EDGE('',*,*,#288,.T.);
#137=ORIENTED_EDGE('',*,*,#296,.T.);
#138=ORIENTED_EDGE('',*,*,#297,.T.);
#139=ORIENTED_EDGE('',*,*,#298,.F.);
#140=ORIENTED_EDGE('',*,*,#299,.T.);
#141=ORIENTED_EDGE('',*,*,#300,.F.);
#142=ORIENTED_EDGE('',*,*,#301,.T.);
#143=ORIENTED_EDGE('',*,*,#302,.T.);
#144=ORIENTED_EDGE('',*,*,#293,.T.);
#145=ORIENTED_EDGE('',*,*,#303,.T.);
#146=ORIENTED_EDGE('',*,*,#304,.T.);
#147=ORIENTED_EDGE('',*,*,#305,.F.);
#148=ORIENTED_EDGE('',*,*,#306,.T.);
#149=ORIENTED_EDGE('',*,*,#307,.T.);
#150=ORIENTED_EDGE('',*,*,#308,.F.);
#151=ORIENTED_EDGE('',*,*,#309,.T.);
#152=ORIENTED_EDGE('',*,*,#310,.F.);
#153=ORIENTED_EDGE('',*,*,#311,.T.);
#154=ORIENTED_EDGE('',*,*,#312,.T.);
#155=ORIENTED_EDGE('',*,*,#313,.T.);
#156=ORIENTED_EDGE('',*,*,#314,.F.);
#157=ORIENTED_EDGE('',*,*,#315,.T.);
#158=ORIENTED_EDGE('',*,*,#316,.F.);
#159=ORIENTED_EDGE('',*,*,#317,.F.);
#160=ORIENTED_EDGE('',*,*,#318,.F.);
#161=ORIENTED_EDGE('',*,*,#319,.T.);
#162=ORIENTED_EDGE('',*,*,#320,.F.);
#163=ORIENTED_EDGE('',*,*,#321,.T.);
#164=ORIENTED_EDGE('',*,*,#322,.T.);
#165=ORIENTED_EDGE('',*,*,#323,.T.);
#166=ORIENTED_EDGE('',*,*,#324,.F.);
#167=ORIENTED_EDGE('',*,*,#325,.T.);
#168=ORIENTED_EDGE('',*,*,#326,.F.);
#169=ORIENTED_EDGE('',*,*,#327,.F.);
#170=ORIENTED_EDGE('',*,*,#317,.T.);
#171=ORIENTED_EDGE('',*,*,#328,.T.);
#172=ORIENTED_EDGE('',*,*,#290,.F.);
#173=ORIENTED_EDGE('',*,*,#329,.F.);
#174=ORIENTED_EDGE('',*,*,#308,.T.);
#175=ORIENTED_EDGE('',*,*,#330,.T.);
#176=ORIENTED_EDGE('',*,*,#331,.F.);
#177=ORIENTED_EDGE('',*,*,#332,.T.);
#178=ORIENTED_EDGE('',*,*,#309,.F.);
#179=ORIENTED_EDGE('',*,*,#333,.F.);
#180=ORIENTED_EDGE('',*,*,#326,.T.);
#181=ORIENTED_EDGE('',*,*,#334,.T.);
#182=ORIENTED_EDGE('',*,*,#335,.F.);
#183=ORIENTED_EDGE('',*,*,#295,.T.);
#184=ORIENTED_EDGE('',*,*,#336,.T.);
#185=ORIENTED_EDGE('',*,*,#318,.T.);
#186=ORIENTED_EDGE('',*,*,#327,.T.);
#187=ORIENTED_EDGE('',*,*,#333,.T.);
#188=ORIENTED_EDGE('',*,*,#324,.T.);
#189=ORIENTED_EDGE('',*,*,#337,.T.);
#190=ORIENTED_EDGE('',*,*,#338,.T.);
#191=ORIENTED_EDGE('',*,*,#339,.T.);
#192=ORIENTED_EDGE('',*,*,#305,.T.);
#193=ORIENTED_EDGE('',*,*,#329,.T.);
#194=ORIENTED_EDGE('',*,*,#289,.T.);
#195=ORIENTED_EDGE('',*,*,#330,.F.);
#196=ORIENTED_EDGE('',*,*,#334,.F.);
#197=ORIENTED_EDGE('',*,*,#316,.T.);
#198=ORIENTED_EDGE('',*,*,#340,.T.);
#199=ORIENTED_EDGE('',*,*,#291,.F.);
#200=ORIENTED_EDGE('',*,*,#287,.F.);
#201=ORIENTED_EDGE('',*,*,#328,.F.);
#202=ORIENTED_EDGE('',*,*,#307,.F.);
#203=ORIENTED_EDGE('',*,*,#341,.T.);
#204=ORIENTED_EDGE('',*,*,#342,.T.);
#205=ORIENTED_EDGE('',*,*,#343,.T.);
#206=ORIENTED_EDGE('',*,*,#310,.T.);
#207=ORIENTED_EDGE('',*,*,#332,.F.);
#208=ORIENTED_EDGE('',*,*,#325,.F.);
#209=ORIENTED_EDGE('',*,*,#331,.T.);
#210=ORIENTED_EDGE('',*,*,#335,.T.);
#211=ORIENTED_EDGE('',*,*,#303,.F.);
#212=ORIENTED_EDGE('',*,*,#344,.T.);
#213=ORIENTED_EDGE('',*,*,#314,.T.);
#214=ORIENTED_EDGE('',*,*,#345,.T.);
#215=ORIENTED_EDGE('',*,*,#346,.T.);
#216=ORIENTED_EDGE('',*,*,#347,.T.);
#217=ORIENTED_EDGE('',*,*,#348,.T.);
#218=ORIENTED_EDGE('',*,*,#322,.F.);
#219=ORIENTED_EDGE('',*,*,#349,.T.);
#220=ORIENTED_EDGE('',*,*,#350,.T.);
#221=ORIENTED_EDGE('',*,*,#351,.T.);
#222=ORIENTED_EDGE('',*,*,#352,.T.);
#223=ORIENTED_EDGE('',*,*,#353,.T.);
#224=ORIENTED_EDGE('',*,*,#354,.F.);
#225=ORIENTED_EDGE('',*,*,#355,.T.);
#226=ORIENTED_EDGE('',*,*,#312,.F.);
#227=ORIENTED_EDGE('',*,*,#320,.T.);
#228=ORIENTED_EDGE('',*,*,#356,.T.);
#229=ORIENTED_EDGE('',*,*,#302,.F.);
#230=ORIENTED_EDGE('',*,*,#357,.T.);
#231=ORIENTED_EDGE('',*,*,#298,.T.);
#232=ORIENTED_EDGE('',*,*,#358,.T.);
#233=ORIENTED_EDGE('',*,*,#352,.F.);
#234=ORIENTED_EDGE('',*,*,#359,.T.);
#235=ORIENTED_EDGE('',*,*,#350,.F.);
#236=ORIENTED_EDGE('',*,*,#360,.T.);
#237=ORIENTED_EDGE('',*,*,#300,.T.);
#238=ORIENTED_EDGE('',*,*,#361,.T.);
#239=ORIENTED_EDGE('',*,*,#354,.T.);
#240=ORIENTED_EDGE('',*,*,#362,.T.);
#241=ORIENTED_EDGE('',*,*,#296,.F.);
#242=ORIENTED_EDGE('',*,*,#363,.T.);
#243=ORIENTED_EDGE('',*,*,#297,.F.);
#244=ORIENTED_EDGE('',*,*,#362,.F.);
#245=ORIENTED_EDGE('',*,*,#353,.F.);
#246=ORIENTED_EDGE('',*,*,#358,.F.);
#247=ORIENTED_EDGE('',*,*,#304,.F.);
#248=ORIENTED_EDGE('',*,*,#345,.F.);
#249=ORIENTED_EDGE('',*,*,#313,.F.);
#250=ORIENTED_EDGE('',*,*,#355,.F.);
#251=ORIENTED_EDGE('',*,*,#363,.F.);
#252=ORIENTED_EDGE('',*,*,#301,.F.);
#253=ORIENTED_EDGE('',*,*,#360,.F.);
#254=ORIENTED_EDGE('',*,*,#349,.F.);
#255=ORIENTED_EDGE('',*,*,#321,.F.);
#256=ORIENTED_EDGE('',*,*,#357,.F.);
#257=ORIENTED_EDGE('',*,*,#299,.F.);
#258=ORIENTED_EDGE('',*,*,#359,.F.);
#259=ORIENTED_EDGE('',*,*,#351,.F.);
#260=ORIENTED_EDGE('',*,*,#361,.F.);
#261=ORIENTED_EDGE('',*,*,#343,.F.);
#262=ORIENTED_EDGE('',*,*,#364,.T.);
#263=ORIENTED_EDGE('',*,*,#346,.F.);
#264=ORIENTED_EDGE('',*,*,#311,.F.);
#265=ORIENTED_EDGE('',*,*,#348,.F.);
#266=ORIENTED_EDGE('',*,*,#365,.T.);
#267=ORIENTED_EDGE('',*,*,#337,.F.);
#268=ORIENTED_EDGE('',*,*,#323,.F.);
#269=ORIENTED_EDGE('',*,*,#365,.F.);
#270=ORIENTED_EDGE('',*,*,#347,.F.);
#271=ORIENTED_EDGE('',*,*,#364,.F.);
#272=ORIENTED_EDGE('',*,*,#342,.F.);
#273=ORIENTED_EDGE('',*,*,#366,.T.);
#274=ORIENTED_EDGE('',*,*,#338,.F.);
#275=ORIENTED_EDGE('',*,*,#315,.F.);
#276=ORIENTED_EDGE('',*,*,#344,.F.);
#277=ORIENTED_EDGE('',*,*,#292,.F.);
#278=ORIENTED_EDGE('',*,*,#340,.F.);
#279=ORIENTED_EDGE('',*,*,#319,.F.);
#280=ORIENTED_EDGE('',*,*,#336,.F.);
#281=ORIENTED_EDGE('',*,*,#294,.F.);
#282=ORIENTED_EDGE('',*,*,#356,.F.);
#283=ORIENTED_EDGE('',*,*,#339,.F.);
#284=ORIENTED_EDGE('',*,*,#366,.F.);
#285=ORIENTED_EDGE('',*,*,#341,.F.);
#286=ORIENTED_EDGE('',*,*,#306,.F.);
#287=EDGE_CURVE('',#367,#368,#421,.T.);
#288=EDGE_CURVE('',#369,#368,#35,.T.);
#289=EDGE_CURVE('',#370,#369,#422,.T.);
#290=EDGE_CURVE('',#370,#367,#36,.T.);
#291=EDGE_CURVE('',#368,#371,#37,.T.);
#292=EDGE_CURVE('',#371,#372,#20,.T.);
#293=EDGE_CURVE('',#373,#372,#38,.T.);
#294=EDGE_CURVE('',#373,#374,#21,.T.);
#295=EDGE_CURVE('',#369,#374,#39,.T.);
#296=EDGE_CURVE('',#375,#376,#40,.T.);
#297=EDGE_CURVE('',#376,#377,#423,.F.);
#298=EDGE_CURVE('',#378,#377,#41,.T.);
#299=EDGE_CURVE('',#378,#379,#424,.F.);
#300=EDGE_CURVE('',#380,#379,#42,.T.);
#301=EDGE_CURVE('',#380,#381,#425,.F.);
#302=EDGE_CURVE('',#381,#373,#43,.T.);
#303=EDGE_CURVE('',#372,#382,#44,.T.);
#304=EDGE_CURVE('',#382,#375,#426,.F.);
#305=EDGE_CURVE('',#383,#384,#427,.T.);
#306=EDGE_CURVE('',#383,#385,#45,.T.);
#307=EDGE_CURVE('',#385,#386,#428,.T.);
#308=EDGE_CURVE('',#384,#386,#46,.T.);
#309=EDGE_CURVE('',#387,#388,#47,.T.);
#310=EDGE_CURVE('',#389,#388,#429,.F.);
#311=EDGE_CURVE('',#389,#390,#12,.T.);
#312=EDGE_CURVE('',#390,#391,#48,.T.);
#313=EDGE_CURVE('',#391,#392,#13,.T.);
#314=EDGE_CURVE('',#393,#392,#49,.T.);
#315=EDGE_CURVE('',#393,#394,#14,.T.);
#316=EDGE_CURVE('',#395,#394,#430,.F.);
#317=EDGE_CURVE('',#396,#395,#50,.T.);
#318=EDGE_CURVE('',#397,#396,#431,.T.);
#319=EDGE_CURVE('',#397,#398,#15,.T.);
#320=EDGE_CURVE('',#399,#398,#51,.T.);
#321=EDGE_CURVE('',#399,#400,#16,.T.);
#322=EDGE_CURVE('',#400,#401,#52,.T.);
#323=EDGE_CURVE('',#401,#402,#17,.T.);
#324=EDGE_CURVE('',#387,#402,#432,.T.);
#325=EDGE_CURVE('',#395,#403,#53,.T.);
#326=EDGE_CURVE('',#404,#403,#54,.T.);
#327=EDGE_CURVE('',#396,#404,#55,.T.);
#328=EDGE_CURVE('',#386,#367,#56,.T.);
#329=EDGE_CURVE('',#384,#370,#57,.T.);
#330=EDGE_CURVE('',#405,#405,#433,.T.);
#331=EDGE_CURVE('',#406,#406,#434,.T.);
#332=EDGE_CURVE('',#403,#388,#58,.T.);
#333=EDGE_CURVE('',#404,#387,#59,.T.);
#334=EDGE_CURVE('',#407,#407,#435,.T.);
#335=EDGE_CURVE('',#408,#408,#436,.T.);
#336=EDGE_CURVE('',#374,#397,#60,.F.);
#337=EDGE_CURVE('',#402,#409,#61,.F.);
#338=EDGE_CURVE('',#409,#410,#437,.F.);
#339=EDGE_CURVE('',#410,#383,#438,.F.);
#340=EDGE_CURVE('',#394,#371,#62,.T.);
#341=EDGE_CURVE('',#385,#411,#439,.T.);
#342=EDGE_CURVE('',#411,#412,#440,.T.);
#343=EDGE_CURVE('',#412,#389,#63,.T.);
#344=EDGE_CURVE('',#372,#393,#64,.F.);
#345=EDGE_CURVE('',#392,#382,#65,.F.);
#346=EDGE_CURVE('',#390,#413,#66,.F.);
#347=EDGE_CURVE('',#413,#414,#67,.F.);
#348=EDGE_CURVE('',#414,#401,#68,.T.);
#349=EDGE_CURVE('',#400,#415,#441,.T.);
#350=EDGE_CURVE('',#415,#416,#69,.T.);
#351=EDGE_CURVE('',#416,#417,#442,.T.);
#352=EDGE_CURVE('',#417,#418,#70,.T.);
#353=EDGE_CURVE('',#418,#419,#443,.T.);
#354=EDGE_CURVE('',#420,#419,#71,.T.);
#355=EDGE_CURVE('',#420,#391,#444,.T.);
#356=EDGE_CURVE('',#398,#373,#72,.T.);
#357=EDGE_CURVE('',#381,#399,#73,.T.);
#358=EDGE_CURVE('',#377,#418,#74,.T.);
#359=EDGE_CURVE('',#417,#378,#75,.F.);
#360=EDGE_CURVE('',#415,#380,#76,.F.);
#361=EDGE_CURVE('',#379,#416,#77,.T.);
#362=EDGE_CURVE('',#419,#376,#78,.F.);
#363=EDGE_CURVE('',#375,#420,#79,.T.);
#364=EDGE_CURVE('',#412,#413,#18,.T.);
#365=EDGE_CURVE('',#414,#409,#19,.F.);
#366=EDGE_CURVE('',#411,#410,#80,.F.);
#367=VERTEX_POINT('',#782);
#368=VERTEX_POINT('',#783);
#369=VERTEX_POINT('',#785);
#370=VERTEX_POINT('',#787);
#371=VERTEX_POINT('',#791);
#372=VERTEX_POINT('',#793);
#373=VERTEX_POINT('',#795);
#374=VERTEX_POINT('',#797);
#375=VERTEX_POINT('',#801);
#376=VERTEX_POINT('',#802);
#377=VERTEX_POINT('',#804);
#378=VERTEX_POINT('',#806);
#379=VERTEX_POINT('',#808);
#380=VERTEX_POINT('',#810);
#381=VERTEX_POINT('',#812);
#382=VERTEX_POINT('',#815);
#383=VERTEX_POINT('',#819);
#384=VERTEX_POINT('',#820);
#385=VERTEX_POINT('',#822);
#386=VERTEX_POINT('',#824);
#387=VERTEX_POINT('',#828);
#388=VERTEX_POINT('',#829);
#389=VERTEX_POINT('',#831);
#390=VERTEX_POINT('',#839);
#391=VERTEX_POINT('',#841);
#392=VERTEX_POINT('',#846);
#393=VERTEX_POINT('',#848);
#394=VERTEX_POINT('',#863);
#395=VERTEX_POINT('',#865);
#396=VERTEX_POINT('',#867);
#397=VERTEX_POINT('',#869);
#398=VERTEX_POINT('',#884);
#399=VERTEX_POINT('',#886);
#400=VERTEX_POINT('',#891);
#401=VERTEX_POINT('',#893);
#402=VERTEX_POINT('',#901);
#403=VERTEX_POINT('',#905);
#404=VERTEX_POINT('',#907);
#405=VERTEX_POINT('',#914);
#406=VERTEX_POINT('',#916);
#407=VERTEX_POINT('',#922);
#408=VERTEX_POINT('',#924);
#409=VERTEX_POINT('',#928);
#410=VERTEX_POINT('',#930);
#411=VERTEX_POINT('',#935);
#412=VERTEX_POINT('',#937);
#413=VERTEX_POINT('',#944);
#414=VERTEX_POINT('',#946);
#415=VERTEX_POINT('',#949);
#416=VERTEX_POINT('',#951);
#417=VERTEX_POINT('',#953);
#418=VERTEX_POINT('',#955);
#419=VERTEX_POINT('',#957);
#420=VERTEX_POINT('',#959);
#421=CIRCLE('',#570,0.006);
#422=CIRCLE('',#571,0.006);
#423=CIRCLE('',#576,0.001);
#424=CIRCLE('',#577,0.001);
#425=CIRCLE('',#578,0.001);
#426=CIRCLE('',#579,0.001);
#427=CIRCLE('',#581,0.006);
#428=CIRCLE('',#582,0.006);
#429=CIRCLE('',#584,0.00599999999949952);
#430=CIRCLE('',#585,0.00599999999949952);
#431=CIRCLE('',#586,0.00599999999949952);
#432=CIRCLE('',#587,0.00599999999949952);
#433=CIRCLE('',#591,0.003);
#434=CIRCLE('',#592,0.003);
#435=CIRCLE('',#595,0.003);
#436=CIRCLE('',#596,0.003);
#437=CIRCLE('',#598,0.01);
#438=CIRCLE('',#599,0.03);
#439=CIRCLE('',#601,0.03);
#440=CIRCLE('',#602,0.01);
#441=CIRCLE('',#605,0.001);
#442=CIRCLE('',#606,0.001);
#443=CIRCLE('',#607,0.001);
#444=CIRCLE('',#608,0.001);
#445=EDGE_LOOP('',(#127,#128,#129,#130));
#446=EDGE_LOOP('',(#131,#132,#133,#134,#135,#136));
#447=EDGE_LOOP('',(#137,#138,#139,#140,#141,#142,#143,#144,#145,#146));
#448=EDGE_LOOP('',(#147,#148,#149,#150));
#449=EDGE_LOOP('',(#151,#152,#153,#154,#155,#156,#157,#158,#159,#160,#161,
#162,#163,#164,#165,#166));
#450=EDGE_LOOP('',(#167,#168,#169,#170));
#451=EDGE_LOOP('',(#171,#172,#173,#174));
#452=EDGE_LOOP('',(#175));
#453=EDGE_LOOP('',(#176));
#454=EDGE_LOOP('',(#177,#178,#179,#180));
#455=EDGE_LOOP('',(#181));
#456=EDGE_LOOP('',(#182));
#457=EDGE_LOOP('',(#183,#184,#185,#186,#187,#188,#189,#190,#191,#192,#193,
#194));
#458=EDGE_LOOP('',(#195));
#459=EDGE_LOOP('',(#196));
#460=EDGE_LOOP('',(#197,#198,#199,#200,#201,#202,#203,#204,#205,#206,#207,
#208));
#461=EDGE_LOOP('',(#209));
#462=EDGE_LOOP('',(#210));
#463=EDGE_LOOP('',(#211,#212,#213,#214));
#464=EDGE_LOOP('',(#215,#216,#217,#218,#219,#220,#221,#222,#223,#224,#225,
#226));
#465=EDGE_LOOP('',(#227,#228,#229,#230));
#466=EDGE_LOOP('',(#231,#232,#233,#234));
#467=EDGE_LOOP('',(#235,#236,#237,#238));
#468=EDGE_LOOP('',(#239,#240,#241,#242));
#469=EDGE_LOOP('',(#243,#244,#245,#246));
#470=EDGE_LOOP('',(#247,#248,#249,#250,#251));
#471=EDGE_LOOP('',(#252,#253,#254,#255,#256));
#472=EDGE_LOOP('',(#257,#258,#259,#260));
#473=EDGE_LOOP('',(#261,#262,#263,#264));
#474=EDGE_LOOP('',(#265,#266,#267,#268));
#475=EDGE_LOOP('',(#269,#270,#271,#272,#273,#274));
#476=EDGE_LOOP('',(#275,#276,#277,#278));
#477=EDGE_LOOP('',(#279,#280,#281,#282));
#478=EDGE_LOOP('',(#283,#284,#285,#286));
#479=FACE_BOUND('',#445,.T.);
#480=FACE_BOUND('',#446,.T.);
#481=FACE_BOUND('',#447,.T.);
#482=FACE_BOUND('',#448,.T.);
#483=FACE_BOUND('',#449,.T.);
#484=FACE_BOUND('',#450,.T.);
#485=FACE_BOUND('',#451,.T.);
#486=FACE_BOUND('',#452,.T.);
#487=FACE_BOUND('',#453,.T.);
#488=FACE_BOUND('',#454,.T.);
#489=FACE_BOUND('',#455,.T.);
#490=FACE_BOUND('',#456,.T.);
#491=FACE_BOUND('',#457,.T.);
#492=FACE_BOUND('',#458,.T.);
#493=FACE_BOUND('',#459,.T.);
#494=FACE_BOUND('',#460,.T.);
#495=FACE_BOUND('',#461,.T.);
#496=FACE_BOUND('',#462,.T.);
#497=FACE_BOUND('',#463,.T.);
#498=FACE_BOUND('',#464,.T.);
#499=FACE_BOUND('',#465,.T.);
#500=FACE_BOUND('',#466,.T.);
#501=FACE_BOUND('',#467,.T.);
#502=FACE_BOUND('',#468,.T.);
#503=FACE_BOUND('',#469,.T.);
#504=FACE_BOUND('',#470,.T.);
#505=FACE_BOUND('',#471,.T.);
#506=FACE_BOUND('',#472,.T.);
#507=FACE_BOUND('',#473,.T.);
#508=FACE_BOUND('',#474,.T.);
#509=FACE_BOUND('',#475,.T.);
#510=FACE_BOUND('',#476,.T.);
#511=FACE_BOUND('',#477,.T.);
#512=FACE_BOUND('',#478,.T.);
#513=CYLINDRICAL_SURFACE('',#569,0.006);
#514=CYLINDRICAL_SURFACE('',#580,0.006);
#515=CYLINDRICAL_SURFACE('',#583,0.00599999999949952);
#516=CYLINDRICAL_SURFACE('',#590,0.003);
#517=CYLINDRICAL_SURFACE('',#594,0.003);
#518=CYLINDRICAL_SURFACE('',#613,0.001);
#519=CYLINDRICAL_SURFACE('',#614,0.001);
#520=CYLINDRICAL_SURFACE('',#615,0.001);
#521=CYLINDRICAL_SURFACE('',#616,0.001);
#522=CYLINDRICAL_SURFACE('',#617,0.003);
#523=CYLINDRICAL_SURFACE('',#618,0.003);
#524=CYLINDRICAL_SURFACE('',#619,0.01);
#525=CYLINDRICAL_SURFACE('',#620,0.001);
#526=CYLINDRICAL_SURFACE('',#621,0.001);
#527=CYLINDRICAL_SURFACE('',#622,0.03);
#528=ADVANCED_FACE('',(#479),#513,.T.);
#529=ADVANCED_FACE('',(#480),#22,.F.);
#530=ADVANCED_FACE('',(#481),#23,.F.);
#531=ADVANCED_FACE('',(#482),#514,.T.);
#532=ADVANCED_FACE('',(#483),#515,.F.);
#533=ADVANCED_FACE('',(#484),#24,.F.);
#534=ADVANCED_FACE('',(#485),#25,.F.);
#535=ADVANCED_FACE('',(#486,#487),#516,.F.);
#536=ADVANCED_FACE('',(#488),#26,.F.);
#537=ADVANCED_FACE('',(#489,#490),#517,.F.);
#538=ADVANCED_FACE('',(#491,#492,#493),#27,.T.);
#539=ADVANCED_FACE('',(#494,#495,#496),#28,.F.);
#540=ADVANCED_FACE('',(#497),#29,.T.);
#541=ADVANCED_FACE('',(#498),#30,.T.);
#542=ADVANCED_FACE('',(#499),#31,.T.);
#543=ADVANCED_FACE('',(#500),#32,.F.);
#544=ADVANCED_FACE('',(#501),#33,.T.);
#545=ADVANCED_FACE('',(#502),#34,.F.);
#546=ADVANCED_FACE('',(#503),#518,.T.);
#547=ADVANCED_FACE('',(#504),#519,.T.);
#548=ADVANCED_FACE('',(#505),#520,.T.);
#549=ADVANCED_FACE('',(#506),#521,.T.);
#550=ADVANCED_FACE('',(#507),#522,.F.);
#551=ADVANCED_FACE('',(#508),#523,.F.);
#552=ADVANCED_FACE('',(#509),#524,.F.);
#553=ADVANCED_FACE('',(#510),#525,.F.);
#554=ADVANCED_FACE('',(#511),#526,.F.);
#555=ADVANCED_FACE('',(#512),#527,.F.);
#556=CLOSED_SHELL('',(#528,#529,#530,#531,#532,#533,#534,#535,#536,#537,
#538,#539,#540,#541,#542,#543,#544,#545,#546,#547,#548,#549,#550,#551,#552,
#553,#554,#555));
#557=STYLED_ITEM('',(#558),#565);
#558=PRESENTATION_STYLE_ASSIGNMENT((#559));
#559=SURFACE_STYLE_USAGE(.BOTH.,#560);
#560=SURFACE_SIDE_STYLE('',(#561));
#561=SURFACE_STYLE_FILL_AREA(#562);
#562=FILL_AREA_STYLE('',(#563));
#563=FILL_AREA_STYLE_COLOUR('',#564);
#564=COLOUR_RGB('',0.647058823529412,0.647058823529412,0.647058823529412);
#565=MANIFOLD_SOLID_BREP('fingertip',#556);
#566=SHAPE_DEFINITION_REPRESENTATION(#1002,#567);
#567=SHAPE_REPRESENTATION('fingertip',(#568),#997);
#568=AXIS2_PLACEMENT_3D('',#779,#623,#624);
#569=AXIS2_PLACEMENT_3D('',#780,#625,#626);
#570=AXIS2_PLACEMENT_3D('',#781,#627,#628);
#571=AXIS2_PLACEMENT_3D('',#786,#630,#631);
#572=AXIS2_PLACEMENT_3D('',#789,#633,#634);
#573=AXIS2_PLACEMENT_3D('',#792,#636,#637);
#574=AXIS2_PLACEMENT_3D('',#796,#639,#640);
#575=AXIS2_PLACEMENT_3D('',#799,#642,#643);
#576=AXIS2_PLACEMENT_3D('',#803,#645,#646);
#577=AXIS2_PLACEMENT_3D('',#807,#648,#649);
#578=AXIS2_PLACEMENT_3D('',#811,#651,#652);
#579=AXIS2_PLACEMENT_3D('',#816,#655,#656);
#580=AXIS2_PLACEMENT_3D('',#817,#657,#658);
#581=AXIS2_PLACEMENT_3D('',#818,#659,#660);
#582=AXIS2_PLACEMENT_3D('',#823,#662,#663);
#583=AXIS2_PLACEMENT_3D('',#826,#665,#666);
#584=AXIS2_PLACEMENT_3D('',#830,#668,#669);
#585=AXIS2_PLACEMENT_3D('',#864,#672,#673);
#586=AXIS2_PLACEMENT_3D('',#868,#675,#676);
#587=AXIS2_PLACEMENT_3D('',#902,#679,#680);
#588=AXIS2_PLACEMENT_3D('',#903,#681,#682);
#589=AXIS2_PLACEMENT_3D('',#909,#686,#687);
#590=AXIS2_PLACEMENT_3D('',#912,#690,#691);
#591=AXIS2_PLACEMENT_3D('',#913,#692,#693);
#592=AXIS2_PLACEMENT_3D('',#915,#694,#695);
#593=AXIS2_PLACEMENT_3D('',#917,#696,#697);
#594=AXIS2_PLACEMENT_3D('',#920,#700,#701);
#595=AXIS2_PLACEMENT_3D('',#921,#702,#703);
#596=AXIS2_PLACEMENT_3D('',#923,#704,#705);
#597=AXIS2_PLACEMENT_3D('',#925,#706,#707);
#598=AXIS2_PLACEMENT_3D('',#929,#710,#711);
#599=AXIS2_PLACEMENT_3D('',#931,#712,#713);
#600=AXIS2_PLACEMENT_3D('',#932,#714,#715);
#601=AXIS2_PLACEMENT_3D('',#934,#717,#718);
#602=AXIS2_PLACEMENT_3D('',#936,#719,#720);
#603=AXIS2_PLACEMENT_3D('',#939,#722,#723);
#604=AXIS2_PLACEMENT_3D('',#942,#726,#727);
#605=AXIS2_PLACEMENT_3D('',#948,#731,#732);
#606=AXIS2_PLACEMENT_3D('',#952,#734,#735);
#607=AXIS2_PLACEMENT_3D('',#956,#737,#738);
#608=AXIS2_PLACEMENT_3D('',#960,#740,#741);
#609=AXIS2_PLACEMENT_3D('',#961,#742,#743);
#610=AXIS2_PLACEMENT_3D('',#964,#746,#747);
#611=AXIS2_PLACEMENT_3D('',#967,#750,#751);
#612=AXIS2_PLACEMENT_3D('',#970,#754,#755);
#613=AXIS2_PLACEMENT_3D('',#973,#758,#759);
#614=AXIS2_PLACEMENT_3D('',#974,#760,#761);
#615=AXIS2_PLACEMENT_3D('',#975,#762,#763);
#616=AXIS2_PLACEMENT_3D('',#976,#764,#765);
#617=AXIS2_PLACEMENT_3D('',#977,#766,#767);
#618=AXIS2_PLACEMENT_3D('',#984,#768,#769);
#619=AXIS2_PLACEMENT_3D('',#991,#770,#771);
#620=AXIS2_PLACEMENT_3D('',#993,#773,#774);
#621=AXIS2_PLACEMENT_3D('',#994,#775,#776);
#622=AXIS2_PLACEMENT_3D('',#995,#777,#778);
#623=DIRECTION('',(0.,0.,1.));
#624=DIRECTION('',(1.,0.,0.));
#625=DIRECTION('',(0.,0.,-1.));
#626=DIRECTION('',(-1.,0.,0.));
#627=DIRECTION('',(0.,0.,1.));
#628=DIRECTION('',(1.,0.,0.));
#629=DIRECTION('',(0.,0.,-1.));
#630=DIRECTION('',(0.,0.,1.));
#631=DIRECTION('',(1.,0.,0.));
#632=DIRECTION('',(0.,0.,-1.));
#633=DIRECTION('',(-0.999999998998105,4.47637131839513E-5,0.));
#634=DIRECTION('',(-4.47637131839513E-5,-0.999999998998105,0.));
#635=DIRECTION('',(4.47637131839513E-5,0.999999998998105,0.));
#636=DIRECTION('',(-0.999999998998105,4.47637131839513E-5,0.));
#637=DIRECTION('',(4.47637131839513E-5,0.999999998998105,0.));
#638=DIRECTION('',(0.,0.,-1.));
#639=DIRECTION('',(-0.999999998998105,4.47637131839513E-5,0.));
#640=DIRECTION('',(-4.47637131839513E-5,-0.999999998998105,0.));
#641=DIRECTION('',(4.47637131839513E-5,0.999999998998105,0.));
#642=DIRECTION('',(-1.,0.,0.));
#643=DIRECTION('',(0.,0.,1.));
#644=DIRECTION('',(-2.66880534852593E-16,1.,0.));
#645=DIRECTION('',(-1.,0.,0.));
#646=DIRECTION('',(0.,0.,1.));
#647=DIRECTION('',(0.,0.,-1.));
#648=DIRECTION('',(-1.,0.,0.));
#649=DIRECTION('',(0.,0.,1.));
#650=DIRECTION('',(-2.66880534852593E-16,1.,0.));
#651=DIRECTION('',(-1.,0.,0.));
#652=DIRECTION('',(0.,0.,1.));
#653=DIRECTION('',(0.,0.,-1.));
#654=DIRECTION('',(0.,0.,-1.));
#655=DIRECTION('',(-1.,0.,0.));
#656=DIRECTION('',(0.,0.,1.));
#657=DIRECTION('',(0.,0.,-1.));
#658=DIRECTION('',(-1.,0.,0.));
#659=DIRECTION('',(0.,0.,1.));
#660=DIRECTION('',(1.,0.,0.));
#661=DIRECTION('',(0.,0.,-1.));
#662=DIRECTION('',(0.,0.,1.));
#663=DIRECTION('',(1.,0.,0.));
#664=DIRECTION('',(0.,0.,-1.));
#665=DIRECTION('',(0.,0.,-1.));
#666=DIRECTION('',(-1.,0.,0.));
#667=DIRECTION('',(0.,0.,-1.));
#668=DIRECTION('',(0.,0.,1.));
#669=DIRECTION('',(1.,0.,0.));
#670=DIRECTION('',(0.,0.,-1.));
#671=DIRECTION('',(0.,0.,-1.));
#672=DIRECTION('',(0.,0.,1.));
#673=DIRECTION('',(1.,0.,0.));
#674=DIRECTION('',(0.,0.,-1.));
#675=DIRECTION('',(0.,0.,1.));
#676=DIRECTION('',(1.,0.,0.));
#677=DIRECTION('',(0.,0.,-1.));
#678=DIRECTION('',(0.,0.,-1.));
#679=DIRECTION('',(0.,0.,1.));
#680=DIRECTION('',(1.,0.,0.));
#681=DIRECTION('',(0.,-1.,0.));
#682=DIRECTION('',(0.,0.,-1.));
#683=DIRECTION('',(-1.,0.,0.));
#684=DIRECTION('',(0.,0.,-1.));
#685=DIRECTION('',(-1.,0.,0.));
#686=DIRECTION('',(-0.341978078851836,0.939707929936109,0.));
#687=DIRECTION('',(-0.939707929936109,-0.341978078851836,0.));
#688=DIRECTION('',(0.939707929936109,0.341978078851836,0.));
#689=DIRECTION('',(0.939707929936109,0.341978078851836,0.));
#690=DIRECTION('',(0.,0.,-1.));
#691=DIRECTION('',(-1.,0.,0.));
#692=DIRECTION('',(0.,0.,1.));
#693=DIRECTION('',(1.,0.,0.));
#694=DIRECTION('',(0.,0.,1.));
#695=DIRECTION('',(1.,0.,0.));
#696=DIRECTION('',(-1.,0.,0.));
#697=DIRECTION('',(0.,0.,1.));
#698=DIRECTION('',(0.,1.,0.));
#699=DIRECTION('',(0.,1.,0.));
#700=DIRECTION('',(0.,0.,-1.));
#701=DIRECTION('',(-1.,0.,0.));
#702=DIRECTION('',(0.,0.,1.));
#703=DIRECTION('',(1.,0.,0.));
#704=DIRECTION('',(0.,0.,1.));
#705=DIRECTION('',(1.,0.,0.));
#706=DIRECTION('',(0.,0.,1.));
#707=DIRECTION('',(1.,0.,0.));
#708=DIRECTION('',(1.,0.,0.));
#709=DIRECTION('',(2.66883291780395E-16,-1.,0.));
#710=DIRECTION('',(0.,0.,1.));
#711=DIRECTION('',(1.,0.,0.));
#712=DIRECTION('',(0.,0.,1.));
#713=DIRECTION('',(1.,0.,0.));
#714=DIRECTION('',(0.,0.,1.));
#715=DIRECTION('',(1.,0.,0.));
#716=DIRECTION('',(1.,0.,0.));
#717=DIRECTION('',(0.,0.,1.));
#718=DIRECTION('',(1.,0.,0.));
#719=DIRECTION('',(0.,0.,1.));
#720=DIRECTION('',(1.,0.,0.));
#721=DIRECTION('',(2.66883291780395E-16,-1.,0.));
#722=DIRECTION('',(0.,-1.,0.));
#723=DIRECTION('',(0.,0.,-1.));
#724=DIRECTION('',(1.,0.,0.));
#725=DIRECTION('',(-1.,0.,0.));
#726=DIRECTION('',(-1.,-2.66883291780395E-16,0.));
#727=DIRECTION('',(2.66883291780395E-16,-1.,0.));
#728=DIRECTION('',(2.66883291780395E-16,-1.,0.));
#729=DIRECTION('',(0.,0.,-1.));
#730=DIRECTION('',(2.66883291780395E-16,-1.,0.));
#731=DIRECTION('',(-1.,-2.66883291780395E-16,0.));
#732=DIRECTION('',(2.66883291780395E-16,-1.,0.));
#733=DIRECTION('',(-2.66883291780395E-16,1.,0.));
#734=DIRECTION('',(-1.,-2.66883291780395E-16,0.));
#735=DIRECTION('',(2.66883291780395E-16,-1.,0.));
#736=DIRECTION('',(0.,0.,-1.));
#737=DIRECTION('',(-1.,-2.66883291780395E-16,0.));
#738=DIRECTION('',(2.66883291780395E-16,-1.,0.));
#739=DIRECTION('',(-2.66883291780395E-16,1.,0.));
#740=DIRECTION('',(-1.,-2.66883291780395E-16,0.));
#741=DIRECTION('',(2.66883291780395E-16,-1.,0.));
#742=DIRECTION('',(0.,-1.,0.));
#743=DIRECTION('',(0.,0.,-1.));
#744=DIRECTION('',(1.,0.,0.));
#745=DIRECTION('',(-1.,0.,0.));
#746=DIRECTION('',(0.,-1.,0.));
#747=DIRECTION('',(0.,0.,-1.));
#748=DIRECTION('',(-1.,0.,0.));
#749=DIRECTION('',(-1.,0.,0.));
#750=DIRECTION('',(0.,0.,1.));
#751=DIRECTION('',(1.,0.,0.));
#752=DIRECTION('',(-1.,0.,0.));
#753=DIRECTION('',(-1.,0.,0.));
#754=DIRECTION('',(0.,0.,1.));
#755=DIRECTION('',(1.,0.,0.));
#756=DIRECTION('',(-1.,0.,0.));
#757=DIRECTION('',(-1.,0.,0.));
#758=DIRECTION('',(-1.,0.,0.));
#759=DIRECTION('',(0.,0.,1.));
#760=DIRECTION('',(1.,0.,0.));
#761=DIRECTION('',(0.,0.,-1.));
#762=DIRECTION('',(-1.,0.,0.));
#763=DIRECTION('',(0.,0.,1.));
#764=DIRECTION('',(1.,0.,0.));
#765=DIRECTION('',(0.,0.,-1.));
#766=DIRECTION('',(2.66883291780395E-16,-1.,0.));
#767=DIRECTION('',(1.,2.66883291780395E-16,0.));
#768=DIRECTION('',(-2.66883291780395E-16,1.,0.));
#769=DIRECTION('',(-1.,-2.66883291780395E-16,0.));
#770=DIRECTION('',(0.,0.,-1.));
#771=DIRECTION('',(-1.,0.,0.));
#772=DIRECTION('',(0.,0.,-1.));
#773=DIRECTION('',(1.,0.,0.));
#774=DIRECTION('',(0.,0.,-1.));
#775=DIRECTION('',(-1.,0.,0.));
#776=DIRECTION('',(0.,0.,1.));
#777=DIRECTION('',(0.,0.,-1.));
#778=DIRECTION('',(-1.,0.,0.));
#779=CARTESIAN_POINT('',(0.,0.,0.));
#780=CARTESIAN_POINT('',(-0.0509079171866057,0.103920324266111,0.005));
#781=CARTESIAN_POINT('',(-0.0509079171866057,0.103920324266111,0.));
#782=CARTESIAN_POINT('',(-0.0488560487134947,0.0982820766864939,0.));
#783=CARTESIAN_POINT('',(-0.0449079171926171,0.103920055683831,0.));
#784=CARTESIAN_POINT('',(-0.0449079171926171,0.103920055683831,0.005));
#785=CARTESIAN_POINT('',(-0.0449079171926171,0.103920055683831,0.005));
#786=CARTESIAN_POINT('',(-0.0509079171866057,0.103920324266111,0.005));
#787=CARTESIAN_POINT('',(-0.0488560487134947,0.0982820766864939,0.005));
#788=CARTESIAN_POINT('',(-0.0488560487134947,0.0982820766864939,0.005));
#789=CARTESIAN_POINT('',(-0.0449077829014954,0.106920055281603,0.005));
#790=CARTESIAN_POINT('',(-0.0449077829014954,0.106920055281603,0.));
#791=CARTESIAN_POINT('',(-0.044907693374051,0.108920055683831,0.));
#792=CARTESIAN_POINT('',(-0.044907693374051,0.108920055683831,-0.001));
#793=CARTESIAN_POINT('',(-0.0449076486103738,0.109920054879375,-0.001));
#794=CARTESIAN_POINT('',(-0.0449076486103738,0.109920054879375,0.005));
#795=CARTESIAN_POINT('',(-0.0449076486103738,0.109920054879375,0.006));
#796=CARTESIAN_POINT('',(-0.044907693374051,0.108920055683831,0.006));
#797=CARTESIAN_POINT('',(-0.044907693374051,0.108920055683831,0.005));
#798=CARTESIAN_POINT('',(-0.0449077829014954,0.106920055281603,0.005));
#799=CARTESIAN_POINT('',(-0.0449076486103378,0.116920055688066,0.005));
#800=CARTESIAN_POINT('',(-0.0449076486103378,0.136920055688066,-0.01));
#801=CARTESIAN_POINT('',(-0.0449076486103378,0.110920055683831,-0.01));
#802=CARTESIAN_POINT('',(-0.0449076486103378,0.148920055683831,-0.01));
#803=CARTESIAN_POINT('',(-0.0449076486103378,0.148920055683831,-0.009));
#804=CARTESIAN_POINT('',(-0.0449076486103378,0.149920055683831,-0.009));
#805=CARTESIAN_POINT('',(-0.0449076486103378,0.149920055683831,0.015));
#806=CARTESIAN_POINT('',(-0.0449076486103378,0.149920055683831,0.014));
#807=CARTESIAN_POINT('',(-0.0449076486103378,0.148920055683831,0.014));
#808=CARTESIAN_POINT('',(-0.0449076486103378,0.148920055683831,0.015));
#809=CARTESIAN_POINT('',(-0.0449076486103378,0.136920055688066,0.015));
#810=CARTESIAN_POINT('',(-0.0449076486103378,0.110920055683831,0.015));
#811=CARTESIAN_POINT('',(-0.0449076486103378,0.110920055683831,0.014));
#812=CARTESIAN_POINT('',(-0.0449076486103738,0.109920054879375,0.014));
#813=CARTESIAN_POINT('',(-0.0449076486103738,0.109920054879375,0.015));
#814=CARTESIAN_POINT('',(-0.0449076486103738,0.109920054879375,0.015));
#815=CARTESIAN_POINT('',(-0.0449076486103738,0.109920054879375,-0.009));
#816=CARTESIAN_POINT('',(-0.0449076486103378,0.110920055683831,-0.009));
#817=CARTESIAN_POINT('',(-0.0688093532518886,0.0974056418639833,0.005));
#818=CARTESIAN_POINT('',(-0.0688093532518886,0.0974056418639833,0.005));
#819=CARTESIAN_POINT('',(-0.0714922980279629,0.102772373395235,0.005));
#820=CARTESIAN_POINT('',(-0.0667574847787776,0.0917673942843666,0.005));
#821=CARTESIAN_POINT('',(-0.0714922980279629,0.102772373395235,0.005));
#822=CARTESIAN_POINT('',(-0.0714922980279629,0.102772373395235,0.));
#823=CARTESIAN_POINT('',(-0.0688093532518886,0.0974056418639833,0.));
#824=CARTESIAN_POINT('',(-0.0667574847787776,0.0917673942843666,0.));
#825=CARTESIAN_POINT('',(-0.0667574847787776,0.0917673942843666,0.005));
#826=CARTESIAN_POINT('',(-0.0509079171866031,0.103920324266611,0.005));
#827=CARTESIAN_POINT('',(-0.0509076486103377,0.109920324260099,0.005));
#828=CARTESIAN_POINT('',(-0.0509076486103377,0.109920324260099,0.005));
#829=CARTESIAN_POINT('',(-0.0509076486103377,0.109920324260099,0.));
#830=CARTESIAN_POINT('',(-0.0509079171866031,0.103920324266611,0.));
#831=CARTESIAN_POINT('',(-0.0539076486103377,0.109116631742065,0.));
#832=CARTESIAN_POINT('',(-0.0539076486103377,0.109116631742065,0.));
#833=CARTESIAN_POINT('',(-0.0535550069818981,0.109320205179384,3.62220833719431E-19));
#834=CARTESIAN_POINT('',(-0.0528126950060258,0.109649491047537,-0.000125849362798157));
#835=CARTESIAN_POINT('',(-0.0517786701573637,0.109879464344364,-0.000770355575439804));
#836=CARTESIAN_POINT('',(-0.0510737803701673,0.109923641854074,-0.00178778487370991));
#837=CARTESIAN_POINT('',(-0.0509076486103377,0.109920324260099,-0.002592424173147));
#838=CARTESIAN_POINT('',(-0.0509076486103377,0.109920324260099,-0.003));
#839=CARTESIAN_POINT('',(-0.0509076486103377,0.109920324260099,-0.003));
#840=CARTESIAN_POINT('',(-0.0509076486103377,0.109920324260099,0.015));
#841=CARTESIAN_POINT('',(-0.0509076486103377,0.109920324260099,-0.00902317499520529));
#842=CARTESIAN_POINT('',(-0.0509076486103377,0.109920324260099,-0.00902317499520529));
#843=CARTESIAN_POINT('',(-0.0508858611046035,0.109920323284832,-0.00902313292374512));
#844=CARTESIAN_POINT('',(-0.050851146461644,0.109920055683831,-0.00902211669319279));
#845=CARTESIAN_POINT('',(-0.050851146461644,0.109920055683831,-0.009));
#846=CARTESIAN_POINT('',(-0.0508511464616441,0.109920055683831,-0.009));
#847=CARTESIAN_POINT('',(-0.0508511464616441,0.109920055683831,0.015));
#848=CARTESIAN_POINT('',(-0.0508511464616441,0.109920055683831,-0.001));
#849=CARTESIAN_POINT('',(-0.0508511464616441,0.109920055683831,-0.001));
#850=CARTESIAN_POINT('',(-0.0508511464616441,0.109920055683831,-0.000980541285378259));
#851=CARTESIAN_POINT('',(-0.0508032098863983,0.109919524183232,-0.000966884560645562));
#852=CARTESIAN_POINT('',(-0.0507410231096135,0.109918128341292,-0.000933687484735198));
#853=CARTESIAN_POINT('',(-0.0506142499296094,0.109913925826006,-0.000883570886212929));
#854=CARTESIAN_POINT('',(-0.0504413896548122,0.109903355299261,-0.00081099604019079));
#855=CARTESIAN_POINT('',(-0.0502306501943962,0.109883237440125,-0.000726541012112127));
#856=CARTESIAN_POINT('',(-0.0499515382442286,0.109846547056996,-0.000615757783858077));
#857=CARTESIAN_POINT('',(-0.0496016419073145,0.109781603325063,-0.000481773733461703));
#858=CARTESIAN_POINT('',(-0.0491880582716995,0.109673865027327,-0.000334265033784092));
#859=CARTESIAN_POINT('',(-0.0487807098247294,0.109536094320064,-0.000204416750688966));
#860=CARTESIAN_POINT('',(-0.0482452866636598,0.109311221220416,-6.22357492847267E-5));
#861=CARTESIAN_POINT('',(-0.0478457852863078,0.10908916545198,-3.19619970050938E-20));
#862=CARTESIAN_POINT('',(-0.0475908875289646,0.108920055683831,-3.19619970050938E-20));
#863=CARTESIAN_POINT('',(-0.0475908875289646,0.108920055683831,0.));
#864=CARTESIAN_POINT('',(-0.0509079171866031,0.103920324266611,0.));
#865=CARTESIAN_POINT('',(-0.0508511464616441,0.109920055683831,0.));
#866=CARTESIAN_POINT('',(-0.0508511464616441,0.109920055683831,0.005));
#867=CARTESIAN_POINT('',(-0.0508511464616441,0.109920055683831,0.005));
#868=CARTESIAN_POINT('',(-0.0509079171866031,0.103920324266611,0.005));
#869=CARTESIAN_POINT('',(-0.0475908875289646,0.108920055683831,0.005));
#870=CARTESIAN_POINT('',(-0.0475908875289646,0.108920055683831,0.005));
#871=CARTESIAN_POINT('',(-0.0478453521848982,0.109088878114501,0.005));
#872=CARTESIAN_POINT('',(-0.0482381840720337,0.10930797504273,0.00506055657599454));
#873=CARTESIAN_POINT('',(-0.0487835675672723,0.109537357195184,0.00520513193594273));
#874=CARTESIAN_POINT('',(-0.0491919705382531,0.109674997083441,0.00533562395292013));
#875=CARTESIAN_POINT('',(-0.0496040614595345,0.109782062320787,0.00548269526031041));
#876=CARTESIAN_POINT('',(-0.0499508419811876,0.109846427410202,0.00561549113140056));
#877=CARTESIAN_POINT('',(-0.050230680577477,0.109883250572222,0.00572654707385029));
#878=CARTESIAN_POINT('',(-0.0504416925929224,0.109903378987172,0.00581113423110967));
#879=CARTESIAN_POINT('',(-0.0506145104452365,0.109913937069483,0.00588363458933286));
#880=CARTESIAN_POINT('',(-0.0507411923219274,0.109918133593551,0.00593382126842209));
#881=CARTESIAN_POINT('',(-0.0508034376485887,0.109919527511554,0.005966881634626));
#882=CARTESIAN_POINT('',(-0.0508511464616433,0.109920055683831,0.00598080529726563));
#883=CARTESIAN_POINT('',(-0.0508511464616425,0.109920055683831,0.00600000000000042));
#884=CARTESIAN_POINT('',(-0.0508511464616441,0.109920055683831,0.006));
#885=CARTESIAN_POINT('',(-0.0508511464616441,0.109920055683831,0.015));
#886=CARTESIAN_POINT('',(-0.0508511464616441,0.109920055683831,0.014));
#887=CARTESIAN_POINT('',(-0.0508511464616441,0.109920055683831,0.014));
#888=CARTESIAN_POINT('',(-0.0508511464616441,0.109920055683831,0.0140222655819416));
#889=CARTESIAN_POINT('',(-0.0508858410998926,0.109920323283936,0.0140231328851162));
#890=CARTESIAN_POINT('',(-0.0509076486103377,0.109920324260099,0.0140231749952053));
#891=CARTESIAN_POINT('',(-0.0509076486103377,0.109920324260099,0.0140231749952053));
#892=CARTESIAN_POINT('',(-0.0509076486103377,0.109920324260099,0.015));
#893=CARTESIAN_POINT('',(-0.0509076486103377,0.109920324260099,0.008));
#894=CARTESIAN_POINT('',(-0.0509076486103377,0.109920324260099,0.008));
#895=CARTESIAN_POINT('',(-0.0509076486103377,0.109920324260099,0.00759242682787585));
#896=CARTESIAN_POINT('',(-0.0510732370556042,0.109923652588299,0.0067895769953099));
#897=CARTESIAN_POINT('',(-0.0517772569484769,0.109879560323617,0.00577182750722053));
#898=CARTESIAN_POINT('',(-0.0528100548237234,0.109650474952652,0.00512663096258612));
#899=CARTESIAN_POINT('',(-0.053554860449181,0.10932028976999,0.00500000000000001));
#900=CARTESIAN_POINT('',(-0.0539076486103376,0.109116631742065,0.005));
#901=CARTESIAN_POINT('',(-0.0539076486103377,0.109116631742065,0.005));
#902=CARTESIAN_POINT('',(-0.0509079171866031,0.103920324266611,0.005));
#903=CARTESIAN_POINT('',(-0.0508793975359909,0.109920055683831,0.005));
#904=CARTESIAN_POINT('',(-0.0508793975359909,0.109920055683831,0.));
#905=CARTESIAN_POINT('',(-0.0509076486103377,0.109920055683831,0.));
#906=CARTESIAN_POINT('',(-0.0509076486103377,0.109920055683831,0.005));
#907=CARTESIAN_POINT('',(-0.0509076486103377,0.109920055683831,0.005));
#908=CARTESIAN_POINT('',(-0.0508793975359909,0.109920055683831,0.005));
#909=CARTESIAN_POINT('',(-0.0578067667461362,0.0950247354854304,0.005));
#910=CARTESIAN_POINT('',(-0.0578067667461362,0.0950247354854304,0.));
#911=CARTESIAN_POINT('',(-0.0578067667461362,0.0950247354854304,0.005));
#912=CARTESIAN_POINT('',(-0.0509079171829378,0.103920324266564,0.005));
#913=CARTESIAN_POINT('',(-0.0509079171829378,0.103920324266564,0.005));
#914=CARTESIAN_POINT('',(-0.0479079171829378,0.103920324266564,0.005));
#915=CARTESIAN_POINT('',(-0.0509079171829378,0.103920324266564,0.));
#916=CARTESIAN_POINT('',(-0.0479079171829378,0.103920324266564,0.));
#917=CARTESIAN_POINT('',(-0.0509076486103377,0.109920189971965,0.005));
#918=CARTESIAN_POINT('',(-0.0509076486103377,0.109920189971965,0.));
#919=CARTESIAN_POINT('',(-0.0509076486103377,0.109920189971965,0.005));
#920=CARTESIAN_POINT('',(-0.0688093532484097,0.0974056418649561,0.005));
#921=CARTESIAN_POINT('',(-0.0688093532484097,0.0974056418649561,0.005));
#922=CARTESIAN_POINT('',(-0.0658093532484097,0.0974056418649561,0.005));
#923=CARTESIAN_POINT('',(-0.0688093532484097,0.0974056418649561,0.));
#924=CARTESIAN_POINT('',(-0.0658093532484097,0.0974056418649561,0.));
#925=CARTESIAN_POINT('',(-0.059858187585121,0.120662848773907,0.005));
#926=CARTESIAN_POINT('',(-0.0508511464616441,0.108920055683831,0.005));
#927=CARTESIAN_POINT('',(-0.0539076486103377,0.12392032427458,0.005));
#928=CARTESIAN_POINT('',(-0.0539076486103377,0.126779343493188,0.005));
#929=CARTESIAN_POINT('',(-0.0609076486103377,0.133920771921731,0.005));
#930=CARTESIAN_POINT('',(-0.0551572287626238,0.125739532921737,0.005));
#931=CARTESIAN_POINT('',(-0.0849070219083345,0.129606031051496,0.005));
#932=CARTESIAN_POINT('',(-0.059858187585121,0.120662848773907,0.));
#933=CARTESIAN_POINT('',(-0.059858187585121,0.108920055683831,0.));
#934=CARTESIAN_POINT('',(-0.0849070219083345,0.129606031051496,0.));
#935=CARTESIAN_POINT('',(-0.0551572287626238,0.125739532921737,0.));
#936=CARTESIAN_POINT('',(-0.0609076486103377,0.133920771921731,0.));
#937=CARTESIAN_POINT('',(-0.0539076486103377,0.126779343493188,0.));
#938=CARTESIAN_POINT('',(-0.0539076486103377,0.120662848773907,0.));
#939=CARTESIAN_POINT('',(-0.0478793975359909,0.109920055683831,0.015));
#940=CARTESIAN_POINT('',(-0.0478793975359909,0.109920055683831,-0.001));
#941=CARTESIAN_POINT('',(-0.0449076486103738,0.109920055683831,-0.009));
#942=CARTESIAN_POINT('',(-0.0509076486103377,0.136920189979206,0.015));
#943=CARTESIAN_POINT('',(-0.0509076486103377,0.136920189979206,-0.003));
#944=CARTESIAN_POINT('',(-0.0509076486103377,0.133920771921731,-0.003));
#945=CARTESIAN_POINT('',(-0.0509076486103377,0.133920771921731,0.015));
#946=CARTESIAN_POINT('',(-0.0509076486103377,0.133920771921731,0.008));
#947=CARTESIAN_POINT('',(-0.0509076486103377,0.109920324260099,0.008));
#948=CARTESIAN_POINT('',(-0.0509076486103377,0.110920055683831,0.014));
#949=CARTESIAN_POINT('',(-0.0509076486103377,0.110920055683831,0.015));
#950=CARTESIAN_POINT('',(-0.0509076486103377,0.136920189979206,0.015));
#951=CARTESIAN_POINT('',(-0.0509076486103377,0.148920055683831,0.015));
#952=CARTESIAN_POINT('',(-0.0509076486103377,0.148920055683831,0.014));
#953=CARTESIAN_POINT('',(-0.0509076486103377,0.149920055683831,0.014));
#954=CARTESIAN_POINT('',(-0.0509076486103377,0.149920055683831,0.015));
#955=CARTESIAN_POINT('',(-0.0509076486103377,0.149920055683831,-0.009));
#956=CARTESIAN_POINT('',(-0.0509076486103377,0.148920055683831,-0.009));
#957=CARTESIAN_POINT('',(-0.0509076486103377,0.148920055683831,-0.01));
#958=CARTESIAN_POINT('',(-0.0509076486103377,0.136920189979206,-0.01));
#959=CARTESIAN_POINT('',(-0.0509076486103377,0.110920055683831,-0.01));
#960=CARTESIAN_POINT('',(-0.0509076486103377,0.110920055683831,-0.009));
#961=CARTESIAN_POINT('',(-0.0478793975359909,0.109920055683831,0.015));
#962=CARTESIAN_POINT('',(-0.0449076486103738,0.109920055683831,0.006));
#963=CARTESIAN_POINT('',(-0.0478793975359909,0.109920055683831,0.014));
#964=CARTESIAN_POINT('',(-0.0479076486103377,0.149920055683831,0.015));
#965=CARTESIAN_POINT('',(-0.0479076486103377,0.149920055683831,-0.009));
#966=CARTESIAN_POINT('',(-0.0449076486103378,0.149920055683831,0.014));
#967=CARTESIAN_POINT('',(-0.059858187585121,0.120662848773907,0.015));
#968=CARTESIAN_POINT('',(-0.059858187585121,0.110920055683831,0.015));
#969=CARTESIAN_POINT('',(-0.0509076486103377,0.148920055683831,0.015));
#970=CARTESIAN_POINT('',(-0.059858187585121,0.120662848773907,-0.01));
#971=CARTESIAN_POINT('',(-0.059858187585121,0.148920055683831,-0.01));
#972=CARTESIAN_POINT('',(-0.0508511464616441,0.110920055683831,-0.01));
#973=CARTESIAN_POINT('',(-0.0479076486103377,0.148920055683831,-0.009));
#974=CARTESIAN_POINT('',(-0.059858187585121,0.110920055683831,-0.009));
#975=CARTESIAN_POINT('',(-0.0478793975359909,0.110920055683831,0.014));
#976=CARTESIAN_POINT('',(-0.059858187585121,0.148920055683831,0.014));
#977=CARTESIAN_POINT('',(-0.0539076486103377,0.120662848773907,-0.003));
#978=CARTESIAN_POINT('',(-0.0539076486103377,0.126779343493188,0.));
#979=CARTESIAN_POINT('',(-0.0533898701974708,0.127286867852822,-2.81738810050725E-19));
#980=CARTESIAN_POINT('',(-0.0524892361771084,0.128392402375827,-0.000256940248814401));
#981=CARTESIAN_POINT('',(-0.0512557195506357,0.13077941234077,-0.00127231986297486));
#982=CARTESIAN_POINT('',(-0.0509076486103377,0.132667717820225,-0.00231367461872102));
#983=CARTESIAN_POINT('',(-0.0509076486103377,0.133920771921731,-0.003));
#984=CARTESIAN_POINT('',(-0.0539076486103377,0.136920189979206,0.008));
#985=CARTESIAN_POINT('',(-0.0539076486103377,0.126779343493188,0.005));
#986=CARTESIAN_POINT('',(-0.0533898701974708,0.127286867852822,0.005));
#987=CARTESIAN_POINT('',(-0.0524892361771084,0.128392402375826,0.00525694024881558));
#988=CARTESIAN_POINT('',(-0.0512557195506358,0.130779412340773,0.00627231986296897));
#989=CARTESIAN_POINT('',(-0.0509076486103377,0.13266771782021,0.00731367461874691));
#990=CARTESIAN_POINT('',(-0.0509076486103377,0.133920771921731,0.008));
#991=CARTESIAN_POINT('',(-0.0609076486103377,0.133920771921731,0.005));
#992=CARTESIAN_POINT('',(-0.0551572287626238,0.125739532921737,0.0025));
#993=CARTESIAN_POINT('',(-0.059858187585121,0.108920055683831,-0.001));
#994=CARTESIAN_POINT('',(-0.0478793975359909,0.108920055683831,0.006));
#995=CARTESIAN_POINT('',(-0.0849070219083345,0.129606031051496,0.005));
#996=MECHANICAL_DESIGN_GEOMETRIC_PRESENTATION_REPRESENTATION('',(#557),
#997);
#997=(
GEOMETRIC_REPRESENTATION_CONTEXT(3)
GLOBAL_UNCERTAINTY_ASSIGNED_CONTEXT((#998))
GLOBAL_UNIT_ASSIGNED_CONTEXT((#1001,#1000,#999))
REPRESENTATION_CONTEXT('fingertip','TOP_LEVEL_ASSEMBLY_PART')
);
#998=UNCERTAINTY_MEASURE_WITH_UNIT(LENGTH_MEASURE(2.E-5),#1001,
'DISTANCE_ACCURACY_VALUE','Maximum Tolerance applied to model');
#999=(
NAMED_UNIT(*)
SI_UNIT($,.STERADIAN.)
SOLID_ANGLE_UNIT()
);
#1000=(
NAMED_UNIT(*)
PLANE_ANGLE_UNIT()
SI_UNIT($,.RADIAN.)
);
#1001=(
LENGTH_UNIT()
NAMED_UNIT(*)
SI_UNIT($,.METRE.)
);
#1002=PRODUCT_DEFINITION_SHAPE('','',#1003);
#1003=PRODUCT_DEFINITION('','',#1005,#1004);
#1004=PRODUCT_DEFINITION_CONTEXT('',#1011,'design');
#1005=PRODUCT_DEFINITION_FORMATION_WITH_SPECIFIED_SOURCE('','',#1007,
 .NOT_KNOWN.);
#1006=PRODUCT_RELATED_PRODUCT_CATEGORY('','',(#1007));
#1007=PRODUCT('fingertip','fingertip','fingertip',(#1009));
#1008=PRODUCT_CATEGORY('','');
#1009=PRODUCT_CONTEXT('',#1011,'mechanical');
#1010=APPLICATION_PROTOCOL_DEFINITION('international standard',
'ap242_managed_model_based_3d_engineering',2020,#1011);
#1011=APPLICATION_CONTEXT('managed model based 3d engineering');
ENDSEC;
END-ISO-10303-21;
