ISO-10303-21;
HEADER;
/* Generated by software containing ST-Developer
 * from STEP Tools, Inc. (www.steptools.com) 
 */
/* OPTION: using custom renumber hook */

FILE_DESCRIPTION(
/* description */ ('STEP AP242 Edition 2',
'CAx-IF Rec.Pracs.---Representation and Presentation of Product Manufa
cturing Information (PMI)---4.0---2014-10-13',
'CAx-IF Rec.Pracs.---3D Tessellated Geometry---0.4---2014-09-14','2;1',
'CAx-IF Rec.Pracs.---User Defined Attributes---1.5---2016-08-15'),
/* implementation_level */ '2;1');

FILE_NAME(
/* name */ 'gripper - simple_motor',
/* time_stamp */ '2026-02-08T09:29:50Z',
/* author */ (''),
/* organization */ (''),
/* preprocessor_version */ 'ST-DEVELOPER v20',
/* originating_system */ 'ONSHAPE BY PTC INC, 1.210',
/* authorisation */ '  ');

FILE_SCHEMA (('AP242_MANAGED_MODEL_BASED_3D_ENGINEERING_MIM_LF { 1 0 10303 442 3 1 4 }'));
ENDSEC;

DATA;
#10=SHAPE_REPRESENTATION_RELATIONSHIP('','',#459,#11);
#11=ADVANCED_BREP_SHAPE_REPRESENTATION('',(#457),#793);
#12=CYLINDRICAL_SURFACE('',#477,0.0008);
#13=CYLINDRICAL_SURFACE('',#480,0.0008);
#14=CYLINDRICAL_SURFACE('',#483,0.0008);
#15=CYLINDRICAL_SURFACE('',#486,0.003);
#16=CYLINDRICAL_SURFACE('',#489,0.0008);
#17=CYLINDRICAL_SURFACE('',#492,0.008);
#18=CYLINDRICAL_SURFACE('',#500,0.0008);
#19=CYLINDRICAL_SURFACE('',#503,0.0008);
#20=CYLINDRICAL_SURFACE('',#506,0.0008);
#21=CYLINDRICAL_SURFACE('',#509,0.003);
#22=CYLINDRICAL_SURFACE('',#512,0.0008);
#23=CYLINDRICAL_SURFACE('',#515,0.008);
#24=CYLINDRICAL_SURFACE('',#523,0.001);
#25=CYLINDRICAL_SURFACE('',#524,0.001);
#26=CYLINDRICAL_SURFACE('',#525,0.001);
#27=CYLINDRICAL_SURFACE('',#526,0.001);
#28=LINE('',#681,#40);
#29=LINE('',#684,#41);
#30=LINE('',#686,#42);
#31=LINE('',#688,#43);
#32=LINE('',#702,#44);
#33=LINE('',#705,#45);
#34=LINE('',#707,#46);
#35=LINE('',#709,#47);
#36=LINE('',#713,#48);
#37=LINE('',#714,#49);
#38=LINE('',#716,#50);
#39=LINE('',#718,#51);
#40=VECTOR('',#537,1.);
#41=VECTOR('',#538,1.);
#42=VECTOR('',#539,1.);
#43=VECTOR('',#540,1.);
#44=VECTOR('',#555,1.);
#45=VECTOR('',#556,1.);
#46=VECTOR('',#557,1.);
#47=VECTOR('',#558,1.);
#48=VECTOR('',#563,1.);
#49=VECTOR('',#564,1.);
#50=VECTOR('',#567,1.);
#51=VECTOR('',#570,1.);
#52=ORIENTED_EDGE('',*,*,#140,.T.);
#53=ORIENTED_EDGE('',*,*,#141,.T.);
#54=ORIENTED_EDGE('',*,*,#142,.F.);
#55=ORIENTED_EDGE('',*,*,#143,.F.);
#56=ORIENTED_EDGE('',*,*,#144,.T.);
#57=ORIENTED_EDGE('',*,*,#145,.T.);
#58=ORIENTED_EDGE('',*,*,#146,.F.);
#59=ORIENTED_EDGE('',*,*,#147,.F.);
#60=ORIENTED_EDGE('',*,*,#148,.F.);
#61=ORIENTED_EDGE('',*,*,#149,.T.);
#62=ORIENTED_EDGE('',*,*,#150,.F.);
#63=ORIENTED_EDGE('',*,*,#151,.T.);
#64=ORIENTED_EDGE('',*,*,#152,.T.);
#65=ORIENTED_EDGE('',*,*,#153,.T.);
#66=ORIENTED_EDGE('',*,*,#154,.T.);
#67=ORIENTED_EDGE('',*,*,#155,.F.);
#68=ORIENTED_EDGE('',*,*,#156,.F.);
#69=ORIENTED_EDGE('',*,*,#157,.F.);
#70=ORIENTED_EDGE('',*,*,#153,.F.);
#71=ORIENTED_EDGE('',*,*,#158,.F.);
#72=ORIENTED_EDGE('',*,*,#143,.T.);
#73=ORIENTED_EDGE('',*,*,#159,.T.);
#74=ORIENTED_EDGE('',*,*,#156,.T.);
#75=ORIENTED_EDGE('',*,*,#160,.F.);
#76=ORIENTED_EDGE('',*,*,#144,.F.);
#77=ORIENTED_EDGE('',*,*,#158,.T.);
#78=ORIENTED_EDGE('',*,*,#155,.T.);
#79=ORIENTED_EDGE('',*,*,#161,.F.);
#80=ORIENTED_EDGE('',*,*,#145,.F.);
#81=ORIENTED_EDGE('',*,*,#160,.T.);
#82=ORIENTED_EDGE('',*,*,#154,.F.);
#83=ORIENTED_EDGE('',*,*,#159,.F.);
#84=ORIENTED_EDGE('',*,*,#146,.T.);
#85=ORIENTED_EDGE('',*,*,#161,.T.);
#86=ORIENTED_EDGE('',*,*,#162,.F.);
#87=ORIENTED_EDGE('',*,*,#163,.T.);
#88=ORIENTED_EDGE('',*,*,#164,.F.);
#89=ORIENTED_EDGE('',*,*,#165,.T.);
#90=ORIENTED_EDGE('',*,*,#166,.T.);
#91=ORIENTED_EDGE('',*,*,#167,.F.);
#92=ORIENTED_EDGE('',*,*,#168,.F.);
#93=ORIENTED_EDGE('',*,*,#169,.T.);
#94=ORIENTED_EDGE('',*,*,#170,.T.);
#95=ORIENTED_EDGE('',*,*,#171,.F.);
#96=ORIENTED_EDGE('',*,*,#172,.T.);
#97=ORIENTED_EDGE('',*,*,#152,.F.);
#98=ORIENTED_EDGE('',*,*,#170,.F.);
#99=ORIENTED_EDGE('',*,*,#168,.T.);
#100=ORIENTED_EDGE('',*,*,#166,.F.);
#101=ORIENTED_EDGE('',*,*,#164,.T.);
#102=ORIENTED_EDGE('',*,*,#162,.T.);
#103=ORIENTED_EDGE('',*,*,#172,.F.);
#104=ORIENTED_EDGE('',*,*,#163,.F.);
#105=ORIENTED_EDGE('',*,*,#165,.F.);
#106=ORIENTED_EDGE('',*,*,#167,.T.);
#107=ORIENTED_EDGE('',*,*,#169,.F.);
#108=ORIENTED_EDGE('',*,*,#171,.T.);
#109=ORIENTED_EDGE('',*,*,#173,.T.);
#110=ORIENTED_EDGE('',*,*,#174,.F.);
#111=ORIENTED_EDGE('',*,*,#175,.T.);
#112=ORIENTED_EDGE('',*,*,#176,.F.);
#113=ORIENTED_EDGE('',*,*,#177,.F.);
#114=ORIENTED_EDGE('',*,*,#178,.T.);
#115=ORIENTED_EDGE('',*,*,#179,.T.);
#116=ORIENTED_EDGE('',*,*,#180,.F.);
#117=ORIENTED_EDGE('',*,*,#181,.F.);
#118=ORIENTED_EDGE('',*,*,#182,.T.);
#119=ORIENTED_EDGE('',*,*,#183,.F.);
#120=ORIENTED_EDGE('',*,*,#142,.T.);
#121=ORIENTED_EDGE('',*,*,#181,.T.);
#122=ORIENTED_EDGE('',*,*,#179,.F.);
#123=ORIENTED_EDGE('',*,*,#177,.T.);
#124=ORIENTED_EDGE('',*,*,#175,.F.);
#125=ORIENTED_EDGE('',*,*,#173,.F.);
#126=ORIENTED_EDGE('',*,*,#183,.T.);
#127=ORIENTED_EDGE('',*,*,#174,.T.);
#128=ORIENTED_EDGE('',*,*,#176,.T.);
#129=ORIENTED_EDGE('',*,*,#178,.F.);
#130=ORIENTED_EDGE('',*,*,#180,.T.);
#131=ORIENTED_EDGE('',*,*,#182,.F.);
#132=ORIENTED_EDGE('',*,*,#141,.F.);
#133=ORIENTED_EDGE('',*,*,#151,.F.);
#134=ORIENTED_EDGE('',*,*,#147,.T.);
#135=ORIENTED_EDGE('',*,*,#150,.T.);
#136=ORIENTED_EDGE('',*,*,#148,.T.);
#137=ORIENTED_EDGE('',*,*,#157,.T.);
#138=ORIENTED_EDGE('',*,*,#140,.F.);
#139=ORIENTED_EDGE('',*,*,#149,.F.);
#140=EDGE_CURVE('',#184,#184,#224,.F.);
#141=EDGE_CURVE('',#185,#185,#225,.F.);
#142=EDGE_CURVE('',#186,#186,#226,.T.);
#143=EDGE_CURVE('',#187,#188,#28,.T.);
#144=EDGE_CURVE('',#187,#189,#29,.T.);
#145=EDGE_CURVE('',#189,#190,#30,.T.);
#146=EDGE_CURVE('',#188,#190,#31,.T.);
#147=EDGE_CURVE('',#191,#191,#227,.T.);
#148=EDGE_CURVE('',#192,#192,#228,.T.);
#149=EDGE_CURVE('',#193,#193,#229,.T.);
#150=EDGE_CURVE('',#194,#194,#230,.T.);
#151=EDGE_CURVE('',#195,#195,#231,.T.);
#152=EDGE_CURVE('',#196,#196,#232,.T.);
#153=EDGE_CURVE('',#197,#198,#32,.T.);
#154=EDGE_CURVE('',#198,#199,#33,.T.);
#155=EDGE_CURVE('',#200,#199,#34,.T.);
#156=EDGE_CURVE('',#197,#200,#35,.T.);
#157=EDGE_CURVE('',#201,#201,#233,.T.);
#158=EDGE_CURVE('',#187,#197,#36,.T.);
#159=EDGE_CURVE('',#188,#198,#37,.T.);
#160=EDGE_CURVE('',#189,#200,#38,.T.);
#161=EDGE_CURVE('',#190,#199,#39,.T.);
#162=EDGE_CURVE('',#202,#202,#234,.T.);
#163=EDGE_CURVE('',#203,#203,#235,.T.);
#164=EDGE_CURVE('',#204,#204,#236,.T.);
#165=EDGE_CURVE('',#205,#205,#237,.T.);
#166=EDGE_CURVE('',#206,#206,#238,.T.);
#167=EDGE_CURVE('',#207,#207,#239,.T.);
#168=EDGE_CURVE('',#208,#208,#240,.T.);
#169=EDGE_CURVE('',#209,#209,#241,.T.);
#170=EDGE_CURVE('',#210,#210,#242,.T.);
#171=EDGE_CURVE('',#211,#211,#243,.T.);
#172=EDGE_CURVE('',#212,#212,#244,.T.);
#173=EDGE_CURVE('',#213,#213,#245,.T.);
#174=EDGE_CURVE('',#214,#214,#246,.T.);
#175=EDGE_CURVE('',#215,#215,#247,.T.);
#176=EDGE_CURVE('',#216,#216,#248,.T.);
#177=EDGE_CURVE('',#217,#217,#249,.T.);
#178=EDGE_CURVE('',#218,#218,#250,.T.);
#179=EDGE_CURVE('',#219,#219,#251,.T.);
#180=EDGE_CURVE('',#220,#220,#252,.T.);
#181=EDGE_CURVE('',#221,#221,#253,.T.);
#182=EDGE_CURVE('',#222,#222,#254,.T.);
#183=EDGE_CURVE('',#223,#223,#255,.T.);
#184=VERTEX_POINT('',#676);
#185=VERTEX_POINT('',#678);
#186=VERTEX_POINT('',#680);
#187=VERTEX_POINT('',#682);
#188=VERTEX_POINT('',#683);
#189=VERTEX_POINT('',#685);
#190=VERTEX_POINT('',#687);
#191=VERTEX_POINT('',#690);
#192=VERTEX_POINT('',#692);
#193=VERTEX_POINT('',#695);
#194=VERTEX_POINT('',#697);
#195=VERTEX_POINT('',#699);
#196=VERTEX_POINT('',#701);
#197=VERTEX_POINT('',#703);
#198=VERTEX_POINT('',#704);
#199=VERTEX_POINT('',#706);
#200=VERTEX_POINT('',#708);
#201=VERTEX_POINT('',#711);
#202=VERTEX_POINT('',#722);
#203=VERTEX_POINT('',#724);
#204=VERTEX_POINT('',#727);
#205=VERTEX_POINT('',#729);
#206=VERTEX_POINT('',#732);
#207=VERTEX_POINT('',#734);
#208=VERTEX_POINT('',#737);
#209=VERTEX_POINT('',#739);
#210=VERTEX_POINT('',#742);
#211=VERTEX_POINT('',#744);
#212=VERTEX_POINT('',#747);
#213=VERTEX_POINT('',#756);
#214=VERTEX_POINT('',#758);
#215=VERTEX_POINT('',#761);
#216=VERTEX_POINT('',#763);
#217=VERTEX_POINT('',#766);
#218=VERTEX_POINT('',#768);
#219=VERTEX_POINT('',#771);
#220=VERTEX_POINT('',#773);
#221=VERTEX_POINT('',#776);
#222=VERTEX_POINT('',#778);
#223=VERTEX_POINT('',#781);
#224=CIRCLE('',#462,0.001);
#225=CIRCLE('',#463,0.001);
#226=CIRCLE('',#464,0.008);
#227=CIRCLE('',#465,0.001);
#228=CIRCLE('',#466,0.001);
#229=CIRCLE('',#468,0.001);
#230=CIRCLE('',#469,0.001);
#231=CIRCLE('',#470,0.001);
#232=CIRCLE('',#471,0.008);
#233=CIRCLE('',#472,0.001);
#234=CIRCLE('',#478,0.0008);
#235=CIRCLE('',#479,0.0008);
#236=CIRCLE('',#481,0.0008);
#237=CIRCLE('',#482,0.0008);
#238=CIRCLE('',#484,0.0008);
#239=CIRCLE('',#485,0.0008);
#240=CIRCLE('',#487,0.003);
#241=CIRCLE('',#488,0.003);
#242=CIRCLE('',#490,0.0008);
#243=CIRCLE('',#491,0.0008);
#244=CIRCLE('',#493,0.008);
#245=CIRCLE('',#501,0.0008);
#246=CIRCLE('',#502,0.0008);
#247=CIRCLE('',#504,0.0008);
#248=CIRCLE('',#505,0.0008);
#249=CIRCLE('',#507,0.0008);
#250=CIRCLE('',#508,0.0008);
#251=CIRCLE('',#510,0.003);
#252=CIRCLE('',#511,0.003);
#253=CIRCLE('',#513,0.0008);
#254=CIRCLE('',#514,0.0008);
#255=CIRCLE('',#516,0.008);
#256=EDGE_LOOP('',(#52));
#257=EDGE_LOOP('',(#53));
#258=EDGE_LOOP('',(#54));
#259=EDGE_LOOP('',(#55,#56,#57,#58));
#260=EDGE_LOOP('',(#59));
#261=EDGE_LOOP('',(#60));
#262=EDGE_LOOP('',(#61));
#263=EDGE_LOOP('',(#62));
#264=EDGE_LOOP('',(#63));
#265=EDGE_LOOP('',(#64));
#266=EDGE_LOOP('',(#65,#66,#67,#68));
#267=EDGE_LOOP('',(#69));
#268=EDGE_LOOP('',(#70,#71,#72,#73));
#269=EDGE_LOOP('',(#74,#75,#76,#77));
#270=EDGE_LOOP('',(#78,#79,#80,#81));
#271=EDGE_LOOP('',(#82,#83,#84,#85));
#272=EDGE_LOOP('',(#86));
#273=EDGE_LOOP('',(#87));
#274=EDGE_LOOP('',(#88));
#275=EDGE_LOOP('',(#89));
#276=EDGE_LOOP('',(#90));
#277=EDGE_LOOP('',(#91));
#278=EDGE_LOOP('',(#92));
#279=EDGE_LOOP('',(#93));
#280=EDGE_LOOP('',(#94));
#281=EDGE_LOOP('',(#95));
#282=EDGE_LOOP('',(#96));
#283=EDGE_LOOP('',(#97));
#284=EDGE_LOOP('',(#98));
#285=EDGE_LOOP('',(#99));
#286=EDGE_LOOP('',(#100));
#287=EDGE_LOOP('',(#101));
#288=EDGE_LOOP('',(#102));
#289=EDGE_LOOP('',(#103));
#290=EDGE_LOOP('',(#104));
#291=EDGE_LOOP('',(#105));
#292=EDGE_LOOP('',(#106));
#293=EDGE_LOOP('',(#107));
#294=EDGE_LOOP('',(#108));
#295=EDGE_LOOP('',(#109));
#296=EDGE_LOOP('',(#110));
#297=EDGE_LOOP('',(#111));
#298=EDGE_LOOP('',(#112));
#299=EDGE_LOOP('',(#113));
#300=EDGE_LOOP('',(#114));
#301=EDGE_LOOP('',(#115));
#302=EDGE_LOOP('',(#116));
#303=EDGE_LOOP('',(#117));
#304=EDGE_LOOP('',(#118));
#305=EDGE_LOOP('',(#119));
#306=EDGE_LOOP('',(#120));
#307=EDGE_LOOP('',(#121));
#308=EDGE_LOOP('',(#122));
#309=EDGE_LOOP('',(#123));
#310=EDGE_LOOP('',(#124));
#311=EDGE_LOOP('',(#125));
#312=EDGE_LOOP('',(#126));
#313=EDGE_LOOP('',(#127));
#314=EDGE_LOOP('',(#128));
#315=EDGE_LOOP('',(#129));
#316=EDGE_LOOP('',(#130));
#317=EDGE_LOOP('',(#131));
#318=EDGE_LOOP('',(#132));
#319=EDGE_LOOP('',(#133));
#320=EDGE_LOOP('',(#134));
#321=EDGE_LOOP('',(#135));
#322=EDGE_LOOP('',(#136));
#323=EDGE_LOOP('',(#137));
#324=EDGE_LOOP('',(#138));
#325=EDGE_LOOP('',(#139));
#326=FACE_BOUND('',#256,.T.);
#327=FACE_BOUND('',#257,.T.);
#328=FACE_BOUND('',#258,.T.);
#329=FACE_BOUND('',#259,.T.);
#330=FACE_BOUND('',#260,.T.);
#331=FACE_BOUND('',#261,.T.);
#332=FACE_BOUND('',#262,.T.);
#333=FACE_BOUND('',#263,.T.);
#334=FACE_BOUND('',#264,.T.);
#335=FACE_BOUND('',#265,.T.);
#336=FACE_BOUND('',#266,.T.);
#337=FACE_BOUND('',#267,.T.);
#338=FACE_BOUND('',#268,.T.);
#339=FACE_BOUND('',#269,.T.);
#340=FACE_BOUND('',#270,.T.);
#341=FACE_BOUND('',#271,.T.);
#342=FACE_BOUND('',#272,.T.);
#343=FACE_BOUND('',#273,.T.);
#344=FACE_BOUND('',#274,.T.);
#345=FACE_BOUND('',#275,.T.);
#346=FACE_BOUND('',#276,.T.);
#347=FACE_BOUND('',#277,.T.);
#348=FACE_BOUND('',#278,.T.);
#349=FACE_BOUND('',#279,.T.);
#350=FACE_BOUND('',#280,.T.);
#351=FACE_BOUND('',#281,.T.);
#352=FACE_BOUND('',#282,.T.);
#353=FACE_BOUND('',#283,.T.);
#354=FACE_BOUND('',#284,.T.);
#355=FACE_BOUND('',#285,.T.);
#356=FACE_BOUND('',#286,.T.);
#357=FACE_BOUND('',#287,.T.);
#358=FACE_BOUND('',#288,.T.);
#359=FACE_BOUND('',#289,.T.);
#360=FACE_BOUND('',#290,.T.);
#361=FACE_BOUND('',#291,.T.);
#362=FACE_BOUND('',#292,.T.);
#363=FACE_BOUND('',#293,.T.);
#364=FACE_BOUND('',#294,.T.);
#365=FACE_BOUND('',#295,.T.);
#366=FACE_BOUND('',#296,.T.);
#367=FACE_BOUND('',#297,.T.);
#368=FACE_BOUND('',#298,.T.);
#369=FACE_BOUND('',#299,.T.);
#370=FACE_BOUND('',#300,.T.);
#371=FACE_BOUND('',#301,.T.);
#372=FACE_BOUND('',#302,.T.);
#373=FACE_BOUND('',#303,.T.);
#374=FACE_BOUND('',#304,.T.);
#375=FACE_BOUND('',#305,.T.);
#376=FACE_BOUND('',#306,.T.);
#377=FACE_BOUND('',#307,.T.);
#378=FACE_BOUND('',#308,.T.);
#379=FACE_BOUND('',#309,.T.);
#380=FACE_BOUND('',#310,.T.);
#381=FACE_BOUND('',#311,.T.);
#382=FACE_BOUND('',#312,.T.);
#383=FACE_BOUND('',#313,.T.);
#384=FACE_BOUND('',#314,.T.);
#385=FACE_BOUND('',#315,.T.);
#386=FACE_BOUND('',#316,.T.);
#387=FACE_BOUND('',#317,.T.);
#388=FACE_BOUND('',#318,.T.);
#389=FACE_BOUND('',#319,.T.);
#390=FACE_BOUND('',#320,.T.);
#391=FACE_BOUND('',#321,.T.);
#392=FACE_BOUND('',#322,.T.);
#393=FACE_BOUND('',#323,.T.);
#394=FACE_BOUND('',#324,.T.);
#395=FACE_BOUND('',#325,.T.);
#396=PLANE('',#461);
#397=PLANE('',#467);
#398=PLANE('',#473);
#399=PLANE('',#474);
#400=PLANE('',#475);
#401=PLANE('',#476);
#402=PLANE('',#494);
#403=PLANE('',#495);
#404=PLANE('',#496);
#405=PLANE('',#497);
#406=PLANE('',#498);
#407=PLANE('',#499);
#408=PLANE('',#517);
#409=PLANE('',#518);
#410=PLANE('',#519);
#411=PLANE('',#520);
#412=PLANE('',#521);
#413=PLANE('',#522);
#414=ADVANCED_FACE('',(#326,#327,#328,#329,#330,#331),#396,.T.);
#415=ADVANCED_FACE('',(#332,#333,#334,#335,#336,#337),#397,.F.);
#416=ADVANCED_FACE('',(#338),#398,.T.);
#417=ADVANCED_FACE('',(#339),#399,.F.);
#418=ADVANCED_FACE('',(#340),#400,.F.);
#419=ADVANCED_FACE('',(#341),#401,.T.);
#420=ADVANCED_FACE('',(#342,#343),#12,.F.);
#421=ADVANCED_FACE('',(#344,#345),#13,.F.);
#422=ADVANCED_FACE('',(#346,#347),#14,.F.);
#423=ADVANCED_FACE('',(#348,#349),#15,.F.);
#424=ADVANCED_FACE('',(#350,#351),#16,.F.);
#425=ADVANCED_FACE('',(#352,#353),#17,.T.);
#426=ADVANCED_FACE('',(#354,#355,#356,#357,#358,#359),#402,.F.);
#427=ADVANCED_FACE('',(#360),#403,.F.);
#428=ADVANCED_FACE('',(#361),#404,.F.);
#429=ADVANCED_FACE('',(#362),#405,.F.);
#430=ADVANCED_FACE('',(#363),#406,.F.);
#431=ADVANCED_FACE('',(#364),#407,.F.);
#432=ADVANCED_FACE('',(#365,#366),#18,.F.);
#433=ADVANCED_FACE('',(#367,#368),#19,.F.);
#434=ADVANCED_FACE('',(#369,#370),#20,.F.);
#435=ADVANCED_FACE('',(#371,#372),#21,.F.);
#436=ADVANCED_FACE('',(#373,#374),#22,.F.);
#437=ADVANCED_FACE('',(#375,#376),#23,.T.);
#438=ADVANCED_FACE('',(#377,#378,#379,#380,#381,#382),#408,.T.);
#439=ADVANCED_FACE('',(#383),#409,.T.);
#440=ADVANCED_FACE('',(#384),#410,.T.);
#441=ADVANCED_FACE('',(#385),#411,.T.);
#442=ADVANCED_FACE('',(#386),#412,.T.);
#443=ADVANCED_FACE('',(#387),#413,.T.);
#444=ADVANCED_FACE('',(#388,#389),#24,.F.);
#445=ADVANCED_FACE('',(#390,#391),#25,.F.);
#446=ADVANCED_FACE('',(#392,#393),#26,.F.);
#447=ADVANCED_FACE('',(#394,#395),#27,.F.);
#448=CLOSED_SHELL('',(#414,#415,#416,#417,#418,#419,#420,#421,#422,#423,
#424,#425,#426,#427,#428,#429,#430,#431,#432,#433,#434,#435,#436,#437,#438,
#439,#440,#441,#442,#443,#444,#445,#446,#447));
#449=STYLED_ITEM('',(#450),#457);
#450=PRESENTATION_STYLE_ASSIGNMENT((#451));
#451=SURFACE_STYLE_USAGE(.BOTH.,#452);
#452=SURFACE_SIDE_STYLE('',(#453));
#453=SURFACE_STYLE_FILL_AREA(#454);
#454=FILL_AREA_STYLE('',(#455));
#455=FILL_AREA_STYLE_COLOUR('',#456);
#456=COLOUR_RGB('',0.498039215686275,0.498039215686275,0.498039215686275);
#457=MANIFOLD_SOLID_BREP('simple_motor',#448);
#458=SHAPE_DEFINITION_REPRESENTATION(#798,#459);
#459=SHAPE_REPRESENTATION('simple_motor',(#460),#793);
#460=AXIS2_PLACEMENT_3D('',#673,#527,#528);
#461=AXIS2_PLACEMENT_3D('',#674,#529,#530);
#462=AXIS2_PLACEMENT_3D('',#675,#531,#532);
#463=AXIS2_PLACEMENT_3D('',#677,#533,#534);
#464=AXIS2_PLACEMENT_3D('',#679,#535,#536);
#465=AXIS2_PLACEMENT_3D('',#689,#541,#542);
#466=AXIS2_PLACEMENT_3D('',#691,#543,#544);
#467=AXIS2_PLACEMENT_3D('',#693,#545,#546);
#468=AXIS2_PLACEMENT_3D('',#694,#547,#548);
#469=AXIS2_PLACEMENT_3D('',#696,#549,#550);
#470=AXIS2_PLACEMENT_3D('',#698,#551,#552);
#471=AXIS2_PLACEMENT_3D('',#700,#553,#554);
#472=AXIS2_PLACEMENT_3D('',#710,#559,#560);
#473=AXIS2_PLACEMENT_3D('',#712,#561,#562);
#474=AXIS2_PLACEMENT_3D('',#715,#565,#566);
#475=AXIS2_PLACEMENT_3D('',#717,#568,#569);
#476=AXIS2_PLACEMENT_3D('',#719,#571,#572);
#477=AXIS2_PLACEMENT_3D('',#720,#573,#574);
#478=AXIS2_PLACEMENT_3D('',#721,#575,#576);
#479=AXIS2_PLACEMENT_3D('',#723,#577,#578);
#480=AXIS2_PLACEMENT_3D('',#725,#579,#580);
#481=AXIS2_PLACEMENT_3D('',#726,#581,#582);
#482=AXIS2_PLACEMENT_3D('',#728,#583,#584);
#483=AXIS2_PLACEMENT_3D('',#730,#585,#586);
#484=AXIS2_PLACEMENT_3D('',#731,#587,#588);
#485=AXIS2_PLACEMENT_3D('',#733,#589,#590);
#486=AXIS2_PLACEMENT_3D('',#735,#591,#592);
#487=AXIS2_PLACEMENT_3D('',#736,#593,#594);
#488=AXIS2_PLACEMENT_3D('',#738,#595,#596);
#489=AXIS2_PLACEMENT_3D('',#740,#597,#598);
#490=AXIS2_PLACEMENT_3D('',#741,#599,#600);
#491=AXIS2_PLACEMENT_3D('',#743,#601,#602);
#492=AXIS2_PLACEMENT_3D('',#745,#603,#604);
#493=AXIS2_PLACEMENT_3D('',#746,#605,#606);
#494=AXIS2_PLACEMENT_3D('',#748,#607,#608);
#495=AXIS2_PLACEMENT_3D('',#749,#609,#610);
#496=AXIS2_PLACEMENT_3D('',#750,#611,#612);
#497=AXIS2_PLACEMENT_3D('',#751,#613,#614);
#498=AXIS2_PLACEMENT_3D('',#752,#615,#616);
#499=AXIS2_PLACEMENT_3D('',#753,#617,#618);
#500=AXIS2_PLACEMENT_3D('',#754,#619,#620);
#501=AXIS2_PLACEMENT_3D('',#755,#621,#622);
#502=AXIS2_PLACEMENT_3D('',#757,#623,#624);
#503=AXIS2_PLACEMENT_3D('',#759,#625,#626);
#504=AXIS2_PLACEMENT_3D('',#760,#627,#628);
#505=AXIS2_PLACEMENT_3D('',#762,#629,#630);
#506=AXIS2_PLACEMENT_3D('',#764,#631,#632);
#507=AXIS2_PLACEMENT_3D('',#765,#633,#634);
#508=AXIS2_PLACEMENT_3D('',#767,#635,#636);
#509=AXIS2_PLACEMENT_3D('',#769,#637,#638);
#510=AXIS2_PLACEMENT_3D('',#770,#639,#640);
#511=AXIS2_PLACEMENT_3D('',#772,#641,#642);
#512=AXIS2_PLACEMENT_3D('',#774,#643,#644);
#513=AXIS2_PLACEMENT_3D('',#775,#645,#646);
#514=AXIS2_PLACEMENT_3D('',#777,#647,#648);
#515=AXIS2_PLACEMENT_3D('',#779,#649,#650);
#516=AXIS2_PLACEMENT_3D('',#780,#651,#652);
#517=AXIS2_PLACEMENT_3D('',#782,#653,#654);
#518=AXIS2_PLACEMENT_3D('',#783,#655,#656);
#519=AXIS2_PLACEMENT_3D('',#784,#657,#658);
#520=AXIS2_PLACEMENT_3D('',#785,#659,#660);
#521=AXIS2_PLACEMENT_3D('',#786,#661,#662);
#522=AXIS2_PLACEMENT_3D('',#787,#663,#664);
#523=AXIS2_PLACEMENT_3D('',#788,#665,#666);
#524=AXIS2_PLACEMENT_3D('',#789,#667,#668);
#525=AXIS2_PLACEMENT_3D('',#790,#669,#670);
#526=AXIS2_PLACEMENT_3D('',#791,#671,#672);
#527=DIRECTION('',(0.,0.,1.));
#528=DIRECTION('',(1.,0.,0.));
#529=DIRECTION('',(0.,-1.,0.));
#530=DIRECTION('',(1.,0.,0.));
#531=DIRECTION('',(0.,-1.,0.));
#532=DIRECTION('',(0.,0.,-1.));
#533=DIRECTION('',(0.,-1.,0.));
#534=DIRECTION('',(0.,0.,-1.));
#535=DIRECTION('',(0.,-1.,0.));
#536=DIRECTION('',(0.,0.,-1.));
#537=DIRECTION('',(0.,0.,-1.));
#538=DIRECTION('',(-1.,0.,-8.67361737988404E-17));
#539=DIRECTION('',(0.,0.,-1.));
#540=DIRECTION('',(-1.,0.,0.));
#541=DIRECTION('',(0.,-1.,0.));
#542=DIRECTION('',(0.,0.,-1.));
#543=DIRECTION('',(0.,-1.,0.));
#544=DIRECTION('',(0.,0.,-1.));
#545=DIRECTION('',(0.,-1.,0.));
#546=DIRECTION('',(1.,0.,0.));
#547=DIRECTION('',(0.,-1.,0.));
#548=DIRECTION('',(0.,0.,1.));
#549=DIRECTION('',(0.,1.,0.));
#550=DIRECTION('',(0.,0.,1.));
#551=DIRECTION('',(0.,-1.,0.));
#552=DIRECTION('',(0.,0.,1.));
#553=DIRECTION('',(0.,-1.,0.));
#554=DIRECTION('',(0.,0.,-1.));
#555=DIRECTION('',(0.,0.,-1.));
#556=DIRECTION('',(-1.,0.,0.));
#557=DIRECTION('',(0.,0.,-1.));
#558=DIRECTION('',(-1.,0.,-8.67361737988404E-17));
#559=DIRECTION('',(0.,1.,0.));
#560=DIRECTION('',(0.,0.,1.));
#561=DIRECTION('',(1.,0.,0.));
#562=DIRECTION('',(0.,0.,-1.));
#563=DIRECTION('',(0.,1.,0.));
#564=DIRECTION('',(0.,1.,0.));
#565=DIRECTION('',(8.67361737988404E-17,0.,-1.));
#566=DIRECTION('',(-1.,0.,-8.67361737988404E-17));
#567=DIRECTION('',(0.,1.,0.));
#568=DIRECTION('',(1.,0.,0.));
#569=DIRECTION('',(0.,0.,-1.));
#570=DIRECTION('',(0.,1.,0.));
#571=DIRECTION('',(0.,0.,-1.));
#572=DIRECTION('',(-1.,0.,0.));
#573=DIRECTION('',(0.,-1.,0.));
#574=DIRECTION('',(0.,0.,-1.));
#575=DIRECTION('',(0.,-1.,0.));
#576=DIRECTION('',(0.,0.,-1.));
#577=DIRECTION('',(0.,-1.,0.));
#578=DIRECTION('',(0.,0.,-1.));
#579=DIRECTION('',(0.,-1.,0.));
#580=DIRECTION('',(0.,0.,-1.));
#581=DIRECTION('',(0.,-1.,0.));
#582=DIRECTION('',(0.,0.,-1.));
#583=DIRECTION('',(0.,-1.,0.));
#584=DIRECTION('',(0.,0.,-1.));
#585=DIRECTION('',(0.,-1.,0.));
#586=DIRECTION('',(0.,0.,-1.));
#587=DIRECTION('',(0.,1.,0.));
#588=DIRECTION('',(0.,0.,-1.));
#589=DIRECTION('',(0.,1.,0.));
#590=DIRECTION('',(0.,0.,-1.));
#591=DIRECTION('',(0.,-1.,0.));
#592=DIRECTION('',(0.,0.,-1.));
#593=DIRECTION('',(0.,-1.,0.));
#594=DIRECTION('',(0.,0.,-1.));
#595=DIRECTION('',(0.,-1.,0.));
#596=DIRECTION('',(0.,0.,-1.));
#597=DIRECTION('',(0.,-1.,0.));
#598=DIRECTION('',(0.,0.,-1.));
#599=DIRECTION('',(0.,1.,0.));
#600=DIRECTION('',(0.,0.,-1.));
#601=DIRECTION('',(0.,1.,0.));
#602=DIRECTION('',(0.,0.,-1.));
#603=DIRECTION('',(0.,-1.,0.));
#604=DIRECTION('',(0.,0.,-1.));
#605=DIRECTION('',(0.,-1.,0.));
#606=DIRECTION('',(0.,0.,-1.));
#607=DIRECTION('',(0.,-1.,0.));
#608=DIRECTION('',(1.,0.,0.));
#609=DIRECTION('',(0.,-1.,0.));
#610=DIRECTION('',(1.,0.,0.));
#611=DIRECTION('',(0.,-1.,0.));
#612=DIRECTION('',(1.,0.,0.));
#613=DIRECTION('',(0.,-1.,0.));
#614=DIRECTION('',(1.,0.,0.));
#615=DIRECTION('',(0.,-1.,0.));
#616=DIRECTION('',(1.,0.,0.));
#617=DIRECTION('',(0.,-1.,0.));
#618=DIRECTION('',(1.,0.,0.));
#619=DIRECTION('',(0.,1.,0.));
#620=DIRECTION('',(0.,0.,1.));
#621=DIRECTION('',(0.,-1.,0.));
#622=DIRECTION('',(0.,0.,-1.));
#623=DIRECTION('',(0.,-1.,0.));
#624=DIRECTION('',(0.,0.,-1.));
#625=DIRECTION('',(0.,1.,0.));
#626=DIRECTION('',(0.,0.,1.));
#627=DIRECTION('',(0.,-1.,0.));
#628=DIRECTION('',(0.,0.,-1.));
#629=DIRECTION('',(0.,-1.,0.));
#630=DIRECTION('',(0.,0.,-1.));
#631=DIRECTION('',(0.,1.,0.));
#632=DIRECTION('',(0.,0.,1.));
#633=DIRECTION('',(0.,1.,0.));
#634=DIRECTION('',(0.,0.,-1.));
#635=DIRECTION('',(0.,1.,0.));
#636=DIRECTION('',(0.,0.,-1.));
#637=DIRECTION('',(0.,1.,0.));
#638=DIRECTION('',(0.,0.,1.));
#639=DIRECTION('',(0.,-1.,0.));
#640=DIRECTION('',(0.,0.,-1.));
#641=DIRECTION('',(0.,-1.,0.));
#642=DIRECTION('',(0.,0.,-1.));
#643=DIRECTION('',(0.,1.,0.));
#644=DIRECTION('',(0.,0.,1.));
#645=DIRECTION('',(0.,1.,0.));
#646=DIRECTION('',(0.,0.,-1.));
#647=DIRECTION('',(0.,1.,0.));
#648=DIRECTION('',(0.,0.,-1.));
#649=DIRECTION('',(0.,1.,0.));
#650=DIRECTION('',(0.,0.,1.));
#651=DIRECTION('',(0.,-1.,0.));
#652=DIRECTION('',(0.,0.,-1.));
#653=DIRECTION('',(0.,-1.,0.));
#654=DIRECTION('',(1.,0.,0.));
#655=DIRECTION('',(0.,-1.,0.));
#656=DIRECTION('',(1.,0.,0.));
#657=DIRECTION('',(0.,-1.,0.));
#658=DIRECTION('',(1.,0.,0.));
#659=DIRECTION('',(0.,-1.,0.));
#660=DIRECTION('',(1.,0.,0.));
#661=DIRECTION('',(0.,-1.,0.));
#662=DIRECTION('',(1.,0.,0.));
#663=DIRECTION('',(0.,-1.,0.));
#664=DIRECTION('',(1.,0.,0.));
#665=DIRECTION('',(0.,1.,0.));
#666=DIRECTION('',(0.,0.,1.));
#667=DIRECTION('',(0.,1.,0.));
#668=DIRECTION('',(0.,0.,1.));
#669=DIRECTION('',(0.,1.,0.));
#670=DIRECTION('',(0.,0.,1.));
#671=DIRECTION('',(0.,1.,0.));
#672=DIRECTION('',(0.,0.,1.));
#673=CARTESIAN_POINT('',(0.,0.,0.));
#674=CARTESIAN_POINT('',(0.,-0.023,-0.0075));
#675=CARTESIAN_POINT('',(0.008,-0.023,-0.0225));
#676=CARTESIAN_POINT('',(0.008,-0.023,-0.0235));
#677=CARTESIAN_POINT('',(0.008,-0.023,0.0075));
#678=CARTESIAN_POINT('',(0.008,-0.023,0.0065));
#679=CARTESIAN_POINT('',(0.,-0.023,4.89858719658941E-19));
#680=CARTESIAN_POINT('',(0.,-0.023,-0.008));
#681=CARTESIAN_POINT('',(0.01,-0.023,-0.0075));
#682=CARTESIAN_POINT('',(0.01,-0.023,0.0095));
#683=CARTESIAN_POINT('',(0.01,-0.023,-0.0245));
#684=CARTESIAN_POINT('',(-8.67361737988404E-19,-0.023,0.0095));
#685=CARTESIAN_POINT('',(-0.01,-0.023,0.0095));
#686=CARTESIAN_POINT('',(-0.01,-0.023,-0.0075));
#687=CARTESIAN_POINT('',(-0.01,-0.023,-0.0245));
#688=CARTESIAN_POINT('',(-8.67361737988404E-19,-0.023,-0.0245));
#689=CARTESIAN_POINT('',(-0.008,-0.023,0.0075));
#690=CARTESIAN_POINT('',(-0.008,-0.023,0.0065));
#691=CARTESIAN_POINT('',(-0.008,-0.023,-0.0225));
#692=CARTESIAN_POINT('',(-0.008,-0.023,-0.0235));
#693=CARTESIAN_POINT('',(0.,0.,-0.0075));
#694=CARTESIAN_POINT('',(0.008,0.,-0.0225));
#695=CARTESIAN_POINT('',(0.008,0.,-0.0215));
#696=CARTESIAN_POINT('',(-0.008,0.,0.0075));
#697=CARTESIAN_POINT('',(-0.008,0.,0.0085));
#698=CARTESIAN_POINT('',(0.008,0.,0.0075));
#699=CARTESIAN_POINT('',(0.008,0.,0.0085));
#700=CARTESIAN_POINT('',(0.,0.,4.89858719658941E-19));
#701=CARTESIAN_POINT('',(0.,0.,-0.008));
#702=CARTESIAN_POINT('',(0.01,0.,-0.0075));
#703=CARTESIAN_POINT('',(0.01,0.,0.0095));
#704=CARTESIAN_POINT('',(0.01,0.,-0.0245));
#705=CARTESIAN_POINT('',(-8.67361737988404E-19,0.,-0.0245));
#706=CARTESIAN_POINT('',(-0.01,0.,-0.0245));
#707=CARTESIAN_POINT('',(-0.01,0.,-0.0075));
#708=CARTESIAN_POINT('',(-0.01,0.,0.0095));
#709=CARTESIAN_POINT('',(-8.67361737988404E-19,0.,0.0095));
#710=CARTESIAN_POINT('',(-0.008,0.,-0.0225));
#711=CARTESIAN_POINT('',(-0.008,0.,-0.0215));
#712=CARTESIAN_POINT('',(0.01,-0.023,-0.0075));
#713=CARTESIAN_POINT('',(0.01,-0.023,0.0095));
#714=CARTESIAN_POINT('',(0.01,-0.023,-0.0245));
#715=CARTESIAN_POINT('',(-8.67361737988404E-19,-0.023,0.0095));
#716=CARTESIAN_POINT('',(-0.01,-0.023,0.0095));
#717=CARTESIAN_POINT('',(-0.01,-0.023,-0.0075));
#718=CARTESIAN_POINT('',(-0.01,-0.023,-0.0245));
#719=CARTESIAN_POINT('',(-8.67361737988404E-19,-0.023,-0.0245));
#720=CARTESIAN_POINT('',(-1.0842021724855E-19,0.0032,0.006));
#721=CARTESIAN_POINT('',(-1.0842021724855E-19,0.0032,0.006));
#722=CARTESIAN_POINT('',(-1.0842021724855E-19,0.0032,0.0052));
#723=CARTESIAN_POINT('',(-1.0842021724855E-19,0.,0.006));
#724=CARTESIAN_POINT('',(-1.0842021724855E-19,0.,0.0052));
#725=CARTESIAN_POINT('',(0.006,0.0032,1.65120162662331E-19));
#726=CARTESIAN_POINT('',(0.006,0.0032,1.65120162662331E-19));
#727=CARTESIAN_POINT('',(0.006,0.0032,-0.0008));
#728=CARTESIAN_POINT('',(0.006,0.,1.65120162662331E-19));
#729=CARTESIAN_POINT('',(0.006,0.,-0.0008));
#730=CARTESIAN_POINT('',(-1.0842021724855E-19,0.0032,-0.006));
#731=CARTESIAN_POINT('',(-1.0842021724855E-19,0.0032,-0.006));
#732=CARTESIAN_POINT('',(-1.0842021724855E-19,0.0032,-0.0068));
#733=CARTESIAN_POINT('',(-1.0842021724855E-19,0.,-0.006));
#734=CARTESIAN_POINT('',(-1.0842021724855E-19,0.,-0.0068));
#735=CARTESIAN_POINT('',(0.,0.0032,1.83697019872103E-19));
#736=CARTESIAN_POINT('',(0.,0.0032,1.83697019872103E-19));
#737=CARTESIAN_POINT('',(0.,0.0032,-0.003));
#738=CARTESIAN_POINT('',(0.,0.,1.83697019872103E-19));
#739=CARTESIAN_POINT('',(0.,0.,-0.003));
#740=CARTESIAN_POINT('',(-0.006,0.0032,1.65120162662331E-19));
#741=CARTESIAN_POINT('',(-0.006,0.0032,1.65120162662331E-19));
#742=CARTESIAN_POINT('',(-0.006,0.0032,-0.0008));
#743=CARTESIAN_POINT('',(-0.006,0.,1.65120162662331E-19));
#744=CARTESIAN_POINT('',(-0.006,0.,-0.0008));
#745=CARTESIAN_POINT('',(0.,0.0032,4.89858719658941E-19));
#746=CARTESIAN_POINT('',(0.,0.0032,4.89858719658941E-19));
#747=CARTESIAN_POINT('',(0.,0.0032,-0.008));
#748=CARTESIAN_POINT('',(0.,0.0032,-0.0075));
#749=CARTESIAN_POINT('',(0.,0.,-0.0075));
#750=CARTESIAN_POINT('',(0.,0.,-0.0075));
#751=CARTESIAN_POINT('',(0.,0.,-0.0075));
#752=CARTESIAN_POINT('',(0.,0.,-0.0075));
#753=CARTESIAN_POINT('',(0.,0.,-0.0075));
#754=CARTESIAN_POINT('',(-1.0842021724855E-19,-0.0262,0.006));
#755=CARTESIAN_POINT('',(-1.0842021724855E-19,-0.0262,0.006));
#756=CARTESIAN_POINT('',(-1.0842021724855E-19,-0.0262,0.0052));
#757=CARTESIAN_POINT('',(-1.0842021724855E-19,-0.023,0.006));
#758=CARTESIAN_POINT('',(-1.0842021724855E-19,-0.023,0.0052));
#759=CARTESIAN_POINT('',(0.006,-0.0262,1.65120162662331E-19));
#760=CARTESIAN_POINT('',(0.006,-0.0262,1.65120162662331E-19));
#761=CARTESIAN_POINT('',(0.006,-0.0262,-0.0008));
#762=CARTESIAN_POINT('',(0.006,-0.023,1.65120162662331E-19));
#763=CARTESIAN_POINT('',(0.006,-0.023,-0.0008));
#764=CARTESIAN_POINT('',(-1.0842021724855E-19,-0.0262,-0.006));
#765=CARTESIAN_POINT('',(-1.0842021724855E-19,-0.0262,-0.006));
#766=CARTESIAN_POINT('',(-1.0842021724855E-19,-0.0262,-0.0068));
#767=CARTESIAN_POINT('',(-1.0842021724855E-19,-0.023,-0.006));
#768=CARTESIAN_POINT('',(-1.0842021724855E-19,-0.023,-0.0068));
#769=CARTESIAN_POINT('',(0.,-0.0262,1.83697019872103E-19));
#770=CARTESIAN_POINT('',(0.,-0.0262,1.83697019872103E-19));
#771=CARTESIAN_POINT('',(0.,-0.0262,-0.003));
#772=CARTESIAN_POINT('',(0.,-0.023,1.83697019872103E-19));
#773=CARTESIAN_POINT('',(0.,-0.023,-0.003));
#774=CARTESIAN_POINT('',(-0.006,-0.0262,1.65120162662331E-19));
#775=CARTESIAN_POINT('',(-0.006,-0.0262,1.65120162662331E-19));
#776=CARTESIAN_POINT('',(-0.006,-0.0262,-0.0008));
#777=CARTESIAN_POINT('',(-0.006,-0.023,1.65120162662331E-19));
#778=CARTESIAN_POINT('',(-0.006,-0.023,-0.0008));
#779=CARTESIAN_POINT('',(0.,-0.0262,4.89858719658941E-19));
#780=CARTESIAN_POINT('',(0.,-0.0262,4.89858719658941E-19));
#781=CARTESIAN_POINT('',(0.,-0.0262,-0.008));
#782=CARTESIAN_POINT('',(0.,-0.0262,-0.0075));
#783=CARTESIAN_POINT('',(0.,-0.023,-0.0075));
#784=CARTESIAN_POINT('',(0.,-0.023,-0.0075));
#785=CARTESIAN_POINT('',(0.,-0.023,-0.0075));
#786=CARTESIAN_POINT('',(0.,-0.023,-0.0075));
#787=CARTESIAN_POINT('',(0.,-0.023,-0.0075));
#788=CARTESIAN_POINT('',(0.008,-0.025,0.0075));
#789=CARTESIAN_POINT('',(-0.008,-0.025,0.0075));
#790=CARTESIAN_POINT('',(-0.008,-0.025,-0.0225));
#791=CARTESIAN_POINT('',(0.008,-0.025,-0.0225));
#792=MECHANICAL_DESIGN_GEOMETRIC_PRESENTATION_REPRESENTATION('',(#449),
#793);
#793=(
GEOMETRIC_REPRESENTATION_CONTEXT(3)
GLOBAL_UNCERTAINTY_ASSIGNED_CONTEXT((#794))
GLOBAL_UNIT_ASSIGNED_CONTEXT((#797,#796,#795))
REPRESENTATION_CONTEXT('simple_motor','TOP_LEVEL_ASSEMBLY_PART')
);
#794=UNCERTAINTY_MEASURE_WITH_UNIT(LENGTH_MEASURE(1.E-8),#797,
'DISTANCE_ACCURACY_VALUE','Maximum Tolerance applied to model');
#795=(
NAMED_UNIT(*)
SI_UNIT($,.STERADIAN.)
SOLID_ANGLE_UNIT()
);
#796=(
NAMED_UNIT(*)
PLANE_ANGLE_UNIT()
SI_UNIT($,.RADIAN.)
);
#797=(
LENGTH_UNIT()
NAMED_UNIT(*)
SI_UNIT($,.METRE.)
);
#798=PRODUCT_DEFINITION_SHAPE('','',#799);
#799=PRODUCT_DEFINITION('','',#801,#800);
#800=PRODUCT_DEFINITION_CONTEXT('',#807,'design');
#801=PRODUCT_DEFINITION_FORMATION_WITH_SPECIFIED_SOURCE('','',#803,
 .NOT_KNOWN.);
#802=PRODUCT_RELATED_PRODUCT_CATEGORY('','',(#803));
#803=PRODUCT('simple_motor','simple_motor','simple_motor',(#805));
#804=PRODUCT_CATEGORY('','');
#805=PRODUCT_CONTEXT('',#807,'mechanical');
#806=APPLICATION_PROTOCOL_DEFINITION('international standard',
'ap242_managed_model_based_3d_engineering',2020,#807);
#807=APPLICATION_CONTEXT('managed model based 3d engineering');
ENDSEC;
END-ISO-10303-21;
