ISO-10303-21;
HEADER;
/* Generated by software containing ST-Developer
 * from STEP Tools, Inc. (www.steptools.com) 
 */
/* OPTION: using custom renumber hook */

FILE_DESCRIPTION(
/* description */ ('STEP AP242 Edition 2',
'CAx-IF Rec.Pracs.---Representation and Presentation of Product Manufa
cturing Information (PMI)---4.0---2014-10-13',
'CAx-IF Rec.Pracs.---3D Tessellated Geometry---0.4---2014-09-14','2;1',
'CAx-IF Rec.Pracs.---User Defined Attributes---1.5---2016-08-15'),
/* implementation_level */ '2;1');

FILE_NAME(
/* name */ 'gripper - left_link_inside',
/* time_stamp */ '2026-02-08T09:29:49Z',
/* author */ (''),
/* organization */ (''),
/* preprocessor_version */ 'ST-DEVELOPER v20',
/* originating_system */ 'ONSHAPE BY PTC INC, 1.210',
/* authorisation */ '  ');

FILE_SCHEMA (('AP242_MANAGED_MODEL_BASED_3D_ENGINEERING_MIM_LF { 1 0 10303 442 3 1 4 }'));
ENDSEC;

DATA;
#10=SHAPE_REPRESENTATION_RELATIONSHIP('','',#760,#11);
#11=ADVANCED_BREP_SHAPE_REPRESENTATION('',(#758),#1374);
#12=TOROIDAL_SURFACE('',#820,0.0075,0.0025);
#13=TOROIDAL_SURFACE('',#823,0.0075,0.0025);
#14=TOROIDAL_SURFACE('',#824,0.0075,0.0025);
#15=TOROIDAL_SURFACE('',#825,0.0075,0.0025);
#16=TOROIDAL_SURFACE('',#826,0.011,0.001);
#17=TOROIDAL_SURFACE('',#827,0.011,0.001);
#18=TOROIDAL_SURFACE('',#834,0.00105,0.0006);
#19=TOROIDAL_SURFACE('',#835,0.00265,0.001);
#20=TOROIDAL_SURFACE('',#836,0.005,0.0006);
#21=TOROIDAL_SURFACE('',#840,0.0016,0.0006);
#22=TOROIDAL_SURFACE('',#844,0.0016,0.0006);
#23=TOROIDAL_SURFACE('',#848,0.005,0.0006);
#24=CYLINDRICAL_SURFACE('',#769,0.00500000035850998);
#25=CYLINDRICAL_SURFACE('',#772,0.003);
#26=CYLINDRICAL_SURFACE('',#775,0.01);
#27=CYLINDRICAL_SURFACE('',#781,0.0056);
#28=CYLINDRICAL_SURFACE('',#784,0.01);
#29=CYLINDRICAL_SURFACE('',#787,0.00165);
#30=CYLINDRICAL_SURFACE('',#794,0.0056);
#31=CYLINDRICAL_SURFACE('',#797,0.00165);
#32=CYLINDRICAL_SURFACE('',#805,0.00500000035850998);
#33=CYLINDRICAL_SURFACE('',#809,0.003);
#34=CYLINDRICAL_SURFACE('',#828,0.001);
#35=CYLINDRICAL_SURFACE('',#830,0.001);
#36=CYLINDRICAL_SURFACE('',#832,0.00125);
#37=CYLINDRICAL_SURFACE('',#838,0.0006);
#38=CYLINDRICAL_SURFACE('',#842,0.0006);
#39=CYLINDRICAL_SURFACE('',#846,0.0006);
#40=CYLINDRICAL_SURFACE('',#849,0.00075);
#41=CIRCLE('',#764,0.001);
#42=CIRCLE('',#765,0.001);
#43=CIRCLE('',#767,0.0016);
#44=CIRCLE('',#768,0.0016);
#45=CIRCLE('',#770,0.00500000035850998);
#46=CIRCLE('',#771,0.00500000035850998);
#47=CIRCLE('',#773,0.003);
#48=CIRCLE('',#774,0.003);
#49=CIRCLE('',#776,0.01);
#50=CIRCLE('',#777,0.01);
#51=CIRCLE('',#779,0.00165);
#52=CIRCLE('',#780,0.005);
#53=CIRCLE('',#782,0.0056);
#54=CIRCLE('',#783,0.0056);
#55=CIRCLE('',#785,0.01);
#56=CIRCLE('',#786,0.01);
#57=CIRCLE('',#788,0.00165);
#58=CIRCLE('',#790,0.011);
#59=CIRCLE('',#791,0.00125);
#60=CIRCLE('',#793,0.00075);
#61=CIRCLE('',#795,0.0056);
#62=CIRCLE('',#796,0.0056);
#63=CIRCLE('',#798,0.00165);
#64=CIRCLE('',#799,0.00165);
#65=CIRCLE('',#801,0.00265);
#66=CIRCLE('',#802,0.011);
#67=CIRCLE('',#804,0.005);
#68=CIRCLE('',#806,0.00500000035850998);
#69=CIRCLE('',#807,0.00500000035850998);
#70=CIRCLE('',#810,0.003);
#71=CIRCLE('',#811,0.003);
#72=CIRCLE('',#813,0.0075);
#73=CIRCLE('',#815,0.0075);
#74=CIRCLE('',#817,0.0075);
#75=CIRCLE('',#819,0.0075);
#76=CIRCLE('',#821,0.00979128784747789);
#77=CIRCLE('',#822,0.00979128784747789);
#78=CIRCLE('',#829,0.001);
#79=CIRCLE('',#831,0.001);
#80=CIRCLE('',#833,0.00125);
#81=CIRCLE('',#837,0.0006);
#82=CIRCLE('',#839,0.0006);
#83=CIRCLE('',#841,0.0006);
#84=CIRCLE('',#843,0.0006);
#85=CIRCLE('',#845,0.0006);
#86=CIRCLE('',#847,0.0006);
#87=B_SPLINE_CURVE_WITH_KNOTS('',3,(#1085,#1086,#1087,#1088,#1089,#1090,
#1091,#1092),.UNSPECIFIED.,.F.,.F.,(4,1,1,1,1,4),(0.,0.000346996286887842,
0.000693992573775683,0.00138798514755137,0.00208197772132705,0.00277597029510273),
 .UNSPECIFIED.);
#88=B_SPLINE_CURVE_WITH_KNOTS('',3,(#1104,#1105,#1106,#1107,#1108,#1109,
#1110,#1111),.UNSPECIFIED.,.F.,.F.,(4,1,1,1,1,4),(0.,0.000687508553618773,
0.00137501710723755,0.00206252566085632,0.00240627993766571,0.00275003421447509),
 .UNSPECIFIED.);
#89=B_SPLINE_CURVE_WITH_KNOTS('',3,(#1117,#1118,#1119,#1120,#1121),
 .UNSPECIFIED.,.F.,.F.,(4,1,4),(0.,0.000835180381399319,0.00167036076279864),
 .UNSPECIFIED.);
#90=B_SPLINE_CURVE_WITH_KNOTS('',3,(#1125,#1126,#1127,#1128,#1129,#1130),
 .UNSPECIFIED.,.F.,.F.,(4,1,1,4),(0.,0.00219420364999729,0.00329130547499594,
0.00438840729999458),.UNSPECIFIED.);
#91=B_SPLINE_CURVE_WITH_KNOTS('',3,(#1138,#1139,#1140,#1141,#1142),
 .UNSPECIFIED.,.F.,.F.,(4,1,4),(0.,0.00167546104328766,0.00335092208657531),
 .UNSPECIFIED.);
#92=B_SPLINE_CURVE_WITH_KNOTS('',3,(#1144,#1145,#1146,#1147,#1148),
 .UNSPECIFIED.,.F.,.F.,(4,1,4),(0.0010326587107424,0.00271053300536849,
0.00438840729999459),.UNSPECIFIED.);
#93=B_SPLINE_CURVE_WITH_KNOTS('',3,(#1156,#1157,#1158,#1159,#1160),
 .UNSPECIFIED.,.F.,.F.,(4,1,4),(0.,0.00218975968890678,0.00437951937781356),
 .UNSPECIFIED.);
#94=B_SPLINE_CURVE_WITH_KNOTS('',3,(#1164,#1165,#1166,#1167,#1168),
 .UNSPECIFIED.,.F.,.F.,(4,1,4),(0.,0.000835047179628345,0.00167009435925669),
 .UNSPECIFIED.);
#95=B_SPLINE_CURVE_WITH_KNOTS('',3,(#1181,#1182,#1183,#1184,#1185),
 .UNSPECIFIED.,.F.,.F.,(4,1,4),(0.,0.000849634811788116,0.00169926962357623),
 .UNSPECIFIED.);
#96=B_SPLINE_CURVE_WITH_KNOTS('',3,(#1189,#1190,#1191,#1192,#1193,#1194),
 .UNSPECIFIED.,.F.,.F.,(4,1,1,4),(0.,0.00114696531515749,0.00229393063031499,
0.00458786126062997),.UNSPECIFIED.);
#97=B_SPLINE_CURVE_WITH_KNOTS('',3,(#1202,#1203,#1204,#1205,#1206),
 .UNSPECIFIED.,.F.,.F.,(4,1,4),(0.,0.00176629572246251,0.00353259144492503),
 .UNSPECIFIED.);
#98=B_SPLINE_CURVE_WITH_KNOTS('',3,(#1208,#1209,#1210,#1211,#1212),
 .UNSPECIFIED.,.F.,.F.,(4,1,4),(0.0010361898562695,0.00281202555844973,
0.00458786126062997),.UNSPECIFIED.);
#99=B_SPLINE_CURVE_WITH_KNOTS('',3,(#1217,#1218,#1219,#1220,#1221,#1222,
#1223),.UNSPECIFIED.,.F.,.F.,(4,1,1,1,4),(0.,0.00114028305612831,0.00228056611225662,
0.00342084916838493,0.00456113222451324),.UNSPECIFIED.);
#100=B_SPLINE_CURVE_WITH_KNOTS('',3,(#1227,#1228,#1229,#1230,#1231),
 .UNSPECIFIED.,.F.,.F.,(4,1,4),(0.,0.000853152442658486,0.00170630488531697),
 .UNSPECIFIED.);
#101=B_SPLINE_CURVE_WITH_KNOTS('',3,(#1325,#1326,#1327,#1328,#1329,#1330,
#1331,#1332,#1333),.UNSPECIFIED.,.F.,.F.,(4,1,1,1,1,1,4),(0.000313952195271408,
0.000982266570307101,0.00131642375782495,0.00165058094534279,0.00198473813286064,
0.00231889532037849,0.00298720969541418),.UNSPECIFIED.);
#102=B_SPLINE_CURVE_WITH_KNOTS('',3,(#1337,#1338,#1339,#1340,#1341,#1342,
#1343,#1344,#1345),.UNSPECIFIED.,.F.,.F.,(4,1,1,1,1,1,4),(0.000245485834165283,
0.000913128427603946,0.00124694972432328,0.00158077102104261,0.00191459231776194,
0.00224841361448127,0.00291605620791994),.UNSPECIFIED.);
#103=ORIENTED_EDGE('',*,*,#313,.F.);
#104=ORIENTED_EDGE('',*,*,#314,.T.);
#105=ORIENTED_EDGE('',*,*,#315,.T.);
#106=ORIENTED_EDGE('',*,*,#316,.F.);
#107=ORIENTED_EDGE('',*,*,#317,.T.);
#108=ORIENTED_EDGE('',*,*,#318,.T.);
#109=ORIENTED_EDGE('',*,*,#319,.T.);
#110=ORIENTED_EDGE('',*,*,#320,.T.);
#111=ORIENTED_EDGE('',*,*,#321,.T.);
#112=ORIENTED_EDGE('',*,*,#322,.T.);
#113=ORIENTED_EDGE('',*,*,#323,.F.);
#114=ORIENTED_EDGE('',*,*,#324,.T.);
#115=ORIENTED_EDGE('',*,*,#325,.T.);
#116=ORIENTED_EDGE('',*,*,#326,.T.);
#117=ORIENTED_EDGE('',*,*,#327,.T.);
#118=ORIENTED_EDGE('',*,*,#328,.F.);
#119=ORIENTED_EDGE('',*,*,#329,.T.);
#120=ORIENTED_EDGE('',*,*,#330,.T.);
#121=ORIENTED_EDGE('',*,*,#331,.F.);
#122=ORIENTED_EDGE('',*,*,#332,.F.);
#123=ORIENTED_EDGE('',*,*,#333,.T.);
#124=ORIENTED_EDGE('',*,*,#334,.T.);
#125=ORIENTED_EDGE('',*,*,#335,.T.);
#126=ORIENTED_EDGE('',*,*,#336,.F.);
#127=ORIENTED_EDGE('',*,*,#337,.F.);
#128=ORIENTED_EDGE('',*,*,#338,.T.);
#129=ORIENTED_EDGE('',*,*,#339,.F.);
#130=ORIENTED_EDGE('',*,*,#340,.T.);
#131=ORIENTED_EDGE('',*,*,#341,.F.);
#132=ORIENTED_EDGE('',*,*,#342,.T.);
#133=ORIENTED_EDGE('',*,*,#343,.T.);
#134=ORIENTED_EDGE('',*,*,#344,.F.);
#135=ORIENTED_EDGE('',*,*,#345,.T.);
#136=ORIENTED_EDGE('',*,*,#346,.T.);
#137=ORIENTED_EDGE('',*,*,#347,.T.);
#138=ORIENTED_EDGE('',*,*,#348,.T.);
#139=ORIENTED_EDGE('',*,*,#349,.T.);
#140=ORIENTED_EDGE('',*,*,#350,.T.);
#141=ORIENTED_EDGE('',*,*,#351,.F.);
#142=ORIENTED_EDGE('',*,*,#352,.T.);
#143=ORIENTED_EDGE('',*,*,#353,.T.);
#144=ORIENTED_EDGE('',*,*,#354,.T.);
#145=ORIENTED_EDGE('',*,*,#313,.T.);
#146=ORIENTED_EDGE('',*,*,#355,.F.);
#147=ORIENTED_EDGE('',*,*,#356,.T.);
#148=ORIENTED_EDGE('',*,*,#357,.T.);
#149=ORIENTED_EDGE('',*,*,#358,.T.);
#150=ORIENTED_EDGE('',*,*,#359,.F.);
#151=ORIENTED_EDGE('',*,*,#360,.F.);
#152=ORIENTED_EDGE('',*,*,#361,.T.);
#153=ORIENTED_EDGE('',*,*,#362,.T.);
#154=ORIENTED_EDGE('',*,*,#363,.T.);
#155=ORIENTED_EDGE('',*,*,#364,.F.);
#156=ORIENTED_EDGE('',*,*,#331,.T.);
#157=ORIENTED_EDGE('',*,*,#365,.T.);
#158=ORIENTED_EDGE('',*,*,#315,.F.);
#159=ORIENTED_EDGE('',*,*,#366,.F.);
#160=ORIENTED_EDGE('',*,*,#367,.T.);
#161=ORIENTED_EDGE('',*,*,#328,.T.);
#162=ORIENTED_EDGE('',*,*,#368,.T.);
#163=ORIENTED_EDGE('',*,*,#357,.F.);
#164=ORIENTED_EDGE('',*,*,#369,.T.);
#165=ORIENTED_EDGE('',*,*,#370,.F.);
#166=ORIENTED_EDGE('',*,*,#371,.T.);
#167=ORIENTED_EDGE('',*,*,#372,.T.);
#168=ORIENTED_EDGE('',*,*,#373,.T.);
#169=ORIENTED_EDGE('',*,*,#323,.T.);
#170=ORIENTED_EDGE('',*,*,#325,.F.);
#171=ORIENTED_EDGE('',*,*,#374,.T.);
#172=ORIENTED_EDGE('',*,*,#360,.T.);
#173=ORIENTED_EDGE('',*,*,#375,.T.);
#174=ORIENTED_EDGE('',*,*,#347,.F.);
#175=ORIENTED_EDGE('',*,*,#376,.T.);
#176=ORIENTED_EDGE('',*,*,#339,.T.);
#177=ORIENTED_EDGE('',*,*,#377,.T.);
#178=ORIENTED_EDGE('',*,*,#378,.T.);
#179=ORIENTED_EDGE('',*,*,#370,.T.);
#180=ORIENTED_EDGE('',*,*,#359,.T.);
#181=ORIENTED_EDGE('',*,*,#379,.T.);
#182=ORIENTED_EDGE('',*,*,#326,.F.);
#183=ORIENTED_EDGE('',*,*,#375,.F.);
#184=ORIENTED_EDGE('',*,*,#380,.T.);
#185=ORIENTED_EDGE('',*,*,#381,.F.);
#186=ORIENTED_EDGE('',*,*,#382,.T.);
#187=ORIENTED_EDGE('',*,*,#383,.T.);
#188=ORIENTED_EDGE('',*,*,#384,.T.);
#189=ORIENTED_EDGE('',*,*,#321,.F.);
#190=ORIENTED_EDGE('',*,*,#344,.T.);
#191=ORIENTED_EDGE('',*,*,#385,.T.);
#192=ORIENTED_EDGE('',*,*,#317,.F.);
#193=ORIENTED_EDGE('',*,*,#386,.F.);
#194=ORIENTED_EDGE('',*,*,#387,.T.);
#195=ORIENTED_EDGE('',*,*,#388,.F.);
#196=ORIENTED_EDGE('',*,*,#389,.T.);
#197=ORIENTED_EDGE('',*,*,#341,.T.);
#198=ORIENTED_EDGE('',*,*,#390,.T.);
#199=ORIENTED_EDGE('',*,*,#345,.F.);
#200=ORIENTED_EDGE('',*,*,#386,.T.);
#201=ORIENTED_EDGE('',*,*,#319,.F.);
#202=ORIENTED_EDGE('',*,*,#391,.T.);
#203=ORIENTED_EDGE('',*,*,#392,.T.);
#204=ORIENTED_EDGE('',*,*,#393,.T.);
#205=ORIENTED_EDGE('',*,*,#388,.T.);
#206=ORIENTED_EDGE('',*,*,#336,.T.);
#207=ORIENTED_EDGE('',*,*,#394,.T.);
#208=ORIENTED_EDGE('',*,*,#395,.F.);
#209=ORIENTED_EDGE('',*,*,#396,.F.);
#210=ORIENTED_EDGE('',*,*,#397,.F.);
#211=ORIENTED_EDGE('',*,*,#350,.F.);
#212=ORIENTED_EDGE('',*,*,#398,.T.);
#213=ORIENTED_EDGE('',*,*,#395,.T.);
#214=ORIENTED_EDGE('',*,*,#399,.F.);
#215=ORIENTED_EDGE('',*,*,#400,.T.);
#216=ORIENTED_EDGE('',*,*,#349,.F.);
#217=ORIENTED_EDGE('',*,*,#401,.T.);
#218=ORIENTED_EDGE('',*,*,#337,.T.);
#219=ORIENTED_EDGE('',*,*,#396,.T.);
#220=ORIENTED_EDGE('',*,*,#398,.F.);
#221=ORIENTED_EDGE('',*,*,#400,.F.);
#222=ORIENTED_EDGE('',*,*,#330,.F.);
#223=ORIENTED_EDGE('',*,*,#402,.T.);
#224=ORIENTED_EDGE('',*,*,#355,.T.);
#225=ORIENTED_EDGE('',*,*,#316,.T.);
#226=ORIENTED_EDGE('',*,*,#365,.F.);
#227=ORIENTED_EDGE('',*,*,#366,.T.);
#228=ORIENTED_EDGE('',*,*,#335,.F.);
#229=ORIENTED_EDGE('',*,*,#403,.T.);
#230=ORIENTED_EDGE('',*,*,#351,.T.);
#231=ORIENTED_EDGE('',*,*,#397,.T.);
#232=ORIENTED_EDGE('',*,*,#394,.F.);
#233=ORIENTED_EDGE('',*,*,#399,.T.);
#234=ORIENTED_EDGE('',*,*,#354,.F.);
#235=ORIENTED_EDGE('',*,*,#404,.T.);
#236=ORIENTED_EDGE('',*,*,#332,.T.);
#237=ORIENTED_EDGE('',*,*,#364,.T.);
#238=ORIENTED_EDGE('',*,*,#314,.F.);
#239=ORIENTED_EDGE('',*,*,#367,.F.);
#240=ORIENTED_EDGE('',*,*,#405,.F.);
#241=ORIENTED_EDGE('',*,*,#406,.T.);
#242=ORIENTED_EDGE('',*,*,#407,.F.);
#243=ORIENTED_EDGE('',*,*,#352,.F.);
#244=ORIENTED_EDGE('',*,*,#403,.F.);
#245=ORIENTED_EDGE('',*,*,#334,.F.);
#246=ORIENTED_EDGE('',*,*,#407,.T.);
#247=ORIENTED_EDGE('',*,*,#408,.T.);
#248=ORIENTED_EDGE('',*,*,#405,.T.);
#249=ORIENTED_EDGE('',*,*,#333,.F.);
#250=ORIENTED_EDGE('',*,*,#404,.F.);
#251=ORIENTED_EDGE('',*,*,#353,.F.);
#252=ORIENTED_EDGE('',*,*,#356,.F.);
#253=ORIENTED_EDGE('',*,*,#402,.F.);
#254=ORIENTED_EDGE('',*,*,#329,.F.);
#255=ORIENTED_EDGE('',*,*,#369,.F.);
#256=ORIENTED_EDGE('',*,*,#348,.F.);
#257=ORIENTED_EDGE('',*,*,#377,.F.);
#258=ORIENTED_EDGE('',*,*,#338,.F.);
#259=ORIENTED_EDGE('',*,*,#401,.F.);
#260=ORIENTED_EDGE('',*,*,#358,.F.);
#261=ORIENTED_EDGE('',*,*,#368,.F.);
#262=ORIENTED_EDGE('',*,*,#327,.F.);
#263=ORIENTED_EDGE('',*,*,#379,.F.);
#264=ORIENTED_EDGE('',*,*,#346,.F.);
#265=ORIENTED_EDGE('',*,*,#390,.F.);
#266=ORIENTED_EDGE('',*,*,#340,.F.);
#267=ORIENTED_EDGE('',*,*,#376,.F.);
#268=ORIENTED_EDGE('',*,*,#384,.F.);
#269=ORIENTED_EDGE('',*,*,#409,.T.);
#270=ORIENTED_EDGE('',*,*,#371,.F.);
#271=ORIENTED_EDGE('',*,*,#322,.F.);
#272=ORIENTED_EDGE('',*,*,#393,.F.);
#273=ORIENTED_EDGE('',*,*,#410,.T.);
#274=ORIENTED_EDGE('',*,*,#382,.F.);
#275=ORIENTED_EDGE('',*,*,#320,.F.);
#276=ORIENTED_EDGE('',*,*,#411,.T.);
#277=ORIENTED_EDGE('',*,*,#380,.F.);
#278=ORIENTED_EDGE('',*,*,#378,.F.);
#279=ORIENTED_EDGE('',*,*,#411,.F.);
#280=ORIENTED_EDGE('',*,*,#389,.F.);
#281=ORIENTED_EDGE('',*,*,#387,.F.);
#282=ORIENTED_EDGE('',*,*,#324,.F.);
#283=ORIENTED_EDGE('',*,*,#373,.F.);
#284=ORIENTED_EDGE('',*,*,#412,.F.);
#285=ORIENTED_EDGE('',*,*,#374,.F.);
#286=ORIENTED_EDGE('',*,*,#412,.T.);
#287=ORIENTED_EDGE('',*,*,#372,.F.);
#288=ORIENTED_EDGE('',*,*,#413,.F.);
#289=ORIENTED_EDGE('',*,*,#361,.F.);
#290=ORIENTED_EDGE('',*,*,#413,.T.);
#291=ORIENTED_EDGE('',*,*,#409,.F.);
#292=ORIENTED_EDGE('',*,*,#414,.F.);
#293=ORIENTED_EDGE('',*,*,#362,.F.);
#294=ORIENTED_EDGE('',*,*,#414,.T.);
#295=ORIENTED_EDGE('',*,*,#383,.F.);
#296=ORIENTED_EDGE('',*,*,#415,.F.);
#297=ORIENTED_EDGE('',*,*,#363,.F.);
#298=ORIENTED_EDGE('',*,*,#415,.T.);
#299=ORIENTED_EDGE('',*,*,#410,.F.);
#300=ORIENTED_EDGE('',*,*,#416,.F.);
#301=ORIENTED_EDGE('',*,*,#342,.F.);
#302=ORIENTED_EDGE('',*,*,#416,.T.);
#303=ORIENTED_EDGE('',*,*,#392,.F.);
#304=ORIENTED_EDGE('',*,*,#417,.F.);
#305=ORIENTED_EDGE('',*,*,#343,.F.);
#306=ORIENTED_EDGE('',*,*,#417,.T.);
#307=ORIENTED_EDGE('',*,*,#391,.F.);
#308=ORIENTED_EDGE('',*,*,#318,.F.);
#309=ORIENTED_EDGE('',*,*,#385,.F.);
#310=ORIENTED_EDGE('',*,*,#381,.T.);
#311=ORIENTED_EDGE('',*,*,#408,.F.);
#312=ORIENTED_EDGE('',*,*,#406,.F.);
#313=EDGE_CURVE('',#418,#419,#490,.T.);
#314=EDGE_CURVE('',#418,#420,#491,.T.);
#315=EDGE_CURVE('',#420,#421,#492,.T.);
#316=EDGE_CURVE('',#419,#421,#493,.T.);
#317=EDGE_CURVE('',#422,#423,#494,.T.);
#318=EDGE_CURVE('',#423,#424,#87,.T.);
#319=EDGE_CURVE('',#424,#425,#495,.T.);
#320=EDGE_CURVE('',#425,#426,#41,.T.);
#321=EDGE_CURVE('',#426,#427,#496,.T.);
#322=EDGE_CURVE('',#427,#428,#42,.T.);
#323=EDGE_CURVE('',#429,#428,#497,.T.);
#324=EDGE_CURVE('',#429,#430,#88,.T.);
#325=EDGE_CURVE('',#430,#431,#498,.T.);
#326=EDGE_CURVE('',#431,#432,#499,.T.);
#327=EDGE_CURVE('',#432,#433,#89,.T.);
#328=EDGE_CURVE('',#434,#433,#500,.T.);
#329=EDGE_CURVE('',#434,#435,#90,.T.);
#330=EDGE_CURVE('',#435,#436,#501,.T.);
#331=EDGE_CURVE('',#437,#436,#502,.T.);
#332=EDGE_CURVE('',#438,#437,#503,.T.);
#333=EDGE_CURVE('',#438,#439,#91,.T.);
#334=EDGE_CURVE('',#439,#440,#92,.T.);
#335=EDGE_CURVE('',#440,#441,#504,.T.);
#336=EDGE_CURVE('',#442,#441,#505,.T.);
#337=EDGE_CURVE('',#443,#442,#506,.T.);
#338=EDGE_CURVE('',#443,#444,#93,.T.);
#339=EDGE_CURVE('',#445,#444,#507,.T.);
#340=EDGE_CURVE('',#445,#446,#94,.T.);
#341=EDGE_CURVE('',#422,#446,#508,.T.);
#342=EDGE_CURVE('',#447,#448,#43,.F.);
#343=EDGE_CURVE('',#448,#449,#509,.F.);
#344=EDGE_CURVE('',#450,#449,#510,.T.);
#345=EDGE_CURVE('',#450,#451,#511,.T.);
#346=EDGE_CURVE('',#451,#452,#95,.T.);
#347=EDGE_CURVE('',#452,#453,#512,.T.);
#348=EDGE_CURVE('',#453,#454,#96,.T.);
#349=EDGE_CURVE('',#454,#455,#513,.T.);
#350=EDGE_CURVE('',#455,#456,#514,.T.);
#351=EDGE_CURVE('',#457,#456,#515,.T.);
#352=EDGE_CURVE('',#457,#458,#97,.T.);
#353=EDGE_CURVE('',#458,#459,#98,.T.);
#354=EDGE_CURVE('',#459,#418,#516,.T.);
#355=EDGE_CURVE('',#460,#419,#517,.T.);
#356=EDGE_CURVE('',#460,#461,#99,.T.);
#357=EDGE_CURVE('',#461,#462,#518,.T.);
#358=EDGE_CURVE('',#462,#463,#100,.T.);
#359=EDGE_CURVE('',#464,#463,#519,.T.);
#360=EDGE_CURVE('',#465,#464,#520,.T.);
#361=EDGE_CURVE('',#465,#466,#521,.T.);
#362=EDGE_CURVE('',#466,#467,#44,.F.);
#363=EDGE_CURVE('',#467,#447,#522,.F.);
#364=EDGE_CURVE('',#437,#420,#45,.T.);
#365=EDGE_CURVE('',#436,#421,#46,.T.);
#366=EDGE_CURVE('',#468,#468,#47,.T.);
#367=EDGE_CURVE('',#469,#469,#48,.T.);
#368=EDGE_CURVE('',#433,#462,#49,.F.);
#369=EDGE_CURVE('',#461,#434,#50,.T.);
#370=EDGE_CURVE('',#470,#470,#51,.T.);
#371=EDGE_CURVE('',#428,#471,#523,.T.);
#372=EDGE_CURVE('',#471,#472,#524,.F.);
#373=EDGE_CURVE('',#472,#429,#52,.T.);
#374=EDGE_CURVE('',#430,#465,#53,.F.);
#375=EDGE_CURVE('',#464,#431,#54,.T.);
#376=EDGE_CURVE('',#452,#445,#55,.T.);
#377=EDGE_CURVE('',#444,#453,#56,.F.);
#378=EDGE_CURVE('',#473,#473,#57,.F.);
#379=EDGE_CURVE('',#463,#432,#58,.T.);
#380=EDGE_CURVE('',#474,#474,#59,.T.);
#381=EDGE_CURVE('',#475,#475,#60,.T.);
#382=EDGE_CURVE('',#426,#476,#525,.T.);
#383=EDGE_CURVE('',#476,#477,#526,.T.);
#384=EDGE_CURVE('',#477,#427,#527,.F.);
#385=EDGE_CURVE('',#449,#423,#61,.T.);
#386=EDGE_CURVE('',#450,#422,#62,.T.);
#387=EDGE_CURVE('',#478,#478,#63,.T.);
#388=EDGE_CURVE('',#479,#479,#64,.T.);
#389=EDGE_CURVE('',#480,#480,#65,.F.);
#390=EDGE_CURVE('',#446,#451,#66,.F.);
#391=EDGE_CURVE('',#424,#481,#67,.F.);
#392=EDGE_CURVE('',#481,#482,#528,.T.);
#393=EDGE_CURVE('',#482,#425,#529,.F.);
#394=EDGE_CURVE('',#441,#483,#68,.T.);
#395=EDGE_CURVE('',#484,#483,#530,.T.);
#396=EDGE_CURVE('',#442,#484,#69,.T.);
#397=EDGE_CURVE('',#456,#483,#531,.T.);
#398=EDGE_CURVE('',#455,#484,#532,.T.);
#399=EDGE_CURVE('',#485,#485,#70,.T.);
#400=EDGE_CURVE('',#486,#486,#71,.T.);
#401=EDGE_CURVE('',#454,#443,#72,.T.);
#402=EDGE_CURVE('',#435,#460,#73,.F.);
#403=EDGE_CURVE('',#440,#457,#74,.F.);
#404=EDGE_CURVE('',#459,#438,#75,.T.);
#405=EDGE_CURVE('',#487,#439,#76,.F.);
#406=EDGE_CURVE('',#487,#488,#101,.T.);
#407=EDGE_CURVE('',#458,#488,#77,.F.);
#408=EDGE_CURVE('',#488,#487,#102,.T.);
#409=EDGE_CURVE('',#477,#471,#78,.T.);
#410=EDGE_CURVE('',#482,#476,#79,.T.);
#411=EDGE_CURVE('',#489,#489,#80,.F.);
#412=EDGE_CURVE('',#465,#472,#81,.T.);
#413=EDGE_CURVE('',#466,#471,#82,.T.);
#414=EDGE_CURVE('',#467,#477,#83,.T.);
#415=EDGE_CURVE('',#447,#476,#84,.T.);
#416=EDGE_CURVE('',#448,#482,#85,.T.);
#417=EDGE_CURVE('',#449,#481,#86,.T.);
#418=VERTEX_POINT('',#1074);
#419=VERTEX_POINT('',#1075);
#420=VERTEX_POINT('',#1077);
#421=VERTEX_POINT('',#1079);
#422=VERTEX_POINT('',#1083);
#423=VERTEX_POINT('',#1084);
#424=VERTEX_POINT('',#1093);
#425=VERTEX_POINT('',#1095);
#426=VERTEX_POINT('',#1097);
#427=VERTEX_POINT('',#1099);
#428=VERTEX_POINT('',#1101);
#429=VERTEX_POINT('',#1103);
#430=VERTEX_POINT('',#1112);
#431=VERTEX_POINT('',#1114);
#432=VERTEX_POINT('',#1116);
#433=VERTEX_POINT('',#1122);
#434=VERTEX_POINT('',#1124);
#435=VERTEX_POINT('',#1131);
#436=VERTEX_POINT('',#1133);
#437=VERTEX_POINT('',#1135);
#438=VERTEX_POINT('',#1137);
#439=VERTEX_POINT('',#1143);
#440=VERTEX_POINT('',#1149);
#441=VERTEX_POINT('',#1151);
#442=VERTEX_POINT('',#1153);
#443=VERTEX_POINT('',#1155);
#444=VERTEX_POINT('',#1161);
#445=VERTEX_POINT('',#1163);
#446=VERTEX_POINT('',#1169);
#447=VERTEX_POINT('',#1173);
#448=VERTEX_POINT('',#1174);
#449=VERTEX_POINT('',#1176);
#450=VERTEX_POINT('',#1178);
#451=VERTEX_POINT('',#1180);
#452=VERTEX_POINT('',#1186);
#453=VERTEX_POINT('',#1188);
#454=VERTEX_POINT('',#1195);
#455=VERTEX_POINT('',#1197);
#456=VERTEX_POINT('',#1199);
#457=VERTEX_POINT('',#1201);
#458=VERTEX_POINT('',#1207);
#459=VERTEX_POINT('',#1213);
#460=VERTEX_POINT('',#1216);
#461=VERTEX_POINT('',#1224);
#462=VERTEX_POINT('',#1226);
#463=VERTEX_POINT('',#1232);
#464=VERTEX_POINT('',#1234);
#465=VERTEX_POINT('',#1236);
#466=VERTEX_POINT('',#1238);
#467=VERTEX_POINT('',#1240);
#468=VERTEX_POINT('',#1247);
#469=VERTEX_POINT('',#1249);
#470=VERTEX_POINT('',#1255);
#471=VERTEX_POINT('',#1257);
#472=VERTEX_POINT('',#1259);
#473=VERTEX_POINT('',#1269);
#474=VERTEX_POINT('',#1273);
#475=VERTEX_POINT('',#1276);
#476=VERTEX_POINT('',#1278);
#477=VERTEX_POINT('',#1280);
#478=VERTEX_POINT('',#1287);
#479=VERTEX_POINT('',#1289);
#480=VERTEX_POINT('',#1292);
#481=VERTEX_POINT('',#1296);
#482=VERTEX_POINT('',#1298);
#483=VERTEX_POINT('',#1302);
#484=VERTEX_POINT('',#1304);
#485=VERTEX_POINT('',#1311);
#486=VERTEX_POINT('',#1313);
#487=VERTEX_POINT('',#1324);
#488=VERTEX_POINT('',#1334);
#489=VERTEX_POINT('',#1356);
#490=LINE('',#1073,#533);
#491=LINE('',#1076,#534);
#492=LINE('',#1078,#535);
#493=LINE('',#1080,#536);
#494=LINE('',#1082,#537);
#495=LINE('',#1094,#538);
#496=LINE('',#1098,#539);
#497=LINE('',#1102,#540);
#498=LINE('',#1113,#541);
#499=LINE('',#1115,#542);
#500=LINE('',#1123,#543);
#501=LINE('',#1132,#544);
#502=LINE('',#1134,#545);
#503=LINE('',#1136,#546);
#504=LINE('',#1150,#547);
#505=LINE('',#1152,#548);
#506=LINE('',#1154,#549);
#507=LINE('',#1162,#550);
#508=LINE('',#1170,#551);
#509=LINE('',#1175,#552);
#510=LINE('',#1177,#553);
#511=LINE('',#1179,#554);
#512=LINE('',#1187,#555);
#513=LINE('',#1196,#556);
#514=LINE('',#1198,#557);
#515=LINE('',#1200,#558);
#516=LINE('',#1214,#559);
#517=LINE('',#1215,#560);
#518=LINE('',#1225,#561);
#519=LINE('',#1233,#562);
#520=LINE('',#1235,#563);
#521=LINE('',#1237,#564);
#522=LINE('',#1241,#565);
#523=LINE('',#1256,#566);
#524=LINE('',#1258,#567);
#525=LINE('',#1277,#568);
#526=LINE('',#1279,#569);
#527=LINE('',#1281,#570);
#528=LINE('',#1297,#571);
#529=LINE('',#1299,#572);
#530=LINE('',#1303,#573);
#531=LINE('',#1307,#574);
#532=LINE('',#1308,#575);
#533=VECTOR('',#854,1.);
#534=VECTOR('',#855,1.);
#535=VECTOR('',#856,1.);
#536=VECTOR('',#857,1.);
#537=VECTOR('',#860,1.);
#538=VECTOR('',#861,1.);
#539=VECTOR('',#864,1.);
#540=VECTOR('',#867,1.);
#541=VECTOR('',#868,1.);
#542=VECTOR('',#869,1.);
#543=VECTOR('',#870,1.);
#544=VECTOR('',#871,1.);
#545=VECTOR('',#872,1.);
#546=VECTOR('',#873,1.);
#547=VECTOR('',#874,1.);
#548=VECTOR('',#875,1.);
#549=VECTOR('',#876,1.);
#550=VECTOR('',#877,1.);
#551=VECTOR('',#878,1.);
#552=VECTOR('',#883,1.);
#553=VECTOR('',#884,1.);
#554=VECTOR('',#885,1.);
#555=VECTOR('',#886,1.);
#556=VECTOR('',#887,1.);
#557=VECTOR('',#888,1.);
#558=VECTOR('',#889,1.);
#559=VECTOR('',#890,1.);
#560=VECTOR('',#891,1.);
#561=VECTOR('',#892,1.);
#562=VECTOR('',#893,1.);
#563=VECTOR('',#894,1.);
#564=VECTOR('',#895,1.);
#565=VECTOR('',#898,1.);
#566=VECTOR('',#921,1.);
#567=VECTOR('',#922,1.);
#568=VECTOR('',#951,1.);
#569=VECTOR('',#952,1.);
#570=VECTOR('',#953,1.);
#571=VECTOR('',#976,1.);
#572=VECTOR('',#977,1.);
#573=VECTOR('',#982,1.);
#574=VECTOR('',#987,1.);
#575=VECTOR('',#988,1.);
#576=EDGE_LOOP('',(#103,#104,#105,#106));
#577=EDGE_LOOP('',(#107,#108,#109,#110,#111,#112,#113,#114,#115,#116,#117,
#118,#119,#120,#121,#122,#123,#124,#125,#126,#127,#128,#129,#130,#131));
#578=EDGE_LOOP('',(#132,#133,#134,#135,#136,#137,#138,#139,#140,#141,#142,
#143,#144,#145,#146,#147,#148,#149,#150,#151,#152,#153,#154));
#579=EDGE_LOOP('',(#155,#156,#157,#158));
#580=EDGE_LOOP('',(#159));
#581=EDGE_LOOP('',(#160));
#582=EDGE_LOOP('',(#161,#162,#163,#164));
#583=EDGE_LOOP('',(#165));
#584=EDGE_LOOP('',(#166,#167,#168,#169));
#585=EDGE_LOOP('',(#170,#171,#172,#173));
#586=EDGE_LOOP('',(#174,#175,#176,#177));
#587=EDGE_LOOP('',(#178));
#588=EDGE_LOOP('',(#179));
#589=EDGE_LOOP('',(#180,#181,#182,#183));
#590=EDGE_LOOP('',(#184));
#591=EDGE_LOOP('',(#185));
#592=EDGE_LOOP('',(#186,#187,#188,#189));
#593=EDGE_LOOP('',(#190,#191,#192,#193));
#594=EDGE_LOOP('',(#194));
#595=EDGE_LOOP('',(#195));
#596=EDGE_LOOP('',(#196));
#597=EDGE_LOOP('',(#197,#198,#199,#200));
#598=EDGE_LOOP('',(#201,#202,#203,#204));
#599=EDGE_LOOP('',(#205));
#600=EDGE_LOOP('',(#206,#207,#208,#209));
#601=EDGE_LOOP('',(#210,#211,#212,#213));
#602=EDGE_LOOP('',(#214));
#603=EDGE_LOOP('',(#215));
#604=EDGE_LOOP('',(#216,#217,#218,#219,#220));
#605=EDGE_LOOP('',(#221));
#606=EDGE_LOOP('',(#222,#223,#224,#225,#226));
#607=EDGE_LOOP('',(#227));
#608=EDGE_LOOP('',(#228,#229,#230,#231,#232));
#609=EDGE_LOOP('',(#233));
#610=EDGE_LOOP('',(#234,#235,#236,#237,#238));
#611=EDGE_LOOP('',(#239));
#612=EDGE_LOOP('',(#240,#241,#242,#243,#244,#245));
#613=EDGE_LOOP('',(#246,#247,#248,#249,#250,#251));
#614=EDGE_LOOP('',(#252,#253,#254,#255));
#615=EDGE_LOOP('',(#256,#257,#258,#259));
#616=EDGE_LOOP('',(#260,#261,#262,#263));
#617=EDGE_LOOP('',(#264,#265,#266,#267));
#618=EDGE_LOOP('',(#268,#269,#270,#271));
#619=EDGE_LOOP('',(#272,#273,#274,#275));
#620=EDGE_LOOP('',(#276));
#621=EDGE_LOOP('',(#277));
#622=EDGE_LOOP('',(#278));
#623=EDGE_LOOP('',(#279));
#624=EDGE_LOOP('',(#280));
#625=EDGE_LOOP('',(#281));
#626=EDGE_LOOP('',(#282,#283,#284,#285));
#627=EDGE_LOOP('',(#286,#287,#288,#289));
#628=EDGE_LOOP('',(#290,#291,#292,#293));
#629=EDGE_LOOP('',(#294,#295,#296,#297));
#630=EDGE_LOOP('',(#298,#299,#300,#301));
#631=EDGE_LOOP('',(#302,#303,#304,#305));
#632=EDGE_LOOP('',(#306,#307,#308,#309));
#633=EDGE_LOOP('',(#310));
#634=EDGE_LOOP('',(#311,#312));
#635=FACE_BOUND('',#576,.T.);
#636=FACE_BOUND('',#577,.T.);
#637=FACE_BOUND('',#578,.T.);
#638=FACE_BOUND('',#579,.T.);
#639=FACE_BOUND('',#580,.T.);
#640=FACE_BOUND('',#581,.T.);
#641=FACE_BOUND('',#582,.T.);
#642=FACE_BOUND('',#583,.T.);
#643=FACE_BOUND('',#584,.T.);
#644=FACE_BOUND('',#585,.T.);
#645=FACE_BOUND('',#586,.T.);
#646=FACE_BOUND('',#587,.T.);
#647=FACE_BOUND('',#588,.T.);
#648=FACE_BOUND('',#589,.T.);
#649=FACE_BOUND('',#590,.T.);
#650=FACE_BOUND('',#591,.T.);
#651=FACE_BOUND('',#592,.T.);
#652=FACE_BOUND('',#593,.T.);
#653=FACE_BOUND('',#594,.T.);
#654=FACE_BOUND('',#595,.T.);
#655=FACE_BOUND('',#596,.T.);
#656=FACE_BOUND('',#597,.T.);
#657=FACE_BOUND('',#598,.T.);
#658=FACE_BOUND('',#599,.T.);
#659=FACE_BOUND('',#600,.T.);
#660=FACE_BOUND('',#601,.T.);
#661=FACE_BOUND('',#602,.T.);
#662=FACE_BOUND('',#603,.T.);
#663=FACE_BOUND('',#604,.T.);
#664=FACE_BOUND('',#605,.T.);
#665=FACE_BOUND('',#606,.T.);
#666=FACE_BOUND('',#607,.T.);
#667=FACE_BOUND('',#608,.T.);
#668=FACE_BOUND('',#609,.T.);
#669=FACE_BOUND('',#610,.T.);
#670=FACE_BOUND('',#611,.T.);
#671=FACE_BOUND('',#612,.T.);
#672=FACE_BOUND('',#613,.T.);
#673=FACE_BOUND('',#614,.T.);
#674=FACE_BOUND('',#615,.T.);
#675=FACE_BOUND('',#616,.T.);
#676=FACE_BOUND('',#617,.T.);
#677=FACE_BOUND('',#618,.T.);
#678=FACE_BOUND('',#619,.T.);
#679=FACE_BOUND('',#620,.T.);
#680=FACE_BOUND('',#621,.T.);
#681=FACE_BOUND('',#622,.T.);
#682=FACE_BOUND('',#623,.T.);
#683=FACE_BOUND('',#624,.T.);
#684=FACE_BOUND('',#625,.T.);
#685=FACE_BOUND('',#626,.T.);
#686=FACE_BOUND('',#627,.T.);
#687=FACE_BOUND('',#628,.T.);
#688=FACE_BOUND('',#629,.T.);
#689=FACE_BOUND('',#630,.T.);
#690=FACE_BOUND('',#631,.T.);
#691=FACE_BOUND('',#632,.T.);
#692=FACE_BOUND('',#633,.T.);
#693=FACE_BOUND('',#634,.T.);
#694=PLANE('',#762);
#695=PLANE('',#763);
#696=PLANE('',#766);
#697=PLANE('',#778);
#698=PLANE('',#789);
#699=PLANE('',#792);
#700=PLANE('',#800);
#701=PLANE('',#803);
#702=PLANE('',#808);
#703=PLANE('',#812);
#704=PLANE('',#814);
#705=PLANE('',#816);
#706=PLANE('',#818);
#707=ADVANCED_FACE('',(#635),#694,.T.);
#708=ADVANCED_FACE('',(#636),#695,.F.);
#709=ADVANCED_FACE('',(#637),#696,.T.);
#710=ADVANCED_FACE('',(#638),#24,.T.);
#711=ADVANCED_FACE('',(#639,#640),#25,.F.);
#712=ADVANCED_FACE('',(#641),#26,.F.);
#713=ADVANCED_FACE('',(#642,#643),#697,.T.);
#714=ADVANCED_FACE('',(#644),#27,.T.);
#715=ADVANCED_FACE('',(#645),#28,.F.);
#716=ADVANCED_FACE('',(#646,#647),#29,.F.);
#717=ADVANCED_FACE('',(#648,#649),#698,.F.);
#718=ADVANCED_FACE('',(#650,#651),#699,.T.);
#719=ADVANCED_FACE('',(#652),#30,.T.);
#720=ADVANCED_FACE('',(#653,#654),#31,.F.);
#721=ADVANCED_FACE('',(#655,#656),#700,.T.);
#722=ADVANCED_FACE('',(#657,#658),#701,.F.);
#723=ADVANCED_FACE('',(#659),#32,.T.);
#724=ADVANCED_FACE('',(#660),#702,.T.);
#725=ADVANCED_FACE('',(#661,#662),#33,.F.);
#726=ADVANCED_FACE('',(#663,#664),#703,.T.);
#727=ADVANCED_FACE('',(#665,#666),#704,.F.);
#728=ADVANCED_FACE('',(#667,#668),#705,.F.);
#729=ADVANCED_FACE('',(#669,#670),#706,.T.);
#730=ADVANCED_FACE('',(#671),#12,.F.);
#731=ADVANCED_FACE('',(#672),#13,.F.);
#732=ADVANCED_FACE('',(#673),#14,.F.);
#733=ADVANCED_FACE('',(#674),#15,.F.);
#734=ADVANCED_FACE('',(#675),#16,.T.);
#735=ADVANCED_FACE('',(#676),#17,.T.);
#736=ADVANCED_FACE('',(#677),#34,.F.);
#737=ADVANCED_FACE('',(#678),#35,.F.);
#738=ADVANCED_FACE('',(#679,#680),#36,.F.);
#739=ADVANCED_FACE('',(#681,#682),#18,.F.);
#740=ADVANCED_FACE('',(#683,#684),#19,.T.);
#741=ADVANCED_FACE('',(#685),#20,.T.);
#742=ADVANCED_FACE('',(#686),#37,.T.);
#743=ADVANCED_FACE('',(#687),#21,.T.);
#744=ADVANCED_FACE('',(#688),#38,.T.);
#745=ADVANCED_FACE('',(#689),#22,.T.);
#746=ADVANCED_FACE('',(#690),#39,.T.);
#747=ADVANCED_FACE('',(#691),#23,.T.);
#748=ADVANCED_FACE('',(#692,#693),#40,.F.);
#749=CLOSED_SHELL('',(#707,#708,#709,#710,#711,#712,#713,#714,#715,#716,
#717,#718,#719,#720,#721,#722,#723,#724,#725,#726,#727,#728,#729,#730,#731,
#732,#733,#734,#735,#736,#737,#738,#739,#740,#741,#742,#743,#744,#745,#746,
#747,#748));
#750=STYLED_ITEM('',(#751),#758);
#751=PRESENTATION_STYLE_ASSIGNMENT((#752));
#752=SURFACE_STYLE_USAGE(.BOTH.,#753);
#753=SURFACE_SIDE_STYLE('',(#754));
#754=SURFACE_STYLE_FILL_AREA(#755);
#755=FILL_AREA_STYLE('',(#756));
#756=FILL_AREA_STYLE_COLOUR('',#757);
#757=COLOUR_RGB('',0.647058823529412,0.647058823529412,0.647058823529412);
#758=MANIFOLD_SOLID_BREP('left_link_inside',#749);
#759=SHAPE_DEFINITION_REPRESENTATION(#1379,#760);
#760=SHAPE_REPRESENTATION('left_link_inside',(#761),#1374);
#761=AXIS2_PLACEMENT_3D('',#1071,#850,#851);
#762=AXIS2_PLACEMENT_3D('',#1072,#852,#853);
#763=AXIS2_PLACEMENT_3D('',#1081,#858,#859);
#764=AXIS2_PLACEMENT_3D('',#1096,#862,#863);
#765=AXIS2_PLACEMENT_3D('',#1100,#865,#866);
#766=AXIS2_PLACEMENT_3D('',#1171,#879,#880);
#767=AXIS2_PLACEMENT_3D('',#1172,#881,#882);
#768=AXIS2_PLACEMENT_3D('',#1239,#896,#897);
#769=AXIS2_PLACEMENT_3D('',#1242,#899,#900);
#770=AXIS2_PLACEMENT_3D('',#1243,#901,#902);
#771=AXIS2_PLACEMENT_3D('',#1244,#903,#904);
#772=AXIS2_PLACEMENT_3D('',#1245,#905,#906);
#773=AXIS2_PLACEMENT_3D('',#1246,#907,#908);
#774=AXIS2_PLACEMENT_3D('',#1248,#909,#910);
#775=AXIS2_PLACEMENT_3D('',#1250,#911,#912);
#776=AXIS2_PLACEMENT_3D('',#1251,#913,#914);
#777=AXIS2_PLACEMENT_3D('',#1252,#915,#916);
#778=AXIS2_PLACEMENT_3D('',#1253,#917,#918);
#779=AXIS2_PLACEMENT_3D('',#1254,#919,#920);
#780=AXIS2_PLACEMENT_3D('',#1260,#923,#924);
#781=AXIS2_PLACEMENT_3D('',#1261,#925,#926);
#782=AXIS2_PLACEMENT_3D('',#1262,#927,#928);
#783=AXIS2_PLACEMENT_3D('',#1263,#929,#930);
#784=AXIS2_PLACEMENT_3D('',#1264,#931,#932);
#785=AXIS2_PLACEMENT_3D('',#1265,#933,#934);
#786=AXIS2_PLACEMENT_3D('',#1266,#935,#936);
#787=AXIS2_PLACEMENT_3D('',#1267,#937,#938);
#788=AXIS2_PLACEMENT_3D('',#1268,#939,#940);
#789=AXIS2_PLACEMENT_3D('',#1270,#941,#942);
#790=AXIS2_PLACEMENT_3D('',#1271,#943,#944);
#791=AXIS2_PLACEMENT_3D('',#1272,#945,#946);
#792=AXIS2_PLACEMENT_3D('',#1274,#947,#948);
#793=AXIS2_PLACEMENT_3D('',#1275,#949,#950);
#794=AXIS2_PLACEMENT_3D('',#1282,#954,#955);
#795=AXIS2_PLACEMENT_3D('',#1283,#956,#957);
#796=AXIS2_PLACEMENT_3D('',#1284,#958,#959);
#797=AXIS2_PLACEMENT_3D('',#1285,#960,#961);
#798=AXIS2_PLACEMENT_3D('',#1286,#962,#963);
#799=AXIS2_PLACEMENT_3D('',#1288,#964,#965);
#800=AXIS2_PLACEMENT_3D('',#1290,#966,#967);
#801=AXIS2_PLACEMENT_3D('',#1291,#968,#969);
#802=AXIS2_PLACEMENT_3D('',#1293,#970,#971);
#803=AXIS2_PLACEMENT_3D('',#1294,#972,#973);
#804=AXIS2_PLACEMENT_3D('',#1295,#974,#975);
#805=AXIS2_PLACEMENT_3D('',#1300,#978,#979);
#806=AXIS2_PLACEMENT_3D('',#1301,#980,#981);
#807=AXIS2_PLACEMENT_3D('',#1305,#983,#984);
#808=AXIS2_PLACEMENT_3D('',#1306,#985,#986);
#809=AXIS2_PLACEMENT_3D('',#1309,#989,#990);
#810=AXIS2_PLACEMENT_3D('',#1310,#991,#992);
#811=AXIS2_PLACEMENT_3D('',#1312,#993,#994);
#812=AXIS2_PLACEMENT_3D('',#1314,#995,#996);
#813=AXIS2_PLACEMENT_3D('',#1315,#997,#998);
#814=AXIS2_PLACEMENT_3D('',#1316,#999,#1000);
#815=AXIS2_PLACEMENT_3D('',#1317,#1001,#1002);
#816=AXIS2_PLACEMENT_3D('',#1318,#1003,#1004);
#817=AXIS2_PLACEMENT_3D('',#1319,#1005,#1006);
#818=AXIS2_PLACEMENT_3D('',#1320,#1007,#1008);
#819=AXIS2_PLACEMENT_3D('',#1321,#1009,#1010);
#820=AXIS2_PLACEMENT_3D('',#1322,#1011,#1012);
#821=AXIS2_PLACEMENT_3D('',#1323,#1013,#1014);
#822=AXIS2_PLACEMENT_3D('',#1335,#1015,#1016);
#823=AXIS2_PLACEMENT_3D('',#1336,#1017,#1018);
#824=AXIS2_PLACEMENT_3D('',#1346,#1019,#1020);
#825=AXIS2_PLACEMENT_3D('',#1347,#1021,#1022);
#826=AXIS2_PLACEMENT_3D('',#1348,#1023,#1024);
#827=AXIS2_PLACEMENT_3D('',#1349,#1025,#1026);
#828=AXIS2_PLACEMENT_3D('',#1350,#1027,#1028);
#829=AXIS2_PLACEMENT_3D('',#1351,#1029,#1030);
#830=AXIS2_PLACEMENT_3D('',#1352,#1031,#1032);
#831=AXIS2_PLACEMENT_3D('',#1353,#1033,#1034);
#832=AXIS2_PLACEMENT_3D('',#1354,#1035,#1036);
#833=AXIS2_PLACEMENT_3D('',#1355,#1037,#1038);
#834=AXIS2_PLACEMENT_3D('',#1357,#1039,#1040);
#835=AXIS2_PLACEMENT_3D('',#1358,#1041,#1042);
#836=AXIS2_PLACEMENT_3D('',#1359,#1043,#1044);
#837=AXIS2_PLACEMENT_3D('',#1360,#1045,#1046);
#838=AXIS2_PLACEMENT_3D('',#1361,#1047,#1048);
#839=AXIS2_PLACEMENT_3D('',#1362,#1049,#1050);
#840=AXIS2_PLACEMENT_3D('',#1363,#1051,#1052);
#841=AXIS2_PLACEMENT_3D('',#1364,#1053,#1054);
#842=AXIS2_PLACEMENT_3D('',#1365,#1055,#1056);
#843=AXIS2_PLACEMENT_3D('',#1366,#1057,#1058);
#844=AXIS2_PLACEMENT_3D('',#1367,#1059,#1060);
#845=AXIS2_PLACEMENT_3D('',#1368,#1061,#1062);
#846=AXIS2_PLACEMENT_3D('',#1369,#1063,#1064);
#847=AXIS2_PLACEMENT_3D('',#1370,#1065,#1066);
#848=AXIS2_PLACEMENT_3D('',#1371,#1067,#1068);
#849=AXIS2_PLACEMENT_3D('',#1372,#1069,#1070);
#850=DIRECTION('',(0.,0.,1.));
#851=DIRECTION('',(1.,0.,0.));
#852=DIRECTION('',(0.89285726403718,-0.450339767349101,0.));
#853=DIRECTION('',(0.450339767349101,0.89285726403718,0.));
#854=DIRECTION('',(0.,0.,-1.));
#855=DIRECTION('',(-0.450339767349101,-0.89285726403718,0.));
#856=DIRECTION('',(0.,0.,-1.));
#857=DIRECTION('',(-0.450339767349101,-0.89285726403718,0.));
#858=DIRECTION('',(1.,1.3757252034059E-15,0.));
#859=DIRECTION('',(-1.3757252034059E-15,1.,0.));
#860=DIRECTION('',(0.,0.,-1.));
#861=DIRECTION('',(1.3757252034059E-15,-1.,0.));
#862=DIRECTION('',(1.,1.3757252034059E-15,0.));
#863=DIRECTION('',(-1.3757252034059E-15,1.,0.));
#864=DIRECTION('',(0.,0.,-1.));
#865=DIRECTION('',(1.,1.3757252034059E-15,0.));
#866=DIRECTION('',(-1.3757252034059E-15,1.,0.));
#867=DIRECTION('',(1.3757252034059E-15,-1.,0.));
#868=DIRECTION('',(0.,0.,-1.));
#869=DIRECTION('',(1.3757252034059E-15,-1.,0.));
#870=DIRECTION('',(0.,0.,-1.));
#871=DIRECTION('',(0.,-1.,0.));
#872=DIRECTION('',(0.,0.,-1.));
#873=DIRECTION('',(0.,-1.,0.));
#874=DIRECTION('',(0.,-1.,0.));
#875=DIRECTION('',(0.,0.,-1.));
#876=DIRECTION('',(0.,-1.,0.));
#877=DIRECTION('',(0.,0.,-1.));
#878=DIRECTION('',(1.3757252034059E-15,-1.,0.));
#879=DIRECTION('',(1.,0.,0.));
#880=DIRECTION('',(0.,0.,-1.));
#881=DIRECTION('',(1.,0.,0.));
#882=DIRECTION('',(0.,0.,-1.));
#883=DIRECTION('',(0.,-1.,0.));
#884=DIRECTION('',(0.,0.,-1.));
#885=DIRECTION('',(0.,-1.,0.));
#886=DIRECTION('',(0.,0.,-1.));
#887=DIRECTION('',(0.,-1.,0.));
#888=DIRECTION('',(0.,0.,-1.));
#889=DIRECTION('',(0.,-1.,0.));
#890=DIRECTION('',(0.,-1.,0.));
#891=DIRECTION('',(0.,-1.,0.));
#892=DIRECTION('',(0.,0.,-1.));
#893=DIRECTION('',(0.,-1.,0.));
#894=DIRECTION('',(0.,0.,-1.));
#895=DIRECTION('',(0.,-1.,0.));
#896=DIRECTION('',(1.,0.,0.));
#897=DIRECTION('',(0.,0.,-1.));
#898=DIRECTION('',(0.,0.,-1.));
#899=DIRECTION('',(0.,0.,-1.));
#900=DIRECTION('',(-1.,0.,0.));
#901=DIRECTION('',(0.,0.,1.));
#902=DIRECTION('',(1.,0.,0.));
#903=DIRECTION('',(0.,0.,1.));
#904=DIRECTION('',(1.,0.,0.));
#905=DIRECTION('',(0.,0.,-1.));
#906=DIRECTION('',(-1.,0.,0.));
#907=DIRECTION('',(0.,0.,1.));
#908=DIRECTION('',(1.,0.,0.));
#909=DIRECTION('',(0.,0.,1.));
#910=DIRECTION('',(1.,0.,0.));
#911=DIRECTION('',(0.,0.,-1.));
#912=DIRECTION('',(-1.,0.,0.));
#913=DIRECTION('',(0.,0.,1.));
#914=DIRECTION('',(1.,0.,0.));
#915=DIRECTION('',(0.,0.,1.));
#916=DIRECTION('',(1.,0.,0.));
#917=DIRECTION('',(0.,0.,1.));
#918=DIRECTION('',(1.,0.,0.));
#919=DIRECTION('',(0.,0.,1.));
#920=DIRECTION('',(1.,0.,0.));
#921=DIRECTION('',(1.,0.,0.));
#922=DIRECTION('',(0.,-1.,0.));
#923=DIRECTION('',(0.,0.,1.));
#924=DIRECTION('',(1.,0.,0.));
#925=DIRECTION('',(0.,0.,-1.));
#926=DIRECTION('',(-1.,0.,0.));
#927=DIRECTION('',(0.,0.,1.));
#928=DIRECTION('',(1.,0.,0.));
#929=DIRECTION('',(0.,0.,1.));
#930=DIRECTION('',(1.,0.,0.));
#931=DIRECTION('',(0.,0.,-1.));
#932=DIRECTION('',(-1.,0.,0.));
#933=DIRECTION('',(0.,0.,1.));
#934=DIRECTION('',(1.,0.,0.));
#935=DIRECTION('',(0.,0.,1.));
#936=DIRECTION('',(1.,0.,0.));
#937=DIRECTION('',(0.,0.,-1.));
#938=DIRECTION('',(-1.,0.,0.));
#939=DIRECTION('',(0.,0.,1.));
#940=DIRECTION('',(1.,0.,0.));
#941=DIRECTION('',(0.,0.,1.));
#942=DIRECTION('',(1.,0.,0.));
#943=DIRECTION('',(0.,0.,1.));
#944=DIRECTION('',(1.,0.,0.));
#945=DIRECTION('',(0.,0.,1.));
#946=DIRECTION('',(1.,0.,0.));
#947=DIRECTION('',(0.,1.,0.));
#948=DIRECTION('',(0.,0.,1.));
#949=DIRECTION('',(0.,1.,0.));
#950=DIRECTION('',(0.,0.,1.));
#951=DIRECTION('',(1.,0.,0.));
#952=DIRECTION('',(0.,0.,-1.));
#953=DIRECTION('',(1.,0.,0.));
#954=DIRECTION('',(0.,0.,-1.));
#955=DIRECTION('',(-1.,0.,0.));
#956=DIRECTION('',(0.,0.,1.));
#957=DIRECTION('',(1.,0.,0.));
#958=DIRECTION('',(0.,0.,1.));
#959=DIRECTION('',(1.,0.,0.));
#960=DIRECTION('',(0.,0.,-1.));
#961=DIRECTION('',(-1.,0.,0.));
#962=DIRECTION('',(0.,0.,1.));
#963=DIRECTION('',(1.,0.,0.));
#964=DIRECTION('',(0.,0.,1.));
#965=DIRECTION('',(1.,0.,0.));
#966=DIRECTION('',(0.,0.,1.));
#967=DIRECTION('',(1.,0.,0.));
#968=DIRECTION('',(0.,0.,1.));
#969=DIRECTION('',(1.,0.,0.));
#970=DIRECTION('',(0.,0.,1.));
#971=DIRECTION('',(1.,0.,0.));
#972=DIRECTION('',(0.,0.,1.));
#973=DIRECTION('',(1.,0.,0.));
#974=DIRECTION('',(0.,0.,1.));
#975=DIRECTION('',(1.,0.,0.));
#976=DIRECTION('',(0.,-1.,0.));
#977=DIRECTION('',(1.,0.,0.));
#978=DIRECTION('',(0.,0.,-1.));
#979=DIRECTION('',(-1.,0.,0.));
#980=DIRECTION('',(0.,0.,1.));
#981=DIRECTION('',(1.,0.,0.));
#982=DIRECTION('',(0.,0.,-1.));
#983=DIRECTION('',(0.,0.,1.));
#984=DIRECTION('',(1.,0.,0.));
#985=DIRECTION('',(0.89285726403718,-0.450339767349101,0.));
#986=DIRECTION('',(0.450339767349101,0.89285726403718,0.));
#987=DIRECTION('',(-0.450339767349101,-0.89285726403718,0.));
#988=DIRECTION('',(-0.450339767349101,-0.89285726403718,0.));
#989=DIRECTION('',(0.,0.,-1.));
#990=DIRECTION('',(-1.,0.,0.));
#991=DIRECTION('',(0.,0.,1.));
#992=DIRECTION('',(1.,0.,0.));
#993=DIRECTION('',(0.,0.,1.));
#994=DIRECTION('',(1.,0.,0.));
#995=DIRECTION('',(0.,0.,1.));
#996=DIRECTION('',(1.,0.,0.));
#997=DIRECTION('',(0.,0.,1.));
#998=DIRECTION('',(1.,0.,0.));
#999=DIRECTION('',(0.,0.,1.));
#1000=DIRECTION('',(1.,0.,0.));
#1001=DIRECTION('',(0.,0.,1.));
#1002=DIRECTION('',(1.,0.,0.));
#1003=DIRECTION('',(0.,0.,1.));
#1004=DIRECTION('',(1.,0.,0.));
#1005=DIRECTION('',(0.,0.,1.));
#1006=DIRECTION('',(1.,0.,0.));
#1007=DIRECTION('',(0.,0.,1.));
#1008=DIRECTION('',(1.,0.,0.));
#1009=DIRECTION('',(0.,0.,1.));
#1010=DIRECTION('',(1.,0.,0.));
#1011=DIRECTION('',(0.,0.,1.));
#1012=DIRECTION('',(1.,0.,0.));
#1013=DIRECTION('',(0.,0.,-1.));
#1014=DIRECTION('',(-1.,0.,0.));
#1015=DIRECTION('',(0.,0.,-1.));
#1016=DIRECTION('',(-1.,0.,0.));
#1017=DIRECTION('',(0.,0.,1.));
#1018=DIRECTION('',(1.,0.,0.));
#1019=DIRECTION('',(0.,0.,1.));
#1020=DIRECTION('',(1.,0.,0.));
#1021=DIRECTION('',(0.,0.,1.));
#1022=DIRECTION('',(1.,0.,0.));
#1023=DIRECTION('',(0.,0.,1.));
#1024=DIRECTION('',(1.,0.,0.));
#1025=DIRECTION('',(0.,0.,1.));
#1026=DIRECTION('',(1.,0.,0.));
#1027=DIRECTION('',(-1.,0.,0.));
#1028=DIRECTION('',(0.,0.,1.));
#1029=DIRECTION('',(1.,0.,0.));
#1030=DIRECTION('',(0.,0.,-1.));
#1031=DIRECTION('',(1.,0.,0.));
#1032=DIRECTION('',(0.,0.,-1.));
#1033=DIRECTION('',(1.,0.,0.));
#1034=DIRECTION('',(0.,0.,-1.));
#1035=DIRECTION('',(0.,0.,-1.));
#1036=DIRECTION('',(-1.,0.,0.));
#1037=DIRECTION('',(0.,0.,-1.));
#1038=DIRECTION('',(-1.,0.,0.));
#1039=DIRECTION('',(0.,0.,1.));
#1040=DIRECTION('',(1.,0.,0.));
#1041=DIRECTION('',(0.,0.,1.));
#1042=DIRECTION('',(1.,0.,0.));
#1043=DIRECTION('',(0.,0.,1.));
#1044=DIRECTION('',(1.,0.,0.));
#1045=DIRECTION('',(0.,-1.,0.));
#1046=DIRECTION('',(0.,0.,-1.));
#1047=DIRECTION('',(0.,-1.,0.));
#1048=DIRECTION('',(0.,0.,-1.));
#1049=DIRECTION('',(0.,-1.,0.));
#1050=DIRECTION('',(0.,0.,-1.));
#1051=DIRECTION('',(1.,0.,0.));
#1052=DIRECTION('',(0.,0.,-1.));
#1053=DIRECTION('',(0.,0.,1.));
#1054=DIRECTION('',(1.,0.,0.));
#1055=DIRECTION('',(0.,0.,-1.));
#1056=DIRECTION('',(-1.,0.,0.));
#1057=DIRECTION('',(0.,0.,1.));
#1058=DIRECTION('',(1.,0.,0.));
#1059=DIRECTION('',(1.,0.,0.));
#1060=DIRECTION('',(0.,0.,-1.));
#1061=DIRECTION('',(0.,1.,0.));
#1062=DIRECTION('',(0.,0.,1.));
#1063=DIRECTION('',(0.,1.,0.));
#1064=DIRECTION('',(0.,0.,1.));
#1065=DIRECTION('',(0.,1.,0.));
#1066=DIRECTION('',(0.,0.,1.));
#1067=DIRECTION('',(0.,0.,1.));
#1068=DIRECTION('',(1.,0.,0.));
#1069=DIRECTION('',(0.,-1.,0.));
#1070=DIRECTION('',(0.,0.,-1.));
#1071=CARTESIAN_POINT('',(0.,0.,0.));
#1072=CARTESIAN_POINT('',(-0.026186482431991,0.0485927021421096,0.0165));
#1073=CARTESIAN_POINT('',(-0.0256186259313881,0.049718551641208,0.0165));
#1074=CARTESIAN_POINT('',(-0.0256186259313881,0.049718551641208,0.011));
#1075=CARTESIAN_POINT('',(-0.0256186259313881,0.049718551641208,0.0085));
#1076=CARTESIAN_POINT('',(-0.026186482431991,0.0485927021421096,0.011));
#1077=CARTESIAN_POINT('',(-0.026754338932594,0.0474668526430112,0.011));
#1078=CARTESIAN_POINT('',(-0.026754338932594,0.0474668526430112,0.0165));
#1079=CARTESIAN_POINT('',(-0.026754338932594,0.0474668526430112,0.0085));
#1080=CARTESIAN_POINT('',(-0.026186482431991,0.0485927021421096,0.0085));
#1081=CARTESIAN_POINT('',(-0.0362186259313882,0.106868551641208,0.0098));
#1082=CARTESIAN_POINT('',(-0.0362186259313882,0.109390455683792,0.025));
#1083=CARTESIAN_POINT('',(-0.0362186259313882,0.109390455683792,0.025));
#1084=CARTESIAN_POINT('',(-0.0362186259313882,0.109390455683792,0.0158));
#1085=CARTESIAN_POINT('',(-0.0362186259313882,0.109390455683792,0.0158));
#1086=CARTESIAN_POINT('',(-0.0362186259313882,0.109390455683792,0.0156824963813003));
#1087=CARTESIAN_POINT('',(-0.0362186259313882,0.109234565066949,0.0154841169831863));
#1088=CARTESIAN_POINT('',(-0.0362186259313881,0.108809552966717,0.0152979990290689));
#1089=CARTESIAN_POINT('',(-0.0362186259313881,0.108240696034323,0.0152154113352192));
#1090=CARTESIAN_POINT('',(-0.0362186259313881,0.107555530337621,0.0151987477218855));
#1091=CARTESIAN_POINT('',(-0.0362186259313882,0.107097438752935,0.0152));
#1092=CARTESIAN_POINT('',(-0.0362186259313882,0.106868551641208,0.0152));
#1093=CARTESIAN_POINT('',(-0.0362186259313882,0.106868551641208,0.0152));
#1094=CARTESIAN_POINT('',(-0.0362186259313882,0.106868551641208,0.0152));
#1095=CARTESIAN_POINT('',(-0.0362186259313881,0.095868551641208,0.0152));
#1096=CARTESIAN_POINT('',(-0.0362186259313881,0.095868551641208,0.0142));
#1097=CARTESIAN_POINT('',(-0.0362186259313882,0.094868551641208,0.0142));
#1098=CARTESIAN_POINT('',(-0.0362186259313882,0.094868551641208,0.0152));
#1099=CARTESIAN_POINT('',(-0.0362186259313882,0.094868551641208,0.0108));
#1100=CARTESIAN_POINT('',(-0.0362186259313881,0.095868551641208,0.0108));
#1101=CARTESIAN_POINT('',(-0.0362186259313881,0.095868551641208,0.0098));
#1102=CARTESIAN_POINT('',(-0.0362186259313882,0.106868551641208,0.0098));
#1103=CARTESIAN_POINT('',(-0.0362186259313882,0.106868551641208,0.0098));
#1104=CARTESIAN_POINT('',(-0.0362186259313882,0.106868551641208,0.0098));
#1105=CARTESIAN_POINT('',(-0.0362186259313882,0.10709774426705,0.0098));
#1106=CARTESIAN_POINT('',(-0.0362186259313882,0.107556186484714,0.00980122278478577));
#1107=CARTESIAN_POINT('',(-0.0362186259313881,0.108243350576566,0.00978463403904094));
#1108=CARTESIAN_POINT('',(-0.0362186259313881,0.108814341080407,0.00970070163919843));
#1109=CARTESIAN_POINT('',(-0.0362186259313882,0.109236317063678,0.00951447501892218));
#1110=CARTESIAN_POINT('',(-0.0362186259313882,0.109390455683792,0.00931642338648159));
#1111=CARTESIAN_POINT('',(-0.0362186259313882,0.109390455683792,0.0092));
#1112=CARTESIAN_POINT('',(-0.0362186259313882,0.109390455683792,0.0092));
#1113=CARTESIAN_POINT('',(-0.0362186259313882,0.109390455683792,0.0098));
#1114=CARTESIAN_POINT('',(-0.0362186259313882,0.109390455683792,0.));
#1115=CARTESIAN_POINT('',(-0.0362186259313882,0.106868551641208,0.));
#1116=CARTESIAN_POINT('',(-0.0362186259313881,0.0595165104293894,0.));
#1117=CARTESIAN_POINT('',(-0.0362186259313881,0.0595165104293894,0.));
#1118=CARTESIAN_POINT('',(-0.0362186259313881,0.0592341694482395,-2.93870116938593E-18));
#1119=CARTESIAN_POINT('',(-0.0362186259313881,0.0586740484279248,0.000185442146094883));
#1120=CARTESIAN_POINT('',(-0.0362186259313881,0.0583788054720666,0.000716376464697216));
#1121=CARTESIAN_POINT('',(-0.0362186259313881,0.0583788054720666,0.001));
#1122=CARTESIAN_POINT('',(-0.0362186259313882,0.0583788054720665,0.001));
#1123=CARTESIAN_POINT('',(-0.0362186259313882,0.0583788054720665,0.0098));
#1124=CARTESIAN_POINT('',(-0.0362186259313882,0.0583788054720665,0.006));
#1125=CARTESIAN_POINT('',(-0.0362186259313882,0.0583788054720665,0.006));
#1126=CARTESIAN_POINT('',(-0.0362186259313882,0.0583788054720665,0.00674252876541607));
#1127=CARTESIAN_POINT('',(-0.0362186259313881,0.0577703119004578,0.00778437730560321));
#1128=CARTESIAN_POINT('',(-0.0362186259313881,0.056404842870982,0.00841047211338615));
#1129=CARTESIAN_POINT('',(-0.0362186259313881,0.0556778135805157,0.0085));
#1130=CARTESIAN_POINT('',(-0.0362186259313881,0.0553087212642964,0.0085));
#1131=CARTESIAN_POINT('',(-0.0362186259313882,0.0553087212642964,0.0085));
#1132=CARTESIAN_POINT('',(-0.0362186259313882,0.0553096302225329,0.0085));
#1133=CARTESIAN_POINT('',(-0.0362186259313882,0.049718551641208,0.0085));
#1134=CARTESIAN_POINT('',(-0.0362186259313882,0.049718551641208,0.0165));
#1135=CARTESIAN_POINT('',(-0.0362186259313882,0.049718551641208,0.011));
#1136=CARTESIAN_POINT('',(-0.0362186259313882,0.0553096302225329,0.011));
#1137=CARTESIAN_POINT('',(-0.0362186259313882,0.0553087212642964,0.011));
#1138=CARTESIAN_POINT('',(-0.0362186259313882,0.0553087212642964,0.011));
#1139=CARTESIAN_POINT('',(-0.0362186259313882,0.0558741030481463,0.011));
#1140=CARTESIAN_POINT('',(-0.0362186259313881,0.0570027555939805,0.0112110991104616));
#1141=CARTESIAN_POINT('',(-0.0362186259313881,0.0578815043113882,0.0119967825056401));
#1142=CARTESIAN_POINT('',(-0.0362186259313881,0.0581369430627963,0.0125));
#1143=CARTESIAN_POINT('',(-0.0362186259313881,0.0581369430627962,0.0125));
#1144=CARTESIAN_POINT('',(-0.0362186259313881,0.0581369430627962,0.0125));
#1145=CARTESIAN_POINT('',(-0.0362186259313881,0.0578832731156844,0.0129997329280553));
#1146=CARTESIAN_POINT('',(-0.0362186259313881,0.056999274884796,0.0137921416330281));
#1147=CARTESIAN_POINT('',(-0.0362186259313881,0.0558731998711286,0.014));
#1148=CARTESIAN_POINT('',(-0.0362186259313881,0.0553087212642964,0.014));
#1149=CARTESIAN_POINT('',(-0.0362186259313882,0.0553087212642964,0.014));
#1150=CARTESIAN_POINT('',(-0.0362186259313882,0.0553096302225329,0.014));
#1151=CARTESIAN_POINT('',(-0.0362186259313882,0.049718551641208,0.014));
#1152=CARTESIAN_POINT('',(-0.0362186259313882,0.049718551641208,0.0165));
#1153=CARTESIAN_POINT('',(-0.0362186259313882,0.049718551641208,0.0165));
#1154=CARTESIAN_POINT('',(-0.0362186259313882,0.0553096302225329,0.0165));
#1155=CARTESIAN_POINT('',(-0.0362186259313882,0.0553087212642964,0.0165));
#1156=CARTESIAN_POINT('',(-0.0362186259313882,0.0553087212642964,0.0165));
#1157=CARTESIAN_POINT('',(-0.0362186259313882,0.0560476523448348,0.0165));
#1158=CARTESIAN_POINT('',(-0.0362186259313881,0.0575509490939265,0.016866609808207));
#1159=CARTESIAN_POINT('',(-0.0362186259313881,0.0583788054720666,0.0182555280762462));
#1160=CARTESIAN_POINT('',(-0.0362186259313881,0.0583788054720666,0.019));
#1161=CARTESIAN_POINT('',(-0.0362186259313882,0.0583788054720665,0.019));
#1162=CARTESIAN_POINT('',(-0.0362186259313882,0.0583788054720665,0.0098));
#1163=CARTESIAN_POINT('',(-0.0362186259313882,0.0583788054720665,0.024));
#1164=CARTESIAN_POINT('',(-0.0362186259313882,0.0583788054720665,0.024));
#1165=CARTESIAN_POINT('',(-0.0362186259313882,0.0583788054720665,0.0242826610918127));
#1166=CARTESIAN_POINT('',(-0.0362186259313881,0.0586728165402237,0.0248142519899025));
#1167=CARTESIAN_POINT('',(-0.0362186259313881,0.0592347221444066,0.025));
#1168=CARTESIAN_POINT('',(-0.0362186259313881,0.0595165104293894,0.025));
#1169=CARTESIAN_POINT('',(-0.0362186259313881,0.0595165104293894,0.025));
#1170=CARTESIAN_POINT('',(-0.0362186259313882,0.106868551641208,0.025));
#1171=CARTESIAN_POINT('',(-0.0256186259313881,0.100868551641208,0.0098));
#1172=CARTESIAN_POINT('',(-0.0256186259313881,0.095868551641208,0.0142));
#1173=CARTESIAN_POINT('',(-0.0256186259313881,0.094268551641208,0.0142));
#1174=CARTESIAN_POINT('',(-0.0256186259313881,0.095868551641208,0.0158));
#1175=CARTESIAN_POINT('',(-0.0256186259313881,0.106868551641208,0.0158));
#1176=CARTESIAN_POINT('',(-0.0256186259313881,0.106868551641208,0.0158));
#1177=CARTESIAN_POINT('',(-0.0256186259313881,0.106868551641208,0.025));
#1178=CARTESIAN_POINT('',(-0.0256186259313881,0.106868551641208,0.025));
#1179=CARTESIAN_POINT('',(-0.0256186259313881,0.100868551641208,0.025));
#1180=CARTESIAN_POINT('',(-0.0256186259313881,0.0591863921560937,0.025));
#1181=CARTESIAN_POINT('',(-0.0256186259313881,0.0591863921560937,0.025));
#1182=CARTESIAN_POINT('',(-0.0256186259313881,0.0588980197844074,0.025));
#1183=CARTESIAN_POINT('',(-0.0256186259313882,0.0583285082886437,0.0248254945366841));
#1184=CARTESIAN_POINT('',(-0.0256186259313881,0.0580034779544175,0.0242899530770946));
#1185=CARTESIAN_POINT('',(-0.0256186259313882,0.0580034779544175,0.024));
#1186=CARTESIAN_POINT('',(-0.0256186259313881,0.0580034779544175,0.024));
#1187=CARTESIAN_POINT('',(-0.0256186259313881,0.0580034779544175,0.0098));
#1188=CARTESIAN_POINT('',(-0.0256186259313881,0.0580034779544175,0.019));
#1189=CARTESIAN_POINT('',(-0.0256186259313881,0.0580034779544175,0.019));
#1190=CARTESIAN_POINT('',(-0.0256186259313881,0.0580034779544175,0.0186117410289047));
#1191=CARTESIAN_POINT('',(-0.0256186259313882,0.0577818560762176,0.0178532032016982));
#1192=CARTESIAN_POINT('',(-0.0256186259313881,0.0566503500523703,0.0167373092871054));
#1193=CARTESIAN_POINT('',(-0.0256186259313881,0.0554779901311418,0.0165));
#1194=CARTESIAN_POINT('',(-0.0256186259313881,0.054707539916932,0.0165));
#1195=CARTESIAN_POINT('',(-0.0256186259313881,0.054707539916932,0.0165));
#1196=CARTESIAN_POINT('',(-0.0256186259313881,0.0538610147978128,0.0165));
#1197=CARTESIAN_POINT('',(-0.0256186259313881,0.049718551641208,0.0165));
#1198=CARTESIAN_POINT('',(-0.0256186259313881,0.049718551641208,0.0165));
#1199=CARTESIAN_POINT('',(-0.0256186259313881,0.049718551641208,0.014));
#1200=CARTESIAN_POINT('',(-0.0256186259313881,0.0538610147978128,0.014));
#1201=CARTESIAN_POINT('',(-0.0256186259313881,0.054707539916932,0.014));
#1202=CARTESIAN_POINT('',(-0.0256186259313881,0.054707539916932,0.014));
#1203=CARTESIAN_POINT('',(-0.0256186259313881,0.055304224891684,0.014));
#1204=CARTESIAN_POINT('',(-0.0256186259313882,0.0564927693102417,0.0138191341278263));
#1205=CARTESIAN_POINT('',(-0.0256186259313881,0.0574710683477029,0.013024866239302));
#1206=CARTESIAN_POINT('',(-0.0256186259313881,0.0577503211677495,0.0125));
#1207=CARTESIAN_POINT('',(-0.0256186259313881,0.0577503211677495,0.0125));
#1208=CARTESIAN_POINT('',(-0.0256186259313881,0.0577503211677495,0.0125));
#1209=CARTESIAN_POINT('',(-0.0256186259313881,0.0574717660223541,0.0119764450665976));
#1210=CARTESIAN_POINT('',(-0.0256186259313881,0.0564970196104456,0.0111821953721917));
#1211=CARTESIAN_POINT('',(-0.0256186259313882,0.0553039803580966,0.011));
#1212=CARTESIAN_POINT('',(-0.0256186259313882,0.054707539916932,0.011));
#1213=CARTESIAN_POINT('',(-0.0256186259313881,0.054707539916932,0.011));
#1214=CARTESIAN_POINT('',(-0.0256186259313881,0.0538610147978128,0.011));
#1215=CARTESIAN_POINT('',(-0.0256186259313881,0.0538610147978128,0.0085));
#1216=CARTESIAN_POINT('',(-0.0256186259313881,0.054707539916932,0.0085));
#1217=CARTESIAN_POINT('',(-0.0256186259313881,0.054707539916932,0.0085));
#1218=CARTESIAN_POINT('',(-0.0256186259313881,0.0550927470812269,0.0085));
#1219=CARTESIAN_POINT('',(-0.0256186259313882,0.0558501460199745,0.00842321570854109));
#1220=CARTESIAN_POINT('',(-0.0256186259313881,0.0569352880561931,0.00798459550618486));
#1221=CARTESIAN_POINT('',(-0.0256186259313882,0.0577793128820856,0.00714948851858941));
#1222=CARTESIAN_POINT('',(-0.0256186259313881,0.0580034779544175,0.00638902991236813));
#1223=CARTESIAN_POINT('',(-0.0256186259313881,0.0580034779544175,0.006));
#1224=CARTESIAN_POINT('',(-0.0256186259313881,0.0580034779544175,0.006));
#1225=CARTESIAN_POINT('',(-0.0256186259313881,0.0580034779544175,0.0098));
#1226=CARTESIAN_POINT('',(-0.0256186259313881,0.0580034779544175,0.001));
#1227=CARTESIAN_POINT('',(-0.0256186259313881,0.0580034779544175,0.001));
#1228=CARTESIAN_POINT('',(-0.0256186259313881,0.0580034779544175,0.000711090938003279));
#1229=CARTESIAN_POINT('',(-0.0256186259313882,0.0583246936701001,0.000176716277599674));
#1230=CARTESIAN_POINT('',(-0.0256186259313882,0.058898605447322,9.88608604916601E-18));
#1231=CARTESIAN_POINT('',(-0.0256186259313882,0.0591863921560937,8.99939573117866E-19));
#1232=CARTESIAN_POINT('',(-0.0256186259313881,0.0591863921560937,0.));
#1233=CARTESIAN_POINT('',(-0.0256186259313881,0.100868551641208,0.));
#1234=CARTESIAN_POINT('',(-0.0256186259313881,0.106868551641208,0.));
#1235=CARTESIAN_POINT('',(-0.0256186259313881,0.106868551641208,0.0098));
#1236=CARTESIAN_POINT('',(-0.0256186259313881,0.106868551641208,0.0092));
#1237=CARTESIAN_POINT('',(-0.0256186259313881,0.100868551641208,0.0092));
#1238=CARTESIAN_POINT('',(-0.0256186259313881,0.095868551641208,0.0092));
#1239=CARTESIAN_POINT('',(-0.0256186259313881,0.095868551641208,0.0108));
#1240=CARTESIAN_POINT('',(-0.0256186259313881,0.094268551641208,0.0108));
#1241=CARTESIAN_POINT('',(-0.0256186259313881,0.094268551641208,0.0098));
#1242=CARTESIAN_POINT('',(-0.0312186255728782,0.049718551641208,0.0165));
#1243=CARTESIAN_POINT('',(-0.0312186255728782,0.049718551641208,0.011));
#1244=CARTESIAN_POINT('',(-0.0312186255728782,0.049718551641208,0.0085));
#1245=CARTESIAN_POINT('',(-0.0312186255728782,0.049718551641208,0.0165));
#1246=CARTESIAN_POINT('',(-0.0312186255728782,0.049718551641208,0.0085));
#1247=CARTESIAN_POINT('',(-0.0282186255728782,0.049718551641208,0.0085));
#1248=CARTESIAN_POINT('',(-0.0312186255728782,0.049718551641208,0.011));
#1249=CARTESIAN_POINT('',(-0.0282186255728782,0.049718551641208,0.011));
#1250=CARTESIAN_POINT('',(-0.0312186255728782,0.049718551641208,0.0098));
#1251=CARTESIAN_POINT('',(-0.0312186255728782,0.049718551641208,0.001));
#1252=CARTESIAN_POINT('',(-0.0312186255728782,0.049718551641208,0.006));
#1253=CARTESIAN_POINT('',(-0.0312186255728782,0.076093551641208,0.0098));
#1254=CARTESIAN_POINT('',(-0.0312186259313882,0.106868551641208,0.0098));
#1255=CARTESIAN_POINT('',(-0.0295686259313882,0.106868551641208,0.0098));
#1256=CARTESIAN_POINT('',(-0.0256186259313881,0.095868551641208,0.0098));
#1257=CARTESIAN_POINT('',(-0.0262186259313881,0.095868551641208,0.0098));
#1258=CARTESIAN_POINT('',(-0.0262186259313881,0.076093551641208,0.0098));
#1259=CARTESIAN_POINT('',(-0.0262186259313881,0.106868551641208,0.0098));
#1260=CARTESIAN_POINT('',(-0.0312186259313882,0.106868551641208,0.0098));
#1261=CARTESIAN_POINT('',(-0.0312186259313882,0.106868551641208,0.0098));
#1262=CARTESIAN_POINT('',(-0.0312186259313882,0.106868551641208,0.0092));
#1263=CARTESIAN_POINT('',(-0.0312186259313882,0.106868551641208,0.));
#1264=CARTESIAN_POINT('',(-0.0312186255728782,0.049718551641208,0.0098));
#1265=CARTESIAN_POINT('',(-0.0312186255728782,0.049718551641208,0.024));
#1266=CARTESIAN_POINT('',(-0.0312186255728782,0.049718551641208,0.019));
#1267=CARTESIAN_POINT('',(-0.0312186259313882,0.106868551641208,0.0098));
#1268=CARTESIAN_POINT('',(-0.0312186259313882,0.106868551641208,0.0056));
#1269=CARTESIAN_POINT('',(-0.0295686259313882,0.106868551641208,0.0056));
#1270=CARTESIAN_POINT('',(-0.0312186255728782,0.076093551641208,0.));
#1271=CARTESIAN_POINT('',(-0.0312186255728782,0.049718551641208,0.));
#1272=CARTESIAN_POINT('',(-0.0312186259313882,0.106868551641208,0.));
#1273=CARTESIAN_POINT('',(-0.0299686259313881,0.106868551641208,0.));
#1274=CARTESIAN_POINT('',(-0.0309186259313881,0.094868551641208,0.0152));
#1275=CARTESIAN_POINT('',(-0.0274186259313881,0.094868551641208,0.0125));
#1276=CARTESIAN_POINT('',(-0.0274186259313881,0.094868551641208,0.01325));
#1277=CARTESIAN_POINT('',(-0.0309186259313881,0.094868551641208,0.0142));
#1278=CARTESIAN_POINT('',(-0.0262186259313881,0.094868551641208,0.0142));
#1279=CARTESIAN_POINT('',(-0.0262186259313881,0.094868551641208,0.0152));
#1280=CARTESIAN_POINT('',(-0.0262186259313881,0.094868551641208,0.0108));
#1281=CARTESIAN_POINT('',(-0.0362186259313882,0.094868551641208,0.0108));
#1282=CARTESIAN_POINT('',(-0.0312186259313882,0.106868551641208,0.025));
#1283=CARTESIAN_POINT('',(-0.0312186259313882,0.106868551641208,0.0158));
#1284=CARTESIAN_POINT('',(-0.0312186259313882,0.106868551641208,0.025));
#1285=CARTESIAN_POINT('',(-0.0312186259313882,0.106868551641208,0.025));
#1286=CARTESIAN_POINT('',(-0.0312186259313882,0.106868551641208,0.024));
#1287=CARTESIAN_POINT('',(-0.0295686259313882,0.106868551641208,0.024));
#1288=CARTESIAN_POINT('',(-0.0312186259313882,0.106868551641208,0.0152));
#1289=CARTESIAN_POINT('',(-0.0295686259313882,0.106868551641208,0.0152));
#1290=CARTESIAN_POINT('',(-0.0312186255728782,0.076093551641208,0.025));
#1291=CARTESIAN_POINT('',(-0.0312186259313882,0.106868551641208,0.025));
#1292=CARTESIAN_POINT('',(-0.0285686259313882,0.106868551641208,0.025));
#1293=CARTESIAN_POINT('',(-0.0312186255728782,0.049718551641208,0.025));
#1294=CARTESIAN_POINT('',(-0.0312186255728782,0.076093551641208,0.0152));
#1295=CARTESIAN_POINT('',(-0.0312186259313882,0.106868551641208,0.0152));
#1296=CARTESIAN_POINT('',(-0.0262186259313881,0.106868551641208,0.0152));
#1297=CARTESIAN_POINT('',(-0.0262186259313881,0.095868551641208,0.0152));
#1298=CARTESIAN_POINT('',(-0.0262186259313881,0.095868551641208,0.0152));
#1299=CARTESIAN_POINT('',(-0.0312186255728782,0.095868551641208,0.0152));
#1300=CARTESIAN_POINT('',(-0.0312186255728782,0.049718551641208,0.0165));
#1301=CARTESIAN_POINT('',(-0.0312186255728782,0.049718551641208,0.014));
#1302=CARTESIAN_POINT('',(-0.026754338932594,0.0474668526430112,0.014));
#1303=CARTESIAN_POINT('',(-0.026754338932594,0.0474668526430112,0.0165));
#1304=CARTESIAN_POINT('',(-0.026754338932594,0.0474668526430112,0.0165));
#1305=CARTESIAN_POINT('',(-0.0312186255728782,0.049718551641208,0.0165));
#1306=CARTESIAN_POINT('',(-0.026186482431991,0.0485927021421096,0.0165));
#1307=CARTESIAN_POINT('',(-0.026186482431991,0.0485927021421096,0.014));
#1308=CARTESIAN_POINT('',(-0.026186482431991,0.0485927021421096,0.0165));
#1309=CARTESIAN_POINT('',(-0.0312186255728782,0.049718551641208,0.0165));
#1310=CARTESIAN_POINT('',(-0.0312186255728782,0.049718551641208,0.014));
#1311=CARTESIAN_POINT('',(-0.0282186255728782,0.049718551641208,0.014));
#1312=CARTESIAN_POINT('',(-0.0312186255728782,0.049718551641208,0.0165));
#1313=CARTESIAN_POINT('',(-0.0282186255728782,0.049718551641208,0.0165));
#1314=CARTESIAN_POINT('',(-0.0312186255728782,0.076093551641208,0.0165));
#1315=CARTESIAN_POINT('',(-0.0312186255728782,0.049718551641208,0.0165));
#1316=CARTESIAN_POINT('',(-0.0312186255728782,0.076093551641208,0.0085));
#1317=CARTESIAN_POINT('',(-0.0312186255728782,0.049718551641208,0.0085));
#1318=CARTESIAN_POINT('',(-0.0312186255728782,0.076093551641208,0.014));
#1319=CARTESIAN_POINT('',(-0.0312186255728782,0.049718551641208,0.014));
#1320=CARTESIAN_POINT('',(-0.0312186255728782,0.076093551641208,0.011));
#1321=CARTESIAN_POINT('',(-0.0312186255728782,0.049718551641208,0.011));
#1322=CARTESIAN_POINT('',(-0.0312186255728782,0.049718551641208,0.0115));
#1323=CARTESIAN_POINT('',(-0.0312186255728782,0.049718551641208,0.0125));
#1324=CARTESIAN_POINT('',(-0.0281686259313881,0.0590226808266331,0.0125));
#1325=CARTESIAN_POINT('',(-0.0281686259313884,0.0590226808266332,0.0125000000000001));
#1326=CARTESIAN_POINT('',(-0.0281686259313884,0.0589293101349363,0.0127032947397187));
#1327=CARTESIAN_POINT('',(-0.0280511241968423,0.0587184342370899,0.0129618729145162));
#1328=CARTESIAN_POINT('',(-0.0277826596896416,0.0584276041500746,0.0131722869495221));
#1329=CARTESIAN_POINT('',(-0.0275240777027643,0.0582266083545916,0.0132619782694812));
#1330=CARTESIAN_POINT('',(-0.0271985004001478,0.0580983731139071,0.0132440990424166));
#1331=CARTESIAN_POINT('',(-0.0267915357262495,0.0581349291272786,0.0130114828103759));
#1332=CARTESIAN_POINT('',(-0.0266686259313882,0.0582898181756087,0.012700073511072));
#1333=CARTESIAN_POINT('',(-0.0266686259313881,0.0583884317427209,0.0125));
#1334=CARTESIAN_POINT('',(-0.0266686259313881,0.0583884317427209,0.0125));
#1335=CARTESIAN_POINT('',(-0.0312186255728782,0.049718551641208,0.0125));
#1336=CARTESIAN_POINT('',(-0.0312186255728782,0.049718551641208,0.0135));
#1337=CARTESIAN_POINT('',(-0.0266686259313881,0.058388431742721,0.0124999999999999));
#1338=CARTESIAN_POINT('',(-0.0266686259313882,0.0582895939351619,0.0122994715355697));
#1339=CARTESIAN_POINT('',(-0.0267911688193796,0.0581357372621989,0.0119898297440476));
#1340=CARTESIAN_POINT('',(-0.027196245580693,0.0580979667940605,0.0117564808490679));
#1341=CARTESIAN_POINT('',(-0.0275233550459139,0.0582260343287428,0.0117377808487636));
#1342=CARTESIAN_POINT('',(-0.0277819615419085,0.0584269823688659,0.0118273600718698));
#1343=CARTESIAN_POINT('',(-0.028051144922027,0.0587182758499504,0.0120378237998476));
#1344=CARTESIAN_POINT('',(-0.0281686259313881,0.0589294831547718,0.0122970819740211));
#1345=CARTESIAN_POINT('',(-0.0281686259313881,0.0590226808266331,0.0125));
#1346=CARTESIAN_POINT('',(-0.0312186255728782,0.049718551641208,0.006));
#1347=CARTESIAN_POINT('',(-0.0312186255728782,0.049718551641208,0.019));
#1348=CARTESIAN_POINT('',(-0.0312186255728782,0.049718551641208,0.001));
#1349=CARTESIAN_POINT('',(-0.0312186255728782,0.049718551641208,0.024));
#1350=CARTESIAN_POINT('',(-0.0312186255728782,0.095868551641208,0.0108));
#1351=CARTESIAN_POINT('',(-0.0262186259313881,0.095868551641208,0.0108));
#1352=CARTESIAN_POINT('',(-0.0309186259313881,0.095868551641208,0.0142));
#1353=CARTESIAN_POINT('',(-0.0262186259313881,0.095868551641208,0.0142));
#1354=CARTESIAN_POINT('',(-0.0312186259313882,0.106868551641208,0.005));
#1355=CARTESIAN_POINT('',(-0.0312186259313882,0.106868551641208,0.00503431457505076));
#1356=CARTESIAN_POINT('',(-0.0324686259313881,0.106868551641208,0.00503431457505076));
#1357=CARTESIAN_POINT('',(-0.0312186259313882,0.106868551641208,0.0056));
#1358=CARTESIAN_POINT('',(-0.0312186259313882,0.106868551641208,0.024));
#1359=CARTESIAN_POINT('',(-0.0312186259313882,0.106868551641208,0.0092));
#1360=CARTESIAN_POINT('',(-0.0262186259313881,0.106868551641208,0.0092));
#1361=CARTESIAN_POINT('',(-0.0262186259313881,0.100868551641208,0.0092));
#1362=CARTESIAN_POINT('',(-0.0262186259313881,0.095868551641208,0.0092));
#1363=CARTESIAN_POINT('',(-0.0262186259313881,0.095868551641208,0.0108));
#1364=CARTESIAN_POINT('',(-0.0262186259313881,0.094268551641208,0.0108));
#1365=CARTESIAN_POINT('',(-0.0262186259313881,0.094268551641208,0.0152));
#1366=CARTESIAN_POINT('',(-0.0262186259313881,0.094268551641208,0.0142));
#1367=CARTESIAN_POINT('',(-0.0262186259313881,0.095868551641208,0.0142));
#1368=CARTESIAN_POINT('',(-0.0262186259313881,0.095868551641208,0.0158));
#1369=CARTESIAN_POINT('',(-0.0262186259313881,0.076093551641208,0.0158));
#1370=CARTESIAN_POINT('',(-0.0262186259313881,0.106868551641208,0.0158));
#1371=CARTESIAN_POINT('',(-0.0312186259313882,0.106868551641208,0.0158));
#1372=CARTESIAN_POINT('',(-0.0274186259313881,0.1162,0.0125));
#1373=MECHANICAL_DESIGN_GEOMETRIC_PRESENTATION_REPRESENTATION('',(#750),
#1374);
#1374=(
GEOMETRIC_REPRESENTATION_CONTEXT(3)
GLOBAL_UNCERTAINTY_ASSIGNED_CONTEXT((#1375))
GLOBAL_UNIT_ASSIGNED_CONTEXT((#1378,#1377,#1376))
REPRESENTATION_CONTEXT('left_link_inside','TOP_LEVEL_ASSEMBLY_PART')
);
#1375=UNCERTAINTY_MEASURE_WITH_UNIT(LENGTH_MEASURE(2.E-5),#1378,
'DISTANCE_ACCURACY_VALUE','Maximum Tolerance applied to model');
#1376=(
NAMED_UNIT(*)
SI_UNIT($,.STERADIAN.)
SOLID_ANGLE_UNIT()
);
#1377=(
NAMED_UNIT(*)
PLANE_ANGLE_UNIT()
SI_UNIT($,.RADIAN.)
);
#1378=(
LENGTH_UNIT()
NAMED_UNIT(*)
SI_UNIT($,.METRE.)
);
#1379=PRODUCT_DEFINITION_SHAPE('','',#1380);
#1380=PRODUCT_DEFINITION('','',#1382,#1381);
#1381=PRODUCT_DEFINITION_CONTEXT('',#1388,'design');
#1382=PRODUCT_DEFINITION_FORMATION_WITH_SPECIFIED_SOURCE('','',#1384,
 .NOT_KNOWN.);
#1383=PRODUCT_RELATED_PRODUCT_CATEGORY('','',(#1384));
#1384=PRODUCT('left_link_inside','left_link_inside','left_link_inside',
(#1386));
#1385=PRODUCT_CATEGORY('','');
#1386=PRODUCT_CONTEXT('',#1388,'mechanical');
#1387=APPLICATION_PROTOCOL_DEFINITION('international standard',
'ap242_managed_model_based_3d_engineering',2020,#1388);
#1388=APPLICATION_CONTEXT('managed model based 3d engineering');
ENDSEC;
END-ISO-10303-21;
