ISO-10303-21;
HEADER;
/* Generated by software containing ST-Developer
 * from STEP Tools, Inc. (www.steptools.com) 
 */
/* OPTION: using custom renumber hook */

FILE_DESCRIPTION(
/* description */ ('STEP AP242 Edition 2',
'CAx-IF Rec.Pracs.---Representation and Presentation of Product Manufa
cturing Information (PMI)---4.0---2014-10-13',
'CAx-IF Rec.Pracs.---3D Tessellated Geometry---0.4---2014-09-14','2;1',
'CAx-IF Rec.Pracs.---User Defined Attributes---1.5---2016-08-15'),
/* implementation_level */ '2;1');

FILE_NAME(
/* name */ 'gripper - left_link_outside',
/* time_stamp */ '2026-02-08T09:29:49Z',
/* author */ (''),
/* organization */ (''),
/* preprocessor_version */ 'ST-DEVELOPER v20',
/* originating_system */ 'ONSHAPE BY PTC INC, 1.210',
/* authorisation */ '  ');

FILE_SCHEMA (('AP242_MANAGED_MODEL_BASED_3D_ENGINEERING_MIM_LF { 1 0 10303 442 3 1 4 }'));
ENDSEC;

DATA;
#10=SHAPE_REPRESENTATION_RELATIONSHIP('','',#1058,#11);
#11=ADVANCED_BREP_SHAPE_REPRESENTATION('',(#1056),#1812);
#12=TOROIDAL_SURFACE('',#1172,0.00225,0.0006);
#13=TOROIDAL_SURFACE('',#1173,0.00225,0.0006);
#14=TOROIDAL_SURFACE('',#1174,0.00105,0.0006);
#15=TOROIDAL_SURFACE('',#1175,0.00105,0.0006);
#16=B_SPLINE_CURVE_WITH_KNOTS('',3,(#1751,#1752,#1753,#1754),
 .UNSPECIFIED.,.F.,.F.,(4,4),(0.,0.000676039671074488),.UNSPECIFIED.);
#17=B_SPLINE_CURVE_WITH_KNOTS('',3,(#1755,#1756,#1757,#1758),
 .UNSPECIFIED.,.F.,.F.,(4,4),(3.46944695195361E-18,0.000670444744301753),
 .UNSPECIFIED.);
#18=B_SPLINE_CURVE_WITH_KNOTS('',3,(#1760,#1761,#1762,#1763),
 .UNSPECIFIED.,.F.,.F.,(4,4),(0.,0.000670444744301702),.UNSPECIFIED.);
#19=B_SPLINE_CURVE_WITH_KNOTS('',3,(#1767,#1768,#1769,#1770),
 .UNSPECIFIED.,.F.,.F.,(4,4),(0.,0.000676039671074446),.UNSPECIFIED.);
#20=B_SPLINE_CURVE_WITH_KNOTS('',3,(#1780,#1781,#1782,#1783),
 .UNSPECIFIED.,.F.,.F.,(4,4),(0.,0.00071724142311427),.UNSPECIFIED.);
#21=B_SPLINE_CURVE_WITH_KNOTS('',3,(#1785,#1786,#1787,#1788),
 .UNSPECIFIED.,.F.,.F.,(4,4),(0.,0.000717417970334491),.UNSPECIFIED.);
#22=ELLIPSE('',#1084,0.00575877048314355,0.001);
#23=ELLIPSE('',#1131,0.00575877048314355,0.001);
#24=ELLIPSE('',#1159,0.000707106781186548,0.0005);
#25=ELLIPSE('',#1160,0.000707106781186548,0.0005);
#26=ELLIPSE('',#1162,0.000707106781186548,0.0005);
#27=ELLIPSE('',#1164,0.000707106781186548,0.0005);
#28=CYLINDRICAL_SURFACE('',#1078,0.0045);
#29=CYLINDRICAL_SURFACE('',#1081,0.0035);
#30=CYLINDRICAL_SURFACE('',#1094,0.00449999999999997);
#31=CYLINDRICAL_SURFACE('',#1096,0.00165);
#32=CYLINDRICAL_SURFACE('',#1098,0.00165);
#33=CYLINDRICAL_SURFACE('',#1100,0.0025);
#34=CYLINDRICAL_SURFACE('',#1125,0.0045);
#35=CYLINDRICAL_SURFACE('',#1128,0.0035);
#36=CYLINDRICAL_SURFACE('',#1132,0.00165);
#37=CYLINDRICAL_SURFACE('',#1134,0.00449999999999997);
#38=CYLINDRICAL_SURFACE('',#1136,0.00165);
#39=CYLINDRICAL_SURFACE('',#1138,0.0025);
#40=CYLINDRICAL_SURFACE('',#1144,0.005);
#41=CYLINDRICAL_SURFACE('',#1145,0.005);
#42=CYLINDRICAL_SURFACE('',#1146,0.001);
#43=CYLINDRICAL_SURFACE('',#1147,0.001);
#44=CYLINDRICAL_SURFACE('',#1148,0.001);
#45=CYLINDRICAL_SURFACE('',#1150,0.001);
#46=CYLINDRICAL_SURFACE('',#1151,0.001);
#47=CYLINDRICAL_SURFACE('',#1153,0.001);
#48=CYLINDRICAL_SURFACE('',#1154,0.001);
#49=CYLINDRICAL_SURFACE('',#1155,0.001);
#50=CYLINDRICAL_SURFACE('',#1156,0.001);
#51=CYLINDRICAL_SURFACE('',#1157,0.001);
#52=CYLINDRICAL_SURFACE('',#1158,0.0005);
#53=CYLINDRICAL_SURFACE('',#1161,0.0005);
#54=CYLINDRICAL_SURFACE('',#1163,0.0005);
#55=CYLINDRICAL_SURFACE('',#1165,0.0005);
#56=CYLINDRICAL_SURFACE('',#1166,0.0005);
#57=CYLINDRICAL_SURFACE('',#1167,0.0005);
#58=CYLINDRICAL_SURFACE('',#1168,0.00125);
#59=CYLINDRICAL_SURFACE('',#1170,0.00125);
#60=CIRCLE('',#1062,0.00165);
#61=CIRCLE('',#1063,0.00449999999999998);
#62=CIRCLE('',#1065,0.0045);
#63=CIRCLE('',#1066,0.0035);
#64=CIRCLE('',#1067,0.0025);
#65=CIRCLE('',#1068,0.00165);
#66=CIRCLE('',#1070,0.001);
#67=CIRCLE('',#1071,0.001);
#68=CIRCLE('',#1072,0.001);
#69=CIRCLE('',#1073,0.001);
#70=CIRCLE('',#1074,0.001);
#71=CIRCLE('',#1075,0.001);
#72=CIRCLE('',#1076,0.001);
#73=CIRCLE('',#1077,0.001);
#74=CIRCLE('',#1079,0.0045);
#75=CIRCLE('',#1082,0.0035);
#76=CIRCLE('',#1086,0.001);
#77=CIRCLE('',#1087,0.001);
#78=CIRCLE('',#1088,0.001);
#79=CIRCLE('',#1089,0.001);
#80=CIRCLE('',#1090,0.001);
#81=CIRCLE('',#1091,0.001);
#82=CIRCLE('',#1092,0.001);
#83=CIRCLE('',#1093,0.001);
#84=CIRCLE('',#1095,0.00449999999999998);
#85=CIRCLE('',#1097,0.00165);
#86=CIRCLE('',#1099,0.00165);
#87=CIRCLE('',#1101,0.0025);
#88=CIRCLE('',#1103,0.0005);
#89=CIRCLE('',#1104,0.00125);
#90=CIRCLE('',#1105,0.00125);
#91=CIRCLE('',#1110,0.005);
#92=CIRCLE('',#1111,0.005);
#93=CIRCLE('',#1114,0.005);
#94=CIRCLE('',#1115,0.005);
#95=CIRCLE('',#1118,0.00165);
#96=CIRCLE('',#1119,0.0025);
#97=CIRCLE('',#1120,0.0035);
#98=CIRCLE('',#1121,0.0045);
#99=CIRCLE('',#1123,0.00449999999999998);
#100=CIRCLE('',#1124,0.00165);
#101=CIRCLE('',#1126,0.0045);
#102=CIRCLE('',#1129,0.0035);
#103=CIRCLE('',#1133,0.00165);
#104=CIRCLE('',#1135,0.00449999999999998);
#105=CIRCLE('',#1137,0.00165);
#106=CIRCLE('',#1139,0.0025);
#107=CIRCLE('',#1141,0.00225);
#108=CIRCLE('',#1142,0.00225);
#109=CIRCLE('',#1143,0.0005);
#110=CIRCLE('',#1149,0.001);
#111=CIRCLE('',#1152,0.001);
#112=CIRCLE('',#1169,0.00125000000000001);
#113=CIRCLE('',#1171,0.00125);
#114=ORIENTED_EDGE('',*,*,#404,.T.);
#115=ORIENTED_EDGE('',*,*,#405,.T.);
#116=ORIENTED_EDGE('',*,*,#406,.T.);
#117=ORIENTED_EDGE('',*,*,#407,.T.);
#118=ORIENTED_EDGE('',*,*,#408,.F.);
#119=ORIENTED_EDGE('',*,*,#409,.F.);
#120=ORIENTED_EDGE('',*,*,#410,.T.);
#121=ORIENTED_EDGE('',*,*,#411,.T.);
#122=ORIENTED_EDGE('',*,*,#412,.F.);
#123=ORIENTED_EDGE('',*,*,#413,.T.);
#124=ORIENTED_EDGE('',*,*,#414,.T.);
#125=ORIENTED_EDGE('',*,*,#415,.T.);
#126=ORIENTED_EDGE('',*,*,#416,.T.);
#127=ORIENTED_EDGE('',*,*,#417,.T.);
#128=ORIENTED_EDGE('',*,*,#418,.T.);
#129=ORIENTED_EDGE('',*,*,#419,.T.);
#130=ORIENTED_EDGE('',*,*,#420,.F.);
#131=ORIENTED_EDGE('',*,*,#421,.F.);
#132=ORIENTED_EDGE('',*,*,#422,.F.);
#133=ORIENTED_EDGE('',*,*,#423,.T.);
#134=ORIENTED_EDGE('',*,*,#424,.T.);
#135=ORIENTED_EDGE('',*,*,#425,.F.);
#136=ORIENTED_EDGE('',*,*,#426,.F.);
#137=ORIENTED_EDGE('',*,*,#427,.T.);
#138=ORIENTED_EDGE('',*,*,#428,.T.);
#139=ORIENTED_EDGE('',*,*,#429,.T.);
#140=ORIENTED_EDGE('',*,*,#430,.T.);
#141=ORIENTED_EDGE('',*,*,#431,.T.);
#142=ORIENTED_EDGE('',*,*,#410,.F.);
#143=ORIENTED_EDGE('',*,*,#432,.T.);
#144=ORIENTED_EDGE('',*,*,#433,.T.);
#145=ORIENTED_EDGE('',*,*,#434,.F.);
#146=ORIENTED_EDGE('',*,*,#416,.F.);
#147=ORIENTED_EDGE('',*,*,#435,.T.);
#148=ORIENTED_EDGE('',*,*,#436,.F.);
#149=ORIENTED_EDGE('',*,*,#437,.T.);
#150=ORIENTED_EDGE('',*,*,#438,.T.);
#151=ORIENTED_EDGE('',*,*,#439,.T.);
#152=ORIENTED_EDGE('',*,*,#440,.T.);
#153=ORIENTED_EDGE('',*,*,#441,.T.);
#154=ORIENTED_EDGE('',*,*,#406,.F.);
#155=ORIENTED_EDGE('',*,*,#442,.T.);
#156=ORIENTED_EDGE('',*,*,#443,.T.);
#157=ORIENTED_EDGE('',*,*,#444,.F.);
#158=ORIENTED_EDGE('',*,*,#417,.F.);
#159=ORIENTED_EDGE('',*,*,#434,.T.);
#160=ORIENTED_EDGE('',*,*,#445,.T.);
#161=ORIENTED_EDGE('',*,*,#446,.F.);
#162=ORIENTED_EDGE('',*,*,#418,.F.);
#163=ORIENTED_EDGE('',*,*,#444,.T.);
#164=ORIENTED_EDGE('',*,*,#447,.T.);
#165=ORIENTED_EDGE('',*,*,#448,.F.);
#166=ORIENTED_EDGE('',*,*,#419,.F.);
#167=ORIENTED_EDGE('',*,*,#446,.T.);
#168=ORIENTED_EDGE('',*,*,#449,.T.);
#169=ORIENTED_EDGE('',*,*,#450,.T.);
#170=ORIENTED_EDGE('',*,*,#451,.T.);
#171=ORIENTED_EDGE('',*,*,#414,.F.);
#172=ORIENTED_EDGE('',*,*,#448,.T.);
#173=ORIENTED_EDGE('',*,*,#452,.T.);
#174=ORIENTED_EDGE('',*,*,#453,.T.);
#175=ORIENTED_EDGE('',*,*,#454,.T.);
#176=ORIENTED_EDGE('',*,*,#455,.T.);
#177=ORIENTED_EDGE('',*,*,#456,.T.);
#178=ORIENTED_EDGE('',*,*,#457,.T.);
#179=ORIENTED_EDGE('',*,*,#458,.T.);
#180=ORIENTED_EDGE('',*,*,#459,.F.);
#181=ORIENTED_EDGE('',*,*,#460,.T.);
#182=ORIENTED_EDGE('',*,*,#461,.T.);
#183=ORIENTED_EDGE('',*,*,#462,.T.);
#184=ORIENTED_EDGE('',*,*,#408,.T.);
#185=ORIENTED_EDGE('',*,*,#463,.T.);
#186=ORIENTED_EDGE('',*,*,#464,.T.);
#187=ORIENTED_EDGE('',*,*,#465,.T.);
#188=ORIENTED_EDGE('',*,*,#466,.T.);
#189=ORIENTED_EDGE('',*,*,#467,.T.);
#190=ORIENTED_EDGE('',*,*,#468,.T.);
#191=ORIENTED_EDGE('',*,*,#469,.F.);
#192=ORIENTED_EDGE('',*,*,#470,.F.);
#193=ORIENTED_EDGE('',*,*,#412,.T.);
#194=ORIENTED_EDGE('',*,*,#471,.T.);
#195=ORIENTED_EDGE('',*,*,#472,.F.);
#196=ORIENTED_EDGE('',*,*,#473,.T.);
#197=ORIENTED_EDGE('',*,*,#474,.F.);
#198=ORIENTED_EDGE('',*,*,#475,.F.);
#199=ORIENTED_EDGE('',*,*,#476,.T.);
#200=ORIENTED_EDGE('',*,*,#432,.F.);
#201=ORIENTED_EDGE('',*,*,#413,.F.);
#202=ORIENTED_EDGE('',*,*,#470,.T.);
#203=ORIENTED_EDGE('',*,*,#477,.T.);
#204=ORIENTED_EDGE('',*,*,#409,.T.);
#205=ORIENTED_EDGE('',*,*,#478,.T.);
#206=ORIENTED_EDGE('',*,*,#421,.T.);
#207=ORIENTED_EDGE('',*,*,#420,.T.);
#208=ORIENTED_EDGE('',*,*,#479,.F.);
#209=ORIENTED_EDGE('',*,*,#433,.F.);
#210=ORIENTED_EDGE('',*,*,#476,.F.);
#211=ORIENTED_EDGE('',*,*,#469,.T.);
#212=ORIENTED_EDGE('',*,*,#480,.T.);
#213=ORIENTED_EDGE('',*,*,#449,.F.);
#214=ORIENTED_EDGE('',*,*,#447,.F.);
#215=ORIENTED_EDGE('',*,*,#445,.F.);
#216=ORIENTED_EDGE('',*,*,#443,.F.);
#217=ORIENTED_EDGE('',*,*,#479,.T.);
#218=ORIENTED_EDGE('',*,*,#481,.T.);
#219=ORIENTED_EDGE('',*,*,#482,.T.);
#220=ORIENTED_EDGE('',*,*,#483,.F.);
#221=ORIENTED_EDGE('',*,*,#484,.T.);
#222=ORIENTED_EDGE('',*,*,#436,.T.);
#223=ORIENTED_EDGE('',*,*,#485,.T.);
#224=ORIENTED_EDGE('',*,*,#461,.F.);
#225=ORIENTED_EDGE('',*,*,#486,.T.);
#226=ORIENTED_EDGE('',*,*,#483,.T.);
#227=ORIENTED_EDGE('',*,*,#487,.T.);
#228=ORIENTED_EDGE('',*,*,#472,.T.);
#229=ORIENTED_EDGE('',*,*,#488,.T.);
#230=ORIENTED_EDGE('',*,*,#430,.F.);
#231=ORIENTED_EDGE('',*,*,#489,.T.);
#232=ORIENTED_EDGE('',*,*,#490,.T.);
#233=ORIENTED_EDGE('',*,*,#491,.T.);
#234=ORIENTED_EDGE('',*,*,#492,.T.);
#235=ORIENTED_EDGE('',*,*,#455,.F.);
#236=ORIENTED_EDGE('',*,*,#493,.T.);
#237=ORIENTED_EDGE('',*,*,#422,.T.);
#238=ORIENTED_EDGE('',*,*,#494,.T.);
#239=ORIENTED_EDGE('',*,*,#466,.F.);
#240=ORIENTED_EDGE('',*,*,#495,.T.);
#241=ORIENTED_EDGE('',*,*,#496,.T.);
#242=ORIENTED_EDGE('',*,*,#497,.T.);
#243=ORIENTED_EDGE('',*,*,#498,.T.);
#244=ORIENTED_EDGE('',*,*,#499,.T.);
#245=ORIENTED_EDGE('',*,*,#500,.T.);
#246=ORIENTED_EDGE('',*,*,#501,.T.);
#247=ORIENTED_EDGE('',*,*,#464,.F.);
#248=ORIENTED_EDGE('',*,*,#502,.T.);
#249=ORIENTED_EDGE('',*,*,#440,.F.);
#250=ORIENTED_EDGE('',*,*,#503,.T.);
#251=ORIENTED_EDGE('',*,*,#457,.F.);
#252=ORIENTED_EDGE('',*,*,#438,.F.);
#253=ORIENTED_EDGE('',*,*,#504,.T.);
#254=ORIENTED_EDGE('',*,*,#505,.T.);
#255=ORIENTED_EDGE('',*,*,#459,.T.);
#256=ORIENTED_EDGE('',*,*,#506,.T.);
#257=ORIENTED_EDGE('',*,*,#507,.T.);
#258=ORIENTED_EDGE('',*,*,#508,.T.);
#259=ORIENTED_EDGE('',*,*,#424,.F.);
#260=ORIENTED_EDGE('',*,*,#509,.T.);
#261=ORIENTED_EDGE('',*,*,#510,.F.);
#262=ORIENTED_EDGE('',*,*,#511,.F.);
#263=ORIENTED_EDGE('',*,*,#512,.F.);
#264=ORIENTED_EDGE('',*,*,#513,.F.);
#265=ORIENTED_EDGE('',*,*,#474,.T.);
#266=ORIENTED_EDGE('',*,*,#514,.T.);
#267=ORIENTED_EDGE('',*,*,#428,.F.);
#268=ORIENTED_EDGE('',*,*,#515,.F.);
#269=ORIENTED_EDGE('',*,*,#516,.T.);
#270=ORIENTED_EDGE('',*,*,#513,.T.);
#271=ORIENTED_EDGE('',*,*,#517,.F.);
#272=ORIENTED_EDGE('',*,*,#518,.F.);
#273=ORIENTED_EDGE('',*,*,#425,.T.);
#274=ORIENTED_EDGE('',*,*,#512,.T.);
#275=ORIENTED_EDGE('',*,*,#519,.F.);
#276=ORIENTED_EDGE('',*,*,#520,.F.);
#277=ORIENTED_EDGE('',*,*,#517,.T.);
#278=ORIENTED_EDGE('',*,*,#511,.T.);
#279=ORIENTED_EDGE('',*,*,#521,.F.);
#280=ORIENTED_EDGE('',*,*,#522,.F.);
#281=ORIENTED_EDGE('',*,*,#519,.T.);
#282=ORIENTED_EDGE('',*,*,#523,.T.);
#283=ORIENTED_EDGE('',*,*,#524,.T.);
#284=ORIENTED_EDGE('',*,*,#525,.F.);
#285=ORIENTED_EDGE('',*,*,#521,.T.);
#286=ORIENTED_EDGE('',*,*,#510,.T.);
#287=ORIENTED_EDGE('',*,*,#526,.T.);
#288=ORIENTED_EDGE('',*,*,#507,.F.);
#289=ORIENTED_EDGE('',*,*,#515,.T.);
#290=ORIENTED_EDGE('',*,*,#427,.F.);
#291=ORIENTED_EDGE('',*,*,#527,.F.);
#292=ORIENTED_EDGE('',*,*,#475,.T.);
#293=ORIENTED_EDGE('',*,*,#528,.T.);
#294=ORIENTED_EDGE('',*,*,#516,.F.);
#295=ORIENTED_EDGE('',*,*,#529,.T.);
#296=ORIENTED_EDGE('',*,*,#508,.F.);
#297=ORIENTED_EDGE('',*,*,#530,.T.);
#298=ORIENTED_EDGE('',*,*,#531,.T.);
#299=ORIENTED_EDGE('',*,*,#426,.T.);
#300=ORIENTED_EDGE('',*,*,#518,.T.);
#301=ORIENTED_EDGE('',*,*,#520,.T.);
#302=ORIENTED_EDGE('',*,*,#522,.T.);
#303=ORIENTED_EDGE('',*,*,#525,.T.);
#304=ORIENTED_EDGE('',*,*,#532,.T.);
#305=ORIENTED_EDGE('',*,*,#452,.F.);
#306=ORIENTED_EDGE('',*,*,#527,.T.);
#307=ORIENTED_EDGE('',*,*,#529,.F.);
#308=ORIENTED_EDGE('',*,*,#533,.T.);
#309=ORIENTED_EDGE('',*,*,#534,.T.);
#310=ORIENTED_EDGE('',*,*,#490,.F.);
#311=ORIENTED_EDGE('',*,*,#465,.F.);
#312=ORIENTED_EDGE('',*,*,#501,.F.);
#313=ORIENTED_EDGE('',*,*,#535,.T.);
#314=ORIENTED_EDGE('',*,*,#492,.F.);
#315=ORIENTED_EDGE('',*,*,#536,.T.);
#316=ORIENTED_EDGE('',*,*,#537,.T.);
#317=ORIENTED_EDGE('',*,*,#538,.T.);
#318=ORIENTED_EDGE('',*,*,#499,.F.);
#319=ORIENTED_EDGE('',*,*,#456,.F.);
#320=ORIENTED_EDGE('',*,*,#431,.F.);
#321=ORIENTED_EDGE('',*,*,#488,.F.);
#322=ORIENTED_EDGE('',*,*,#471,.F.);
#323=ORIENTED_EDGE('',*,*,#411,.F.);
#324=ORIENTED_EDGE('',*,*,#429,.F.);
#325=ORIENTED_EDGE('',*,*,#514,.F.);
#326=ORIENTED_EDGE('',*,*,#473,.F.);
#327=ORIENTED_EDGE('',*,*,#489,.F.);
#328=ORIENTED_EDGE('',*,*,#460,.F.);
#329=ORIENTED_EDGE('',*,*,#505,.F.);
#330=ORIENTED_EDGE('',*,*,#539,.F.);
#331=ORIENTED_EDGE('',*,*,#486,.F.);
#332=ORIENTED_EDGE('',*,*,#539,.T.);
#333=ORIENTED_EDGE('',*,*,#504,.F.);
#334=ORIENTED_EDGE('',*,*,#437,.F.);
#335=ORIENTED_EDGE('',*,*,#484,.F.);
#336=ORIENTED_EDGE('',*,*,#462,.F.);
#337=ORIENTED_EDGE('',*,*,#487,.F.);
#338=ORIENTED_EDGE('',*,*,#540,.F.);
#339=ORIENTED_EDGE('',*,*,#404,.F.);
#340=ORIENTED_EDGE('',*,*,#540,.T.);
#341=ORIENTED_EDGE('',*,*,#485,.F.);
#342=ORIENTED_EDGE('',*,*,#442,.F.);
#343=ORIENTED_EDGE('',*,*,#405,.F.);
#344=ORIENTED_EDGE('',*,*,#435,.F.);
#345=ORIENTED_EDGE('',*,*,#415,.F.);
#346=ORIENTED_EDGE('',*,*,#451,.F.);
#347=ORIENTED_EDGE('',*,*,#541,.T.);
#348=ORIENTED_EDGE('',*,*,#467,.F.);
#349=ORIENTED_EDGE('',*,*,#494,.F.);
#350=ORIENTED_EDGE('',*,*,#423,.F.);
#351=ORIENTED_EDGE('',*,*,#493,.F.);
#352=ORIENTED_EDGE('',*,*,#454,.F.);
#353=ORIENTED_EDGE('',*,*,#542,.T.);
#354=ORIENTED_EDGE('',*,*,#523,.F.);
#355=ORIENTED_EDGE('',*,*,#509,.F.);
#356=ORIENTED_EDGE('',*,*,#463,.F.);
#357=ORIENTED_EDGE('',*,*,#407,.F.);
#358=ORIENTED_EDGE('',*,*,#441,.F.);
#359=ORIENTED_EDGE('',*,*,#502,.F.);
#360=ORIENTED_EDGE('',*,*,#458,.F.);
#361=ORIENTED_EDGE('',*,*,#503,.F.);
#362=ORIENTED_EDGE('',*,*,#439,.F.);
#363=ORIENTED_EDGE('',*,*,#506,.F.);
#364=ORIENTED_EDGE('',*,*,#543,.F.);
#365=ORIENTED_EDGE('',*,*,#537,.F.);
#366=ORIENTED_EDGE('',*,*,#544,.F.);
#367=ORIENTED_EDGE('',*,*,#495,.F.);
#368=ORIENTED_EDGE('',*,*,#491,.F.);
#369=ORIENTED_EDGE('',*,*,#534,.F.);
#370=ORIENTED_EDGE('',*,*,#545,.F.);
#371=ORIENTED_EDGE('',*,*,#496,.F.);
#372=ORIENTED_EDGE('',*,*,#544,.T.);
#373=ORIENTED_EDGE('',*,*,#536,.F.);
#374=ORIENTED_EDGE('',*,*,#543,.T.);
#375=ORIENTED_EDGE('',*,*,#498,.F.);
#376=ORIENTED_EDGE('',*,*,#546,.F.);
#377=ORIENTED_EDGE('',*,*,#535,.F.);
#378=ORIENTED_EDGE('',*,*,#500,.F.);
#379=ORIENTED_EDGE('',*,*,#538,.F.);
#380=ORIENTED_EDGE('',*,*,#545,.T.);
#381=ORIENTED_EDGE('',*,*,#533,.F.);
#382=ORIENTED_EDGE('',*,*,#546,.T.);
#383=ORIENTED_EDGE('',*,*,#497,.F.);
#384=ORIENTED_EDGE('',*,*,#532,.F.);
#385=ORIENTED_EDGE('',*,*,#524,.F.);
#386=ORIENTED_EDGE('',*,*,#542,.F.);
#387=ORIENTED_EDGE('',*,*,#453,.F.);
#388=ORIENTED_EDGE('',*,*,#541,.F.);
#389=ORIENTED_EDGE('',*,*,#450,.F.);
#390=ORIENTED_EDGE('',*,*,#480,.F.);
#391=ORIENTED_EDGE('',*,*,#468,.F.);
#392=ORIENTED_EDGE('',*,*,#547,.T.);
#393=ORIENTED_EDGE('',*,*,#481,.F.);
#394=ORIENTED_EDGE('',*,*,#548,.T.);
#395=ORIENTED_EDGE('',*,*,#482,.F.);
#396=ORIENTED_EDGE('',*,*,#530,.F.);
#397=ORIENTED_EDGE('',*,*,#526,.F.);
#398=ORIENTED_EDGE('',*,*,#531,.F.);
#399=ORIENTED_EDGE('',*,*,#528,.F.);
#400=ORIENTED_EDGE('',*,*,#477,.F.);
#401=ORIENTED_EDGE('',*,*,#548,.F.);
#402=ORIENTED_EDGE('',*,*,#478,.F.);
#403=ORIENTED_EDGE('',*,*,#547,.F.);
#404=EDGE_CURVE('',#549,#550,#651,.F.);
#405=EDGE_CURVE('',#550,#551,#652,.T.);
#406=EDGE_CURVE('',#551,#552,#653,.T.);
#407=EDGE_CURVE('',#552,#553,#654,.F.);
#408=EDGE_CURVE('',#549,#553,#655,.T.);
#409=EDGE_CURVE('',#554,#554,#60,.T.);
#410=EDGE_CURVE('',#555,#556,#656,.T.);
#411=EDGE_CURVE('',#556,#557,#657,.T.);
#412=EDGE_CURVE('',#558,#557,#658,.T.);
#413=EDGE_CURVE('',#558,#555,#61,.T.);
#414=EDGE_CURVE('',#559,#560,#659,.T.);
#415=EDGE_CURVE('',#560,#561,#660,.F.);
#416=EDGE_CURVE('',#561,#562,#661,.T.);
#417=EDGE_CURVE('',#562,#563,#62,.T.);
#418=EDGE_CURVE('',#563,#564,#662,.T.);
#419=EDGE_CURVE('',#564,#559,#63,.T.);
#420=EDGE_CURVE('',#565,#565,#64,.T.);
#421=EDGE_CURVE('',#566,#566,#65,.T.);
#422=EDGE_CURVE('',#567,#568,#663,.T.);
#423=EDGE_CURVE('',#567,#569,#66,.T.);
#424=EDGE_CURVE('',#569,#570,#664,.T.);
#425=EDGE_CURVE('',#571,#570,#665,.T.);
#426=EDGE_CURVE('',#572,#571,#666,.T.);
#427=EDGE_CURVE('',#572,#573,#667,.T.);
#428=EDGE_CURVE('',#573,#574,#668,.T.);
#429=EDGE_CURVE('',#574,#575,#67,.T.);
#430=EDGE_CURVE('',#575,#576,#669,.T.);
#431=EDGE_CURVE('',#576,#556,#68,.T.);
#432=EDGE_CURVE('',#555,#577,#670,.T.);
#433=EDGE_CURVE('',#577,#578,#671,.T.);
#434=EDGE_CURVE('',#562,#578,#672,.T.);
#435=EDGE_CURVE('',#561,#568,#69,.T.);
#436=EDGE_CURVE('',#579,#580,#673,.T.);
#437=EDGE_CURVE('',#579,#581,#70,.T.);
#438=EDGE_CURVE('',#581,#582,#674,.T.);
#439=EDGE_CURVE('',#582,#583,#71,.T.);
#440=EDGE_CURVE('',#583,#584,#675,.T.);
#441=EDGE_CURVE('',#584,#552,#72,.T.);
#442=EDGE_CURVE('',#551,#580,#73,.T.);
#443=EDGE_CURVE('',#578,#585,#74,.T.);
#444=EDGE_CURVE('',#563,#585,#676,.T.);
#445=EDGE_CURVE('',#585,#586,#677,.T.);
#446=EDGE_CURVE('',#564,#586,#678,.T.);
#447=EDGE_CURVE('',#586,#587,#75,.T.);
#448=EDGE_CURVE('',#559,#587,#679,.T.);
#449=EDGE_CURVE('',#587,#588,#680,.T.);
#450=EDGE_CURVE('',#588,#589,#681,.F.);
#451=EDGE_CURVE('',#589,#560,#22,.T.);
#452=EDGE_CURVE('',#590,#591,#682,.T.);
#453=EDGE_CURVE('',#591,#592,#683,.T.);
#454=EDGE_CURVE('',#592,#593,#76,.F.);
#455=EDGE_CURVE('',#593,#594,#684,.T.);
#456=EDGE_CURVE('',#594,#595,#685,.F.);
#457=EDGE_CURVE('',#595,#596,#686,.T.);
#458=EDGE_CURVE('',#596,#597,#77,.F.);
#459=EDGE_CURVE('',#598,#597,#687,.T.);
#460=EDGE_CURVE('',#598,#599,#78,.F.);
#461=EDGE_CURVE('',#599,#600,#688,.T.);
#462=EDGE_CURVE('',#600,#549,#79,.F.);
#463=EDGE_CURVE('',#553,#601,#80,.F.);
#464=EDGE_CURVE('',#601,#602,#689,.T.);
#465=EDGE_CURVE('',#602,#603,#690,.T.);
#466=EDGE_CURVE('',#603,#604,#691,.T.);
#467=EDGE_CURVE('',#604,#605,#81,.F.);
#468=EDGE_CURVE('',#605,#606,#692,.T.);
#469=EDGE_CURVE('',#607,#606,#693,.T.);
#470=EDGE_CURVE('',#558,#607,#694,.T.);
#471=EDGE_CURVE('',#557,#608,#82,.F.);
#472=EDGE_CURVE('',#609,#608,#695,.T.);
#473=EDGE_CURVE('',#609,#610,#83,.F.);
#474=EDGE_CURVE('',#611,#610,#696,.T.);
#475=EDGE_CURVE('',#590,#611,#697,.T.);
#476=EDGE_CURVE('',#607,#577,#84,.T.);
#477=EDGE_CURVE('',#612,#612,#85,.F.);
#478=EDGE_CURVE('',#613,#613,#86,.F.);
#479=EDGE_CURVE('',#614,#614,#87,.T.);
#480=EDGE_CURVE('',#606,#588,#88,.T.);
#481=EDGE_CURVE('',#615,#615,#89,.T.);
#482=EDGE_CURVE('',#616,#616,#90,.T.);
#483=EDGE_CURVE('',#617,#618,#698,.T.);
#484=EDGE_CURVE('',#617,#579,#699,.T.);
#485=EDGE_CURVE('',#580,#618,#700,.F.);
#486=EDGE_CURVE('',#599,#617,#701,.F.);
#487=EDGE_CURVE('',#618,#600,#702,.T.);
#488=EDGE_CURVE('',#608,#576,#703,.F.);
#489=EDGE_CURVE('',#575,#609,#704,.T.);
#490=EDGE_CURVE('',#603,#619,#91,.T.);
#491=EDGE_CURVE('',#619,#620,#705,.F.);
#492=EDGE_CURVE('',#620,#594,#92,.T.);
#493=EDGE_CURVE('',#593,#567,#706,.F.);
#494=EDGE_CURVE('',#568,#604,#707,.T.);
#495=EDGE_CURVE('',#621,#622,#708,.F.);
#496=EDGE_CURVE('',#622,#623,#709,.T.);
#497=EDGE_CURVE('',#623,#624,#710,.F.);
#498=EDGE_CURVE('',#624,#621,#711,.F.);
#499=EDGE_CURVE('',#595,#625,#93,.T.);
#500=EDGE_CURVE('',#625,#626,#712,.T.);
#501=EDGE_CURVE('',#626,#602,#94,.T.);
#502=EDGE_CURVE('',#601,#584,#713,.T.);
#503=EDGE_CURVE('',#583,#596,#714,.F.);
#504=EDGE_CURVE('',#581,#627,#715,.F.);
#505=EDGE_CURVE('',#627,#598,#716,.T.);
#506=EDGE_CURVE('',#597,#582,#717,.T.);
#507=EDGE_CURVE('',#628,#628,#95,.T.);
#508=EDGE_CURVE('',#629,#629,#96,.T.);
#509=EDGE_CURVE('',#569,#630,#718,.T.);
#510=EDGE_CURVE('',#631,#630,#719,.T.);
#511=EDGE_CURVE('',#632,#631,#97,.T.);
#512=EDGE_CURVE('',#633,#632,#720,.T.);
#513=EDGE_CURVE('',#570,#633,#98,.T.);
#514=EDGE_CURVE('',#610,#574,#721,.F.);
#515=EDGE_CURVE('',#611,#573,#99,.T.);
#516=EDGE_CURVE('',#634,#634,#100,.T.);
#517=EDGE_CURVE('',#635,#633,#722,.T.);
#518=EDGE_CURVE('',#571,#635,#101,.T.);
#519=EDGE_CURVE('',#636,#632,#723,.T.);
#520=EDGE_CURVE('',#635,#636,#724,.T.);
#521=EDGE_CURVE('',#637,#631,#725,.T.);
#522=EDGE_CURVE('',#636,#637,#102,.T.);
#523=EDGE_CURVE('',#630,#638,#23,.T.);
#524=EDGE_CURVE('',#638,#639,#726,.F.);
#525=EDGE_CURVE('',#637,#639,#727,.T.);
#526=EDGE_CURVE('',#640,#640,#103,.T.);
#527=EDGE_CURVE('',#590,#572,#104,.T.);
#528=EDGE_CURVE('',#641,#641,#105,.T.);
#529=EDGE_CURVE('',#642,#642,#106,.T.);
#530=EDGE_CURVE('',#643,#643,#107,.F.);
#531=EDGE_CURVE('',#644,#644,#108,.F.);
#532=EDGE_CURVE('',#639,#591,#109,.F.);
#533=EDGE_CURVE('',#645,#646,#728,.T.);
#534=EDGE_CURVE('',#646,#619,#16,.T.);
#535=EDGE_CURVE('',#626,#645,#17,.T.);
#536=EDGE_CURVE('',#620,#647,#18,.T.);
#537=EDGE_CURVE('',#647,#648,#729,.T.);
#538=EDGE_CURVE('',#648,#625,#19,.T.);
#539=EDGE_CURVE('',#617,#627,#110,.T.);
#540=EDGE_CURVE('',#550,#618,#111,.T.);
#541=EDGE_CURVE('',#589,#605,#20,.T.);
#542=EDGE_CURVE('',#592,#638,#21,.T.);
#543=EDGE_CURVE('',#648,#621,#24,.T.);
#544=EDGE_CURVE('',#622,#647,#25,.T.);
#545=EDGE_CURVE('',#623,#646,#26,.T.);
#546=EDGE_CURVE('',#645,#624,#27,.T.);
#547=EDGE_CURVE('',#649,#649,#112,.F.);
#548=EDGE_CURVE('',#650,#650,#113,.F.);
#549=VERTEX_POINT('',#1492);
#550=VERTEX_POINT('',#1493);
#551=VERTEX_POINT('',#1495);
#552=VERTEX_POINT('',#1497);
#553=VERTEX_POINT('',#1499);
#554=VERTEX_POINT('',#1503);
#555=VERTEX_POINT('',#1505);
#556=VERTEX_POINT('',#1506);
#557=VERTEX_POINT('',#1508);
#558=VERTEX_POINT('',#1510);
#559=VERTEX_POINT('',#1514);
#560=VERTEX_POINT('',#1515);
#561=VERTEX_POINT('',#1517);
#562=VERTEX_POINT('',#1519);
#563=VERTEX_POINT('',#1521);
#564=VERTEX_POINT('',#1523);
#565=VERTEX_POINT('',#1526);
#566=VERTEX_POINT('',#1528);
#567=VERTEX_POINT('',#1531);
#568=VERTEX_POINT('',#1532);
#569=VERTEX_POINT('',#1534);
#570=VERTEX_POINT('',#1536);
#571=VERTEX_POINT('',#1538);
#572=VERTEX_POINT('',#1540);
#573=VERTEX_POINT('',#1542);
#574=VERTEX_POINT('',#1544);
#575=VERTEX_POINT('',#1546);
#576=VERTEX_POINT('',#1548);
#577=VERTEX_POINT('',#1551);
#578=VERTEX_POINT('',#1553);
#579=VERTEX_POINT('',#1557);
#580=VERTEX_POINT('',#1558);
#581=VERTEX_POINT('',#1560);
#582=VERTEX_POINT('',#1562);
#583=VERTEX_POINT('',#1564);
#584=VERTEX_POINT('',#1566);
#585=VERTEX_POINT('',#1571);
#586=VERTEX_POINT('',#1575);
#587=VERTEX_POINT('',#1579);
#588=VERTEX_POINT('',#1583);
#589=VERTEX_POINT('',#1585);
#590=VERTEX_POINT('',#1589);
#591=VERTEX_POINT('',#1590);
#592=VERTEX_POINT('',#1592);
#593=VERTEX_POINT('',#1594);
#594=VERTEX_POINT('',#1596);
#595=VERTEX_POINT('',#1598);
#596=VERTEX_POINT('',#1600);
#597=VERTEX_POINT('',#1602);
#598=VERTEX_POINT('',#1604);
#599=VERTEX_POINT('',#1606);
#600=VERTEX_POINT('',#1608);
#601=VERTEX_POINT('',#1611);
#602=VERTEX_POINT('',#1613);
#603=VERTEX_POINT('',#1615);
#604=VERTEX_POINT('',#1617);
#605=VERTEX_POINT('',#1619);
#606=VERTEX_POINT('',#1621);
#607=VERTEX_POINT('',#1623);
#608=VERTEX_POINT('',#1626);
#609=VERTEX_POINT('',#1628);
#610=VERTEX_POINT('',#1630);
#611=VERTEX_POINT('',#1632);
#612=VERTEX_POINT('',#1638);
#613=VERTEX_POINT('',#1641);
#614=VERTEX_POINT('',#1644);
#615=VERTEX_POINT('',#1648);
#616=VERTEX_POINT('',#1650);
#617=VERTEX_POINT('',#1653);
#618=VERTEX_POINT('',#1654);
#619=VERTEX_POINT('',#1665);
#620=VERTEX_POINT('',#1667);
#621=VERTEX_POINT('',#1673);
#622=VERTEX_POINT('',#1674);
#623=VERTEX_POINT('',#1676);
#624=VERTEX_POINT('',#1678);
#625=VERTEX_POINT('',#1682);
#626=VERTEX_POINT('',#1684);
#627=VERTEX_POINT('',#1690);
#628=VERTEX_POINT('',#1695);
#629=VERTEX_POINT('',#1697);
#630=VERTEX_POINT('',#1699);
#631=VERTEX_POINT('',#1701);
#632=VERTEX_POINT('',#1703);
#633=VERTEX_POINT('',#1705);
#634=VERTEX_POINT('',#1711);
#635=VERTEX_POINT('',#1714);
#636=VERTEX_POINT('',#1718);
#637=VERTEX_POINT('',#1722);
#638=VERTEX_POINT('',#1726);
#639=VERTEX_POINT('',#1728);
#640=VERTEX_POINT('',#1732);
#641=VERTEX_POINT('',#1737);
#642=VERTEX_POINT('',#1740);
#643=VERTEX_POINT('',#1743);
#644=VERTEX_POINT('',#1745);
#645=VERTEX_POINT('',#1749);
#646=VERTEX_POINT('',#1750);
#647=VERTEX_POINT('',#1764);
#648=VERTEX_POINT('',#1766);
#649=VERTEX_POINT('',#1803);
#650=VERTEX_POINT('',#1806);
#651=LINE('',#1491,#730);
#652=LINE('',#1494,#731);
#653=LINE('',#1496,#732);
#654=LINE('',#1498,#733);
#655=LINE('',#1500,#734);
#656=LINE('',#1504,#735);
#657=LINE('',#1507,#736);
#658=LINE('',#1509,#737);
#659=LINE('',#1513,#738);
#660=LINE('',#1516,#739);
#661=LINE('',#1518,#740);
#662=LINE('',#1522,#741);
#663=LINE('',#1530,#742);
#664=LINE('',#1535,#743);
#665=LINE('',#1537,#744);
#666=LINE('',#1539,#745);
#667=LINE('',#1541,#746);
#668=LINE('',#1543,#747);
#669=LINE('',#1547,#748);
#670=LINE('',#1550,#749);
#671=LINE('',#1552,#750);
#672=LINE('',#1554,#751);
#673=LINE('',#1556,#752);
#674=LINE('',#1561,#753);
#675=LINE('',#1565,#754);
#676=LINE('',#1572,#755);
#677=LINE('',#1574,#756);
#678=LINE('',#1576,#757);
#679=LINE('',#1580,#758);
#680=LINE('',#1582,#759);
#681=LINE('',#1584,#760);
#682=LINE('',#1588,#761);
#683=LINE('',#1591,#762);
#684=LINE('',#1595,#763);
#685=LINE('',#1597,#764);
#686=LINE('',#1599,#765);
#687=LINE('',#1603,#766);
#688=LINE('',#1607,#767);
#689=LINE('',#1612,#768);
#690=LINE('',#1614,#769);
#691=LINE('',#1616,#770);
#692=LINE('',#1620,#771);
#693=LINE('',#1622,#772);
#694=LINE('',#1624,#773);
#695=LINE('',#1627,#774);
#696=LINE('',#1631,#775);
#697=LINE('',#1633,#776);
#698=LINE('',#1652,#777);
#699=LINE('',#1655,#778);
#700=LINE('',#1656,#779);
#701=LINE('',#1658,#780);
#702=LINE('',#1659,#781);
#703=LINE('',#1661,#782);
#704=LINE('',#1662,#783);
#705=LINE('',#1666,#784);
#706=LINE('',#1669,#785);
#707=LINE('',#1670,#786);
#708=LINE('',#1672,#787);
#709=LINE('',#1675,#788);
#710=LINE('',#1677,#789);
#711=LINE('',#1679,#790);
#712=LINE('',#1683,#791);
#713=LINE('',#1686,#792);
#714=LINE('',#1687,#793);
#715=LINE('',#1689,#794);
#716=LINE('',#1691,#795);
#717=LINE('',#1692,#796);
#718=LINE('',#1698,#797);
#719=LINE('',#1700,#798);
#720=LINE('',#1704,#799);
#721=LINE('',#1708,#800);
#722=LINE('',#1713,#801);
#723=LINE('',#1717,#802);
#724=LINE('',#1719,#803);
#725=LINE('',#1721,#804);
#726=LINE('',#1727,#805);
#727=LINE('',#1729,#806);
#728=LINE('',#1748,#807);
#729=LINE('',#1765,#808);
#730=VECTOR('',#1180,1.);
#731=VECTOR('',#1181,1.);
#732=VECTOR('',#1182,1.);
#733=VECTOR('',#1183,1.);
#734=VECTOR('',#1184,1.);
#735=VECTOR('',#1189,1.);
#736=VECTOR('',#1190,1.);
#737=VECTOR('',#1191,1.);
#738=VECTOR('',#1196,1.);
#739=VECTOR('',#1197,1.);
#740=VECTOR('',#1198,1.);
#741=VECTOR('',#1201,1.);
#742=VECTOR('',#1210,1.);
#743=VECTOR('',#1213,1.);
#744=VECTOR('',#1214,1.);
#745=VECTOR('',#1215,1.);
#746=VECTOR('',#1216,1.);
#747=VECTOR('',#1217,1.);
#748=VECTOR('',#1220,1.);
#749=VECTOR('',#1223,1.);
#750=VECTOR('',#1224,1.);
#751=VECTOR('',#1225,1.);
#752=VECTOR('',#1228,1.);
#753=VECTOR('',#1231,1.);
#754=VECTOR('',#1234,1.);
#755=VECTOR('',#1243,1.);
#756=VECTOR('',#1246,1.);
#757=VECTOR('',#1247,1.);
#758=VECTOR('',#1252,1.);
#759=VECTOR('',#1255,1.);
#760=VECTOR('',#1256,1.);
#761=VECTOR('',#1261,1.);
#762=VECTOR('',#1262,1.);
#763=VECTOR('',#1265,1.);
#764=VECTOR('',#1266,1.);
#765=VECTOR('',#1267,1.);
#766=VECTOR('',#1270,1.);
#767=VECTOR('',#1273,1.);
#768=VECTOR('',#1278,1.);
#769=VECTOR('',#1279,1.);
#770=VECTOR('',#1280,1.);
#771=VECTOR('',#1283,1.);
#772=VECTOR('',#1284,1.);
#773=VECTOR('',#1285,1.);
#774=VECTOR('',#1288,1.);
#775=VECTOR('',#1291,1.);
#776=VECTOR('',#1292,1.);
#777=VECTOR('',#1319,1.);
#778=VECTOR('',#1320,1.);
#779=VECTOR('',#1321,1.);
#780=VECTOR('',#1324,1.);
#781=VECTOR('',#1325,1.);
#782=VECTOR('',#1328,1.);
#783=VECTOR('',#1329,1.);
#784=VECTOR('',#1334,1.);
#785=VECTOR('',#1337,1.);
#786=VECTOR('',#1338,1.);
#787=VECTOR('',#1341,1.);
#788=VECTOR('',#1342,1.);
#789=VECTOR('',#1343,1.);
#790=VECTOR('',#1344,1.);
#791=VECTOR('',#1349,1.);
#792=VECTOR('',#1352,1.);
#793=VECTOR('',#1353,1.);
#794=VECTOR('',#1356,1.);
#795=VECTOR('',#1357,1.);
#796=VECTOR('',#1358,1.);
#797=VECTOR('',#1365,1.);
#798=VECTOR('',#1366,1.);
#799=VECTOR('',#1369,1.);
#800=VECTOR('',#1374,1.);
#801=VECTOR('',#1381,1.);
#802=VECTOR('',#1386,1.);
#803=VECTOR('',#1387,1.);
#804=VECTOR('',#1390,1.);
#805=VECTOR('',#1397,1.);
#806=VECTOR('',#1398,1.);
#807=VECTOR('',#1425,1.);
#808=VECTOR('',#1428,1.);
#809=EDGE_LOOP('',(#114,#115,#116,#117,#118));
#810=EDGE_LOOP('',(#119));
#811=EDGE_LOOP('',(#120,#121,#122,#123));
#812=EDGE_LOOP('',(#124,#125,#126,#127,#128,#129));
#813=EDGE_LOOP('',(#130));
#814=EDGE_LOOP('',(#131));
#815=EDGE_LOOP('',(#132,#133,#134,#135,#136,#137,#138,#139,#140,#141,#142,
#143,#144,#145,#146,#147));
#816=EDGE_LOOP('',(#148,#149,#150,#151,#152,#153,#154,#155));
#817=EDGE_LOOP('',(#156,#157,#158,#159));
#818=EDGE_LOOP('',(#160,#161,#162,#163));
#819=EDGE_LOOP('',(#164,#165,#166,#167));
#820=EDGE_LOOP('',(#168,#169,#170,#171,#172));
#821=EDGE_LOOP('',(#173,#174,#175,#176,#177,#178,#179,#180,#181,#182,#183,
#184,#185,#186,#187,#188,#189,#190,#191,#192,#193,#194,#195,#196,#197,#198));
#822=EDGE_LOOP('',(#199,#200,#201,#202));
#823=EDGE_LOOP('',(#203));
#824=EDGE_LOOP('',(#204));
#825=EDGE_LOOP('',(#205));
#826=EDGE_LOOP('',(#206));
#827=EDGE_LOOP('',(#207));
#828=EDGE_LOOP('',(#208));
#829=EDGE_LOOP('',(#209,#210,#211,#212,#213,#214,#215,#216));
#830=EDGE_LOOP('',(#217));
#831=EDGE_LOOP('',(#218));
#832=EDGE_LOOP('',(#219));
#833=EDGE_LOOP('',(#220,#221,#222,#223));
#834=EDGE_LOOP('',(#224,#225,#226,#227));
#835=EDGE_LOOP('',(#228,#229,#230,#231));
#836=EDGE_LOOP('',(#232,#233,#234,#235,#236,#237,#238,#239));
#837=EDGE_LOOP('',(#240,#241,#242,#243));
#838=EDGE_LOOP('',(#244,#245,#246,#247,#248,#249,#250,#251));
#839=EDGE_LOOP('',(#252,#253,#254,#255,#256));
#840=EDGE_LOOP('',(#257));
#841=EDGE_LOOP('',(#258));
#842=EDGE_LOOP('',(#259,#260,#261,#262,#263,#264));
#843=EDGE_LOOP('',(#265,#266,#267,#268));
#844=EDGE_LOOP('',(#269));
#845=EDGE_LOOP('',(#270,#271,#272,#273));
#846=EDGE_LOOP('',(#274,#275,#276,#277));
#847=EDGE_LOOP('',(#278,#279,#280,#281));
#848=EDGE_LOOP('',(#282,#283,#284,#285,#286));
#849=EDGE_LOOP('',(#287));
#850=EDGE_LOOP('',(#288));
#851=EDGE_LOOP('',(#289,#290,#291,#292));
#852=EDGE_LOOP('',(#293));
#853=EDGE_LOOP('',(#294));
#854=EDGE_LOOP('',(#295));
#855=EDGE_LOOP('',(#296));
#856=EDGE_LOOP('',(#297));
#857=EDGE_LOOP('',(#298));
#858=EDGE_LOOP('',(#299,#300,#301,#302,#303,#304,#305,#306));
#859=EDGE_LOOP('',(#307));
#860=EDGE_LOOP('',(#308,#309,#310,#311,#312,#313));
#861=EDGE_LOOP('',(#314,#315,#316,#317,#318,#319));
#862=EDGE_LOOP('',(#320,#321,#322,#323));
#863=EDGE_LOOP('',(#324,#325,#326,#327));
#864=EDGE_LOOP('',(#328,#329,#330,#331));
#865=EDGE_LOOP('',(#332,#333,#334,#335));
#866=EDGE_LOOP('',(#336,#337,#338,#339));
#867=EDGE_LOOP('',(#340,#341,#342,#343));
#868=EDGE_LOOP('',(#344,#345,#346,#347,#348,#349));
#869=EDGE_LOOP('',(#350,#351,#352,#353,#354,#355));
#870=EDGE_LOOP('',(#356,#357,#358,#359));
#871=EDGE_LOOP('',(#360,#361,#362,#363));
#872=EDGE_LOOP('',(#364,#365,#366,#367));
#873=EDGE_LOOP('',(#368,#369,#370,#371,#372,#373));
#874=EDGE_LOOP('',(#374,#375,#376,#377,#378,#379));
#875=EDGE_LOOP('',(#380,#381,#382,#383));
#876=EDGE_LOOP('',(#384,#385,#386,#387));
#877=EDGE_LOOP('',(#388,#389,#390,#391));
#878=EDGE_LOOP('',(#392));
#879=EDGE_LOOP('',(#393));
#880=EDGE_LOOP('',(#394));
#881=EDGE_LOOP('',(#395));
#882=EDGE_LOOP('',(#396));
#883=EDGE_LOOP('',(#397));
#884=EDGE_LOOP('',(#398));
#885=EDGE_LOOP('',(#399));
#886=EDGE_LOOP('',(#400));
#887=EDGE_LOOP('',(#401));
#888=EDGE_LOOP('',(#402));
#889=EDGE_LOOP('',(#403));
#890=FACE_BOUND('',#809,.T.);
#891=FACE_BOUND('',#810,.T.);
#892=FACE_BOUND('',#811,.T.);
#893=FACE_BOUND('',#812,.T.);
#894=FACE_BOUND('',#813,.T.);
#895=FACE_BOUND('',#814,.T.);
#896=FACE_BOUND('',#815,.T.);
#897=FACE_BOUND('',#816,.T.);
#898=FACE_BOUND('',#817,.T.);
#899=FACE_BOUND('',#818,.T.);
#900=FACE_BOUND('',#819,.T.);
#901=FACE_BOUND('',#820,.T.);
#902=FACE_BOUND('',#821,.T.);
#903=FACE_BOUND('',#822,.T.);
#904=FACE_BOUND('',#823,.T.);
#905=FACE_BOUND('',#824,.T.);
#906=FACE_BOUND('',#825,.T.);
#907=FACE_BOUND('',#826,.T.);
#908=FACE_BOUND('',#827,.T.);
#909=FACE_BOUND('',#828,.T.);
#910=FACE_BOUND('',#829,.T.);
#911=FACE_BOUND('',#830,.T.);
#912=FACE_BOUND('',#831,.T.);
#913=FACE_BOUND('',#832,.T.);
#914=FACE_BOUND('',#833,.T.);
#915=FACE_BOUND('',#834,.T.);
#916=FACE_BOUND('',#835,.T.);
#917=FACE_BOUND('',#836,.T.);
#918=FACE_BOUND('',#837,.T.);
#919=FACE_BOUND('',#838,.T.);
#920=FACE_BOUND('',#839,.T.);
#921=FACE_BOUND('',#840,.T.);
#922=FACE_BOUND('',#841,.T.);
#923=FACE_BOUND('',#842,.T.);
#924=FACE_BOUND('',#843,.T.);
#925=FACE_BOUND('',#844,.T.);
#926=FACE_BOUND('',#845,.T.);
#927=FACE_BOUND('',#846,.T.);
#928=FACE_BOUND('',#847,.T.);
#929=FACE_BOUND('',#848,.T.);
#930=FACE_BOUND('',#849,.T.);
#931=FACE_BOUND('',#850,.T.);
#932=FACE_BOUND('',#851,.T.);
#933=FACE_BOUND('',#852,.T.);
#934=FACE_BOUND('',#853,.T.);
#935=FACE_BOUND('',#854,.T.);
#936=FACE_BOUND('',#855,.T.);
#937=FACE_BOUND('',#856,.T.);
#938=FACE_BOUND('',#857,.T.);
#939=FACE_BOUND('',#858,.T.);
#940=FACE_BOUND('',#859,.T.);
#941=FACE_BOUND('',#860,.T.);
#942=FACE_BOUND('',#861,.T.);
#943=FACE_BOUND('',#862,.T.);
#944=FACE_BOUND('',#863,.T.);
#945=FACE_BOUND('',#864,.T.);
#946=FACE_BOUND('',#865,.T.);
#947=FACE_BOUND('',#866,.T.);
#948=FACE_BOUND('',#867,.T.);
#949=FACE_BOUND('',#868,.T.);
#950=FACE_BOUND('',#869,.T.);
#951=FACE_BOUND('',#870,.T.);
#952=FACE_BOUND('',#871,.T.);
#953=FACE_BOUND('',#872,.T.);
#954=FACE_BOUND('',#873,.T.);
#955=FACE_BOUND('',#874,.T.);
#956=FACE_BOUND('',#875,.T.);
#957=FACE_BOUND('',#876,.T.);
#958=FACE_BOUND('',#877,.T.);
#959=FACE_BOUND('',#878,.T.);
#960=FACE_BOUND('',#879,.T.);
#961=FACE_BOUND('',#880,.T.);
#962=FACE_BOUND('',#881,.T.);
#963=FACE_BOUND('',#882,.T.);
#964=FACE_BOUND('',#883,.T.);
#965=FACE_BOUND('',#884,.T.);
#966=FACE_BOUND('',#885,.T.);
#967=FACE_BOUND('',#886,.T.);
#968=FACE_BOUND('',#887,.T.);
#969=FACE_BOUND('',#888,.T.);
#970=FACE_BOUND('',#889,.T.);
#971=PLANE('',#1060);
#972=PLANE('',#1061);
#973=PLANE('',#1064);
#974=PLANE('',#1069);
#975=PLANE('',#1080);
#976=PLANE('',#1083);
#977=PLANE('',#1085);
#978=PLANE('',#1102);
#979=PLANE('',#1106);
#980=PLANE('',#1107);
#981=PLANE('',#1108);
#982=PLANE('',#1109);
#983=PLANE('',#1112);
#984=PLANE('',#1113);
#985=PLANE('',#1116);
#986=PLANE('',#1117);
#987=PLANE('',#1122);
#988=PLANE('',#1127);
#989=PLANE('',#1130);
#990=PLANE('',#1140);
#991=ADVANCED_FACE('',(#890),#971,.T.);
#992=ADVANCED_FACE('',(#891,#892),#972,.T.);
#993=ADVANCED_FACE('',(#893,#894,#895),#973,.T.);
#994=ADVANCED_FACE('',(#896,#897),#974,.F.);
#995=ADVANCED_FACE('',(#898),#28,.T.);
#996=ADVANCED_FACE('',(#899),#975,.F.);
#997=ADVANCED_FACE('',(#900),#29,.T.);
#998=ADVANCED_FACE('',(#901),#976,.F.);
#999=ADVANCED_FACE('',(#902),#977,.T.);
#1000=ADVANCED_FACE('',(#903),#30,.T.);
#1001=ADVANCED_FACE('',(#904,#905),#31,.F.);
#1002=ADVANCED_FACE('',(#906,#907),#32,.F.);
#1003=ADVANCED_FACE('',(#908,#909),#33,.F.);
#1004=ADVANCED_FACE('',(#910,#911,#912,#913),#978,.F.);
#1005=ADVANCED_FACE('',(#914),#979,.T.);
#1006=ADVANCED_FACE('',(#915),#980,.F.);
#1007=ADVANCED_FACE('',(#916),#981,.T.);
#1008=ADVANCED_FACE('',(#917),#982,.F.);
#1009=ADVANCED_FACE('',(#918),#983,.F.);
#1010=ADVANCED_FACE('',(#919),#984,.F.);
#1011=ADVANCED_FACE('',(#920),#985,.F.);
#1012=ADVANCED_FACE('',(#921,#922,#923),#986,.F.);
#1013=ADVANCED_FACE('',(#924,#925),#987,.F.);
#1014=ADVANCED_FACE('',(#926),#34,.T.);
#1015=ADVANCED_FACE('',(#927),#988,.F.);
#1016=ADVANCED_FACE('',(#928),#35,.T.);
#1017=ADVANCED_FACE('',(#929),#989,.F.);
#1018=ADVANCED_FACE('',(#930,#931),#36,.F.);
#1019=ADVANCED_FACE('',(#932),#37,.T.);
#1020=ADVANCED_FACE('',(#933,#934),#38,.F.);
#1021=ADVANCED_FACE('',(#935,#936),#39,.F.);
#1022=ADVANCED_FACE('',(#937,#938,#939,#940),#990,.T.);
#1023=ADVANCED_FACE('',(#941),#40,.F.);
#1024=ADVANCED_FACE('',(#942),#41,.F.);
#1025=ADVANCED_FACE('',(#943),#42,.F.);
#1026=ADVANCED_FACE('',(#944),#43,.F.);
#1027=ADVANCED_FACE('',(#945),#44,.F.);
#1028=ADVANCED_FACE('',(#946),#45,.F.);
#1029=ADVANCED_FACE('',(#947),#46,.F.);
#1030=ADVANCED_FACE('',(#948),#47,.F.);
#1031=ADVANCED_FACE('',(#949),#48,.F.);
#1032=ADVANCED_FACE('',(#950),#49,.F.);
#1033=ADVANCED_FACE('',(#951),#50,.F.);
#1034=ADVANCED_FACE('',(#952),#51,.F.);
#1035=ADVANCED_FACE('',(#953),#52,.T.);
#1036=ADVANCED_FACE('',(#954),#53,.T.);
#1037=ADVANCED_FACE('',(#955),#54,.T.);
#1038=ADVANCED_FACE('',(#956),#55,.T.);
#1039=ADVANCED_FACE('',(#957),#56,.F.);
#1040=ADVANCED_FACE('',(#958),#57,.F.);
#1041=ADVANCED_FACE('',(#959,#960),#58,.F.);
#1042=ADVANCED_FACE('',(#961,#962),#59,.F.);
#1043=ADVANCED_FACE('',(#963,#964),#12,.T.);
#1044=ADVANCED_FACE('',(#965,#966),#13,.T.);
#1045=ADVANCED_FACE('',(#967,#968),#14,.F.);
#1046=ADVANCED_FACE('',(#969,#970),#15,.F.);
#1047=CLOSED_SHELL('',(#991,#992,#993,#994,#995,#996,#997,#998,#999,#1000,
#1001,#1002,#1003,#1004,#1005,#1006,#1007,#1008,#1009,#1010,#1011,#1012,
#1013,#1014,#1015,#1016,#1017,#1018,#1019,#1020,#1021,#1022,#1023,#1024,
#1025,#1026,#1027,#1028,#1029,#1030,#1031,#1032,#1033,#1034,#1035,#1036,
#1037,#1038,#1039,#1040,#1041,#1042,#1043,#1044,#1045,#1046));
#1048=STYLED_ITEM('',(#1049),#1056);
#1049=PRESENTATION_STYLE_ASSIGNMENT((#1050));
#1050=SURFACE_STYLE_USAGE(.BOTH.,#1051);
#1051=SURFACE_SIDE_STYLE('',(#1052));
#1052=SURFACE_STYLE_FILL_AREA(#1053);
#1053=FILL_AREA_STYLE('',(#1054));
#1054=FILL_AREA_STYLE_COLOUR('',#1055);
#1055=COLOUR_RGB('',0.647058823529412,0.647058823529412,0.647058823529412);
#1056=MANIFOLD_SOLID_BREP('left_link_outside',#1047);
#1057=SHAPE_DEFINITION_REPRESENTATION(#1817,#1058);
#1058=SHAPE_REPRESENTATION('left_link_outside',(#1059),#1812);
#1059=AXIS2_PLACEMENT_3D('',#1489,#1176,#1177);
#1060=AXIS2_PLACEMENT_3D('',#1490,#1178,#1179);
#1061=AXIS2_PLACEMENT_3D('',#1501,#1185,#1186);
#1062=AXIS2_PLACEMENT_3D('',#1502,#1187,#1188);
#1063=AXIS2_PLACEMENT_3D('',#1511,#1192,#1193);
#1064=AXIS2_PLACEMENT_3D('',#1512,#1194,#1195);
#1065=AXIS2_PLACEMENT_3D('',#1520,#1199,#1200);
#1066=AXIS2_PLACEMENT_3D('',#1524,#1202,#1203);
#1067=AXIS2_PLACEMENT_3D('',#1525,#1204,#1205);
#1068=AXIS2_PLACEMENT_3D('',#1527,#1206,#1207);
#1069=AXIS2_PLACEMENT_3D('',#1529,#1208,#1209);
#1070=AXIS2_PLACEMENT_3D('',#1533,#1211,#1212);
#1071=AXIS2_PLACEMENT_3D('',#1545,#1218,#1219);
#1072=AXIS2_PLACEMENT_3D('',#1549,#1221,#1222);
#1073=AXIS2_PLACEMENT_3D('',#1555,#1226,#1227);
#1074=AXIS2_PLACEMENT_3D('',#1559,#1229,#1230);
#1075=AXIS2_PLACEMENT_3D('',#1563,#1232,#1233);
#1076=AXIS2_PLACEMENT_3D('',#1567,#1235,#1236);
#1077=AXIS2_PLACEMENT_3D('',#1568,#1237,#1238);
#1078=AXIS2_PLACEMENT_3D('',#1569,#1239,#1240);
#1079=AXIS2_PLACEMENT_3D('',#1570,#1241,#1242);
#1080=AXIS2_PLACEMENT_3D('',#1573,#1244,#1245);
#1081=AXIS2_PLACEMENT_3D('',#1577,#1248,#1249);
#1082=AXIS2_PLACEMENT_3D('',#1578,#1250,#1251);
#1083=AXIS2_PLACEMENT_3D('',#1581,#1253,#1254);
#1084=AXIS2_PLACEMENT_3D('',#1586,#1257,#1258);
#1085=AXIS2_PLACEMENT_3D('',#1587,#1259,#1260);
#1086=AXIS2_PLACEMENT_3D('',#1593,#1263,#1264);
#1087=AXIS2_PLACEMENT_3D('',#1601,#1268,#1269);
#1088=AXIS2_PLACEMENT_3D('',#1605,#1271,#1272);
#1089=AXIS2_PLACEMENT_3D('',#1609,#1274,#1275);
#1090=AXIS2_PLACEMENT_3D('',#1610,#1276,#1277);
#1091=AXIS2_PLACEMENT_3D('',#1618,#1281,#1282);
#1092=AXIS2_PLACEMENT_3D('',#1625,#1286,#1287);
#1093=AXIS2_PLACEMENT_3D('',#1629,#1289,#1290);
#1094=AXIS2_PLACEMENT_3D('',#1634,#1293,#1294);
#1095=AXIS2_PLACEMENT_3D('',#1635,#1295,#1296);
#1096=AXIS2_PLACEMENT_3D('',#1636,#1297,#1298);
#1097=AXIS2_PLACEMENT_3D('',#1637,#1299,#1300);
#1098=AXIS2_PLACEMENT_3D('',#1639,#1301,#1302);
#1099=AXIS2_PLACEMENT_3D('',#1640,#1303,#1304);
#1100=AXIS2_PLACEMENT_3D('',#1642,#1305,#1306);
#1101=AXIS2_PLACEMENT_3D('',#1643,#1307,#1308);
#1102=AXIS2_PLACEMENT_3D('',#1645,#1309,#1310);
#1103=AXIS2_PLACEMENT_3D('',#1646,#1311,#1312);
#1104=AXIS2_PLACEMENT_3D('',#1647,#1313,#1314);
#1105=AXIS2_PLACEMENT_3D('',#1649,#1315,#1316);
#1106=AXIS2_PLACEMENT_3D('',#1651,#1317,#1318);
#1107=AXIS2_PLACEMENT_3D('',#1657,#1322,#1323);
#1108=AXIS2_PLACEMENT_3D('',#1660,#1326,#1327);
#1109=AXIS2_PLACEMENT_3D('',#1663,#1330,#1331);
#1110=AXIS2_PLACEMENT_3D('',#1664,#1332,#1333);
#1111=AXIS2_PLACEMENT_3D('',#1668,#1335,#1336);
#1112=AXIS2_PLACEMENT_3D('',#1671,#1339,#1340);
#1113=AXIS2_PLACEMENT_3D('',#1680,#1345,#1346);
#1114=AXIS2_PLACEMENT_3D('',#1681,#1347,#1348);
#1115=AXIS2_PLACEMENT_3D('',#1685,#1350,#1351);
#1116=AXIS2_PLACEMENT_3D('',#1688,#1354,#1355);
#1117=AXIS2_PLACEMENT_3D('',#1693,#1359,#1360);
#1118=AXIS2_PLACEMENT_3D('',#1694,#1361,#1362);
#1119=AXIS2_PLACEMENT_3D('',#1696,#1363,#1364);
#1120=AXIS2_PLACEMENT_3D('',#1702,#1367,#1368);
#1121=AXIS2_PLACEMENT_3D('',#1706,#1370,#1371);
#1122=AXIS2_PLACEMENT_3D('',#1707,#1372,#1373);
#1123=AXIS2_PLACEMENT_3D('',#1709,#1375,#1376);
#1124=AXIS2_PLACEMENT_3D('',#1710,#1377,#1378);
#1125=AXIS2_PLACEMENT_3D('',#1712,#1379,#1380);
#1126=AXIS2_PLACEMENT_3D('',#1715,#1382,#1383);
#1127=AXIS2_PLACEMENT_3D('',#1716,#1384,#1385);
#1128=AXIS2_PLACEMENT_3D('',#1720,#1388,#1389);
#1129=AXIS2_PLACEMENT_3D('',#1723,#1391,#1392);
#1130=AXIS2_PLACEMENT_3D('',#1724,#1393,#1394);
#1131=AXIS2_PLACEMENT_3D('',#1725,#1395,#1396);
#1132=AXIS2_PLACEMENT_3D('',#1730,#1399,#1400);
#1133=AXIS2_PLACEMENT_3D('',#1731,#1401,#1402);
#1134=AXIS2_PLACEMENT_3D('',#1733,#1403,#1404);
#1135=AXIS2_PLACEMENT_3D('',#1734,#1405,#1406);
#1136=AXIS2_PLACEMENT_3D('',#1735,#1407,#1408);
#1137=AXIS2_PLACEMENT_3D('',#1736,#1409,#1410);
#1138=AXIS2_PLACEMENT_3D('',#1738,#1411,#1412);
#1139=AXIS2_PLACEMENT_3D('',#1739,#1413,#1414);
#1140=AXIS2_PLACEMENT_3D('',#1741,#1415,#1416);
#1141=AXIS2_PLACEMENT_3D('',#1742,#1417,#1418);
#1142=AXIS2_PLACEMENT_3D('',#1744,#1419,#1420);
#1143=AXIS2_PLACEMENT_3D('',#1746,#1421,#1422);
#1144=AXIS2_PLACEMENT_3D('',#1747,#1423,#1424);
#1145=AXIS2_PLACEMENT_3D('',#1759,#1426,#1427);
#1146=AXIS2_PLACEMENT_3D('',#1771,#1429,#1430);
#1147=AXIS2_PLACEMENT_3D('',#1772,#1431,#1432);
#1148=AXIS2_PLACEMENT_3D('',#1773,#1433,#1434);
#1149=AXIS2_PLACEMENT_3D('',#1774,#1435,#1436);
#1150=AXIS2_PLACEMENT_3D('',#1775,#1437,#1438);
#1151=AXIS2_PLACEMENT_3D('',#1776,#1439,#1440);
#1152=AXIS2_PLACEMENT_3D('',#1777,#1441,#1442);
#1153=AXIS2_PLACEMENT_3D('',#1778,#1443,#1444);
#1154=AXIS2_PLACEMENT_3D('',#1779,#1445,#1446);
#1155=AXIS2_PLACEMENT_3D('',#1784,#1447,#1448);
#1156=AXIS2_PLACEMENT_3D('',#1789,#1449,#1450);
#1157=AXIS2_PLACEMENT_3D('',#1790,#1451,#1452);
#1158=AXIS2_PLACEMENT_3D('',#1791,#1453,#1454);
#1159=AXIS2_PLACEMENT_3D('',#1792,#1455,#1456);
#1160=AXIS2_PLACEMENT_3D('',#1793,#1457,#1458);
#1161=AXIS2_PLACEMENT_3D('',#1794,#1459,#1460);
#1162=AXIS2_PLACEMENT_3D('',#1795,#1461,#1462);
#1163=AXIS2_PLACEMENT_3D('',#1796,#1463,#1464);
#1164=AXIS2_PLACEMENT_3D('',#1797,#1465,#1466);
#1165=AXIS2_PLACEMENT_3D('',#1798,#1467,#1468);
#1166=AXIS2_PLACEMENT_3D('',#1799,#1469,#1470);
#1167=AXIS2_PLACEMENT_3D('',#1800,#1471,#1472);
#1168=AXIS2_PLACEMENT_3D('',#1801,#1473,#1474);
#1169=AXIS2_PLACEMENT_3D('',#1802,#1475,#1476);
#1170=AXIS2_PLACEMENT_3D('',#1804,#1477,#1478);
#1171=AXIS2_PLACEMENT_3D('',#1805,#1479,#1480);
#1172=AXIS2_PLACEMENT_3D('',#1807,#1481,#1482);
#1173=AXIS2_PLACEMENT_3D('',#1808,#1483,#1484);
#1174=AXIS2_PLACEMENT_3D('',#1809,#1485,#1486);
#1175=AXIS2_PLACEMENT_3D('',#1810,#1487,#1488);
#1176=DIRECTION('',(0.,0.,1.));
#1177=DIRECTION('',(1.,0.,0.));
#1178=DIRECTION('',(0.,0.,1.));
#1179=DIRECTION('',(1.,0.,0.));
#1180=DIRECTION('',(1.,0.,0.));
#1181=DIRECTION('',(-0.99999999999688,2.49787612816014E-6,0.));
#1182=DIRECTION('',(-2.4978761281602E-6,-0.99999999999688,0.));
#1183=DIRECTION('',(-0.99999999999688,2.49787612816019E-6,0.));
#1184=DIRECTION('',(-2.49787612642547E-6,-0.99999999999688,0.));
#1185=DIRECTION('',(0.,0.,1.));
#1186=DIRECTION('',(1.,0.,0.));
#1187=DIRECTION('',(0.,0.,1.));
#1188=DIRECTION('',(1.,0.,0.));
#1189=DIRECTION('',(-2.4978761281602E-6,-0.99999999999688,0.));
#1190=DIRECTION('',(0.99999999999688,-2.49787612630983E-6,0.));
#1191=DIRECTION('',(-2.49787612642547E-6,-0.99999999999688,0.));
#1192=DIRECTION('',(2.00844559137177E-22,1.60812264967538E-16,1.));
#1193=DIRECTION('',(1.,-3.08395284618101E-15,0.));
#1194=DIRECTION('',(0.,0.,1.));
#1195=DIRECTION('',(1.,0.,0.));
#1196=DIRECTION('',(-0.984807319257498,0.173650637594164,0.));
#1197=DIRECTION('',(0.99999999999688,-2.49787612353418E-6,0.));
#1198=DIRECTION('',(-2.4978761281602E-6,-0.99999999999688,0.));
#1199=DIRECTION('',(0.,0.,1.));
#1200=DIRECTION('',(1.,0.,0.));
#1201=DIRECTION('',(0.92630604758304,0.376771955181229,0.));
#1202=DIRECTION('',(0.,0.,1.));
#1203=DIRECTION('',(1.,0.,0.));
#1204=DIRECTION('',(0.,0.,1.));
#1205=DIRECTION('',(1.,0.,0.));
#1206=DIRECTION('',(0.,0.,1.));
#1207=DIRECTION('',(1.,0.,0.));
#1208=DIRECTION('',(0.99999999999688,-2.4978761281602E-6,0.));
#1209=DIRECTION('',(2.4978761281602E-6,0.99999999999688,0.));
#1210=DIRECTION('',(0.,0.,-1.));
#1211=DIRECTION('',(0.99999999999688,-2.4978761281602E-6,0.));
#1212=DIRECTION('',(2.4978761281602E-6,0.99999999999688,0.));
#1213=DIRECTION('',(-2.4978761281602E-6,-0.99999999999688,0.));
#1214=DIRECTION('',(0.,0.,-1.));
#1215=DIRECTION('',(-2.4978761281602E-6,-0.99999999999688,0.));
#1216=DIRECTION('',(0.,0.,-1.));
#1217=DIRECTION('',(-2.4978761281602E-6,-0.99999999999688,0.));
#1218=DIRECTION('',(0.99999999999688,-2.4978761281602E-6,0.));
#1219=DIRECTION('',(2.4978761281602E-6,0.99999999999688,0.));
#1220=DIRECTION('',(0.,0.,-1.));
#1221=DIRECTION('',(0.99999999999688,-2.4978761281602E-6,0.));
#1222=DIRECTION('',(2.4978761281602E-6,0.99999999999688,0.));
#1223=DIRECTION('',(0.,0.,-1.));
#1224=DIRECTION('',(-2.4978761281602E-6,-0.99999999999688,0.));
#1225=DIRECTION('',(0.,0.,-1.));
#1226=DIRECTION('',(0.99999999999688,-2.4978761281602E-6,0.));
#1227=DIRECTION('',(2.4978761281602E-6,0.99999999999688,0.));
#1228=DIRECTION('',(0.,0.,-1.));
#1229=DIRECTION('',(0.99999999999688,-2.4978761281602E-6,0.));
#1230=DIRECTION('',(2.4978761281602E-6,0.99999999999688,0.));
#1231=DIRECTION('',(-2.4978761281602E-6,-0.99999999999688,0.));
#1232=DIRECTION('',(0.99999999999688,-2.4978761281602E-6,0.));
#1233=DIRECTION('',(2.4978761281602E-6,0.99999999999688,0.));
#1234=DIRECTION('',(0.,0.,-1.));
#1235=DIRECTION('',(0.99999999999688,-2.4978761281602E-6,0.));
#1236=DIRECTION('',(2.4978761281602E-6,0.99999999999688,0.));
#1237=DIRECTION('',(0.99999999999688,-2.4978761281602E-6,0.));
#1238=DIRECTION('',(2.4978761281602E-6,0.99999999999688,0.));
#1239=DIRECTION('',(0.,0.,-1.));
#1240=DIRECTION('',(-1.,0.,0.));
#1241=DIRECTION('',(0.,0.,1.));
#1242=DIRECTION('',(1.,0.,0.));
#1243=DIRECTION('',(0.,0.,-1.));
#1244=DIRECTION('',(-0.376771955181229,0.92630604758304,0.));
#1245=DIRECTION('',(-0.92630604758304,-0.376771955181229,0.));
#1246=DIRECTION('',(0.92630604758304,0.376771955181229,0.));
#1247=DIRECTION('',(0.,0.,-1.));
#1248=DIRECTION('',(0.,0.,-1.));
#1249=DIRECTION('',(-1.,0.,0.));
#1250=DIRECTION('',(0.,0.,1.));
#1251=DIRECTION('',(1.,0.,0.));
#1252=DIRECTION('',(0.,0.,-1.));
#1253=DIRECTION('',(-0.173650637594164,-0.984807319257498,0.));
#1254=DIRECTION('',(0.984807319257499,-0.173650637594164,0.));
#1255=DIRECTION('',(-0.984807319257498,0.173650637594164,0.));
#1256=DIRECTION('',(0.,0.,-1.));
#1257=DIRECTION('',(-0.173650637594164,-0.984807319257498,0.));
#1258=DIRECTION('',(0.984807319257499,-0.173650637594164,0.));
#1259=DIRECTION('',(0.99999999999688,-2.49787612642547E-6,0.));
#1260=DIRECTION('',(2.49787612642547E-6,0.99999999999688,0.));
#1261=DIRECTION('',(-2.49787612642547E-6,-0.99999999999688,0.));
#1262=DIRECTION('',(0.,0.,-1.));
#1263=DIRECTION('',(0.99999999999688,-2.49787612642547E-6,0.));
#1264=DIRECTION('',(2.49787612642547E-6,0.99999999999688,0.));
#1265=DIRECTION('',(0.,0.,1.));
#1266=DIRECTION('',(-2.49787612642547E-6,-0.99999999999688,0.));
#1267=DIRECTION('',(0.,0.,-1.));
#1268=DIRECTION('',(0.99999999999688,-2.49787612642547E-6,0.));
#1269=DIRECTION('',(2.49787612642547E-6,0.99999999999688,0.));
#1270=DIRECTION('',(-2.49787612642547E-6,-0.99999999999688,0.));
#1271=DIRECTION('',(0.99999999999688,-2.49787612642547E-6,0.));
#1272=DIRECTION('',(2.49787612642547E-6,0.99999999999688,0.));
#1273=DIRECTION('',(0.,0.,-1.));
#1274=DIRECTION('',(0.99999999999688,-2.49787612642547E-6,0.));
#1275=DIRECTION('',(2.49787612642547E-6,0.99999999999688,0.));
#1276=DIRECTION('',(0.99999999999688,-2.49787612642547E-6,0.));
#1277=DIRECTION('',(2.49787612642547E-6,0.99999999999688,0.));
#1278=DIRECTION('',(0.,0.,-1.));
#1279=DIRECTION('',(-2.49787612642547E-6,-0.99999999999688,0.));
#1280=DIRECTION('',(0.,0.,1.));
#1281=DIRECTION('',(0.99999999999688,-2.49787612642547E-6,0.));
#1282=DIRECTION('',(2.49787612642547E-6,0.99999999999688,0.));
#1283=DIRECTION('',(0.,0.,-1.));
#1284=DIRECTION('',(-2.49787612642547E-6,-0.99999999999688,0.));
#1285=DIRECTION('',(0.,0.,-1.));
#1286=DIRECTION('',(0.99999999999688,-2.49787612642547E-6,0.));
#1287=DIRECTION('',(2.49787612642547E-6,0.99999999999688,0.));
#1288=DIRECTION('',(0.,0.,-1.));
#1289=DIRECTION('',(0.99999999999688,-2.49787612642547E-6,0.));
#1290=DIRECTION('',(2.49787612642547E-6,0.99999999999688,0.));
#1291=DIRECTION('',(-2.49787612642547E-6,-0.99999999999688,0.));
#1292=DIRECTION('',(0.,0.,-1.));
#1293=DIRECTION('',(0.,0.,-1.));
#1294=DIRECTION('',(1.24893806562209E-6,0.99999999999922,0.));
#1295=DIRECTION('',(-7.64754002199286E-23,-6.12323399573199E-17,1.));
#1296=DIRECTION('',(1.,-3.08395284618101E-15,7.6475400031091E-23));
#1297=DIRECTION('',(0.,0.,-1.));
#1298=DIRECTION('',(-1.,0.,0.));
#1299=DIRECTION('',(0.,0.,1.));
#1300=DIRECTION('',(1.,0.,0.));
#1301=DIRECTION('',(0.,0.,-1.));
#1302=DIRECTION('',(-1.,0.,0.));
#1303=DIRECTION('',(0.,0.,1.));
#1304=DIRECTION('',(1.,0.,0.));
#1305=DIRECTION('',(0.,0.,-1.));
#1306=DIRECTION('',(-1.,0.,0.));
#1307=DIRECTION('',(0.,0.,1.));
#1308=DIRECTION('',(1.,0.,0.));
#1309=DIRECTION('',(0.,0.,1.));
#1310=DIRECTION('',(1.,0.,0.));
#1311=DIRECTION('',(0.,0.,1.));
#1312=DIRECTION('',(1.,0.,0.));
#1313=DIRECTION('',(0.,0.,1.));
#1314=DIRECTION('',(1.,0.,0.));
#1315=DIRECTION('',(0.,0.,1.));
#1316=DIRECTION('',(1.,0.,0.));
#1317=DIRECTION('',(-2.49787612816014E-6,-0.99999999999688,0.));
#1318=DIRECTION('',(0.99999999999688,-2.49787612816014E-6,0.));
#1319=DIRECTION('',(0.,0.,-1.));
#1320=DIRECTION('',(-0.99999999999688,2.49787612816014E-6,0.));
#1321=DIRECTION('',(-0.99999999999688,2.49787612816014E-6,0.));
#1322=DIRECTION('',(0.,1.,0.));
#1323=DIRECTION('',(0.,0.,1.));
#1324=DIRECTION('',(1.,0.,0.));
#1325=DIRECTION('',(1.,0.,0.));
#1326=DIRECTION('',(2.49787612630983E-6,0.99999999999688,0.));
#1327=DIRECTION('',(-0.99999999999688,2.49787612630983E-6,0.));
#1328=DIRECTION('',(0.99999999999688,-2.49787612630983E-6,0.));
#1329=DIRECTION('',(0.99999999999688,-2.49787612630983E-6,0.));
#1330=DIRECTION('',(2.49787612353418E-6,0.99999999999688,0.));
#1331=DIRECTION('',(-0.99999999999688,2.49787612353418E-6,0.));
#1332=DIRECTION('',(2.49787612353418E-6,0.99999999999688,0.));
#1333=DIRECTION('',(-0.99999999999688,2.49787612353418E-6,0.));
#1334=DIRECTION('',(0.,0.,-1.));
#1335=DIRECTION('',(2.49787612353418E-6,0.99999999999688,0.));
#1336=DIRECTION('',(-0.99999999999688,2.49787612353418E-6,0.));
#1337=DIRECTION('',(0.99999999999688,-2.49787612353418E-6,0.));
#1338=DIRECTION('',(0.99999999999688,-2.49787612353418E-6,0.));
#1339=DIRECTION('',(-0.99999999999688,2.49787612469074E-6,0.));
#1340=DIRECTION('',(-2.49787612469075E-6,-0.99999999999688,0.));
#1341=DIRECTION('',(2.49787612469075E-6,0.99999999999688,0.));
#1342=DIRECTION('',(0.,0.,-1.));
#1343=DIRECTION('',(-2.49787612469075E-6,-0.99999999999688,0.));
#1344=DIRECTION('',(0.,0.,-1.));
#1345=DIRECTION('',(-2.49787612816019E-6,-0.99999999999688,0.));
#1346=DIRECTION('',(0.99999999999688,-2.49787612816019E-6,0.));
#1347=DIRECTION('',(-2.49787612816019E-6,-0.99999999999688,0.));
#1348=DIRECTION('',(0.99999999999688,-2.49787612816019E-6,0.));
#1349=DIRECTION('',(0.,0.,-1.));
#1350=DIRECTION('',(-2.49787612816019E-6,-0.99999999999688,0.));
#1351=DIRECTION('',(0.99999999999688,-2.49787612816019E-6,0.));
#1352=DIRECTION('',(-0.99999999999688,2.49787612816019E-6,0.));
#1353=DIRECTION('',(-0.99999999999688,2.49787612816019E-6,0.));
#1354=DIRECTION('',(0.,0.,1.));
#1355=DIRECTION('',(1.,0.,0.));
#1356=DIRECTION('',(-0.99999999999688,2.49787612816014E-6,0.));
#1357=DIRECTION('',(1.,0.,0.));
#1358=DIRECTION('',(-0.99999999999688,2.49787612816019E-6,0.));
#1359=DIRECTION('',(0.,0.,1.));
#1360=DIRECTION('',(1.,0.,0.));
#1361=DIRECTION('',(0.,0.,1.));
#1362=DIRECTION('',(1.,0.,0.));
#1363=DIRECTION('',(0.,0.,1.));
#1364=DIRECTION('',(1.,0.,0.));
#1365=DIRECTION('',(0.99999999999688,-2.49787612353418E-6,0.));
#1366=DIRECTION('',(-0.984807319257498,0.173650637594164,0.));
#1367=DIRECTION('',(0.,0.,1.));
#1368=DIRECTION('',(1.,0.,0.));
#1369=DIRECTION('',(0.92630604758304,0.376771955181229,0.));
#1370=DIRECTION('',(0.,0.,1.));
#1371=DIRECTION('',(1.,0.,0.));
#1372=DIRECTION('',(0.,0.,1.));
#1373=DIRECTION('',(1.,0.,0.));
#1374=DIRECTION('',(0.99999999999688,-2.49787612630983E-6,0.));
#1375=DIRECTION('',(7.5548447785139E-22,6.04901474817255E-16,1.));
#1376=DIRECTION('',(1.,-3.08395284618101E-15,0.));
#1377=DIRECTION('',(0.,0.,1.));
#1378=DIRECTION('',(1.,0.,0.));
#1379=DIRECTION('',(0.,0.,-1.));
#1380=DIRECTION('',(-1.,0.,0.));
#1381=DIRECTION('',(0.,0.,-1.));
#1382=DIRECTION('',(0.,0.,1.));
#1383=DIRECTION('',(1.,0.,0.));
#1384=DIRECTION('',(-0.376771955181229,0.92630604758304,0.));
#1385=DIRECTION('',(-0.92630604758304,-0.376771955181229,0.));
#1386=DIRECTION('',(0.,0.,-1.));
#1387=DIRECTION('',(0.92630604758304,0.376771955181229,0.));
#1388=DIRECTION('',(0.,0.,-1.));
#1389=DIRECTION('',(-1.,0.,0.));
#1390=DIRECTION('',(0.,0.,-1.));
#1391=DIRECTION('',(0.,0.,1.));
#1392=DIRECTION('',(1.,0.,0.));
#1393=DIRECTION('',(-0.173650637594164,-0.984807319257498,0.));
#1394=DIRECTION('',(0.984807319257499,-0.173650637594164,0.));
#1395=DIRECTION('',(-0.173650637594164,-0.984807319257498,0.));
#1396=DIRECTION('',(-0.984807319257499,0.173650637594164,0.));
#1397=DIRECTION('',(0.,0.,-1.));
#1398=DIRECTION('',(-0.984807319257498,0.173650637594164,0.));
#1399=DIRECTION('',(0.,0.,-1.));
#1400=DIRECTION('',(-1.,0.,0.));
#1401=DIRECTION('',(0.,0.,1.));
#1402=DIRECTION('',(1.,0.,0.));
#1403=DIRECTION('',(0.,0.,-1.));
#1404=DIRECTION('',(1.24893806562209E-6,0.99999999999922,0.));
#1405=DIRECTION('',(2.00844559137177E-22,1.60812264967538E-16,1.));
#1406=DIRECTION('',(1.,-3.08395284618101E-15,0.));
#1407=DIRECTION('',(0.,0.,-1.));
#1408=DIRECTION('',(-1.,0.,0.));
#1409=DIRECTION('',(0.,0.,1.));
#1410=DIRECTION('',(1.,0.,0.));
#1411=DIRECTION('',(0.,0.,-1.));
#1412=DIRECTION('',(-1.,0.,0.));
#1413=DIRECTION('',(0.,0.,1.));
#1414=DIRECTION('',(1.,0.,0.));
#1415=DIRECTION('',(0.,0.,1.));
#1416=DIRECTION('',(1.,0.,0.));
#1417=DIRECTION('',(0.,0.,1.));
#1418=DIRECTION('',(1.,0.,0.));
#1419=DIRECTION('',(0.,0.,1.));
#1420=DIRECTION('',(1.,0.,0.));
#1421=DIRECTION('',(0.,0.,1.));
#1422=DIRECTION('',(1.,0.,0.));
#1423=DIRECTION('',(-2.49787612642547E-6,-0.99999999999688,0.));
#1424=DIRECTION('',(0.99999999999688,-2.49787612642547E-6,0.));
#1425=DIRECTION('',(-2.49787612642547E-6,-0.99999999999688,0.));
#1426=DIRECTION('',(2.49787612642547E-6,0.99999999999688,0.));
#1427=DIRECTION('',(-0.99999999999688,2.49787612642547E-6,0.));
#1428=DIRECTION('',(2.49787612642547E-6,0.99999999999688,0.));
#1429=DIRECTION('',(-0.99999999999688,2.49787612630983E-6,0.));
#1430=DIRECTION('',(-2.49787612630983E-6,-0.99999999999688,0.));
#1431=DIRECTION('',(0.99999999999688,-2.49787612630983E-6,0.));
#1432=DIRECTION('',(2.49787612630983E-6,0.99999999999688,0.));
#1433=DIRECTION('',(-1.,0.,0.));
#1434=DIRECTION('',(0.,0.,1.));
#1435=DIRECTION('',(0.99999999999688,0.,2.49787612815242E-6));
#1436=DIRECTION('',(2.49787612815242E-6,0.,-0.99999999999688));
#1437=DIRECTION('',(-0.99999999999688,2.49787612816014E-6,0.));
#1438=DIRECTION('',(-2.49787612816014E-6,-0.99999999999688,0.));
#1439=DIRECTION('',(1.,0.,0.));
#1440=DIRECTION('',(0.,0.,-1.));
#1441=DIRECTION('',(0.99999999999688,-2.49787612815242E-6,0.));
#1442=DIRECTION('',(2.49787612815242E-6,0.99999999999688,0.));
#1443=DIRECTION('',(0.99999999999688,-2.49787612816014E-6,0.));
#1444=DIRECTION('',(2.49787612816014E-6,0.99999999999688,0.));
#1445=DIRECTION('',(0.99999999999688,-2.49787612353418E-6,0.));
#1446=DIRECTION('',(2.49787612353418E-6,0.99999999999688,0.));
#1447=DIRECTION('',(-0.99999999999688,2.49787612353418E-6,0.));
#1448=DIRECTION('',(-2.49787612353418E-6,-0.99999999999688,0.));
#1449=DIRECTION('',(-0.99999999999688,2.49787612816019E-6,0.));
#1450=DIRECTION('',(-2.49787612816019E-6,-0.99999999999688,0.));
#1451=DIRECTION('',(0.99999999999688,-2.49787612816019E-6,0.));
#1452=DIRECTION('',(2.49787612816019E-6,0.99999999999688,0.));
#1453=DIRECTION('',(2.49787612642547E-6,0.99999999999688,0.));
#1454=DIRECTION('',(-0.99999999999688,2.49787612642547E-6,0.));
#1455=DIRECTION('',(1.76626514755944E-6,0.707106781184342,-0.707106781186548));
#1456=DIRECTION('',(-1.76626514755944E-6,-0.707106781184342,-0.707106781186548));
#1457=DIRECTION('',(-1.76626514755944E-6,-0.707106781184342,-0.707106781186548));
#1458=DIRECTION('',(1.76626514755944E-6,0.707106781184342,-0.707106781186548));
#1459=DIRECTION('',(0.,0.,-1.));
#1460=DIRECTION('',(-1.,0.,0.));
#1461=DIRECTION('',(1.76626514755944E-6,0.707106781184342,-0.707106781186548));
#1462=DIRECTION('',(-1.76626514755944E-6,-0.707106781184342,-0.707106781186548));
#1463=DIRECTION('',(0.,0.,-1.));
#1464=DIRECTION('',(-1.,0.,0.));
#1465=DIRECTION('',(-1.76626514755944E-6,-0.707106781184342,-0.707106781186548));
#1466=DIRECTION('',(1.76626514755944E-6,0.707106781184342,-0.707106781186548));
#1467=DIRECTION('',(-2.49787612642547E-6,-0.99999999999688,0.));
#1468=DIRECTION('',(0.99999999999688,-2.49787612642547E-6,0.));
#1469=DIRECTION('',(0.,0.,-1.));
#1470=DIRECTION('',(-1.,0.,0.));
#1471=DIRECTION('',(0.,0.,-1.));
#1472=DIRECTION('',(-1.,0.,0.));
#1473=DIRECTION('',(0.,0.,-1.));
#1474=DIRECTION('',(-1.,0.,0.));
#1475=DIRECTION('',(0.,0.,-1.));
#1476=DIRECTION('',(-1.,0.,0.));
#1477=DIRECTION('',(0.,0.,-1.));
#1478=DIRECTION('',(-1.,0.,0.));
#1479=DIRECTION('',(0.,0.,-1.));
#1480=DIRECTION('',(-1.,0.,0.));
#1481=DIRECTION('',(0.,0.,1.));
#1482=DIRECTION('',(1.,0.,0.));
#1483=DIRECTION('',(0.,0.,1.));
#1484=DIRECTION('',(1.,0.,0.));
#1485=DIRECTION('',(0.,0.,1.));
#1486=DIRECTION('',(1.,0.,0.));
#1487=DIRECTION('',(0.,0.,1.));
#1488=DIRECTION('',(1.,0.,0.));
#1489=CARTESIAN_POINT('',(0.,0.,0.));
#1490=CARTESIAN_POINT('',(-0.0579074061876112,0.0729189128139845,0.0063));
#1491=CARTESIAN_POINT('',(-0.0579074061876112,0.0706789128139104,0.0063));
#1492=CARTESIAN_POINT('',(-0.0574388966467124,0.0706789128139104,0.0063));
#1493=CARTESIAN_POINT('',(-0.0649388966467358,0.0706789128139104,0.0063));
#1494=CARTESIAN_POINT('',(-0.0664388966467311,0.0706789165607277,0.0063));
#1495=CARTESIAN_POINT('',(-0.0664388966467311,0.0706789165607277,0.0063));
#1496=CARTESIAN_POINT('',(-0.0664389216754312,0.0606589240544653,0.0063));
#1497=CARTESIAN_POINT('',(-0.0664389141818028,0.063658924054456,0.0063));
#1498=CARTESIAN_POINT('',(-0.0579074293179693,0.0636589027438636,0.0063));
#1499=CARTESIAN_POINT('',(-0.0574389141818309,0.0636589015735709,0.0063));
#1500=CARTESIAN_POINT('',(-0.0574389216754592,0.0606589015735802,0.0063));
#1501=CARTESIAN_POINT('',(-0.0579074061876112,0.0729189128139845,0.0063));
#1502=CARTESIAN_POINT('',(-0.0619388317019472,0.0966789128139104,0.0063));
#1503=CARTESIAN_POINT('',(-0.0602888317019472,0.0966789128139104,0.0063));
#1504=CARTESIAN_POINT('',(-0.0664389216754312,0.0606589240544653,0.0063));
#1505=CARTESIAN_POINT('',(-0.0664388317019331,0.096678924054353,0.0063));
#1506=CARTESIAN_POINT('',(-0.0664388666722176,0.0826789165607215,0.0063));
#1507=CARTESIAN_POINT('',(-0.0574388666722457,0.0826788940798363,0.0063));
#1508=CARTESIAN_POINT('',(-0.0574388666722457,0.0826788940798363,0.0063));
#1509=CARTESIAN_POINT('',(-0.0574389216754592,0.0606589015735802,0.0063));
#1510=CARTESIAN_POINT('',(-0.0574388317019565,0.096678905320282,0.0063));
#1511=CARTESIAN_POINT('',(-0.0619388317019472,0.0966789128139104,0.0063));
#1512=CARTESIAN_POINT('',(-0.0579074061876112,0.0729189128139845,0.0063));
#1513=CARTESIAN_POINT('',(-0.0548535068499831,0.0572877847433118,0.0063));
#1514=CARTESIAN_POINT('',(-0.0522680847426222,0.0568318984104078,0.0063));
#1515=CARTESIAN_POINT('',(-0.056958177429986,0.0576589003727313,0.0063));
#1516=CARTESIAN_POINT('',(-0.057907444305226,0.0576589027438824,0.0063));
#1517=CARTESIAN_POINT('',(-0.0664389291690596,0.0576589240544747,0.0063));
#1518=CARTESIAN_POINT('',(-0.0664389216754312,0.0606589240544653,0.0063));
#1519=CARTESIAN_POINT('',(-0.0664389504010066,0.0491589240545012,0.0063));
#1520=CARTESIAN_POINT('',(-0.0619389504010207,0.0491589128140586,0.0063));
#1521=CARTESIAN_POINT('',(-0.0577017095999297,0.0476437262270106,0.0063));
#1522=CARTESIAN_POINT('',(-0.0546294348654986,0.0488933639267383,0.0063));
#1523=CARTESIAN_POINT('',(-0.0515571601310675,0.050143001626466,0.0063));
#1524=CARTESIAN_POINT('',(-0.0528758619742018,0.0533850727930066,0.0063));
#1525=CARTESIAN_POINT('',(-0.0528758619742018,0.0533850727930066,0.0063));
#1526=CARTESIAN_POINT('',(-0.0503758619742018,0.0533850727930066,0.0063));
#1527=CARTESIAN_POINT('',(-0.0619389504010207,0.0491589128140586,0.0063));
#1528=CARTESIAN_POINT('',(-0.0602889504010207,0.0491589128140586,0.0063));
#1529=CARTESIAN_POINT('',(-0.0664389216754312,0.0606589240544653,0.0063));
#1530=CARTESIAN_POINT('',(-0.0664389266711835,0.0586589240544716,0.0117));
#1531=CARTESIAN_POINT('',(-0.0664389266711835,0.0586589240544716,0.0107));
#1532=CARTESIAN_POINT('',(-0.0664389266711835,0.0586589240544716,0.0073));
#1533=CARTESIAN_POINT('',(-0.0664389291690596,0.0576589240544747,0.0107));
#1534=CARTESIAN_POINT('',(-0.0664389291690596,0.0576589240544747,0.0117));
#1535=CARTESIAN_POINT('',(-0.0664389216754312,0.0606589240544653,0.0117));
#1536=CARTESIAN_POINT('',(-0.0664389504010066,0.0491589240545012,0.0117));
#1537=CARTESIAN_POINT('',(-0.0664389504010066,0.0491589240545012,0.018));
#1538=CARTESIAN_POINT('',(-0.0664389504010066,0.0491589240545012,0.018));
#1539=CARTESIAN_POINT('',(-0.0664389216754312,0.0606589240544653,0.018));
#1540=CARTESIAN_POINT('',(-0.0664388317019331,0.096678924054353,0.018));
#1541=CARTESIAN_POINT('',(-0.0664388317019331,0.096678924054353,0.018));
#1542=CARTESIAN_POINT('',(-0.0664388317019331,0.096678924054353,0.0117));
#1543=CARTESIAN_POINT('',(-0.0664389216754312,0.0606589240544653,0.0117));
#1544=CARTESIAN_POINT('',(-0.0664388666722176,0.0826789165607215,0.0117));
#1545=CARTESIAN_POINT('',(-0.0664388666722176,0.0826789165607215,0.0107));
#1546=CARTESIAN_POINT('',(-0.0664388691700938,0.0816789165607246,0.0107));
#1547=CARTESIAN_POINT('',(-0.0664388691700938,0.0816789165607246,0.0117));
#1548=CARTESIAN_POINT('',(-0.0664388691700938,0.0816789165607246,0.0073));
#1549=CARTESIAN_POINT('',(-0.0664388666722176,0.0826789165607215,0.0073));
#1550=CARTESIAN_POINT('',(-0.0664388317019331,0.096678924054353,0.0063));
#1551=CARTESIAN_POINT('',(-0.0664388317019331,0.096678924054353,0.));
#1552=CARTESIAN_POINT('',(-0.0664389216754312,0.0606589240544653,0.));
#1553=CARTESIAN_POINT('',(-0.0664389504010066,0.0491589240545012,0.));
#1554=CARTESIAN_POINT('',(-0.0664389504010066,0.0491589240545012,0.0063));
#1555=CARTESIAN_POINT('',(-0.0664389291690596,0.0576589240544747,0.0073));
#1556=CARTESIAN_POINT('',(-0.066438894148855,0.0716789165607246,0.0117));
#1557=CARTESIAN_POINT('',(-0.066438894148855,0.0716789165607246,0.0107));
#1558=CARTESIAN_POINT('',(-0.066438894148855,0.0716789165607246,0.0073));
#1559=CARTESIAN_POINT('',(-0.0664388966467311,0.0706789165607277,0.0107));
#1560=CARTESIAN_POINT('',(-0.0664388966467311,0.0706789165607277,0.0117));
#1561=CARTESIAN_POINT('',(-0.0664389216754312,0.0606589240544653,0.0117));
#1562=CARTESIAN_POINT('',(-0.0664389141818028,0.063658924054456,0.0117));
#1563=CARTESIAN_POINT('',(-0.0664389141818028,0.063658924054456,0.0107));
#1564=CARTESIAN_POINT('',(-0.066438916679679,0.0626589240544591,0.0107));
#1565=CARTESIAN_POINT('',(-0.066438916679679,0.0626589240544591,0.0117));
#1566=CARTESIAN_POINT('',(-0.066438916679679,0.0626589240544591,0.0073));
#1567=CARTESIAN_POINT('',(-0.0664389141818028,0.063658924054456,0.0073));
#1568=CARTESIAN_POINT('',(-0.0664388966467311,0.0706789165607277,0.0073));
#1569=CARTESIAN_POINT('',(-0.0619389504010207,0.0491589128140586,0.0063));
#1570=CARTESIAN_POINT('',(-0.0619389504010207,0.0491589128140586,0.));
#1571=CARTESIAN_POINT('',(-0.0577017095999297,0.0476437262270106,0.));
#1572=CARTESIAN_POINT('',(-0.0577017095999297,0.0476437262270106,0.0063));
#1573=CARTESIAN_POINT('',(-0.0546294348654986,0.0488933639267383,0.0063));
#1574=CARTESIAN_POINT('',(-0.0546294348654986,0.0488933639267383,0.));
#1575=CARTESIAN_POINT('',(-0.0515571601310675,0.050143001626466,0.));
#1576=CARTESIAN_POINT('',(-0.0515571601310675,0.050143001626466,0.0063));
#1577=CARTESIAN_POINT('',(-0.0528758619742018,0.0533850727930066,0.0063));
#1578=CARTESIAN_POINT('',(-0.0528758619742018,0.0533850727930066,0.));
#1579=CARTESIAN_POINT('',(-0.0522680847426222,0.0568318984104078,0.));
#1580=CARTESIAN_POINT('',(-0.0522680847426222,0.0568318984104078,0.0063));
#1581=CARTESIAN_POINT('',(-0.0548535068499831,0.0572877847433118,0.0063));
#1582=CARTESIAN_POINT('',(-0.0548535068499831,0.0572877847433118,0.));
#1583=CARTESIAN_POINT('',(-0.0570257532281591,0.0576708159832362,0.));
#1584=CARTESIAN_POINT('',(-0.0570257532281591,0.0576708159832362,0.0063));
#1585=CARTESIAN_POINT('',(-0.0570257532281591,0.0576708159832362,0.00630007099139545));
#1586=CARTESIAN_POINT('',(-0.0569581774299859,0.0576589003727313,0.0073));
#1587=CARTESIAN_POINT('',(-0.0574389216754592,0.0606589015735802,0.0063));
#1588=CARTESIAN_POINT('',(-0.0574389216754592,0.0606589015735802,0.018));
#1589=CARTESIAN_POINT('',(-0.0574388317019565,0.096678905320282,0.018));
#1590=CARTESIAN_POINT('',(-0.0574389279093604,0.0581632208918031,0.018));
#1591=CARTESIAN_POINT('',(-0.0574389279093604,0.0581632208918031,0.0063));
#1592=CARTESIAN_POINT('',(-0.0574389279093604,0.0581632208918031,0.0115635172408673));
#1593=CARTESIAN_POINT('',(-0.0574389291690876,0.0576589015735896,0.0107));
#1594=CARTESIAN_POINT('',(-0.0574389266712115,0.0586589015735865,0.0107));
#1595=CARTESIAN_POINT('',(-0.0574389266712115,0.0586589015735865,0.0063));
#1596=CARTESIAN_POINT('',(-0.0574389266712115,0.0586589015735865,0.0167));
#1597=CARTESIAN_POINT('',(-0.057438916679707,0.062658901573574,0.0167));
#1598=CARTESIAN_POINT('',(-0.057438916679707,0.062658901573574,0.0167));
#1599=CARTESIAN_POINT('',(-0.057438916679707,0.062658901573574,0.0063));
#1600=CARTESIAN_POINT('',(-0.057438916679707,0.062658901573574,0.0107));
#1601=CARTESIAN_POINT('',(-0.0574389141818309,0.0636589015735709,0.0107));
#1602=CARTESIAN_POINT('',(-0.0574389141818309,0.0636589015735709,0.0117));
#1603=CARTESIAN_POINT('',(-0.0574389216754592,0.0606589015735802,0.0117));
#1604=CARTESIAN_POINT('',(-0.0574388966467124,0.0706789128139104,0.0117));
#1605=CARTESIAN_POINT('',(-0.0574388966467124,0.0706789128139104,0.0107));
#1606=CARTESIAN_POINT('',(-0.0574388941488269,0.0716789165607246,0.0107));
#1607=CARTESIAN_POINT('',(-0.0574388941488269,0.0716789165607246,0.0117));
#1608=CARTESIAN_POINT('',(-0.0574388941488269,0.0716789165607246,0.0073));
#1609=CARTESIAN_POINT('',(-0.0574388966467124,0.0706789128139104,0.0073));
#1610=CARTESIAN_POINT('',(-0.0574389141818309,0.0636589015735709,0.0073));
#1611=CARTESIAN_POINT('',(-0.057438916679707,0.062658901573574,0.0073));
#1612=CARTESIAN_POINT('',(-0.057438916679707,0.062658901573574,0.0063));
#1613=CARTESIAN_POINT('',(-0.057438916679707,0.062658901573574,0.0013));
#1614=CARTESIAN_POINT('',(-0.0574389216754592,0.0606589015735802,0.0013));
#1615=CARTESIAN_POINT('',(-0.0574389266712115,0.0586589015735865,0.0013));
#1616=CARTESIAN_POINT('',(-0.0574389266712115,0.0586589015735865,0.0063));
#1617=CARTESIAN_POINT('',(-0.0574389266712115,0.0586589015735865,0.0073));
#1618=CARTESIAN_POINT('',(-0.0574389291690876,0.0576589015735896,0.0073));
#1619=CARTESIAN_POINT('',(-0.0574389279093604,0.0581632208918031,0.00643648275913268));
#1620=CARTESIAN_POINT('',(-0.0574389279093604,0.0581632208918031,0.0063));
#1621=CARTESIAN_POINT('',(-0.0574389279093604,0.0581632208918031,0.));
#1622=CARTESIAN_POINT('',(-0.0574389216754592,0.0606589015735802,0.));
#1623=CARTESIAN_POINT('',(-0.0574388317019565,0.096678905320282,0.));
#1624=CARTESIAN_POINT('',(-0.0574388317019565,0.096678905320282,0.0063));
#1625=CARTESIAN_POINT('',(-0.0574388666722457,0.0826788940798363,0.0073));
#1626=CARTESIAN_POINT('',(-0.0574388691701218,0.0816788940798395,0.0073));
#1627=CARTESIAN_POINT('',(-0.0574388691701218,0.0816788940798395,0.0117));
#1628=CARTESIAN_POINT('',(-0.0574388691701218,0.0816788940798395,0.0107));
#1629=CARTESIAN_POINT('',(-0.0574388666722457,0.0826788940798363,0.0107));
#1630=CARTESIAN_POINT('',(-0.0574388666722457,0.0826788940798363,0.0117));
#1631=CARTESIAN_POINT('',(-0.0574389216754592,0.0606589015735802,0.0117));
#1632=CARTESIAN_POINT('',(-0.0574388317019565,0.096678905320282,0.0117));
#1633=CARTESIAN_POINT('',(-0.0574388317019565,0.096678905320282,0.018));
#1634=CARTESIAN_POINT('',(-0.0619388317019472,0.0966789128139104,0.0063));
#1635=CARTESIAN_POINT('',(-0.0619388317019472,0.0966789128139104,-3.44139300437775E-25));
#1636=CARTESIAN_POINT('',(-0.0619388317019472,0.0966789128139104,0.0063));
#1637=CARTESIAN_POINT('',(-0.0619388317019472,0.0966789128139104,0.0016));
#1638=CARTESIAN_POINT('',(-0.0602888317019472,0.0966789128139104,0.0016));
#1639=CARTESIAN_POINT('',(-0.0619389504010207,0.0491589128140586,0.0063));
#1640=CARTESIAN_POINT('',(-0.0619389504010207,0.0491589128140586,0.0016));
#1641=CARTESIAN_POINT('',(-0.0602889504010207,0.0491589128140586,0.0016));
#1642=CARTESIAN_POINT('',(-0.0528758619742018,0.0533850727930066,0.0063));
#1643=CARTESIAN_POINT('',(-0.0528758619742018,0.0533850727930066,0.));
#1644=CARTESIAN_POINT('',(-0.0503758619742018,0.0533850727930066,0.));
#1645=CARTESIAN_POINT('',(-0.0579074061876112,0.0729189128139845,0.));
#1646=CARTESIAN_POINT('',(-0.056938927909362,0.058163219642865,0.));
#1647=CARTESIAN_POINT('',(-0.0619389504010207,0.0491589128140586,0.));
#1648=CARTESIAN_POINT('',(-0.0606889504010207,0.0491589128140586,0.));
#1649=CARTESIAN_POINT('',(-0.0619388317019472,0.0966789128139104,0.));
#1650=CARTESIAN_POINT('',(-0.0606888317019472,0.0966789128139104,0.));
#1651=CARTESIAN_POINT('',(-0.0656888941488573,0.0716789146873175,0.0117));
#1652=CARTESIAN_POINT('',(-0.0649388941488597,0.0716789128139104,0.0117));
#1653=CARTESIAN_POINT('',(-0.0649388941488597,0.0716789128139104,0.0107));
#1654=CARTESIAN_POINT('',(-0.0649388941488597,0.0716789128139104,0.0073));
#1655=CARTESIAN_POINT('',(-0.0656888941488573,0.0716789146873175,0.0107));
#1656=CARTESIAN_POINT('',(-0.0649388941488597,0.0716789128139104,0.0073));
#1657=CARTESIAN_POINT('',(-0.0619388941488503,0.0716789128139104,0.0117));
#1658=CARTESIAN_POINT('',(-0.0649388941488597,0.0716789128139104,0.0107));
#1659=CARTESIAN_POINT('',(-0.0619388941488503,0.0716789128139104,0.0073));
#1660=CARTESIAN_POINT('',(-0.0611888691701101,0.0816789034468749,0.0117));
#1661=CARTESIAN_POINT('',(-0.0664388691700937,0.0816789165607246,0.0073));
#1662=CARTESIAN_POINT('',(-0.0611888691701101,0.0816789034468749,0.0107));
#1663=CARTESIAN_POINT('',(-0.0656889266711858,0.0586589221810645,0.0117));
#1664=CARTESIAN_POINT('',(-0.0524389266712271,0.0586588890842058,0.0013));
#1665=CARTESIAN_POINT('',(-0.056638926671214,0.0586588995752856,0.00401293199325008));
#1666=CARTESIAN_POINT('',(-0.056638926671214,0.0586588995752856,0.0117));
#1667=CARTESIAN_POINT('',(-0.056638926671214,0.0586588995752856,0.0139870680067499));
#1668=CARTESIAN_POINT('',(-0.0524389266712271,0.0586588890842058,0.0167));
#1669=CARTESIAN_POINT('',(-0.0664389266711835,0.0586589240544716,0.0107));
#1670=CARTESIAN_POINT('',(-0.0656889266711858,0.0586589221810645,0.0073));
#1671=CARTESIAN_POINT('',(-0.0561389216754633,0.0606588983263412,0.0117));
#1672=CARTESIAN_POINT('',(-0.0561389216754633,0.0606588983263412,0.0131489438190871));
#1673=CARTESIAN_POINT('',(-0.0561389179286491,0.0621588983263366,0.0131489438190871));
#1674=CARTESIAN_POINT('',(-0.0561389254222775,0.0591588983263459,0.0131489438190871));
#1675=CARTESIAN_POINT('',(-0.0561389254222775,0.0591588983263459,0.0117));
#1676=CARTESIAN_POINT('',(-0.0561389254222775,0.0591588983263459,0.00485105618091292));
#1677=CARTESIAN_POINT('',(-0.0561389216754633,0.0606588983263412,0.00485105618091292));
#1678=CARTESIAN_POINT('',(-0.0561389179286491,0.0621588983263366,0.00485105618091292));
#1679=CARTESIAN_POINT('',(-0.0561389179286491,0.0621588983263366,0.0117));
#1680=CARTESIAN_POINT('',(-0.0581889166797047,0.0626589034469811,0.0117));
#1681=CARTESIAN_POINT('',(-0.0524389166797226,0.0626588890841933,0.0167));
#1682=CARTESIAN_POINT('',(-0.0566389166797095,0.0626588995752731,0.0139870680067499));
#1683=CARTESIAN_POINT('',(-0.0566389166797095,0.0626588995752731,0.0117));
#1684=CARTESIAN_POINT('',(-0.0566389166797095,0.0626588995752731,0.00401293199325008));
#1685=CARTESIAN_POINT('',(-0.0524389166797226,0.0626588890841933,0.0013));
#1686=CARTESIAN_POINT('',(-0.0581889166797047,0.0626589034469811,0.0073));
#1687=CARTESIAN_POINT('',(-0.057438916679707,0.062658901573574,0.0107));
#1688=CARTESIAN_POINT('',(-0.0579074061876112,0.0729189128139845,0.0117));
#1689=CARTESIAN_POINT('',(-0.0579074117828976,0.0706788952501354,0.0117));
#1690=CARTESIAN_POINT('',(-0.0649388966467358,0.0706789128139104,0.0117));
#1691=CARTESIAN_POINT('',(-0.0574388941488363,0.0706789128139104,0.0117));
#1692=CARTESIAN_POINT('',(-0.0664389141818028,0.063658924054456,0.0117));
#1693=CARTESIAN_POINT('',(-0.0579074061876112,0.0729189128139845,0.0117));
#1694=CARTESIAN_POINT('',(-0.0619389504010207,0.0491589128140586,0.0117));
#1695=CARTESIAN_POINT('',(-0.0602889504010207,0.0491589128140586,0.0117));
#1696=CARTESIAN_POINT('',(-0.0528758619742018,0.0533850727930066,0.0117));
#1697=CARTESIAN_POINT('',(-0.0503758619742018,0.0533850727930066,0.0117));
#1698=CARTESIAN_POINT('',(-0.0574389291690876,0.0576589015735896,0.0117));
#1699=CARTESIAN_POINT('',(-0.056958177429986,0.0576589003727313,0.0117));
#1700=CARTESIAN_POINT('',(-0.0548535068499831,0.0572877847433118,0.0117));
#1701=CARTESIAN_POINT('',(-0.0522680847426222,0.0568318984104078,0.0117));
#1702=CARTESIAN_POINT('',(-0.0528758619742018,0.0533850727930066,0.0117));
#1703=CARTESIAN_POINT('',(-0.0515571601310675,0.050143001626466,0.0117));
#1704=CARTESIAN_POINT('',(-0.0546294348654986,0.0488933639267383,0.0117));
#1705=CARTESIAN_POINT('',(-0.0577017095999297,0.0476437262270106,0.0117));
#1706=CARTESIAN_POINT('',(-0.0619389504010207,0.0491589128140586,0.0117));
#1707=CARTESIAN_POINT('',(-0.0579074061876112,0.0729189128139845,0.0117));
#1708=CARTESIAN_POINT('',(-0.0579073818083841,0.0826788952501291,0.0117));
#1709=CARTESIAN_POINT('',(-0.0619388317019472,0.0966789128139104,0.0117));
#1710=CARTESIAN_POINT('',(-0.0619388317019472,0.0966789128139104,0.0117));
#1711=CARTESIAN_POINT('',(-0.0602888317019472,0.0966789128139104,0.0117));
#1712=CARTESIAN_POINT('',(-0.0619389504010207,0.0491589128140586,0.018));
#1713=CARTESIAN_POINT('',(-0.0577017095999297,0.0476437262270106,0.018));
#1714=CARTESIAN_POINT('',(-0.0577017095999297,0.0476437262270106,0.018));
#1715=CARTESIAN_POINT('',(-0.0619389504010207,0.0491589128140586,0.018));
#1716=CARTESIAN_POINT('',(-0.0546294348654986,0.0488933639267383,0.018));
#1717=CARTESIAN_POINT('',(-0.0515571601310675,0.050143001626466,0.018));
#1718=CARTESIAN_POINT('',(-0.0515571601310675,0.050143001626466,0.018));
#1719=CARTESIAN_POINT('',(-0.0546294348654986,0.0488933639267383,0.018));
#1720=CARTESIAN_POINT('',(-0.0528758619742018,0.0533850727930066,0.018));
#1721=CARTESIAN_POINT('',(-0.0522680847426222,0.0568318984104078,0.018));
#1722=CARTESIAN_POINT('',(-0.0522680847426222,0.0568318984104078,0.018));
#1723=CARTESIAN_POINT('',(-0.0528758619742018,0.0533850727930066,0.018));
#1724=CARTESIAN_POINT('',(-0.0548535068499831,0.0572877847433118,0.018));
#1725=CARTESIAN_POINT('',(-0.056958177429986,0.0576589003727313,0.0107));
#1726=CARTESIAN_POINT('',(-0.0570257532281591,0.0576708159832362,0.0116999290086045));
#1727=CARTESIAN_POINT('',(-0.0570257532281591,0.0576708159832362,0.018));
#1728=CARTESIAN_POINT('',(-0.0570257532281591,0.0576708159832362,0.018));
#1729=CARTESIAN_POINT('',(-0.0548535068499831,0.0572877847433118,0.018));
#1730=CARTESIAN_POINT('',(-0.0619389504010207,0.0491589128140586,0.018));
#1731=CARTESIAN_POINT('',(-0.0619389504010207,0.0491589128140586,0.0174));
#1732=CARTESIAN_POINT('',(-0.0602889504010207,0.0491589128140586,0.0174));
#1733=CARTESIAN_POINT('',(-0.0619388317019472,0.0966789128139104,0.018));
#1734=CARTESIAN_POINT('',(-0.0619388317019472,0.0966789128139104,0.018));
#1735=CARTESIAN_POINT('',(-0.0619388317019472,0.0966789128139104,0.018));
#1736=CARTESIAN_POINT('',(-0.0619388317019472,0.0966789128139104,0.0174));
#1737=CARTESIAN_POINT('',(-0.0602888317019472,0.0966789128139104,0.0174));
#1738=CARTESIAN_POINT('',(-0.0528758619742018,0.0533850727930066,0.018));
#1739=CARTESIAN_POINT('',(-0.0528758619742018,0.0533850727930066,0.018));
#1740=CARTESIAN_POINT('',(-0.0503758619742018,0.0533850727930066,0.018));
#1741=CARTESIAN_POINT('',(-0.0579074061876112,0.0729189128139845,0.018));
#1742=CARTESIAN_POINT('',(-0.0619389504010207,0.0491589128140586,0.018));
#1743=CARTESIAN_POINT('',(-0.0596889504010207,0.0491589128140586,0.018));
#1744=CARTESIAN_POINT('',(-0.0619388317019472,0.0966789128139104,0.018));
#1745=CARTESIAN_POINT('',(-0.0596888317019472,0.0966789128139104,0.018));
#1746=CARTESIAN_POINT('',(-0.056938927909362,0.058163219642865,0.018));
#1747=CARTESIAN_POINT('',(-0.0524389216754748,0.0606588890841996,0.0013));
#1748=CARTESIAN_POINT('',(-0.0562571034936448,0.0606588986215448,0.00452823289173902));
#1749=CARTESIAN_POINT('',(-0.056257098940458,0.062481721910713,0.00452823289173902));
#1750=CARTESIAN_POINT('',(-0.0562571080468315,0.0588360753323766,0.00452823289173902));
#1751=CARTESIAN_POINT('',(-0.0562571080468315,0.0588360753323766,0.00452823289173902));
#1752=CARTESIAN_POINT('',(-0.0563746283439316,0.0586970792923144,0.00438923655812611));
#1753=CARTESIAN_POINT('',(-0.0565157909546728,0.0586588992677078,0.00420356338790411));
#1754=CARTESIAN_POINT('',(-0.056638926671214,0.0586588995752856,0.00401293199325008));
#1755=CARTESIAN_POINT('',(-0.0566389166797095,0.0626588995752731,0.00401293199325009));
#1756=CARTESIAN_POINT('',(-0.0565157167824389,0.062658899267535,0.00420366274869317));
#1757=CARTESIAN_POINT('',(-0.0563748184524621,0.0626209549811341,0.00438900011536715));
#1758=CARTESIAN_POINT('',(-0.056257098940458,0.062481721910713,0.00452823289173902));
#1759=CARTESIAN_POINT('',(-0.0524388910514884,0.0729188991543111,0.0167));
#1760=CARTESIAN_POINT('',(-0.056638926671214,0.0586588995752856,0.0139870680067499));
#1761=CARTESIAN_POINT('',(-0.0565157267739434,0.0586588992675475,0.0137963372513069));
#1762=CARTESIAN_POINT('',(-0.0563748282544082,0.0586968428500548,0.0136109998846329));
#1763=CARTESIAN_POINT('',(-0.0562571080468316,0.0588360753323766,0.013471767108261));
#1764=CARTESIAN_POINT('',(-0.0562571080468316,0.0588360753323766,0.013471767108261));
#1765=CARTESIAN_POINT('',(-0.0562570728696583,0.0729189086916563,0.013471767108261));
#1766=CARTESIAN_POINT('',(-0.056257098940458,0.062481721910713,0.013471767108261));
#1767=CARTESIAN_POINT('',(-0.056257098940458,0.062481721910713,0.013471767108261));
#1768=CARTESIAN_POINT('',(-0.0563746185431669,0.0626207185378757,0.0136107634418739));
#1769=CARTESIAN_POINT('',(-0.0565157809631683,0.0626588992676953,0.0137964366120959));
#1770=CARTESIAN_POINT('',(-0.0566389166797095,0.0626588995752731,0.0139870680067499));
#1771=CARTESIAN_POINT('',(-0.0579073818083841,0.0826788952501291,0.0073));
#1772=CARTESIAN_POINT('',(-0.061188866672234,0.0826789034468718,0.0107));
#1773=CARTESIAN_POINT('',(-0.0579074061876112,0.0706789128139104,0.0107));
#1774=CARTESIAN_POINT('',(-0.0649388941488597,0.0706789128139104,0.0107));
#1775=CARTESIAN_POINT('',(-0.0656888966467335,0.0706789146873206,0.0107));
#1776=CARTESIAN_POINT('',(-0.0619388941488503,0.0706789128139104,0.0073));
#1777=CARTESIAN_POINT('',(-0.0649388966467358,0.0706789128139104,0.0073));
#1778=CARTESIAN_POINT('',(-0.0579074117828976,0.0706788952501354,0.0073));
#1779=CARTESIAN_POINT('',(-0.0656889291690619,0.0576589221810676,0.0073));
#1780=CARTESIAN_POINT('',(-0.0570257532281591,0.0576708159832362,0.00630007099139545));
#1781=CARTESIAN_POINT('',(-0.0572645377531927,0.0577129207525742,0.00630057271683134));
#1782=CARTESIAN_POINT('',(-0.0574389284322005,0.0579539070247498,0.0063142373403619));
#1783=CARTESIAN_POINT('',(-0.0574389279093604,0.0581632208918031,0.00643648275913268));
#1784=CARTESIAN_POINT('',(-0.057907444305226,0.0576589027438824,0.0107));
#1785=CARTESIAN_POINT('',(-0.0574389279093604,0.0581632208918031,0.0115635172408673));
#1786=CARTESIAN_POINT('',(-0.0574389284318188,0.0579540598501408,0.0116856734051411));
#1787=CARTESIAN_POINT('',(-0.0572645346420075,0.0577129202039803,0.0116994272897058));
#1788=CARTESIAN_POINT('',(-0.0570257532281591,0.0576708159832362,0.0116999290086045));
#1789=CARTESIAN_POINT('',(-0.0581889141818285,0.063658903446978,0.0073));
#1790=CARTESIAN_POINT('',(-0.0579074293179693,0.0636589027438636,0.0107));
#1791=CARTESIAN_POINT('',(-0.0566388910514753,0.0729189096453908,0.0131489438190871));
#1792=CARTESIAN_POINT('',(-0.0566389179286476,0.0621588995752746,0.0131489438190871));
#1793=CARTESIAN_POINT('',(-0.0566389254222759,0.059158899575284,0.0131489438190871));
#1794=CARTESIAN_POINT('',(-0.0566389254222759,0.059158899575284,0.0117));
#1795=CARTESIAN_POINT('',(-0.0566389254222759,0.059158899575284,0.00485105618091292));
#1796=CARTESIAN_POINT('',(-0.0566389179286476,0.0621588995752746,0.0117));
#1797=CARTESIAN_POINT('',(-0.0566389179286476,0.0621588995752746,0.00485105618091292));
#1798=CARTESIAN_POINT('',(-0.0566389216754617,0.0606588995752793,0.00485105618091292));
#1799=CARTESIAN_POINT('',(-0.056938927909362,0.058163219642865,0.0063));
#1800=CARTESIAN_POINT('',(-0.056938927909362,0.058163219642865,0.0063));
#1801=CARTESIAN_POINT('',(-0.0619389504010207,0.0491589128140586,0.001));
#1802=CARTESIAN_POINT('',(-0.0619389504010207,0.0491589128140586,0.00103431457505076));
#1803=CARTESIAN_POINT('',(-0.0631889504010207,0.0491589128140586,0.00103431457505076));
#1804=CARTESIAN_POINT('',(-0.0619388317019472,0.0966789128139104,0.001));
#1805=CARTESIAN_POINT('',(-0.0619388317019472,0.0966789128139104,0.00103431457505076));
#1806=CARTESIAN_POINT('',(-0.0631888317019472,0.0966789128139104,0.00103431457505076));
#1807=CARTESIAN_POINT('',(-0.0619389504010207,0.0491589128140586,0.0174));
#1808=CARTESIAN_POINT('',(-0.0619388317019472,0.0966789128139104,0.0174));
#1809=CARTESIAN_POINT('',(-0.0619388317019472,0.0966789128139104,0.0016));
#1810=CARTESIAN_POINT('',(-0.0619389504010207,0.0491589128140586,0.0016));
#1811=MECHANICAL_DESIGN_GEOMETRIC_PRESENTATION_REPRESENTATION('',(#1048),
#1812);
#1812=(
GEOMETRIC_REPRESENTATION_CONTEXT(3)
GLOBAL_UNCERTAINTY_ASSIGNED_CONTEXT((#1813))
GLOBAL_UNIT_ASSIGNED_CONTEXT((#1816,#1815,#1814))
REPRESENTATION_CONTEXT('left_link_outside','TOP_LEVEL_ASSEMBLY_PART')
);
#1813=UNCERTAINTY_MEASURE_WITH_UNIT(LENGTH_MEASURE(2.E-5),#1816,
'DISTANCE_ACCURACY_VALUE','Maximum Tolerance applied to model');
#1814=(
NAMED_UNIT(*)
SI_UNIT($,.STERADIAN.)
SOLID_ANGLE_UNIT()
);
#1815=(
NAMED_UNIT(*)
PLANE_ANGLE_UNIT()
SI_UNIT($,.RADIAN.)
);
#1816=(
LENGTH_UNIT()
NAMED_UNIT(*)
SI_UNIT($,.METRE.)
);
#1817=PRODUCT_DEFINITION_SHAPE('','',#1818);
#1818=PRODUCT_DEFINITION('','',#1820,#1819);
#1819=PRODUCT_DEFINITION_CONTEXT('',#1826,'design');
#1820=PRODUCT_DEFINITION_FORMATION_WITH_SPECIFIED_SOURCE('','',#1822,
 .NOT_KNOWN.);
#1821=PRODUCT_RELATED_PRODUCT_CATEGORY('','',(#1822));
#1822=PRODUCT('left_link_outside','left_link_outside',
'left_link_outside',(#1824));
#1823=PRODUCT_CATEGORY('','');
#1824=PRODUCT_CONTEXT('',#1826,'mechanical');
#1825=APPLICATION_PROTOCOL_DEFINITION('international standard',
'ap242_managed_model_based_3d_engineering',2020,#1826);
#1826=APPLICATION_CONTEXT('managed model based 3d engineering');
ENDSEC;
END-ISO-10303-21;
